<?xml version="1.0" encoding="UTF-8" standalone="no"?>
<!DOCTYPE svg PUBLIC "-//W3C//DTD SVG 1.1//EN"
 "http://www.w3.org/Graphics/SVG/1.1/DTD/svg11.dtd">
<!-- Generated by graphviz version 2.43.0 (0)
 -->
<!-- Title: Config::readConfigOptions Pages: 1 -->
<svg width="481pt" height="204pt"
 viewBox="0.00 0.00 481.00 204.37" xmlns="http://www.w3.org/2000/svg" xmlns:xlink="http://www.w3.org/1999/xlink">
<g id="graph0" class="graph" transform="scale(1 1) rotate(0) translate(4 200.37)">
<title>Config::readConfigOptions</title>
<polygon fill="white" stroke="transparent" points="-4,4 -4,-200.37 477,-200.37 477,4 -4,4"/>
<!-- Node1 -->
<g id="node1" class="node">
<title>Node1</title>
<g id="a_node1"><a xlink:title="Parses the config file and stores options and values.">
<polygon fill="#bfbfbf" stroke="black" points="0,-95.5 0,-114.5 145,-114.5 145,-95.5 0,-95.5"/>
<text text-anchor="middle" x="72.5" y="-102.5" font-family="Helvetica,sans-Serif" font-size="10.00">Config::readConfigOptions</text>
</a>
</g>
</g>
<!-- Node2 -->
<g id="node2" class="node">
<title>Node2</title>
<g id="a_node2"><a xlink:href="namespaceswexhtml#ad962c13147a198364f993657b930b3d8" target="_top" xlink:title="Returns the enumerator related to the option string within the given map.">
<polygon fill="white" stroke="black" points="193,-152.5 193,-171.5 324,-171.5 324,-152.5 193,-152.5"/>
<text text-anchor="middle" x="258.5" y="-159.5" font-family="Helvetica,sans-Serif" font-size="10.00">swe::getEnumFromMap</text>
</a>
</g>
</g>
<!-- Node1&#45;&gt;Node2 -->
<g id="edge1" class="edge">
<title>Node1&#45;&gt;Node2</title>
<path fill="none" stroke="midnightblue" d="M98.47,-114.6C120.11,-122.73 152.37,-134.41 181,-143 189.1,-145.43 197.75,-147.8 206.21,-149.99"/>
<polygon fill="midnightblue" stroke="midnightblue" points="205.46,-153.41 216.01,-152.47 207.18,-146.62 205.46,-153.41"/>
</g>
<!-- Node3 -->
<g id="node3" class="node">
<title>Node3</title>
<g id="a_node3"><a xlink:href="namespaceswexhtml#aca666e377868955898f5bc54f97d8075" target="_top" xlink:title="Prints an error message and exit the program.">
<polygon fill="white" stroke="black" points="378.5,-114.5 378.5,-133.5 466.5,-133.5 466.5,-114.5 378.5,-114.5"/>
<text text-anchor="middle" x="422.5" y="-121.5" font-family="Helvetica,sans-Serif" font-size="10.00">swe::printError</text>
</a>
</g>
</g>
<!-- Node1&#45;&gt;Node3 -->
<g id="edge19" class="edge">
<title>Node1&#45;&gt;Node3</title>
<path fill="none" stroke="midnightblue" d="M82.73,-114.65C100.03,-131.98 139.39,-167.78 181,-181 246.65,-201.86 270.07,-200.96 336,-181 362.17,-173.08 387.66,-154.21 403.89,-140.34"/>
<polygon fill="midnightblue" stroke="midnightblue" points="406.31,-142.87 411.49,-133.63 401.68,-137.62 406.31,-142.87"/>
</g>
<!-- Node4 -->
<g id="node4" class="node">
<title>Node4</title>
<g id="a_node4"><a xlink:href="namespaceswexhtml#a8c1ec9326b8b65ca0b13b58db66b22af" target="_top" xlink:title="Returns the selected double option. If it is mandatory, returns the defaultValue if the option is not...">
<polygon fill="white" stroke="black" points="196,-114.5 196,-133.5 321,-133.5 321,-114.5 196,-114.5"/>
<text text-anchor="middle" x="258.5" y="-121.5" font-family="Helvetica,sans-Serif" font-size="10.00">swe::getOptionDouble</text>
</a>
</g>
</g>
<!-- Node1&#45;&gt;Node4 -->
<g id="edge3" class="edge">
<title>Node1&#45;&gt;Node4</title>
<path fill="none" stroke="midnightblue" d="M145.17,-112.4C158.51,-113.78 172.46,-115.22 185.81,-116.6"/>
<polygon fill="midnightblue" stroke="midnightblue" points="185.58,-120.09 195.88,-117.64 186.3,-113.13 185.58,-120.09"/>
</g>
<!-- Node7 -->
<g id="node7" class="node">
<title>Node7</title>
<g id="a_node7"><a xlink:href="namespaceswexhtml#a9328d9e8020926fcc4a0b36b200a0951" target="_top" xlink:title="Returns the selected integer option. If it is mandatory, returns the defaultValue if the option is no...">
<polygon fill="white" stroke="black" points="196,-76.5 196,-95.5 321,-95.5 321,-76.5 196,-76.5"/>
<text text-anchor="middle" x="258.5" y="-83.5" font-family="Helvetica,sans-Serif" font-size="10.00">swe::getOptionInteger</text>
</a>
</g>
</g>
<!-- Node1&#45;&gt;Node7 -->
<g id="edge7" class="edge">
<title>Node1&#45;&gt;Node7</title>
<path fill="none" stroke="midnightblue" d="M145.17,-97.6C158.51,-96.22 172.46,-94.78 185.81,-93.4"/>
<polygon fill="midnightblue" stroke="midnightblue" points="186.3,-96.87 195.88,-92.36 185.58,-89.91 186.3,-96.87"/>
</g>
<!-- Node8 -->
<g id="node8" class="node">
<title>Node8</title>
<g id="a_node8"><a xlink:href="namespaceswexhtml#a7b988c6641ac2c6971a03a7fdc6ce6ae" target="_top" xlink:title="Returns the selected string option among the possible contained in the list.">
<polygon fill="white" stroke="black" points="199,-0.5 199,-19.5 318,-19.5 318,-0.5 199,-0.5"/>
<text text-anchor="middle" x="258.5" y="-7.5" font-family="Helvetica,sans-Serif" font-size="10.00">swe::getOptionString</text>
</a>
</g>
</g>
<!-- Node1&#45;&gt;Node8 -->
<g id="edge11" class="edge">
<title>Node1&#45;&gt;Node8</title>
<path fill="none" stroke="midnightblue" d="M84.25,-95.29C102.69,-79.14 142.14,-46.79 181,-29 186.34,-26.55 192.04,-24.39 197.83,-22.49"/>
<polygon fill="midnightblue" stroke="midnightblue" points="199.05,-25.78 207.61,-19.53 197.02,-19.08 199.05,-25.78"/>
</g>
<!-- Node10 -->
<g id="node10" class="node">
<title>Node10</title>
<g id="a_node10"><a xlink:href="namespaceswexhtml#a801c180cde1b3d593380f77138323f35" target="_top" xlink:title="Returns the vector of strings option.">
<polygon fill="white" stroke="black" points="181,-38.5 181,-57.5 336,-57.5 336,-38.5 181,-38.5"/>
<text text-anchor="middle" x="258.5" y="-45.5" font-family="Helvetica,sans-Serif" font-size="10.00">swe::getOptionVectorStrings</text>
</a>
</g>
</g>
<!-- Node1&#45;&gt;Node10 -->
<g id="edge15" class="edge">
<title>Node1&#45;&gt;Node10</title>
<path fill="none" stroke="midnightblue" d="M98.47,-95.4C120.11,-87.27 152.37,-75.59 181,-67 189.1,-64.57 197.75,-62.2 206.21,-60.01"/>
<polygon fill="midnightblue" stroke="midnightblue" points="207.18,-63.38 216.01,-57.53 205.46,-56.59 207.18,-63.38"/>
</g>
<!-- Node2&#45;&gt;Node3 -->
<g id="edge2" class="edge">
<title>Node2&#45;&gt;Node3</title>
<path fill="none" stroke="midnightblue" d="M300.38,-152.41C321.85,-147.37 348.36,-141.16 371.1,-135.82"/>
<polygon fill="midnightblue" stroke="midnightblue" points="371.98,-139.21 380.91,-133.52 370.38,-132.4 371.98,-139.21"/>
</g>
<!-- Node4&#45;&gt;Node3 -->
<g id="edge6" class="edge">
<title>Node4&#45;&gt;Node3</title>
<path fill="none" stroke="midnightblue" d="M321.21,-124C336.61,-124 353,-124 367.97,-124"/>
<polygon fill="midnightblue" stroke="midnightblue" points="368.08,-127.5 378.08,-124 368.08,-120.5 368.08,-127.5"/>
</g>
<!-- Node5 -->
<g id="node5" class="node">
<title>Node5</title>
<g id="a_node5"><a xlink:href="namespaceswexhtml#ad16a86c30855f6cf6015555ed0148dcc" target="_top" xlink:title="Returns the line of fileName in which keyword is found.">
<polygon fill="white" stroke="black" points="384,-38.5 384,-57.5 461,-57.5 461,-38.5 384,-38.5"/>
<text text-anchor="middle" x="422.5" y="-45.5" font-family="Helvetica,sans-Serif" font-size="10.00">swe::jumpTo</text>
</a>
</g>
</g>
<!-- Node4&#45;&gt;Node5 -->
<g id="edge4" class="edge">
<title>Node4&#45;&gt;Node5</title>
<path fill="none" stroke="midnightblue" d="M314.5,-114.4C322,-111.94 329.38,-108.86 336,-105 356.1,-93.28 352.66,-79.93 372,-67 374.88,-65.07 377.98,-63.3 381.18,-61.68"/>
<polygon fill="midnightblue" stroke="midnightblue" points="382.69,-64.84 390.34,-57.52 379.79,-58.47 382.69,-64.84"/>
</g>
<!-- Node6 -->
<g id="node6" class="node">
<title>Node6</title>
<g id="a_node6"><a xlink:href="namespaceswexhtml#a028619a1d8fcc5fbce7253f26597b388" target="_top" xlink:title="Prints a message when a default option is used.">
<polygon fill="white" stroke="black" points="372,-76.5 372,-95.5 473,-95.5 473,-76.5 372,-76.5"/>
<text text-anchor="middle" x="422.5" y="-83.5" font-family="Helvetica,sans-Serif" font-size="10.00">swe::printDefault</text>
</a>
</g>
</g>
<!-- Node4&#45;&gt;Node6 -->
<g id="edge5" class="edge">
<title>Node4&#45;&gt;Node6</title>
<path fill="none" stroke="midnightblue" d="M300.38,-114.41C321.85,-109.37 348.36,-103.16 371.1,-97.82"/>
<polygon fill="midnightblue" stroke="midnightblue" points="371.98,-101.21 380.91,-95.52 370.38,-94.4 371.98,-101.21"/>
</g>
<!-- Node7&#45;&gt;Node3 -->
<g id="edge10" class="edge">
<title>Node7&#45;&gt;Node3</title>
<path fill="none" stroke="midnightblue" d="M300.38,-95.59C321.85,-100.63 348.36,-106.84 371.1,-112.18"/>
<polygon fill="midnightblue" stroke="midnightblue" points="370.38,-115.6 380.91,-114.48 371.98,-108.79 370.38,-115.6"/>
</g>
<!-- Node7&#45;&gt;Node5 -->
<g id="edge8" class="edge">
<title>Node7&#45;&gt;Node5</title>
<path fill="none" stroke="midnightblue" d="M300.38,-76.41C322.75,-71.16 350.59,-64.63 373.93,-59.16"/>
<polygon fill="midnightblue" stroke="midnightblue" points="375.03,-62.5 383.96,-56.8 373.43,-55.68 375.03,-62.5"/>
</g>
<!-- Node7&#45;&gt;Node6 -->
<g id="edge9" class="edge">
<title>Node7&#45;&gt;Node6</title>
<path fill="none" stroke="midnightblue" d="M321.21,-86C334.4,-86 348.32,-86 361.45,-86"/>
<polygon fill="midnightblue" stroke="midnightblue" points="361.78,-89.5 371.78,-86 361.78,-82.5 361.78,-89.5"/>
</g>
<!-- Node8&#45;&gt;Node5 -->
<g id="edge12" class="edge">
<title>Node8&#45;&gt;Node5</title>
<path fill="none" stroke="midnightblue" d="M300.38,-19.59C322.75,-24.84 350.59,-31.37 373.93,-36.84"/>
<polygon fill="midnightblue" stroke="midnightblue" points="373.43,-40.32 383.96,-39.2 375.03,-33.5 373.43,-40.32"/>
</g>
<!-- Node8&#45;&gt;Node6 -->
<g id="edge13" class="edge">
<title>Node8&#45;&gt;Node6</title>
<path fill="none" stroke="midnightblue" d="M314.5,-19.6C322,-22.06 329.38,-25.14 336,-29 356.1,-40.72 352.66,-54.07 372,-67 374.88,-68.93 377.98,-70.7 381.18,-72.32"/>
<polygon fill="midnightblue" stroke="midnightblue" points="379.79,-75.53 390.34,-76.48 382.69,-69.16 379.79,-75.53"/>
</g>
<!-- Node9 -->
<g id="node9" class="node">
<title>Node9</title>
<g id="a_node9"><a xlink:href="namespaceswexhtml#a6433aaafee87e52ab9cbcc3ab911961a" target="_top" xlink:title="Trims spaces in a string.">
<polygon fill="white" stroke="black" points="391.5,-0.5 391.5,-19.5 453.5,-19.5 453.5,-0.5 391.5,-0.5"/>
<text text-anchor="middle" x="422.5" y="-7.5" font-family="Helvetica,sans-Serif" font-size="10.00">swe::trim</text>
</a>
</g>
</g>
<!-- Node8&#45;&gt;Node9 -->
<g id="edge14" class="edge">
<title>Node8&#45;&gt;Node9</title>
<path fill="none" stroke="midnightblue" d="M318.44,-10C339.36,-10 362.4,-10 381.38,-10"/>
<polygon fill="midnightblue" stroke="midnightblue" points="381.47,-13.5 391.47,-10 381.47,-6.5 381.47,-13.5"/>
</g>
<!-- Node10&#45;&gt;Node3 -->
<g id="edge17" class="edge">
<title>Node10&#45;&gt;Node3</title>
<path fill="none" stroke="midnightblue" d="M314.5,-57.6C322,-60.06 329.38,-63.14 336,-67 356.1,-78.72 352.66,-92.07 372,-105 374.88,-106.93 377.98,-108.7 381.18,-110.32"/>
<polygon fill="midnightblue" stroke="midnightblue" points="379.79,-113.53 390.34,-114.48 382.69,-107.16 379.79,-113.53"/>
</g>
<!-- Node10&#45;&gt;Node5 -->
<g id="edge16" class="edge">
<title>Node10&#45;&gt;Node5</title>
<path fill="none" stroke="midnightblue" d="M336.23,-48C349.01,-48 361.93,-48 373.71,-48"/>
<polygon fill="midnightblue" stroke="midnightblue" points="373.74,-51.5 383.74,-48 373.74,-44.5 373.74,-51.5"/>
</g>
<!-- Node10&#45;&gt;Node9 -->
<g id="edge18" class="edge">
<title>Node10&#45;&gt;Node9</title>
<path fill="none" stroke="midnightblue" d="M300.38,-38.41C325.26,-32.58 356.89,-25.15 381.59,-19.36"/>
<polygon fill="midnightblue" stroke="midnightblue" points="382.44,-22.76 391.37,-17.07 380.84,-15.94 382.44,-22.76"/>
</g>
</g>
</svg>
