<?xml version="1.0" encoding="UTF-8" standalone="no"?>
<!DOCTYPE svg PUBLIC "-//W3C//DTD SVG 1.1//EN"
 "http://www.w3.org/Graphics/SVG/1.1/DTD/svg11.dtd">
<!-- Generated by graphviz version 2.43.0 (0)
 -->
<!-- Title: Solution Pages: 1 -->
<svg width="134pt" height="281pt"
 viewBox="0.00 0.00 134.00 281.00" xmlns="http://www.w3.org/2000/svg" xmlns:xlink="http://www.w3.org/1999/xlink">
<g id="graph0" class="graph" transform="scale(1 1) rotate(0) translate(4 277)">
<title>Solution</title>
<polygon fill="white" stroke="transparent" points="-4,4 -4,-277 130,-277 130,4 -4,4"/>
<!-- Node1 -->
<g id="node1" class="node">
<title>Node1</title>
<g id="a_node1"><a xlink:title="Class Solution defines the structure of the solution container.">
<polygon fill="#bfbfbf" stroke="black" points="0,-0.5 0,-156.5 126,-156.5 126,-0.5 0,-0.5"/>
<text text-anchor="middle" x="63" y="-144.5" font-family="Helvetica,sans-Serif" font-size="10.00">Solution</text>
<polyline fill="none" stroke="black" points="0,-137.5 126,-137.5 "/>
<text text-anchor="middle" x="63" y="-125.5" font-family="Helvetica,sans-Serif" font-size="10.00"> </text>
<polyline fill="none" stroke="black" points="0,-118.5 126,-118.5 "/>
<text text-anchor="start" x="8" y="-106.5" font-family="Helvetica,sans-Serif" font-size="10.00">+ Solution()</text>
<text text-anchor="start" x="8" y="-95.5" font-family="Helvetica,sans-Serif" font-size="10.00">+ Solution()</text>
<text text-anchor="start" x="8" y="-84.5" font-family="Helvetica,sans-Serif" font-size="10.00">+ ~Solution()</text>
<text text-anchor="start" x="8" y="-73.5" font-family="Helvetica,sans-Serif" font-size="10.00">+ conservative1()</text>
<text text-anchor="start" x="8" y="-62.5" font-family="Helvetica,sans-Serif" font-size="10.00">+ conservative2()</text>
<text text-anchor="start" x="8" y="-51.5" font-family="Helvetica,sans-Serif" font-size="10.00">+ conservative3()</text>
<text text-anchor="start" x="8" y="-40.5" font-family="Helvetica,sans-Serif" font-size="10.00">+ primitive1()</text>
<text text-anchor="start" x="8" y="-29.5" font-family="Helvetica,sans-Serif" font-size="10.00">+ primitive2()</text>
<text text-anchor="start" x="8" y="-18.5" font-family="Helvetica,sans-Serif" font-size="10.00">+ primitive3()</text>
<text text-anchor="start" x="8" y="-7.5" font-family="Helvetica,sans-Serif" font-size="10.00">&#45; initSolutionOnMesh()</text>
</a>
</g>
</g>
<!-- Node2 -->
<g id="node2" class="node">
<title>Node2</title>
<g id="a_node2"><a xlink:title=" ">
<polygon fill="white" stroke="#bfbfbf" points="9,-215.5 9,-272.5 59,-272.5 59,-215.5 9,-215.5"/>
<text text-anchor="middle" x="34" y="-260.5" font-family="Helvetica,sans-Serif" font-size="10.00">double</text>
<polyline fill="none" stroke="#bfbfbf" points="9,-253.5 59,-253.5 "/>
<text text-anchor="middle" x="34" y="-241.5" font-family="Helvetica,sans-Serif" font-size="10.00"> </text>
<polyline fill="none" stroke="#bfbfbf" points="9,-234.5 59,-234.5 "/>
<text text-anchor="middle" x="34" y="-222.5" font-family="Helvetica,sans-Serif" font-size="10.00"> </text>
</a>
</g>
</g>
<!-- Node2&#45;&gt;Node1 -->
<g id="edge1" class="edge">
<title>Node2&#45;&gt;Node1</title>
<path fill="none" stroke="#404040" d="M36.06,-215.43C37.18,-203.03 38.8,-188.23 41,-175 41.34,-172.95 41.7,-170.88 42.07,-168.8"/>
<polygon fill="none" stroke="#404040" points="42.12,-168.53 39.31,-161.89 44.35,-156.74 47.17,-163.38 42.12,-168.53"/>
<text text-anchor="middle" x="55.5" y="-183.5" font-family="Helvetica,sans-Serif" font-size="10.00"> &#45;data</text>
</g>
<!-- Node3 -->
<g id="node3" class="node">
<title>Node3</title>
<g id="a_node3"><a xlink:title=" ">
<polygon fill="white" stroke="#bfbfbf" points="77.5,-215.5 77.5,-272.5 106.5,-272.5 106.5,-215.5 77.5,-215.5"/>
<text text-anchor="middle" x="92" y="-260.5" font-family="Helvetica,sans-Serif" font-size="10.00">int</text>
<polyline fill="none" stroke="#bfbfbf" points="77.5,-253.5 106.5,-253.5 "/>
<text text-anchor="middle" x="92" y="-241.5" font-family="Helvetica,sans-Serif" font-size="10.00"> </text>
<polyline fill="none" stroke="#bfbfbf" points="77.5,-234.5 106.5,-234.5 "/>
<text text-anchor="middle" x="92" y="-222.5" font-family="Helvetica,sans-Serif" font-size="10.00"> </text>
</a>
</g>
</g>
<!-- Node3&#45;&gt;Node1 -->
<g id="edge2" class="edge">
<title>Node3&#45;&gt;Node1</title>
<path fill="none" stroke="#404040" d="M87.08,-215.26C84.77,-202.21 81.86,-185.84 78.88,-169.02"/>
<polygon fill="none" stroke="#404040" points="78.8,-168.56 73.81,-163.35 76.7,-156.74 81.69,-161.95 78.8,-168.56"/>
<text text-anchor="middle" x="103.5" y="-189" font-family="Helvetica,sans-Serif" font-size="10.00"> +nVar</text>
<text text-anchor="middle" x="103.5" y="-178" font-family="Helvetica,sans-Serif" font-size="10.00">&#45;nNodes</text>
</g>
</g>
</svg>
