<?xml version="1.0" encoding="UTF-8" standalone="no"?>
<!DOCTYPE svg PUBLIC "-//W3C//DTD SVG 1.1//EN"
 "http://www.w3.org/Graphics/SVG/1.1/DTD/svg11.dtd">
<!-- Generated by graphviz version 2.43.0 (0)
 -->
<!-- Title: RoeFlux::computeFlux Pages: 1 -->
<svg width="667pt" height="355pt"
 viewBox="0.00 0.00 667.00 354.50" xmlns="http://www.w3.org/2000/svg" xmlns:xlink="http://www.w3.org/1999/xlink">
<g id="graph0" class="graph" transform="scale(1 1) rotate(0) translate(4 350.5)">
<title>RoeFlux::computeFlux</title>
<polygon fill="white" stroke="transparent" points="-4,4 -4,-350.5 663,-350.5 663,4 -4,4"/>
<!-- Node1 -->
<g id="node1" class="node">
<title>Node1</title>
<g id="a_node1"><a xlink:title="Overridden method for computing the numerical flux on interfaceID using the Roe linearization.">
<polygon fill="#bfbfbf" stroke="black" points="0,-175 0,-194 126,-194 126,-175 0,-175"/>
<text text-anchor="middle" x="63" y="-182" font-family="Helvetica,sans-Serif" font-size="10.00">RoeFlux::computeFlux</text>
</a>
</g>
</g>
<!-- Node2 -->
<g id="node2" class="node">
<title>Node2</title>
<g id="a_node2"><a xlink:href="classSolutionxhtml#a4a125cf00e6d055d4e4f07f240bd5f06" target="_top" xlink:title="Returns the value of the conservative variable 1 (h) at nodeID.">
<polygon fill="white" stroke="black" points="193.5,-327 193.5,-346 324.5,-346 324.5,-327 193.5,-327"/>
<text text-anchor="middle" x="259" y="-334" font-family="Helvetica,sans-Serif" font-size="10.00">Solution::conservative1</text>
</a>
</g>
</g>
<!-- Node1&#45;&gt;Node2 -->
<g id="edge1" class="edge">
<title>Node1&#45;&gt;Node2</title>
<path fill="none" stroke="midnightblue" d="M68.05,-194.12C79.06,-219.01 112.12,-285.84 162,-317.5 168.66,-321.73 176.05,-325.04 183.71,-327.64"/>
<polygon fill="midnightblue" stroke="midnightblue" points="182.91,-331.06 193.5,-330.57 184.92,-324.35 182.91,-331.06"/>
</g>
<!-- Node3 -->
<g id="node3" class="node">
<title>Node3</title>
<g id="a_node3"><a xlink:href="classSolutionxhtml#a854dcab81b7d871752c058b007533faa" target="_top" xlink:title="Returns the value of the conservative variable 2 (h*u) at nodeID.">
<polygon fill="white" stroke="black" points="193.5,-289 193.5,-308 324.5,-308 324.5,-289 193.5,-289"/>
<text text-anchor="middle" x="259" y="-296" font-family="Helvetica,sans-Serif" font-size="10.00">Solution::conservative2</text>
</a>
</g>
</g>
<!-- Node1&#45;&gt;Node3 -->
<g id="edge2" class="edge">
<title>Node1&#45;&gt;Node3</title>
<path fill="none" stroke="midnightblue" d="M70.85,-194.16C85.27,-213.71 120.86,-257.95 162,-279.5 168.7,-283.01 175.97,-285.87 183.41,-288.21"/>
<polygon fill="midnightblue" stroke="midnightblue" points="182.68,-291.64 193.25,-290.98 184.58,-284.9 182.68,-291.64"/>
</g>
<!-- Node4 -->
<g id="node4" class="node">
<title>Node4</title>
<g id="a_node4"><a xlink:href="classSolutionxhtml#a3b27c41a9fba14b1b4b60933cbcd5e2c" target="_top" xlink:title="Returns the value of the conservative variable 3 (h*v) at nodeID.">
<polygon fill="white" stroke="black" points="193.5,-251 193.5,-270 324.5,-270 324.5,-251 193.5,-251"/>
<text text-anchor="middle" x="259" y="-258" font-family="Helvetica,sans-Serif" font-size="10.00">Solution::conservative3</text>
</a>
</g>
</g>
<!-- Node1&#45;&gt;Node4 -->
<g id="edge3" class="edge">
<title>Node1&#45;&gt;Node4</title>
<path fill="none" stroke="midnightblue" d="M79.4,-194.19C98.25,-205.69 131.43,-224.77 162,-236.5 174.02,-241.11 187.24,-245.08 199.91,-248.39"/>
<polygon fill="midnightblue" stroke="midnightblue" points="199.38,-251.86 209.93,-250.9 201.08,-245.07 199.38,-251.86"/>
</g>
<!-- Node5 -->
<g id="node5" class="node">
<title>Node5</title>
<g id="a_node5"><a xlink:href="classGridxhtml#a4e37698e22ce482fa5ab2527dc78f0a9" target="_top" xlink:title="Gets the adjacent nodes to an interface (edge)">
<polygon fill="white" stroke="black" points="392,-207.5 392,-237.5 535,-237.5 535,-207.5 392,-207.5"/>
<text text-anchor="start" x="400" y="-225.5" font-family="Helvetica,sans-Serif" font-size="10.00">Grid::getAdjacentNodesTo</text>
<text text-anchor="middle" x="463.5" y="-214.5" font-family="Helvetica,sans-Serif" font-size="10.00">Interface</text>
</a>
</g>
</g>
<!-- Node1&#45;&gt;Node5 -->
<g id="edge4" class="edge">
<title>Node1&#45;&gt;Node5</title>
<path fill="none" stroke="midnightblue" d="M106.74,-194.02C123.84,-197.51 143.78,-201.17 162,-203.5 236.01,-212.97 320.92,-217.79 381.55,-220.2"/>
<polygon fill="midnightblue" stroke="midnightblue" points="381.7,-223.71 391.83,-220.59 381.97,-216.71 381.7,-223.71"/>
</g>
<!-- Node7 -->
<g id="node7" class="node">
<title>Node7</title>
<g id="a_node7"><a xlink:href="classGridxhtml#a267c212cd957e88a027c520dae9c1a4c" target="_top" xlink:title="Gets the normal vector to an edge of the dual grid.">
<polygon fill="white" stroke="black" points="173,-175 173,-194 345,-194 345,-175 173,-175"/>
<text text-anchor="middle" x="259" y="-182" font-family="Helvetica,sans-Serif" font-size="10.00">Grid::getNormalToDualGridEdge</text>
</a>
</g>
</g>
<!-- Node1&#45;&gt;Node7 -->
<g id="edge6" class="edge">
<title>Node1&#45;&gt;Node7</title>
<path fill="none" stroke="midnightblue" d="M126.18,-184.5C137.79,-184.5 150.15,-184.5 162.49,-184.5"/>
<polygon fill="midnightblue" stroke="midnightblue" points="162.83,-188 172.83,-184.5 162.83,-181 162.83,-188"/>
</g>
<!-- Node8 -->
<g id="node8" class="node">
<title>Node8</title>
<g id="a_node8"><a xlink:href="classModelEquationsxhtml#a63dc8124ff79ec29985885f605c4d9c2" target="_top" xlink:title="Sets the eigenvalues projected on the direction defined by the normal.">
<polygon fill="white" stroke="black" points="162,-137 162,-156 356,-156 356,-137 162,-137"/>
<text text-anchor="middle" x="259" y="-144" font-family="Helvetica,sans-Serif" font-size="10.00">ModelEquations::setProjEigenvalues</text>
</a>
</g>
</g>
<!-- Node1&#45;&gt;Node8 -->
<g id="edge9" class="edge">
<title>Node1&#45;&gt;Node8</title>
<path fill="none" stroke="midnightblue" d="M112.95,-174.91C139.25,-169.76 171.84,-163.38 199.47,-157.97"/>
<polygon fill="midnightblue" stroke="midnightblue" points="200.26,-161.38 209.4,-156.02 198.91,-154.51 200.26,-161.38"/>
</g>
<!-- Node9 -->
<g id="node9" class="node">
<title>Node9</title>
<g id="a_node9"><a xlink:href="classModelEquationsxhtml#af36c6cb949a2afa74888d79aa3c3dcc9" target="_top" xlink:title="Sets the flux vector projected on the direction defined by the normal.">
<polygon fill="white" stroke="black" points="181.5,-99 181.5,-118 336.5,-118 336.5,-99 181.5,-99"/>
<text text-anchor="middle" x="259" y="-106" font-family="Helvetica,sans-Serif" font-size="10.00">ModelEquations::setProjFlux</text>
</a>
</g>
</g>
<!-- Node1&#45;&gt;Node9 -->
<g id="edge10" class="edge">
<title>Node1&#45;&gt;Node9</title>
<path fill="none" stroke="midnightblue" d="M77.24,-174.87C95.43,-162.09 129.59,-139.74 162,-127.5 169.15,-124.8 176.76,-122.46 184.43,-120.44"/>
<polygon fill="midnightblue" stroke="midnightblue" points="185.29,-123.83 194.17,-118.05 183.62,-117.04 185.29,-123.83"/>
</g>
<!-- Node10 -->
<g id="node10" class="node">
<title>Node10</title>
<g id="a_node10"><a xlink:href="classModelEquationsxhtml#ab71e479ad381fcf52769b011e1b7a76f" target="_top" xlink:title="Sets the matrix of left eigenvectors projected on the direction defined by the normal.">
<polygon fill="white" stroke="black" points="182.5,-49.5 182.5,-79.5 335.5,-79.5 335.5,-49.5 182.5,-49.5"/>
<text text-anchor="start" x="190.5" y="-67.5" font-family="Helvetica,sans-Serif" font-size="10.00">ModelEquations::setProjLeft</text>
<text text-anchor="middle" x="259" y="-56.5" font-family="Helvetica,sans-Serif" font-size="10.00">Matrix</text>
</a>
</g>
</g>
<!-- Node1&#45;&gt;Node10 -->
<g id="edge11" class="edge">
<title>Node1&#45;&gt;Node10</title>
<path fill="none" stroke="midnightblue" d="M71.18,-174.75C85.95,-155.41 121.73,-112.15 162,-89.5 165.99,-87.25 170.19,-85.21 174.51,-83.34"/>
<polygon fill="midnightblue" stroke="midnightblue" points="176.12,-86.47 184.12,-79.53 173.54,-79.96 176.12,-86.47"/>
</g>
<!-- Node11 -->
<g id="node11" class="node">
<title>Node11</title>
<g id="a_node11"><a xlink:href="classModelEquationsxhtml#afa722d5fa5faeb0e1baaba5b1d5fd9b9" target="_top" xlink:title="Sets the matrix of right eigenvectors projected on the direction defined by the normal.">
<polygon fill="white" stroke="black" points="179,-0.5 179,-30.5 339,-30.5 339,-0.5 179,-0.5"/>
<text text-anchor="start" x="187" y="-18.5" font-family="Helvetica,sans-Serif" font-size="10.00">ModelEquations::setProjRight</text>
<text text-anchor="middle" x="259" y="-7.5" font-family="Helvetica,sans-Serif" font-size="10.00">Matrix</text>
</a>
</g>
</g>
<!-- Node1&#45;&gt;Node11 -->
<g id="edge12" class="edge">
<title>Node1&#45;&gt;Node11</title>
<path fill="none" stroke="midnightblue" d="M67.58,-174.94C77.89,-148.81 110.23,-75.74 162,-39.5 164.52,-37.73 167.16,-36.1 169.89,-34.58"/>
<polygon fill="midnightblue" stroke="midnightblue" points="171.46,-37.71 178.87,-30.14 168.35,-31.44 171.46,-37.71"/>
</g>
<!-- Node6 -->
<g id="node6" class="node">
<title>Node6</title>
<g id="a_node6"><a xlink:href="namespaceswexhtml#aca666e377868955898f5bc54f97d8075" target="_top" xlink:title="Prints an error message and exit the program.">
<polygon fill="white" stroke="black" points="571,-191 571,-210 659,-210 659,-191 571,-191"/>
<text text-anchor="middle" x="615" y="-198" font-family="Helvetica,sans-Serif" font-size="10.00">swe::printError</text>
</a>
</g>
</g>
<!-- Node5&#45;&gt;Node6 -->
<g id="edge5" class="edge">
<title>Node5&#45;&gt;Node6</title>
<path fill="none" stroke="midnightblue" d="M535.31,-212.08C543.8,-210.83 552.36,-209.57 560.55,-208.37"/>
<polygon fill="midnightblue" stroke="midnightblue" points="561.3,-211.79 570.68,-206.87 560.28,-204.87 561.3,-211.79"/>
</g>
<!-- Node7&#45;&gt;Node5 -->
<g id="edge7" class="edge">
<title>Node7&#45;&gt;Node5</title>
<path fill="none" stroke="midnightblue" d="M310.84,-194.04C332.26,-198.06 357.73,-202.84 381.62,-207.32"/>
<polygon fill="midnightblue" stroke="midnightblue" points="381.27,-210.82 391.75,-209.22 382.56,-203.94 381.27,-210.82"/>
</g>
<!-- Node7&#45;&gt;Node6 -->
<g id="edge8" class="edge">
<title>Node7&#45;&gt;Node6</title>
<path fill="none" stroke="midnightblue" d="M345.24,-188.35C412.27,-191.38 503.55,-195.51 560.61,-198.09"/>
<polygon fill="midnightblue" stroke="midnightblue" points="560.71,-201.59 570.86,-198.55 561.02,-194.6 560.71,-201.59"/>
</g>
</g>
</svg>
