<?xml version="1.0" encoding="UTF-8" standalone="no"?>
<!DOCTYPE svg PUBLIC "-//W3C//DTD SVG 1.1//EN"
 "http://www.w3.org/Graphics/SVG/1.1/DTD/svg11.dtd">
<!-- Generated by graphviz version 2.43.0 (0)
 -->
<!-- Title: Solver::setBoundaryConditions Pages: 1 -->
<svg width="529pt" height="393pt"
 viewBox="0.00 0.00 529.00 392.50" xmlns="http://www.w3.org/2000/svg" xmlns:xlink="http://www.w3.org/1999/xlink">
<g id="graph0" class="graph" transform="scale(1 1) rotate(0) translate(4 388.5)">
<title>Solver::setBoundaryConditions</title>
<polygon fill="white" stroke="transparent" points="-4,4 -4,-388.5 525,-388.5 525,4 -4,4"/>
<!-- Node1 -->
<g id="node1" class="node">
<title>Node1</title>
<g id="a_node1"><a xlink:title="Sets boundary conditions on boundaryID.">
<polygon fill="#bfbfbf" stroke="black" points="0,-194 0,-213 167,-213 167,-194 0,-194"/>
<text text-anchor="middle" x="83.5" y="-201" font-family="Helvetica,sans-Serif" font-size="10.00">Solver::setBoundaryConditions</text>
</a>
</g>
</g>
<!-- Node2 -->
<g id="node2" class="node">
<title>Node2</title>
<g id="a_node2"><a xlink:href="classSolverxhtml#a0d319ea1751d1778f1fd7b5db6cc03d3" target="_top" xlink:title="Adds the numerical flux at an interface (edge) to the residual on a node.">
<polygon fill="white" stroke="black" points="238,-365 238,-384 362,-384 362,-365 238,-365"/>
<text text-anchor="middle" x="300" y="-372" font-family="Helvetica,sans-Serif" font-size="10.00">Solver::addToResidual</text>
</a>
</g>
</g>
<!-- Node1&#45;&gt;Node2 -->
<g id="edge1" class="edge">
<title>Node1&#45;&gt;Node2</title>
<path fill="none" stroke="midnightblue" d="M88.99,-213.28C102.15,-240.72 143.45,-318.83 203,-355.5 210.7,-360.24 219.35,-363.84 228.23,-366.55"/>
<polygon fill="midnightblue" stroke="midnightblue" points="227.34,-369.94 237.9,-369.16 229.16,-363.18 227.34,-369.94"/>
</g>
<!-- Node3 -->
<g id="node3" class="node">
<title>Node3</title>
<g id="a_node3"><a xlink:href="classSolutionxhtml#a4a125cf00e6d055d4e4f07f240bd5f06" target="_top" xlink:title="Returns the value of the conservative variable 1 (h) at nodeID.">
<polygon fill="white" stroke="black" points="234.5,-327 234.5,-346 365.5,-346 365.5,-327 234.5,-327"/>
<text text-anchor="middle" x="300" y="-334" font-family="Helvetica,sans-Serif" font-size="10.00">Solution::conservative1</text>
</a>
</g>
</g>
<!-- Node1&#45;&gt;Node3 -->
<g id="edge2" class="edge">
<title>Node1&#45;&gt;Node3</title>
<path fill="none" stroke="midnightblue" d="M91.27,-213.02C107.65,-235.27 151.87,-290.83 203,-317.5 209.7,-321 216.98,-323.85 224.42,-326.18"/>
<polygon fill="midnightblue" stroke="midnightblue" points="223.7,-329.61 234.27,-328.95 225.59,-322.88 223.7,-329.61"/>
</g>
<!-- Node4 -->
<g id="node4" class="node">
<title>Node4</title>
<g id="a_node4"><a xlink:href="classSolutionxhtml#a854dcab81b7d871752c058b007533faa" target="_top" xlink:title="Returns the value of the conservative variable 2 (h*u) at nodeID.">
<polygon fill="white" stroke="black" points="234.5,-289 234.5,-308 365.5,-308 365.5,-289 234.5,-289"/>
<text text-anchor="middle" x="300" y="-296" font-family="Helvetica,sans-Serif" font-size="10.00">Solution::conservative2</text>
</a>
</g>
</g>
<!-- Node1&#45;&gt;Node4 -->
<g id="edge3" class="edge">
<title>Node1&#45;&gt;Node4</title>
<path fill="none" stroke="midnightblue" d="M96.12,-213.11C116.45,-229.39 160.38,-262.34 203,-279.5 209.77,-282.23 216.98,-284.57 224.27,-286.59"/>
<polygon fill="midnightblue" stroke="midnightblue" points="223.7,-290.06 234.25,-289.14 225.43,-283.28 223.7,-290.06"/>
</g>
<!-- Node5 -->
<g id="node5" class="node">
<title>Node5</title>
<g id="a_node5"><a xlink:href="classSolutionxhtml#a3b27c41a9fba14b1b4b60933cbcd5e2c" target="_top" xlink:title="Returns the value of the conservative variable 3 (h*v) at nodeID.">
<polygon fill="white" stroke="black" points="234.5,-251 234.5,-270 365.5,-270 365.5,-251 234.5,-251"/>
<text text-anchor="middle" x="300" y="-258" font-family="Helvetica,sans-Serif" font-size="10.00">Solution::conservative3</text>
</a>
</g>
</g>
<!-- Node1&#45;&gt;Node5 -->
<g id="edge4" class="edge">
<title>Node1&#45;&gt;Node5</title>
<path fill="none" stroke="midnightblue" d="M111.54,-213.15C135.39,-221.43 171.2,-233.28 203,-241.5 213.39,-244.18 224.5,-246.7 235.34,-248.97"/>
<polygon fill="midnightblue" stroke="midnightblue" points="234.69,-252.41 245.18,-250.98 236.09,-245.55 234.69,-252.41"/>
</g>
<!-- Node6 -->
<g id="node6" class="node">
<title>Node6</title>
<g id="a_node6"><a xlink:href="namespaceswexhtml#a548f8e0cd38a5e3c7ac9f58ff37fcd2b" target="_top" xlink:title="Returns true whether string strTarget is found in vector vect.">
<polygon fill="white" stroke="black" points="230,-213 230,-232 370,-232 370,-213 230,-213"/>
<text text-anchor="middle" x="300" y="-220" font-family="Helvetica,sans-Serif" font-size="10.00">swe::existsInVectorString</text>
</a>
</g>
</g>
<!-- Node1&#45;&gt;Node6 -->
<g id="edge5" class="edge">
<title>Node1&#45;&gt;Node6</title>
<path fill="none" stroke="midnightblue" d="M167.12,-210.82C184.49,-212.36 202.76,-213.98 219.99,-215.5"/>
<polygon fill="midnightblue" stroke="midnightblue" points="219.73,-218.99 230,-216.39 220.34,-212.02 219.73,-218.99"/>
</g>
<!-- Node7 -->
<g id="node7" class="node">
<title>Node7</title>
<g id="a_node7"><a xlink:href="classGridxhtml#a91328f210cc0eeee8177d075d0efa4eb" target="_top" xlink:title="Gets measures of a dual grid element (length of both edges)">
<polygon fill="white" stroke="black" points="215.5,-175 215.5,-194 384.5,-194 384.5,-175 215.5,-175"/>
<text text-anchor="middle" x="300" y="-182" font-family="Helvetica,sans-Serif" font-size="10.00">Grid::getDualElementMeasures</text>
</a>
</g>
</g>
<!-- Node1&#45;&gt;Node7 -->
<g id="edge6" class="edge">
<title>Node1&#45;&gt;Node7</title>
<path fill="none" stroke="midnightblue" d="M167.12,-196.18C179.6,-195.08 192.55,-193.93 205.24,-192.8"/>
<polygon fill="midnightblue" stroke="midnightblue" points="205.7,-196.28 215.35,-191.91 205.09,-189.31 205.7,-196.28"/>
</g>
<!-- Node9 -->
<g id="node9" class="node">
<title>Node9</title>
<g id="a_node9"><a xlink:href="classModelEquationsxhtml#a63dc8124ff79ec29985885f605c4d9c2" target="_top" xlink:title="Sets the eigenvalues projected on the direction defined by the normal.">
<polygon fill="white" stroke="black" points="203,-137 203,-156 397,-156 397,-137 203,-137"/>
<text text-anchor="middle" x="300" y="-144" font-family="Helvetica,sans-Serif" font-size="10.00">ModelEquations::setProjEigenvalues</text>
</a>
</g>
</g>
<!-- Node1&#45;&gt;Node9 -->
<g id="edge8" class="edge">
<title>Node1&#45;&gt;Node9</title>
<path fill="none" stroke="midnightblue" d="M111.54,-193.85C135.39,-185.57 171.2,-173.72 203,-165.5 213.39,-162.82 224.5,-160.3 235.34,-158.03"/>
<polygon fill="midnightblue" stroke="midnightblue" points="236.09,-161.45 245.18,-156.02 234.69,-154.59 236.09,-161.45"/>
</g>
<!-- Node10 -->
<g id="node10" class="node">
<title>Node10</title>
<g id="a_node10"><a xlink:href="classModelEquationsxhtml#af36c6cb949a2afa74888d79aa3c3dcc9" target="_top" xlink:title="Sets the flux vector projected on the direction defined by the normal.">
<polygon fill="white" stroke="black" points="222.5,-99 222.5,-118 377.5,-118 377.5,-99 222.5,-99"/>
<text text-anchor="middle" x="300" y="-106" font-family="Helvetica,sans-Serif" font-size="10.00">ModelEquations::setProjFlux</text>
</a>
</g>
</g>
<!-- Node1&#45;&gt;Node10 -->
<g id="edge9" class="edge">
<title>Node1&#45;&gt;Node10</title>
<path fill="none" stroke="midnightblue" d="M96.12,-193.89C116.45,-177.61 160.38,-144.66 203,-127.5 209.61,-124.84 216.63,-122.54 223.75,-120.55"/>
<polygon fill="midnightblue" stroke="midnightblue" points="224.68,-123.93 233.49,-118.04 222.93,-117.15 224.68,-123.93"/>
</g>
<!-- Node11 -->
<g id="node11" class="node">
<title>Node11</title>
<g id="a_node11"><a xlink:href="classModelEquationsxhtml#ab71e479ad381fcf52769b011e1b7a76f" target="_top" xlink:title="Sets the matrix of left eigenvectors projected on the direction defined by the normal.">
<polygon fill="white" stroke="black" points="223.5,-49.5 223.5,-79.5 376.5,-79.5 376.5,-49.5 223.5,-49.5"/>
<text text-anchor="start" x="231.5" y="-67.5" font-family="Helvetica,sans-Serif" font-size="10.00">ModelEquations::setProjLeft</text>
<text text-anchor="middle" x="300" y="-56.5" font-family="Helvetica,sans-Serif" font-size="10.00">Matrix</text>
</a>
</g>
</g>
<!-- Node1&#45;&gt;Node11 -->
<g id="edge10" class="edge">
<title>Node1&#45;&gt;Node11</title>
<path fill="none" stroke="midnightblue" d="M91.63,-193.86C108.44,-171.82 152.93,-117.53 203,-89.5 207,-87.26 211.2,-85.22 215.52,-83.36"/>
<polygon fill="midnightblue" stroke="midnightblue" points="217.13,-86.49 225.14,-79.56 214.55,-79.98 217.13,-86.49"/>
</g>
<!-- Node12 -->
<g id="node12" class="node">
<title>Node12</title>
<g id="a_node12"><a xlink:href="classModelEquationsxhtml#afa722d5fa5faeb0e1baaba5b1d5fd9b9" target="_top" xlink:title="Sets the matrix of right eigenvectors projected on the direction defined by the normal.">
<polygon fill="white" stroke="black" points="220,-0.5 220,-30.5 380,-30.5 380,-0.5 220,-0.5"/>
<text text-anchor="start" x="228" y="-18.5" font-family="Helvetica,sans-Serif" font-size="10.00">ModelEquations::setProjRight</text>
<text text-anchor="middle" x="300" y="-7.5" font-family="Helvetica,sans-Serif" font-size="10.00">Matrix</text>
</a>
</g>
</g>
<!-- Node1&#45;&gt;Node12 -->
<g id="edge11" class="edge">
<title>Node1&#45;&gt;Node12</title>
<path fill="none" stroke="midnightblue" d="M88.72,-193.61C101.45,-165.06 142.3,-81.89 203,-40.5 205.93,-38.5 209.02,-36.66 212.21,-34.96"/>
<polygon fill="midnightblue" stroke="midnightblue" points="213.93,-38.02 221.45,-30.57 210.92,-31.7 213.93,-38.02"/>
</g>
<!-- Node8 -->
<g id="node8" class="node">
<title>Node8</title>
<g id="a_node8"><a xlink:href="namespaceswexhtml#aca666e377868955898f5bc54f97d8075" target="_top" xlink:title="Prints an error message and exit the program.">
<polygon fill="white" stroke="black" points="433,-175 433,-194 521,-194 521,-175 433,-175"/>
<text text-anchor="middle" x="477" y="-182" font-family="Helvetica,sans-Serif" font-size="10.00">swe::printError</text>
</a>
</g>
</g>
<!-- Node7&#45;&gt;Node8 -->
<g id="edge7" class="edge">
<title>Node7&#45;&gt;Node8</title>
<path fill="none" stroke="midnightblue" d="M384.66,-184.5C397.57,-184.5 410.6,-184.5 422.6,-184.5"/>
<polygon fill="midnightblue" stroke="midnightblue" points="422.87,-188 432.87,-184.5 422.87,-181 422.87,-188"/>
</g>
</g>
</svg>
