<?xml version="1.0" encoding="UTF-8" standalone="no"?>
<!DOCTYPE svg PUBLIC "-//W3C//DTD SVG 1.1//EN"
 "http://www.w3.org/Graphics/SVG/1.1/DTD/svg11.dtd">
<!-- Generated by graphviz version 2.43.0 (0)
 -->
<!-- Title: Solver Pages: 1 -->
<svg width="428pt" height="733pt"
 viewBox="0.00 0.00 427.56 733.00" xmlns="http://www.w3.org/2000/svg" xmlns:xlink="http://www.w3.org/1999/xlink">
<g id="graph0" class="graph" transform="scale(1 1) rotate(0) translate(4 729)">
<title>Solver</title>
<polygon fill="white" stroke="transparent" points="-4,4 -4,-729 423.56,-729 423.56,4 -4,4"/>
<!-- Node1 -->
<g id="node1" class="node">
<title>Node1</title>
<g id="a_node1"><a xlink:title="Class Solver implements the finite volume method for solving the shallow waters equations.">
<polygon fill="#bfbfbf" stroke="black" points="135.56,-0.5 135.56,-167.5 284.56,-167.5 284.56,-0.5 135.56,-0.5"/>
<text text-anchor="middle" x="210.06" y="-155.5" font-family="Helvetica,sans-Serif" font-size="10.00">Solver</text>
<polyline fill="none" stroke="black" points="135.56,-148.5 284.56,-148.5 "/>
<text text-anchor="middle" x="210.06" y="-136.5" font-family="Helvetica,sans-Serif" font-size="10.00"> </text>
<polyline fill="none" stroke="black" points="135.56,-129.5 284.56,-129.5 "/>
<text text-anchor="start" x="143.56" y="-117.5" font-family="Helvetica,sans-Serif" font-size="10.00">+ Solver()</text>
<text text-anchor="start" x="143.56" y="-106.5" font-family="Helvetica,sans-Serif" font-size="10.00">+ Solver()</text>
<text text-anchor="start" x="143.56" y="-95.5" font-family="Helvetica,sans-Serif" font-size="10.00">+ ~Solver()</text>
<text text-anchor="start" x="143.56" y="-84.5" font-family="Helvetica,sans-Serif" font-size="10.00">+ setTimeStep()</text>
<text text-anchor="start" x="143.56" y="-73.5" font-family="Helvetica,sans-Serif" font-size="10.00">+ setInitialSolution()</text>
<text text-anchor="start" x="143.56" y="-62.5" font-family="Helvetica,sans-Serif" font-size="10.00">+ runGodnuovSolver()</text>
<text text-anchor="start" x="143.56" y="-51.5" font-family="Helvetica,sans-Serif" font-size="10.00">+ updateSolution()</text>
<text text-anchor="start" x="143.56" y="-40.5" font-family="Helvetica,sans-Serif" font-size="10.00">+ initializeResidual()</text>
<text text-anchor="start" x="143.56" y="-29.5" font-family="Helvetica,sans-Serif" font-size="10.00">+ addToResidual()</text>
<text text-anchor="start" x="143.56" y="-18.5" font-family="Helvetica,sans-Serif" font-size="10.00">+ subtractToResidual()</text>
<text text-anchor="start" x="143.56" y="-7.5" font-family="Helvetica,sans-Serif" font-size="10.00">+ setBoundaryConditions()</text>
</a>
</g>
</g>
<!-- Node2 -->
<g id="node2" class="node">
<title>Node2</title>
<g id="a_node2"><a xlink:title=" ">
<polygon fill="white" stroke="#bfbfbf" points="72.06,-662 72.06,-719 122.06,-719 122.06,-662 72.06,-662"/>
<text text-anchor="middle" x="97.06" y="-707" font-family="Helvetica,sans-Serif" font-size="10.00">double</text>
<polyline fill="none" stroke="#bfbfbf" points="72.06,-700 122.06,-700 "/>
<text text-anchor="middle" x="97.06" y="-688" font-family="Helvetica,sans-Serif" font-size="10.00"> </text>
<polyline fill="none" stroke="#bfbfbf" points="72.06,-681 122.06,-681 "/>
<text text-anchor="middle" x="97.06" y="-669" font-family="Helvetica,sans-Serif" font-size="10.00"> </text>
</a>
</g>
</g>
<!-- Node2&#45;&gt;Node1 -->
<g id="edge1" class="edge">
<title>Node2&#45;&gt;Node1</title>
<path fill="none" stroke="#404040" d="M81.71,-661.81C65.66,-631.15 41.52,-579.73 32.06,-532 4.65,-393.77 -26.3,-339.85 39.06,-215 58.02,-178.78 92.1,-149.74 124.88,-128.37"/>
<polygon fill="none" stroke="#404040" points="125.3,-128.1 128.24,-121.52 135.45,-121.7 132.51,-128.29 125.3,-128.1"/>
<text text-anchor="middle" x="37.56" y="-349" font-family="Helvetica,sans-Serif" font-size="10.00"> +totalTime</text>
<text text-anchor="middle" x="37.56" y="-338" font-family="Helvetica,sans-Serif" font-size="10.00">+dt</text>
<text text-anchor="middle" x="37.56" y="-327" font-family="Helvetica,sans-Serif" font-size="10.00">+cfl</text>
<text text-anchor="middle" x="37.56" y="-316" font-family="Helvetica,sans-Serif" font-size="10.00">+consVector</text>
<text text-anchor="middle" x="37.56" y="-305" font-family="Helvetica,sans-Serif" font-size="10.00">+residual</text>
</g>
<!-- Node4 -->
<g id="node4" class="node">
<title>Node4</title>
<g id="a_node4"><a xlink:href="classNumericalFluxesxhtml" target="_top" xlink:title="Class NumericalFluxes is an abstract class defining general attributes used to compute numerical flux...">
<polygon fill="white" stroke="black" points="41.06,-414 41.06,-493 167.06,-493 167.06,-414 41.06,-414"/>
<text text-anchor="middle" x="104.06" y="-481" font-family="Helvetica,sans-Serif" font-size="10.00">NumericalFluxes</text>
<polyline fill="none" stroke="black" points="41.06,-474 167.06,-474 "/>
<text text-anchor="middle" x="104.06" y="-462" font-family="Helvetica,sans-Serif" font-size="10.00"> </text>
<polyline fill="none" stroke="black" points="41.06,-455 167.06,-455 "/>
<text text-anchor="start" x="49.06" y="-443" font-family="Helvetica,sans-Serif" font-size="10.00">+ NumericalFluxes()</text>
<text text-anchor="start" x="49.06" y="-432" font-family="Helvetica,sans-Serif" font-size="10.00">+ ~NumericalFluxes()</text>
<text text-anchor="start" x="49.06" y="-421" font-family="Helvetica,sans-Serif" font-size="10.00">+ computeFlux()</text>
</a>
</g>
</g>
<!-- Node2&#45;&gt;Node4 -->
<g id="edge4" class="edge">
<title>Node2&#45;&gt;Node4</title>
<path fill="none" stroke="#404040" d="M96.8,-661.96C96.65,-633.82 96.7,-588.85 98.06,-550 98.56,-535.49 99.43,-519.76 100.34,-505.33"/>
<polygon fill="none" stroke="#404040" points="100.36,-505.02 96.76,-498.77 101.15,-493.04 104.74,-499.29 100.36,-505.02"/>
<text text-anchor="middle" x="139.06" y="-630" font-family="Helvetica,sans-Serif" font-size="10.00"> +numericalFlux</text>
<text text-anchor="middle" x="139.06" y="-619" font-family="Helvetica,sans-Serif" font-size="10.00">#velocity_l</text>
<text text-anchor="middle" x="139.06" y="-608" font-family="Helvetica,sans-Serif" font-size="10.00">#flux_l</text>
<text text-anchor="middle" x="139.06" y="-597" font-family="Helvetica,sans-Serif" font-size="10.00">#height_r</text>
<text text-anchor="middle" x="139.06" y="-586" font-family="Helvetica,sans-Serif" font-size="10.00">#normal</text>
<text text-anchor="middle" x="139.06" y="-575" font-family="Helvetica,sans-Serif" font-size="10.00">#velocity_r</text>
<text text-anchor="middle" x="139.06" y="-564" font-family="Helvetica,sans-Serif" font-size="10.00">#height_l</text>
<text text-anchor="middle" x="139.06" y="-553" font-family="Helvetica,sans-Serif" font-size="10.00">#flux_r</text>
</g>
<!-- Node8 -->
<g id="node8" class="node">
<title>Node8</title>
<g id="a_node8"><a xlink:href="classSolutionxhtml" target="_top" xlink:title="Class Solution defines the structure of the solution container.">
<polygon fill="white" stroke="black" points="185.06,-375.5 185.06,-531.5 311.06,-531.5 311.06,-375.5 185.06,-375.5"/>
<text text-anchor="middle" x="248.06" y="-519.5" font-family="Helvetica,sans-Serif" font-size="10.00">Solution</text>
<polyline fill="none" stroke="black" points="185.06,-512.5 311.06,-512.5 "/>
<text text-anchor="middle" x="248.06" y="-500.5" font-family="Helvetica,sans-Serif" font-size="10.00"> </text>
<polyline fill="none" stroke="black" points="185.06,-493.5 311.06,-493.5 "/>
<text text-anchor="start" x="193.06" y="-481.5" font-family="Helvetica,sans-Serif" font-size="10.00">+ Solution()</text>
<text text-anchor="start" x="193.06" y="-470.5" font-family="Helvetica,sans-Serif" font-size="10.00">+ Solution()</text>
<text text-anchor="start" x="193.06" y="-459.5" font-family="Helvetica,sans-Serif" font-size="10.00">+ ~Solution()</text>
<text text-anchor="start" x="193.06" y="-448.5" font-family="Helvetica,sans-Serif" font-size="10.00">+ conservative1()</text>
<text text-anchor="start" x="193.06" y="-437.5" font-family="Helvetica,sans-Serif" font-size="10.00">+ conservative2()</text>
<text text-anchor="start" x="193.06" y="-426.5" font-family="Helvetica,sans-Serif" font-size="10.00">+ conservative3()</text>
<text text-anchor="start" x="193.06" y="-415.5" font-family="Helvetica,sans-Serif" font-size="10.00">+ primitive1()</text>
<text text-anchor="start" x="193.06" y="-404.5" font-family="Helvetica,sans-Serif" font-size="10.00">+ primitive2()</text>
<text text-anchor="start" x="193.06" y="-393.5" font-family="Helvetica,sans-Serif" font-size="10.00">+ primitive3()</text>
<text text-anchor="start" x="193.06" y="-382.5" font-family="Helvetica,sans-Serif" font-size="10.00">&#45; initSolutionOnMesh()</text>
</a>
</g>
</g>
<!-- Node2&#45;&gt;Node8 -->
<g id="edge9" class="edge">
<title>Node2&#45;&gt;Node8</title>
<path fill="none" stroke="#404040" d="M122.33,-679.23C140.61,-670.65 164.71,-656.78 180.06,-638 186.78,-629.77 203.16,-585.79 218.17,-542.94"/>
<polygon fill="none" stroke="#404040" points="218.2,-542.84 216.4,-535.86 222.15,-531.51 223.95,-538.49 218.2,-542.84"/>
<text text-anchor="middle" x="230.56" y="-591.5" font-family="Helvetica,sans-Serif" font-size="10.00"> &#45;data</text>
</g>
<!-- Node3 -->
<g id="node3" class="node">
<title>Node3</title>
<g id="a_node3"><a xlink:title=" ">
<polygon fill="white" stroke="#bfbfbf" points="48.56,-215.5 48.56,-283.5 199.56,-283.5 199.56,-215.5 48.56,-215.5"/>
<text text-anchor="start" x="56.56" y="-271.5" font-family="Helvetica,sans-Serif" font-size="10.00">std::shared_ptr&lt; Numerical</text>
<text text-anchor="middle" x="124.06" y="-260.5" font-family="Helvetica,sans-Serif" font-size="10.00">Fluxes &gt;</text>
<polyline fill="none" stroke="#bfbfbf" points="48.56,-253.5 199.56,-253.5 "/>
<text text-anchor="middle" x="124.06" y="-241.5" font-family="Helvetica,sans-Serif" font-size="10.00"> </text>
<polyline fill="none" stroke="#bfbfbf" points="48.56,-234.5 199.56,-234.5 "/>
<text text-anchor="start" x="56.56" y="-222.5" font-family="Helvetica,sans-Serif" font-size="10.00">+ operator&#45;&gt;()</text>
</a>
</g>
</g>
<!-- Node3&#45;&gt;Node1 -->
<g id="edge2" class="edge">
<title>Node3&#45;&gt;Node1</title>
<path fill="none" stroke="#404040" d="M141.46,-215.41C147.23,-204.44 153.97,-191.63 160.92,-178.41"/>
<polygon fill="none" stroke="#404040" points="160.95,-178.36 160.2,-171.19 166.54,-167.74 167.28,-174.91 160.95,-178.36"/>
<text text-anchor="middle" x="179.06" y="-189" font-family="Helvetica,sans-Serif" font-size="10.00"> +fluxPtr</text>
</g>
<!-- Node4&#45;&gt;Node3 -->
<g id="edge3" class="edge">
<title>Node4&#45;&gt;Node3</title>
<path fill="none" stroke="#404040" d="M107.91,-413.55C111.24,-379.96 116.05,-331.41 119.55,-296.03"/>
<polygon fill="none" stroke="#404040" points="119.59,-295.59 116.2,-289.22 120.78,-283.64 124.17,-290.01 119.59,-295.59"/>
<text text-anchor="middle" x="131.56" y="-327" font-family="Helvetica,sans-Serif" font-size="10.00"> +ptr</text>
</g>
<!-- Node5 -->
<g id="node5" class="node">
<title>Node5</title>
<g id="a_node5"><a xlink:title=" ">
<polygon fill="white" stroke="#bfbfbf" points="300.56,-221 300.56,-278 419.56,-278 419.56,-221 300.56,-221"/>
<text text-anchor="middle" x="360.06" y="-266" font-family="Helvetica,sans-Serif" font-size="10.00">std::vector&lt; string &gt;</text>
<polyline fill="none" stroke="#bfbfbf" points="300.56,-259 419.56,-259 "/>
<text text-anchor="middle" x="360.06" y="-247" font-family="Helvetica,sans-Serif" font-size="10.00"> </text>
<polyline fill="none" stroke="#bfbfbf" points="300.56,-240 419.56,-240 "/>
<text text-anchor="middle" x="360.06" y="-228" font-family="Helvetica,sans-Serif" font-size="10.00"> </text>
</a>
</g>
</g>
<!-- Node5&#45;&gt;Node1 -->
<g id="edge5" class="edge">
<title>Node5&#45;&gt;Node1</title>
<path fill="none" stroke="#404040" d="M334.61,-220.76C322.9,-208 308.28,-192.06 293.21,-175.64"/>
<polygon fill="none" stroke="#404040" points="292.93,-175.33 285.92,-173.61 284.81,-166.48 291.82,-168.2 292.93,-175.33"/>
<text text-anchor="middle" x="357.56" y="-189" font-family="Helvetica,sans-Serif" font-size="10.00"> +eulerBoundaries</text>
</g>
<!-- Node6 -->
<g id="node6" class="node">
<title>Node6</title>
<g id="a_node6"><a xlink:title="STL class.">
<polygon fill="white" stroke="#bfbfbf" points="329.56,-425 329.56,-482 394.56,-482 394.56,-425 329.56,-425"/>
<text text-anchor="middle" x="362.06" y="-470" font-family="Helvetica,sans-Serif" font-size="10.00">std::string</text>
<polyline fill="none" stroke="#bfbfbf" points="329.56,-463 394.56,-463 "/>
<text text-anchor="middle" x="362.06" y="-451" font-family="Helvetica,sans-Serif" font-size="10.00"> </text>
<polyline fill="none" stroke="#bfbfbf" points="329.56,-444 394.56,-444 "/>
<text text-anchor="middle" x="362.06" y="-432" font-family="Helvetica,sans-Serif" font-size="10.00"> </text>
</a>
</g>
</g>
<!-- Node6&#45;&gt;Node5 -->
<g id="edge6" class="edge">
<title>Node6&#45;&gt;Node5</title>
<path fill="none" stroke="#404040" d="M361.78,-424.84C361.44,-390.03 360.84,-330.01 360.45,-290.28"/>
<polygon fill="none" stroke="#404040" points="360.45,-290.15 356.39,-284.19 360.33,-278.15 364.39,-284.11 360.45,-290.15"/>
<text text-anchor="middle" x="390.06" y="-327" font-family="Helvetica,sans-Serif" font-size="10.00"> +elements</text>
</g>
<!-- Node7 -->
<g id="node7" class="node">
<title>Node7</title>
<g id="a_node7"><a xlink:title="STL class.">
<polygon fill="white" stroke="#bfbfbf" points="310.06,-656.5 310.06,-724.5 414.06,-724.5 414.06,-656.5 310.06,-656.5"/>
<text text-anchor="start" x="318.06" y="-712.5" font-family="Helvetica,sans-Serif" font-size="10.00">std::basic_string&lt;</text>
<text text-anchor="middle" x="362.06" y="-701.5" font-family="Helvetica,sans-Serif" font-size="10.00"> char &gt;</text>
<polyline fill="none" stroke="#bfbfbf" points="310.06,-694.5 414.06,-694.5 "/>
<text text-anchor="middle" x="362.06" y="-682.5" font-family="Helvetica,sans-Serif" font-size="10.00"> </text>
<polyline fill="none" stroke="#bfbfbf" points="310.06,-675.5 414.06,-675.5 "/>
<text text-anchor="middle" x="362.06" y="-663.5" font-family="Helvetica,sans-Serif" font-size="10.00"> </text>
</a>
</g>
</g>
<!-- Node7&#45;&gt;Node6 -->
<g id="edge7" class="edge">
<title>Node7&#45;&gt;Node6</title>
<path fill="none" stroke="midnightblue" d="M362.06,-646.25C362.06,-598.32 362.06,-522.45 362.06,-482.01"/>
<polygon fill="none" stroke="midnightblue" points="358.56,-646.33 362.06,-656.33 365.56,-646.33 358.56,-646.33"/>
</g>
<!-- Node8&#45;&gt;Node1 -->
<g id="edge8" class="edge">
<title>Node8&#45;&gt;Node1</title>
<path fill="none" stroke="#404040" d="M240.09,-375.46C234.21,-318.55 226.16,-240.75 219.88,-179.99"/>
<polygon fill="none" stroke="#404040" points="219.84,-179.62 215.25,-174.07 218.61,-167.69 223.2,-173.24 219.84,-179.62"/>
<text text-anchor="middle" x="251.06" y="-247" font-family="Helvetica,sans-Serif" font-size="10.00"> +solPtr</text>
</g>
<!-- Node9 -->
<g id="node9" class="node">
<title>Node9</title>
<g id="a_node9"><a xlink:title=" ">
<polygon fill="white" stroke="#bfbfbf" points="239.56,-662 239.56,-719 268.56,-719 268.56,-662 239.56,-662"/>
<text text-anchor="middle" x="254.06" y="-707" font-family="Helvetica,sans-Serif" font-size="10.00">int</text>
<polyline fill="none" stroke="#bfbfbf" points="239.56,-700 268.56,-700 "/>
<text text-anchor="middle" x="254.06" y="-688" font-family="Helvetica,sans-Serif" font-size="10.00"> </text>
<polyline fill="none" stroke="#bfbfbf" points="239.56,-681 268.56,-681 "/>
<text text-anchor="middle" x="254.06" y="-669" font-family="Helvetica,sans-Serif" font-size="10.00"> </text>
</a>
</g>
</g>
<!-- Node9&#45;&gt;Node8 -->
<g id="edge10" class="edge">
<title>Node9&#45;&gt;Node8</title>
<path fill="none" stroke="#404040" d="M253.35,-661.62C252.61,-632.63 251.41,-585.71 250.34,-543.86"/>
<polygon fill="none" stroke="#404040" points="250.33,-543.63 246.18,-537.74 250.03,-531.64 254.18,-537.53 250.33,-543.63"/>
<text text-anchor="middle" x="273.56" y="-597" font-family="Helvetica,sans-Serif" font-size="10.00"> +nVar</text>
<text text-anchor="middle" x="273.56" y="-586" font-family="Helvetica,sans-Serif" font-size="10.00">&#45;nNodes</text>
</g>
</g>
</svg>
