<?xml version="1.0" encoding="UTF-8" standalone="no"?>
<!DOCTYPE svg PUBLIC "-//W3C//DTD SVG 1.1//EN"
 "http://www.w3.org/Graphics/SVG/1.1/DTD/svg11.dtd">
<!-- Generated by graphviz version 2.43.0 (0)
 -->
<!-- Title: Solver::runGodnuovSolver Pages: 1 -->
<svg width="904pt" height="755pt"
 viewBox="0.00 0.00 904.00 755.31" xmlns="http://www.w3.org/2000/svg" xmlns:xlink="http://www.w3.org/1999/xlink">
<g id="graph0" class="graph" transform="scale(1 1) rotate(0) translate(4 751.31)">
<title>Solver::runGodnuovSolver</title>
<polygon fill="white" stroke="transparent" points="-4,4 -4,-751.31 900,-751.31 900,4 -4,4"/>
<!-- Node1 -->
<g id="node1" class="node">
<title>Node1</title>
<g id="a_node1"><a xlink:title="Runs the solver.">
<polygon fill="#bfbfbf" stroke="black" points="0,-247.5 0,-266.5 143,-266.5 143,-247.5 0,-247.5"/>
<text text-anchor="middle" x="71.5" y="-254.5" font-family="Helvetica,sans-Serif" font-size="10.00">Solver::runGodnuovSolver</text>
</a>
</g>
</g>
<!-- Node2 -->
<g id="node2" class="node">
<title>Node2</title>
<g id="a_node2"><a xlink:href="classSolverxhtml#a0d319ea1751d1778f1fd7b5db6cc03d3" target="_top" xlink:title="Adds the numerical flux at an interface (edge) to the residual on a node.">
<polygon fill="white" stroke="black" points="613,-587.5 613,-606.5 737,-606.5 737,-587.5 613,-587.5"/>
<text text-anchor="middle" x="675" y="-594.5" font-family="Helvetica,sans-Serif" font-size="10.00">Solver::addToResidual</text>
</a>
</g>
</g>
<!-- Node1&#45;&gt;Node2 -->
<g id="edge1" class="edge">
<title>Node1&#45;&gt;Node2</title>
<path fill="none" stroke="midnightblue" d="M79.6,-266.59C95.52,-287.61 136.06,-338.43 179,-371 338.16,-491.74 389.46,-511.95 578,-578 585.95,-580.79 594.43,-583.21 602.92,-585.3"/>
<polygon fill="midnightblue" stroke="midnightblue" points="602.34,-588.75 612.87,-587.6 603.92,-581.94 602.34,-588.75"/>
</g>
<!-- Node3 -->
<g id="node3" class="node">
<title>Node3</title>
<g id="a_node3"><a xlink:href="classGridxhtml#a4e37698e22ce482fa5ab2527dc78f0a9" target="_top" xlink:title="Gets the adjacent nodes to an interface (edge)">
<polygon fill="white" stroke="black" points="603.5,-702 603.5,-732 746.5,-732 746.5,-702 603.5,-702"/>
<text text-anchor="start" x="611.5" y="-720" font-family="Helvetica,sans-Serif" font-size="10.00">Grid::getAdjacentNodesTo</text>
<text text-anchor="middle" x="675" y="-709" font-family="Helvetica,sans-Serif" font-size="10.00">Interface</text>
</a>
</g>
</g>
<!-- Node1&#45;&gt;Node3 -->
<g id="edge2" class="edge">
<title>Node1&#45;&gt;Node3</title>
<path fill="none" stroke="midnightblue" d="M72.05,-266.56C70.29,-314.95 68.79,-535.28 179,-654 285.16,-768.36 486.99,-752.98 597.31,-733.82"/>
<polygon fill="midnightblue" stroke="midnightblue" points="598.14,-737.22 607.36,-732.01 596.9,-730.33 598.14,-737.22"/>
</g>
<!-- Node5 -->
<g id="node5" class="node">
<title>Node5</title>
<g id="a_node5"><a xlink:href="classGridxhtml#aa3c3eb4bc0025097011a570976b5ef74" target="_top" xlink:title="Returns the measure of an edge of the dual grid.">
<polygon fill="white" stroke="black" points="179,-625.5 179,-644.5 326,-644.5 326,-625.5 179,-625.5"/>
<text text-anchor="middle" x="252.5" y="-632.5" font-family="Helvetica,sans-Serif" font-size="10.00">Grid::getDualEdgeMeasure</text>
</a>
</g>
</g>
<!-- Node1&#45;&gt;Node5 -->
<g id="edge4" class="edge">
<title>Node1&#45;&gt;Node5</title>
<path fill="none" stroke="midnightblue" d="M76.23,-266.57C89.29,-299.86 134.56,-413.45 179,-504 199.12,-544.99 225.77,-591.42 240.51,-616.51"/>
<polygon fill="midnightblue" stroke="midnightblue" points="237.61,-618.48 245.71,-625.32 243.64,-614.92 237.61,-618.48"/>
</g>
<!-- Node8 -->
<g id="node8" class="node">
<title>Node8</title>
<g id="a_node8"><a xlink:href="classSolverxhtml#af032125624713c82956bd0806338d2b7" target="_top" xlink:title="Initializes the residual vector.">
<polygon fill="white" stroke="black" points="184,-114.5 184,-133.5 321,-133.5 321,-114.5 184,-114.5"/>
<text text-anchor="middle" x="252.5" y="-121.5" font-family="Helvetica,sans-Serif" font-size="10.00">Solver::initializeResidual</text>
</a>
</g>
</g>
<!-- Node1&#45;&gt;Node8 -->
<g id="edge12" class="edge">
<title>Node1&#45;&gt;Node8</title>
<path fill="none" stroke="midnightblue" d="M78.66,-247.34C93.26,-225.26 132.25,-170.89 179,-143 182.65,-140.83 186.54,-138.9 190.56,-137.19"/>
<polygon fill="midnightblue" stroke="midnightblue" points="191.99,-140.39 200.11,-133.58 189.52,-133.84 191.99,-140.39"/>
</g>
<!-- Node9 -->
<g id="node9" class="node">
<title>Node9</title>
<g id="a_node9"><a xlink:href="classOutputManagerxhtml#ae0eadbd95bb38b1e48c72426c6bcabc8" target="_top" xlink:title="Prints the solution in csv format.">
<polygon fill="white" stroke="black" points="362.5,-152.5 362.5,-171.5 541.5,-171.5 541.5,-152.5 362.5,-152.5"/>
<text text-anchor="middle" x="452" y="-159.5" font-family="Helvetica,sans-Serif" font-size="10.00">OutputManager::printSolutionCsv</text>
</a>
</g>
</g>
<!-- Node1&#45;&gt;Node9 -->
<g id="edge13" class="edge">
<title>Node1&#45;&gt;Node9</title>
<path fill="none" stroke="midnightblue" d="M96.31,-247.45C117.7,-239.13 150.09,-227.15 179,-219 248.18,-199.51 328.96,-183.4 384.41,-173.34"/>
<polygon fill="midnightblue" stroke="midnightblue" points="385.24,-176.74 394.46,-171.53 384,-169.85 385.24,-176.74"/>
</g>
<!-- Node13 -->
<g id="node13" class="node">
<title>Node13</title>
<g id="a_node13"><a xlink:href="classOutputManagerxhtml#a31a9ca44bdfd56000a6e4e536f19e1db" target="_top" xlink:title="Prints the solution in VTK format.">
<polygon fill="white" stroke="black" points="362,-266.5 362,-285.5 542,-285.5 542,-266.5 362,-266.5"/>
<text text-anchor="middle" x="452" y="-273.5" font-family="Helvetica,sans-Serif" font-size="10.00">OutputManager::printSolutionVTK</text>
</a>
</g>
</g>
<!-- Node1&#45;&gt;Node13 -->
<g id="edge18" class="edge">
<title>Node1&#45;&gt;Node13</title>
<path fill="none" stroke="midnightblue" d="M143.25,-260.55C201.95,-263.5 286.09,-267.72 351.56,-271.01"/>
<polygon fill="midnightblue" stroke="midnightblue" points="351.74,-274.52 361.9,-271.53 352.09,-267.53 351.74,-274.52"/>
</g>
<!-- Node14 -->
<g id="node14" class="node">
<title>Node14</title>
<g id="a_node14"><a xlink:href="classSolverxhtml#a58df618a20580845ecf961fabb339377" target="_top" xlink:title="Sets boundary conditions on boundaryID.">
<polygon fill="white" stroke="black" points="368.5,-418.5 368.5,-437.5 535.5,-437.5 535.5,-418.5 368.5,-418.5"/>
<text text-anchor="middle" x="452" y="-425.5" font-family="Helvetica,sans-Serif" font-size="10.00">Solver::setBoundaryConditions</text>
</a>
</g>
</g>
<!-- Node1&#45;&gt;Node14 -->
<g id="edge23" class="edge">
<title>Node1&#45;&gt;Node14</title>
<path fill="none" stroke="midnightblue" d="M87.21,-266.6C128.66,-293.24 250.69,-368.76 362,-409 369.31,-411.64 377.1,-413.97 384.92,-416.01"/>
<polygon fill="midnightblue" stroke="midnightblue" points="384.25,-419.45 394.8,-418.44 385.92,-412.65 384.25,-419.45"/>
</g>
<!-- Node20 -->
<g id="node20" class="node">
<title>Node20</title>
<g id="a_node20"><a xlink:href="classSolverxhtml#a1b453fe47f2e674408f5d23d9b21c68e" target="_top" xlink:title="Sets the time step at every iteration with a fixed CFL number.">
<polygon fill="white" stroke="black" points="195.5,-152.5 195.5,-171.5 309.5,-171.5 309.5,-152.5 195.5,-152.5"/>
<text text-anchor="middle" x="252.5" y="-159.5" font-family="Helvetica,sans-Serif" font-size="10.00">Solver::setTimeStep</text>
</a>
</g>
</g>
<!-- Node1&#45;&gt;Node20 -->
<g id="edge34" class="edge">
<title>Node1&#45;&gt;Node20</title>
<path fill="none" stroke="midnightblue" d="M84.63,-247.32C103.73,-232.45 142.45,-203.83 179,-186 187.76,-181.73 197.46,-177.93 206.84,-174.69"/>
<polygon fill="midnightblue" stroke="midnightblue" points="208.06,-177.98 216.45,-171.52 205.86,-171.33 208.06,-177.98"/>
</g>
<!-- Node24 -->
<g id="node24" class="node">
<title>Node24</title>
<g id="a_node24"><a xlink:href="classSolverxhtml#af0e5e528ceeda297f8adce888ebe7630" target="_top" xlink:title="Subtracts the numerical flux at an interface (edge) to the residual on a node.">
<polygon fill="white" stroke="black" points="179.5,-76.5 179.5,-95.5 325.5,-95.5 325.5,-76.5 179.5,-76.5"/>
<text text-anchor="middle" x="252.5" y="-83.5" font-family="Helvetica,sans-Serif" font-size="10.00">Solver::subtractToResidual</text>
</a>
</g>
</g>
<!-- Node1&#45;&gt;Node24 -->
<g id="edge45" class="edge">
<title>Node1&#45;&gt;Node24</title>
<path fill="none" stroke="midnightblue" d="M76.36,-247.4C87.72,-220.44 123.72,-143.47 179,-105 181.86,-103.01 184.92,-101.22 188.1,-99.63"/>
<polygon fill="midnightblue" stroke="midnightblue" points="189.57,-102.81 197.34,-95.6 186.77,-96.39 189.57,-102.81"/>
</g>
<!-- Node25 -->
<g id="node25" class="node">
<title>Node25</title>
<g id="a_node25"><a xlink:href="classSolverxhtml#afb136eafb56dc14c53b4cbf294e6c8f6" target="_top" xlink:title="Updates the solution with the new computed values.">
<polygon fill="white" stroke="black" points="189,-228.5 189,-247.5 316,-247.5 316,-228.5 189,-228.5"/>
<text text-anchor="middle" x="252.5" y="-235.5" font-family="Helvetica,sans-Serif" font-size="10.00">Solver::updateSolution</text>
</a>
</g>
</g>
<!-- Node1&#45;&gt;Node25 -->
<g id="edge46" class="edge">
<title>Node1&#45;&gt;Node25</title>
<path fill="none" stroke="midnightblue" d="M143.25,-249.49C154.89,-248.26 166.97,-246.97 178.66,-245.73"/>
<polygon fill="midnightblue" stroke="midnightblue" points="179.23,-249.19 188.81,-244.65 178.49,-242.23 179.23,-249.19"/>
</g>
<!-- Node4 -->
<g id="node4" class="node">
<title>Node4</title>
<g id="a_node4"><a xlink:href="namespaceswexhtml#aca666e377868955898f5bc54f97d8075" target="_top" xlink:title="Prints an error message and exit the program.">
<polygon fill="white" stroke="black" points="808,-374.5 808,-393.5 896,-393.5 896,-374.5 808,-374.5"/>
<text text-anchor="middle" x="852" y="-381.5" font-family="Helvetica,sans-Serif" font-size="10.00">swe::printError</text>
</a>
</g>
</g>
<!-- Node3&#45;&gt;Node4 -->
<g id="edge3" class="edge">
<title>Node3&#45;&gt;Node4</title>
<path fill="none" stroke="midnightblue" d="M746.91,-704.08C756.26,-699.88 765.01,-694.33 772,-687 811.82,-645.23 839.93,-464.33 848.36,-403.81"/>
<polygon fill="midnightblue" stroke="midnightblue" points="851.86,-404.06 849.75,-393.68 844.93,-403.11 851.86,-404.06"/>
</g>
<!-- Node5&#45;&gt;Node3 -->
<g id="edge5" class="edge">
<title>Node5&#45;&gt;Node3</title>
<path fill="none" stroke="midnightblue" d="M267.45,-644.72C287.38,-658.02 325.62,-681.47 362,-692 438.42,-714.13 529.49,-719.12 593.45,-719.34"/>
<polygon fill="midnightblue" stroke="midnightblue" points="593.47,-722.84 603.47,-719.34 593.47,-715.84 593.47,-722.84"/>
</g>
<!-- Node5&#45;&gt;Node4 -->
<g id="edge11" class="edge">
<title>Node5&#45;&gt;Node4</title>
<path fill="none" stroke="midnightblue" d="M326.17,-636.83C460.49,-639.57 737.15,-641.93 772,-616 840.92,-564.73 850.27,-450.03 851.14,-403.84"/>
<polygon fill="midnightblue" stroke="midnightblue" points="854.64,-403.68 851.21,-393.65 847.64,-403.63 854.64,-403.68"/>
</g>
<!-- Node6 -->
<g id="node6" class="node">
<title>Node6</title>
<g id="a_node6"><a xlink:href="classGridxhtml#a91328f210cc0eeee8177d075d0efa4eb" target="_top" xlink:title="Gets measures of a dual grid element (length of both edges)">
<polygon fill="white" stroke="black" points="590.5,-374.5 590.5,-393.5 759.5,-393.5 759.5,-374.5 590.5,-374.5"/>
<text text-anchor="middle" x="675" y="-381.5" font-family="Helvetica,sans-Serif" font-size="10.00">Grid::getDualElementMeasures</text>
</a>
</g>
</g>
<!-- Node5&#45;&gt;Node6 -->
<g id="edge6" class="edge">
<title>Node5&#45;&gt;Node6</title>
<path fill="none" stroke="midnightblue" d="M272.02,-625.46C319.84,-600.31 450.1,-528.53 542,-447 560.65,-430.46 556.62,-416.81 578,-404 582.45,-401.33 587.2,-399.02 592.12,-397.01"/>
<polygon fill="midnightblue" stroke="midnightblue" points="593.54,-400.22 601.74,-393.51 591.15,-393.64 593.54,-400.22"/>
</g>
<!-- Node7 -->
<g id="node7" class="node">
<title>Node7</title>
<g id="a_node7"><a xlink:href="classGridxhtml#a267c212cd957e88a027c520dae9c1a4c" target="_top" xlink:title="Gets the normal vector to an edge of the dual grid.">
<polygon fill="white" stroke="black" points="366,-663.5 366,-682.5 538,-682.5 538,-663.5 366,-663.5"/>
<text text-anchor="middle" x="452" y="-670.5" font-family="Helvetica,sans-Serif" font-size="10.00">Grid::getNormalToDualGridEdge</text>
</a>
</g>
</g>
<!-- Node5&#45;&gt;Node7 -->
<g id="edge8" class="edge">
<title>Node5&#45;&gt;Node7</title>
<path fill="none" stroke="midnightblue" d="M303.08,-644.54C329.85,-649.69 363.08,-656.08 391.26,-661.51"/>
<polygon fill="midnightblue" stroke="midnightblue" points="390.92,-665 401.4,-663.46 392.24,-658.13 390.92,-665"/>
</g>
<!-- Node6&#45;&gt;Node4 -->
<g id="edge7" class="edge">
<title>Node6&#45;&gt;Node4</title>
<path fill="none" stroke="midnightblue" d="M759.66,-384C772.57,-384 785.6,-384 797.6,-384"/>
<polygon fill="midnightblue" stroke="midnightblue" points="797.87,-387.5 807.87,-384 797.87,-380.5 797.87,-387.5"/>
</g>
<!-- Node7&#45;&gt;Node3 -->
<g id="edge9" class="edge">
<title>Node7&#45;&gt;Node3</title>
<path fill="none" stroke="midnightblue" d="M500.95,-682.55C527.99,-687.93 562.47,-694.79 593.53,-700.98"/>
<polygon fill="midnightblue" stroke="midnightblue" points="592.99,-704.44 603.48,-702.96 594.35,-697.57 592.99,-704.44"/>
</g>
<!-- Node7&#45;&gt;Node4 -->
<g id="edge10" class="edge">
<title>Node7&#45;&gt;Node4</title>
<path fill="none" stroke="midnightblue" d="M538.18,-677.13C620.35,-679.3 737.24,-677 772,-649 811.26,-617.37 839.28,-459.27 848.07,-403.51"/>
<polygon fill="midnightblue" stroke="midnightblue" points="851.55,-403.93 849.61,-393.51 844.63,-402.86 851.55,-403.93"/>
</g>
<!-- Node9&#45;&gt;Node4 -->
<g id="edge17" class="edge">
<title>Node9&#45;&gt;Node4</title>
<path fill="none" stroke="midnightblue" d="M541.84,-154.99C623.3,-150.43 736.49,-149.38 772,-175 834.53,-220.12 847.58,-321.18 850.3,-364.1"/>
<polygon fill="midnightblue" stroke="midnightblue" points="846.81,-364.54 850.81,-374.36 853.8,-364.19 846.81,-364.54"/>
</g>
<!-- Node10 -->
<g id="node10" class="node">
<title>Node10</title>
<g id="a_node10"><a xlink:href="classSolutionxhtml#a4a125cf00e6d055d4e4f07f240bd5f06" target="_top" xlink:title="Returns the value of the conservative variable 1 (h) at nodeID.">
<polygon fill="white" stroke="black" points="609.5,-108.5 609.5,-127.5 740.5,-127.5 740.5,-108.5 609.5,-108.5"/>
<text text-anchor="middle" x="675" y="-115.5" font-family="Helvetica,sans-Serif" font-size="10.00">Solution::conservative1</text>
</a>
</g>
</g>
<!-- Node9&#45;&gt;Node10 -->
<g id="edge14" class="edge">
<title>Node9&#45;&gt;Node10</title>
<path fill="none" stroke="midnightblue" d="M500.95,-152.45C534.84,-145.71 580.42,-136.63 616.3,-129.49"/>
<polygon fill="midnightblue" stroke="midnightblue" points="617.02,-132.91 626.14,-127.53 615.65,-126.05 617.02,-132.91"/>
</g>
<!-- Node11 -->
<g id="node11" class="node">
<title>Node11</title>
<g id="a_node11"><a xlink:href="classSolutionxhtml#a854dcab81b7d871752c058b007533faa" target="_top" xlink:title="Returns the value of the conservative variable 2 (h*u) at nodeID.">
<polygon fill="white" stroke="black" points="609.5,-222.5 609.5,-241.5 740.5,-241.5 740.5,-222.5 609.5,-222.5"/>
<text text-anchor="middle" x="675" y="-229.5" font-family="Helvetica,sans-Serif" font-size="10.00">Solution::conservative2</text>
</a>
</g>
</g>
<!-- Node9&#45;&gt;Node11 -->
<g id="edge15" class="edge">
<title>Node9&#45;&gt;Node11</title>
<path fill="none" stroke="midnightblue" d="M472.92,-171.52C497.24,-182.82 539.83,-201.55 578,-213 587.12,-215.74 596.85,-218.18 606.48,-220.34"/>
<polygon fill="midnightblue" stroke="midnightblue" points="605.94,-223.8 616.45,-222.48 607.41,-216.96 605.94,-223.8"/>
</g>
<!-- Node12 -->
<g id="node12" class="node">
<title>Node12</title>
<g id="a_node12"><a xlink:href="classSolutionxhtml#a3b27c41a9fba14b1b4b60933cbcd5e2c" target="_top" xlink:title="Returns the value of the conservative variable 3 (h*v) at nodeID.">
<polygon fill="white" stroke="black" points="609.5,-184.5 609.5,-203.5 740.5,-203.5 740.5,-184.5 609.5,-184.5"/>
<text text-anchor="middle" x="675" y="-191.5" font-family="Helvetica,sans-Serif" font-size="10.00">Solution::conservative3</text>
</a>
</g>
</g>
<!-- Node9&#45;&gt;Node12 -->
<g id="edge16" class="edge">
<title>Node9&#45;&gt;Node12</title>
<path fill="none" stroke="midnightblue" d="M518.71,-171.51C543.98,-175.17 573.02,-179.38 599.09,-183.15"/>
<polygon fill="midnightblue" stroke="midnightblue" points="598.91,-186.66 609.31,-184.63 599.91,-179.74 598.91,-186.66"/>
</g>
<!-- Node13&#45;&gt;Node4 -->
<g id="edge22" class="edge">
<title>Node13&#45;&gt;Node4</title>
<path fill="none" stroke="midnightblue" d="M542.15,-268.26C608.57,-266.16 699.86,-271.21 772,-305 800.83,-318.5 825.17,-347.17 838.92,-366"/>
<polygon fill="midnightblue" stroke="midnightblue" points="836.18,-368.18 844.8,-374.35 841.9,-364.15 836.18,-368.18"/>
</g>
<!-- Node13&#45;&gt;Node10 -->
<g id="edge19" class="edge">
<title>Node13&#45;&gt;Node10</title>
<path fill="none" stroke="midnightblue" d="M463.95,-266.25C485.2,-247.54 533.79,-205.75 578,-175 600.56,-159.31 627.58,-143.51 647.2,-132.54"/>
<polygon fill="midnightblue" stroke="midnightblue" points="649.13,-135.47 656.19,-127.56 645.74,-129.35 649.13,-135.47"/>
</g>
<!-- Node13&#45;&gt;Node11 -->
<g id="edge20" class="edge">
<title>Node13&#45;&gt;Node11</title>
<path fill="none" stroke="midnightblue" d="M500.95,-266.45C534.84,-259.71 580.42,-250.63 616.3,-243.49"/>
<polygon fill="midnightblue" stroke="midnightblue" points="617.02,-246.91 626.14,-241.53 615.65,-240.05 617.02,-246.91"/>
</g>
<!-- Node13&#45;&gt;Node12 -->
<g id="edge21" class="edge">
<title>Node13&#45;&gt;Node12</title>
<path fill="none" stroke="midnightblue" d="M468.57,-266.4C491.64,-252.59 536.63,-227.22 578,-213 585.97,-210.26 594.45,-207.87 602.95,-205.79"/>
<polygon fill="midnightblue" stroke="midnightblue" points="603.95,-209.16 612.91,-203.5 602.38,-202.34 603.95,-209.16"/>
</g>
<!-- Node14&#45;&gt;Node2 -->
<g id="edge24" class="edge">
<title>Node14&#45;&gt;Node2</title>
<path fill="none" stroke="midnightblue" d="M482.68,-437.63C501.97,-445.26 526.36,-457.73 542,-476 573.25,-512.53 541.65,-546.54 578,-578 585.25,-584.27 593.96,-588.7 603.14,-591.8"/>
<polygon fill="midnightblue" stroke="midnightblue" points="602.26,-595.19 612.84,-594.56 604.18,-588.46 602.26,-595.19"/>
</g>
<!-- Node14&#45;&gt;Node6 -->
<g id="edge29" class="edge">
<title>Node14&#45;&gt;Node6</title>
<path fill="none" stroke="midnightblue" d="M500.95,-418.45C534.84,-411.71 580.42,-402.63 616.3,-395.49"/>
<polygon fill="midnightblue" stroke="midnightblue" points="617.02,-398.91 626.14,-393.53 615.65,-392.05 617.02,-398.91"/>
</g>
<!-- Node14&#45;&gt;Node10 -->
<g id="edge25" class="edge">
<title>Node14&#45;&gt;Node10</title>
<path fill="none" stroke="midnightblue" d="M529.8,-418.5C534.29,-415.92 538.42,-412.79 542,-409 614.23,-332.48 519.12,-262.21 578,-175 591.67,-154.75 615.15,-140.62 635.47,-131.5"/>
<polygon fill="midnightblue" stroke="midnightblue" points="636.98,-134.66 644.83,-127.54 634.26,-128.21 636.98,-134.66"/>
</g>
<!-- Node14&#45;&gt;Node11 -->
<g id="edge26" class="edge">
<title>Node14&#45;&gt;Node11</title>
<path fill="none" stroke="midnightblue" d="M526.57,-418.38C532.11,-415.88 537.35,-412.79 542,-409 572.86,-383.86 555.46,-359.8 578,-327 599.6,-295.58 632.49,-265.75 653.61,-248.16"/>
<polygon fill="midnightblue" stroke="midnightblue" points="656.09,-250.66 661.61,-241.62 651.66,-245.24 656.09,-250.66"/>
</g>
<!-- Node14&#45;&gt;Node12 -->
<g id="edge27" class="edge">
<title>Node14&#45;&gt;Node12</title>
<path fill="none" stroke="midnightblue" d="M529.67,-418.38C534.19,-415.83 538.37,-412.74 542,-409 603.72,-345.48 515.8,-276.06 578,-213 584.09,-206.83 591.56,-202.36 599.63,-199.16"/>
<polygon fill="midnightblue" stroke="midnightblue" points="600.93,-202.42 609.33,-195.97 598.74,-195.78 600.93,-202.42"/>
</g>
<!-- Node15 -->
<g id="node15" class="node">
<title>Node15</title>
<g id="a_node15"><a xlink:href="namespaceswexhtml#a548f8e0cd38a5e3c7ac9f58ff37fcd2b" target="_top" xlink:title="Returns true whether string strTarget is found in vector vect.">
<polygon fill="white" stroke="black" points="605,-549.5 605,-568.5 745,-568.5 745,-549.5 605,-549.5"/>
<text text-anchor="middle" x="675" y="-556.5" font-family="Helvetica,sans-Serif" font-size="10.00">swe::existsInVectorString</text>
</a>
</g>
</g>
<!-- Node14&#45;&gt;Node15 -->
<g id="edge28" class="edge">
<title>Node14&#45;&gt;Node15</title>
<path fill="none" stroke="midnightblue" d="M479.25,-437.52C498.42,-445.49 524.09,-458.41 542,-476 565.28,-498.87 551.57,-520.85 578,-540 583.24,-543.79 589.04,-546.88 595.12,-549.38"/>
<polygon fill="midnightblue" stroke="midnightblue" points="594.28,-552.8 604.87,-552.86 596.63,-546.2 594.28,-552.8"/>
</g>
<!-- Node16 -->
<g id="node16" class="node">
<title>Node16</title>
<g id="a_node16"><a xlink:href="classModelEquationsxhtml#a63dc8124ff79ec29985885f605c4d9c2" target="_top" xlink:title="Sets the eigenvalues projected on the direction defined by the normal.">
<polygon fill="white" stroke="black" points="578,-336.5 578,-355.5 772,-355.5 772,-336.5 578,-336.5"/>
<text text-anchor="middle" x="675" y="-343.5" font-family="Helvetica,sans-Serif" font-size="10.00">ModelEquations::setProjEigenvalues</text>
</a>
</g>
</g>
<!-- Node14&#45;&gt;Node16 -->
<g id="edge30" class="edge">
<title>Node14&#45;&gt;Node16</title>
<path fill="none" stroke="midnightblue" d="M521.43,-418.42C528.65,-415.95 535.66,-412.87 542,-409 563.57,-395.84 556.33,-378 578,-365 581.61,-362.84 585.41,-360.92 589.35,-359.21"/>
<polygon fill="midnightblue" stroke="midnightblue" points="590.65,-362.46 598.72,-355.6 588.13,-355.92 590.65,-362.46"/>
</g>
<!-- Node17 -->
<g id="node17" class="node">
<title>Node17</title>
<g id="a_node17"><a xlink:href="classModelEquationsxhtml#af36c6cb949a2afa74888d79aa3c3dcc9" target="_top" xlink:title="Sets the flux vector projected on the direction defined by the normal.">
<polygon fill="white" stroke="black" points="597.5,-511.5 597.5,-530.5 752.5,-530.5 752.5,-511.5 597.5,-511.5"/>
<text text-anchor="middle" x="675" y="-518.5" font-family="Helvetica,sans-Serif" font-size="10.00">ModelEquations::setProjFlux</text>
</a>
</g>
</g>
<!-- Node14&#45;&gt;Node17 -->
<g id="edge31" class="edge">
<title>Node14&#45;&gt;Node17</title>
<path fill="none" stroke="midnightblue" d="M472.51,-437.59C490.82,-446.81 518.8,-461.45 542,-476 558.72,-486.48 559.9,-494.12 578,-502 583.88,-504.56 590.11,-506.77 596.46,-508.7"/>
<polygon fill="midnightblue" stroke="midnightblue" points="595.94,-512.18 606.51,-511.48 597.81,-505.44 595.94,-512.18"/>
</g>
<!-- Node18 -->
<g id="node18" class="node">
<title>Node18</title>
<g id="a_node18"><a xlink:href="classModelEquationsxhtml#ab71e479ad381fcf52769b011e1b7a76f" target="_top" xlink:title="Sets the matrix of left eigenvectors projected on the direction defined by the normal.">
<polygon fill="white" stroke="black" points="598.5,-462 598.5,-492 751.5,-492 751.5,-462 598.5,-462"/>
<text text-anchor="start" x="606.5" y="-480" font-family="Helvetica,sans-Serif" font-size="10.00">ModelEquations::setProjLeft</text>
<text text-anchor="middle" x="675" y="-469" font-family="Helvetica,sans-Serif" font-size="10.00">Matrix</text>
</a>
</g>
</g>
<!-- Node14&#45;&gt;Node18 -->
<g id="edge32" class="edge">
<title>Node14&#45;&gt;Node18</title>
<path fill="none" stroke="midnightblue" d="M495.87,-437.51C524.32,-443.81 562.48,-452.27 596.19,-459.75"/>
<polygon fill="midnightblue" stroke="midnightblue" points="595.5,-463.18 606.03,-461.93 597.02,-456.35 595.5,-463.18"/>
</g>
<!-- Node19 -->
<g id="node19" class="node">
<title>Node19</title>
<g id="a_node19"><a xlink:href="classModelEquationsxhtml#afa722d5fa5faeb0e1baaba5b1d5fd9b9" target="_top" xlink:title="Sets the matrix of right eigenvectors projected on the direction defined by the normal.">
<polygon fill="white" stroke="black" points="595,-413 595,-443 755,-443 755,-413 595,-413"/>
<text text-anchor="start" x="603" y="-431" font-family="Helvetica,sans-Serif" font-size="10.00">ModelEquations::setProjRight</text>
<text text-anchor="middle" x="675" y="-420" font-family="Helvetica,sans-Serif" font-size="10.00">Matrix</text>
</a>
</g>
</g>
<!-- Node14&#45;&gt;Node19 -->
<g id="edge33" class="edge">
<title>Node14&#45;&gt;Node19</title>
<path fill="none" stroke="midnightblue" d="M535.61,-428C551.65,-428 568.53,-428 584.77,-428"/>
<polygon fill="midnightblue" stroke="midnightblue" points="584.79,-431.5 594.79,-428 584.79,-424.5 584.79,-431.5"/>
</g>
<!-- Node20&#45;&gt;Node6 -->
<g id="edge35" class="edge">
<title>Node20&#45;&gt;Node6</title>
<path fill="none" stroke="midnightblue" d="M270.86,-171.55C287.28,-181.42 311.5,-198.27 326,-219 355.49,-261.15 323.14,-295.29 362,-329 378.86,-343.63 499.78,-361.82 586.02,-373.17"/>
<polygon fill="midnightblue" stroke="midnightblue" points="585.72,-376.66 596.09,-374.49 586.63,-369.72 585.72,-376.66"/>
</g>
<!-- Node20&#45;&gt;Node16 -->
<g id="edge44" class="edge">
<title>Node20&#45;&gt;Node16</title>
<path fill="none" stroke="midnightblue" d="M269.7,-171.59C285.7,-181.72 310.02,-198.98 326,-219 349.31,-248.22 332.14,-272.52 362,-295 393.9,-319.01 490.29,-332.2 567.57,-339.11"/>
<polygon fill="midnightblue" stroke="midnightblue" points="567.6,-342.63 577.86,-340.01 568.2,-335.66 567.6,-342.63"/>
</g>
<!-- Node21 -->
<g id="node21" class="node">
<title>Node21</title>
<g id="a_node21"><a xlink:href="classSolutionxhtml#a93ca33bcde0dd438ff4ab40b3cff4b80" target="_top" xlink:title="Returns the value of the primitive variable 1 (h) at nodeID.">
<polygon fill="white" stroke="black" points="395.5,-0.5 395.5,-19.5 508.5,-19.5 508.5,-0.5 395.5,-0.5"/>
<text text-anchor="middle" x="452" y="-7.5" font-family="Helvetica,sans-Serif" font-size="10.00">Solution::primitive1</text>
</a>
</g>
</g>
<!-- Node20&#45;&gt;Node21 -->
<g id="edge36" class="edge">
<title>Node20&#45;&gt;Node21</title>
<path fill="none" stroke="midnightblue" d="M309.63,-153.6C315.65,-150.94 321.29,-147.48 326,-143 364.49,-106.37 322.68,-64.73 362,-29 368.78,-22.84 377.06,-18.49 385.81,-15.45"/>
<polygon fill="midnightblue" stroke="midnightblue" points="386.82,-18.81 395.44,-12.65 384.86,-12.08 386.82,-18.81"/>
</g>
<!-- Node22 -->
<g id="node22" class="node">
<title>Node22</title>
<g id="a_node22"><a xlink:href="classSolutionxhtml#ad6a4954517a6f464d9a5f7b366c26abc" target="_top" xlink:title="Returns the value of the primitive variable 2 (u) at nodeID.">
<polygon fill="white" stroke="black" points="395.5,-76.5 395.5,-95.5 508.5,-95.5 508.5,-76.5 395.5,-76.5"/>
<text text-anchor="middle" x="452" y="-83.5" font-family="Helvetica,sans-Serif" font-size="10.00">Solution::primitive2</text>
</a>
</g>
</g>
<!-- Node20&#45;&gt;Node22 -->
<g id="edge38" class="edge">
<title>Node20&#45;&gt;Node22</title>
<path fill="none" stroke="midnightblue" d="M303.1,-152.46C311.01,-149.97 318.92,-146.86 326,-143 345.06,-132.61 342.98,-120.46 362,-110 370.43,-105.37 379.81,-101.58 389.23,-98.51"/>
<polygon fill="midnightblue" stroke="midnightblue" points="390.45,-101.8 399.02,-95.56 388.43,-95.09 390.45,-101.8"/>
</g>
<!-- Node23 -->
<g id="node23" class="node">
<title>Node23</title>
<g id="a_node23"><a xlink:href="classSolutionxhtml#ae1679ee032038dd0d29e31002d426c9e" target="_top" xlink:title="Returns the value of the primitive variable 3 (v) at nodeID.">
<polygon fill="white" stroke="black" points="395.5,-38.5 395.5,-57.5 508.5,-57.5 508.5,-38.5 395.5,-38.5"/>
<text text-anchor="middle" x="452" y="-45.5" font-family="Helvetica,sans-Serif" font-size="10.00">Solution::primitive3</text>
</a>
</g>
</g>
<!-- Node20&#45;&gt;Node23 -->
<g id="edge41" class="edge">
<title>Node20&#45;&gt;Node23</title>
<path fill="none" stroke="midnightblue" d="M309.79,-152.65C315.64,-150.15 321.19,-146.99 326,-143 354.77,-119.14 332.69,-90.19 362,-67 368.93,-61.52 377.08,-57.52 385.59,-54.63"/>
<polygon fill="midnightblue" stroke="midnightblue" points="386.68,-57.96 395.3,-51.81 384.73,-51.23 386.68,-57.96"/>
</g>
<!-- Node21&#45;&gt;Node10 -->
<g id="edge37" class="edge">
<title>Node21&#45;&gt;Node10</title>
<path fill="none" stroke="midnightblue" d="M508.61,-18.44C519.91,-21.1 531.53,-24.55 542,-29 585.92,-47.66 630.63,-81.63 655.1,-101.77"/>
<polygon fill="midnightblue" stroke="midnightblue" points="652.96,-104.54 662.87,-108.27 657.45,-99.17 652.96,-104.54"/>
</g>
<!-- Node22&#45;&gt;Node10 -->
<g id="edge39" class="edge">
<title>Node22&#45;&gt;Node10</title>
<path fill="none" stroke="midnightblue" d="M508.77,-94.07C536.11,-98.03 569.42,-102.86 598.96,-107.13"/>
<polygon fill="midnightblue" stroke="midnightblue" points="598.83,-110.65 609.23,-108.62 599.84,-103.72 598.83,-110.65"/>
</g>
<!-- Node22&#45;&gt;Node11 -->
<g id="edge40" class="edge">
<title>Node22&#45;&gt;Node11</title>
<path fill="none" stroke="midnightblue" d="M474.31,-95.6C493.9,-105.29 522.74,-121.83 542,-143 565.54,-168.88 550.06,-191.95 578,-213 584.46,-217.87 591.85,-221.58 599.58,-224.41"/>
<polygon fill="midnightblue" stroke="midnightblue" points="598.56,-227.75 609.15,-227.42 600.67,-221.08 598.56,-227.75"/>
</g>
<!-- Node23&#45;&gt;Node10 -->
<g id="edge42" class="edge">
<title>Node23&#45;&gt;Node10</title>
<path fill="none" stroke="midnightblue" d="M504.65,-57.58C516.98,-60.26 530.04,-63.44 542,-67 577.28,-77.51 616.49,-93.19 642.94,-104.39"/>
<polygon fill="midnightblue" stroke="midnightblue" points="641.84,-107.73 652.41,-108.44 644.59,-101.29 641.84,-107.73"/>
</g>
<!-- Node23&#45;&gt;Node12 -->
<g id="edge43" class="edge">
<title>Node23&#45;&gt;Node12</title>
<path fill="none" stroke="midnightblue" d="M508.52,-52.04C520.44,-54.94 532.34,-59.61 542,-67 569.79,-88.26 554.03,-111.52 578,-137 595.66,-155.77 620.87,-170.41 641.02,-180.16"/>
<polygon fill="midnightblue" stroke="midnightblue" points="639.62,-183.37 650.17,-184.42 642.58,-177.02 639.62,-183.37"/>
</g>
<!-- Node25&#45;&gt;Node10 -->
<g id="edge47" class="edge">
<title>Node25&#45;&gt;Node10</title>
<path fill="none" stroke="midnightblue" d="M266.8,-228.46C281.71,-217.56 306.36,-198.91 326,-181 343.19,-165.32 341.01,-153.04 362,-143 436.8,-107.22 533.27,-105.21 599.01,-109.43"/>
<polygon fill="midnightblue" stroke="midnightblue" points="599.07,-112.94 609.29,-110.15 599.56,-105.96 599.07,-112.94"/>
</g>
<!-- Node25&#45;&gt;Node11 -->
<g id="edge48" class="edge">
<title>Node25&#45;&gt;Node11</title>
<path fill="none" stroke="midnightblue" d="M316.45,-237.1C392.04,-236.02 518.65,-234.22 599.16,-233.07"/>
<polygon fill="midnightblue" stroke="midnightblue" points="599.28,-236.57 609.23,-232.92 599.18,-229.57 599.28,-236.57"/>
</g>
<!-- Node25&#45;&gt;Node12 -->
<g id="edge49" class="edge">
<title>Node25&#45;&gt;Node12</title>
<path fill="none" stroke="midnightblue" d="M316.45,-231.41C392.04,-223.5 518.65,-210.26 599.16,-201.83"/>
<polygon fill="midnightblue" stroke="midnightblue" points="599.65,-205.3 609.23,-200.78 598.92,-198.34 599.65,-205.3"/>
</g>
<!-- Node26 -->
<g id="node26" class="node">
<title>Node26</title>
<g id="a_node26"><a xlink:href="classGridxhtml#a88bbc32e4b2ac70838e95874ea88d245" target="_top" xlink:title="Returns the area of a dual element.">
<polygon fill="white" stroke="black" points="380,-380.5 380,-399.5 524,-399.5 524,-380.5 380,-380.5"/>
<text text-anchor="middle" x="452" y="-387.5" font-family="Helvetica,sans-Serif" font-size="10.00">Grid::getDualElementArea</text>
</a>
</g>
</g>
<!-- Node25&#45;&gt;Node26 -->
<g id="edge50" class="edge">
<title>Node25&#45;&gt;Node26</title>
<path fill="none" stroke="midnightblue" d="M258.9,-247.76C272.72,-271.78 311.82,-334.15 362,-366 369.19,-370.56 377.23,-374.26 385.46,-377.27"/>
<polygon fill="midnightblue" stroke="midnightblue" points="384.58,-380.66 395.17,-380.48 386.78,-374.01 384.58,-380.66"/>
</g>
<!-- Node26&#45;&gt;Node4 -->
<g id="edge52" class="edge">
<title>Node26&#45;&gt;Node4</title>
<path fill="none" stroke="midnightblue" d="M466.78,-380.31C488.95,-365.36 534.5,-337.34 578,-327 661.88,-307.06 689.95,-300.49 772,-327 796.44,-334.9 819.69,-353.49 834.55,-367.3"/>
<polygon fill="midnightblue" stroke="midnightblue" points="832.28,-369.97 841.91,-374.39 837.13,-364.93 832.28,-369.97"/>
</g>
<!-- Node26&#45;&gt;Node6 -->
<g id="edge51" class="edge">
<title>Node26&#45;&gt;Node6</title>
<path fill="none" stroke="midnightblue" d="M524.14,-388.07C542,-387.58 561.44,-387.06 580.23,-386.55"/>
<polygon fill="midnightblue" stroke="midnightblue" points="580.37,-390.04 590.27,-386.27 580.18,-383.05 580.37,-390.04"/>
</g>
</g>
</svg>
