<?xml version="1.0" encoding="UTF-8" standalone="no"?>
<!DOCTYPE svg PUBLIC "-//W3C//DTD SVG 1.1//EN"
 "http://www.w3.org/Graphics/SVG/1.1/DTD/svg11.dtd">
<!-- Generated by graphviz version 2.43.0 (0)
 -->
<!-- Title: OutputManager::printSolutionVTK Pages: 1 -->
<svg width="355pt" height="142pt"
 viewBox="0.00 0.00 355.00 142.00" xmlns="http://www.w3.org/2000/svg" xmlns:xlink="http://www.w3.org/1999/xlink">
<g id="graph0" class="graph" transform="scale(1 1) rotate(0) translate(4 138)">
<title>OutputManager::printSolutionVTK</title>
<polygon fill="white" stroke="transparent" points="-4,4 -4,-138 351,-138 351,4 -4,4"/>
<!-- Node1 -->
<g id="node1" class="node">
<title>Node1</title>
<g id="a_node1"><a xlink:title="Prints the solution in VTK format.">
<polygon fill="#bfbfbf" stroke="black" points="0,-57.5 0,-76.5 180,-76.5 180,-57.5 0,-57.5"/>
<text text-anchor="middle" x="90" y="-64.5" font-family="Helvetica,sans-Serif" font-size="10.00">OutputManager::printSolutionVTK</text>
</a>
</g>
</g>
<!-- Node2 -->
<g id="node2" class="node">
<title>Node2</title>
<g id="a_node2"><a xlink:href="classSolutionxhtml#a4a125cf00e6d055d4e4f07f240bd5f06" target="_top" xlink:title="Returns the value of the conservative variable 1 (h) at nodeID.">
<polygon fill="white" stroke="black" points="216,-114.5 216,-133.5 347,-133.5 347,-114.5 216,-114.5"/>
<text text-anchor="middle" x="281.5" y="-121.5" font-family="Helvetica,sans-Serif" font-size="10.00">Solution::conservative1</text>
</a>
</g>
</g>
<!-- Node1&#45;&gt;Node2 -->
<g id="edge1" class="edge">
<title>Node1&#45;&gt;Node2</title>
<path fill="none" stroke="midnightblue" d="M122.06,-76.52C147.33,-84.25 183.95,-95.41 216,-105 223.23,-107.16 230.93,-109.45 238.39,-111.65"/>
<polygon fill="midnightblue" stroke="midnightblue" points="237.42,-115.02 248,-114.49 239.4,-108.3 237.42,-115.02"/>
</g>
<!-- Node3 -->
<g id="node3" class="node">
<title>Node3</title>
<g id="a_node3"><a xlink:href="classSolutionxhtml#a854dcab81b7d871752c058b007533faa" target="_top" xlink:title="Returns the value of the conservative variable 2 (h*u) at nodeID.">
<polygon fill="white" stroke="black" points="216,-76.5 216,-95.5 347,-95.5 347,-76.5 216,-76.5"/>
<text text-anchor="middle" x="281.5" y="-83.5" font-family="Helvetica,sans-Serif" font-size="10.00">Solution::conservative2</text>
</a>
</g>
</g>
<!-- Node1&#45;&gt;Node3 -->
<g id="edge2" class="edge">
<title>Node1&#45;&gt;Node3</title>
<path fill="none" stroke="midnightblue" d="M180.2,-75.94C188.73,-76.8 197.32,-77.66 205.7,-78.5"/>
<polygon fill="midnightblue" stroke="midnightblue" points="205.48,-82 215.78,-79.51 206.18,-75.03 205.48,-82"/>
</g>
<!-- Node4 -->
<g id="node4" class="node">
<title>Node4</title>
<g id="a_node4"><a xlink:href="classSolutionxhtml#a3b27c41a9fba14b1b4b60933cbcd5e2c" target="_top" xlink:title="Returns the value of the conservative variable 3 (h*v) at nodeID.">
<polygon fill="white" stroke="black" points="216,-38.5 216,-57.5 347,-57.5 347,-38.5 216,-38.5"/>
<text text-anchor="middle" x="281.5" y="-45.5" font-family="Helvetica,sans-Serif" font-size="10.00">Solution::conservative3</text>
</a>
</g>
</g>
<!-- Node1&#45;&gt;Node4 -->
<g id="edge3" class="edge">
<title>Node1&#45;&gt;Node4</title>
<path fill="none" stroke="midnightblue" d="M180.2,-58.06C188.73,-57.2 197.32,-56.34 205.7,-55.5"/>
<polygon fill="midnightblue" stroke="midnightblue" points="206.18,-58.97 215.78,-54.49 205.48,-52 206.18,-58.97"/>
</g>
<!-- Node5 -->
<g id="node5" class="node">
<title>Node5</title>
<g id="a_node5"><a xlink:href="namespaceswexhtml#aca666e377868955898f5bc54f97d8075" target="_top" xlink:title="Prints an error message and exit the program.">
<polygon fill="white" stroke="black" points="237.5,-0.5 237.5,-19.5 325.5,-19.5 325.5,-0.5 237.5,-0.5"/>
<text text-anchor="middle" x="281.5" y="-7.5" font-family="Helvetica,sans-Serif" font-size="10.00">swe::printError</text>
</a>
</g>
</g>
<!-- Node1&#45;&gt;Node5 -->
<g id="edge4" class="edge">
<title>Node1&#45;&gt;Node5</title>
<path fill="none" stroke="midnightblue" d="M122.06,-57.48C147.33,-49.75 183.95,-38.59 216,-29 223.23,-26.84 230.93,-24.55 238.39,-22.35"/>
<polygon fill="midnightblue" stroke="midnightblue" points="239.4,-25.7 248,-19.51 237.42,-18.98 239.4,-25.7"/>
</g>
</g>
</svg>
