<?xml version="1.0" encoding="UTF-8" standalone="no"?>
<!DOCTYPE svg PUBLIC "-//W3C//DTD SVG 1.1//EN"
 "http://www.w3.org/Graphics/SVG/1.1/DTD/svg11.dtd">
<!-- Generated by graphviz version 2.43.0 (0)
 -->
<!-- Title: Grid Pages: 1 -->
<svg width="334pt" height="441pt"
 viewBox="0.00 0.00 334.00 441.00" xmlns="http://www.w3.org/2000/svg" xmlns:xlink="http://www.w3.org/1999/xlink">
<g id="graph0" class="graph" transform="scale(1 1) rotate(0) translate(4 437)">
<title>Grid</title>
<polygon fill="white" stroke="transparent" points="-4,4 -4,-437 330,-437 330,4 -4,4"/>
<!-- Node1 -->
<g id="node1" class="node">
<title>Node1</title>
<g id="a_node1"><a xlink:title="Class Grid defines a 2D structured quadrilateral mesh on a rectangular domain.">
<polygon fill="#bfbfbf" stroke="black" points="108.5,-0.5 108.5,-167.5 287.5,-167.5 287.5,-0.5 108.5,-0.5"/>
<text text-anchor="middle" x="198" y="-155.5" font-family="Helvetica,sans-Serif" font-size="10.00">Grid</text>
<polyline fill="none" stroke="black" points="108.5,-148.5 287.5,-148.5 "/>
<text text-anchor="middle" x="198" y="-136.5" font-family="Helvetica,sans-Serif" font-size="10.00"> </text>
<polyline fill="none" stroke="black" points="108.5,-129.5 287.5,-129.5 "/>
<text text-anchor="start" x="116.5" y="-117.5" font-family="Helvetica,sans-Serif" font-size="10.00">+ Grid()</text>
<text text-anchor="start" x="116.5" y="-106.5" font-family="Helvetica,sans-Serif" font-size="10.00">+ Grid()</text>
<text text-anchor="start" x="116.5" y="-95.5" font-family="Helvetica,sans-Serif" font-size="10.00">+ ~Grid()</text>
<text text-anchor="start" x="116.5" y="-84.5" font-family="Helvetica,sans-Serif" font-size="10.00">+ buildUniformGrid()</text>
<text text-anchor="start" x="116.5" y="-73.5" font-family="Helvetica,sans-Serif" font-size="10.00">+ getAdjacentNodesToInterface()</text>
<text text-anchor="start" x="116.5" y="-62.5" font-family="Helvetica,sans-Serif" font-size="10.00">+ getNormalToDualGridEdge()</text>
<text text-anchor="start" x="116.5" y="-51.5" font-family="Helvetica,sans-Serif" font-size="10.00">+ getDualElementMeasures()</text>
<text text-anchor="start" x="116.5" y="-40.5" font-family="Helvetica,sans-Serif" font-size="10.00">+ getDualEdgeMeasure()</text>
<text text-anchor="start" x="116.5" y="-29.5" font-family="Helvetica,sans-Serif" font-size="10.00">+ getDualElementArea()</text>
<text text-anchor="start" x="116.5" y="-18.5" font-family="Helvetica,sans-Serif" font-size="10.00">+ getNNodes()</text>
<text text-anchor="start" x="116.5" y="-7.5" font-family="Helvetica,sans-Serif" font-size="10.00">+ getNInterfaces()</text>
</a>
</g>
</g>
<!-- Node2 -->
<g id="node2" class="node">
<title>Node2</title>
<g id="a_node2"><a xlink:title=" ">
<polygon fill="white" stroke="#bfbfbf" points="0,-259.5 0,-327.5 110,-327.5 110,-259.5 0,-259.5"/>
<text text-anchor="start" x="8" y="-315.5" font-family="Helvetica,sans-Serif" font-size="10.00">std::vector&lt; vector</text>
<text text-anchor="middle" x="55" y="-304.5" font-family="Helvetica,sans-Serif" font-size="10.00">&lt; int &gt; &gt;</text>
<polyline fill="none" stroke="#bfbfbf" points="0,-297.5 110,-297.5 "/>
<text text-anchor="middle" x="55" y="-285.5" font-family="Helvetica,sans-Serif" font-size="10.00"> </text>
<polyline fill="none" stroke="#bfbfbf" points="0,-278.5 110,-278.5 "/>
<text text-anchor="middle" x="55" y="-266.5" font-family="Helvetica,sans-Serif" font-size="10.00"> </text>
</a>
</g>
</g>
<!-- Node2&#45;&gt;Node1 -->
<g id="edge1" class="edge">
<title>Node2&#45;&gt;Node1</title>
<path fill="none" stroke="#404040" d="M55.04,-259.23C56.43,-237.12 60.95,-208.18 74,-186 80.92,-174.25 89.74,-163.29 99.49,-153.25"/>
<polygon fill="none" stroke="#404040" points="99.69,-153.05 101.18,-146 108.27,-144.66 106.78,-151.72 99.69,-153.05"/>
<text text-anchor="middle" x="134" y="-211" font-family="Helvetica,sans-Serif" font-size="10.00"> +nodesIDOfBoundaryID</text>
</g>
<!-- Node3 -->
<g id="node3" class="node">
<title>Node3</title>
<g id="a_node3"><a xlink:title=" ">
<polygon fill="white" stroke="#bfbfbf" points="13.5,-375.5 13.5,-432.5 96.5,-432.5 96.5,-375.5 13.5,-375.5"/>
<text text-anchor="middle" x="55" y="-420.5" font-family="Helvetica,sans-Serif" font-size="10.00">vector&lt; int &gt;</text>
<polyline fill="none" stroke="#bfbfbf" points="13.5,-413.5 96.5,-413.5 "/>
<text text-anchor="middle" x="55" y="-401.5" font-family="Helvetica,sans-Serif" font-size="10.00"> </text>
<polyline fill="none" stroke="#bfbfbf" points="13.5,-394.5 96.5,-394.5 "/>
<text text-anchor="middle" x="55" y="-382.5" font-family="Helvetica,sans-Serif" font-size="10.00"> </text>
</a>
</g>
</g>
<!-- Node3&#45;&gt;Node2 -->
<g id="edge2" class="edge">
<title>Node3&#45;&gt;Node2</title>
<path fill="none" stroke="#404040" d="M55,-375.34C55,-364.53 55,-351.85 55,-339.77"/>
<polygon fill="none" stroke="#404040" points="55,-339.52 51,-333.52 55,-327.52 59,-333.52 55,-339.52"/>
<text text-anchor="middle" x="84" y="-349" font-family="Helvetica,sans-Serif" font-size="10.00"> +elements</text>
</g>
<!-- Node4 -->
<g id="node4" class="node">
<title>Node4</title>
<g id="a_node4"><a xlink:title=" ">
<polygon fill="white" stroke="#bfbfbf" points="173,-265 173,-322 223,-322 223,-265 173,-265"/>
<text text-anchor="middle" x="198" y="-310" font-family="Helvetica,sans-Serif" font-size="10.00">double</text>
<polyline fill="none" stroke="#bfbfbf" points="173,-303 223,-303 "/>
<text text-anchor="middle" x="198" y="-291" font-family="Helvetica,sans-Serif" font-size="10.00"> </text>
<polyline fill="none" stroke="#bfbfbf" points="173,-284 223,-284 "/>
<text text-anchor="middle" x="198" y="-272" font-family="Helvetica,sans-Serif" font-size="10.00"> </text>
</a>
</g>
</g>
<!-- Node4&#45;&gt;Node1 -->
<g id="edge3" class="edge">
<title>Node4&#45;&gt;Node1</title>
<path fill="none" stroke="#404040" d="M198,-264.95C198,-243.05 198,-211.06 198,-180.1"/>
<polygon fill="none" stroke="#404040" points="198,-179.85 194,-173.85 198,-167.85 202,-173.85 198,-179.85"/>
<text text-anchor="middle" x="218.5" y="-233" font-family="Helvetica,sans-Serif" font-size="10.00"> +nodes</text>
<text text-anchor="middle" x="218.5" y="-222" font-family="Helvetica,sans-Serif" font-size="10.00">+y0</text>
<text text-anchor="middle" x="218.5" y="-211" font-family="Helvetica,sans-Serif" font-size="10.00">+x0</text>
<text text-anchor="middle" x="218.5" y="-200" font-family="Helvetica,sans-Serif" font-size="10.00">+yf</text>
<text text-anchor="middle" x="218.5" y="-189" font-family="Helvetica,sans-Serif" font-size="10.00">+xf</text>
</g>
<!-- Node5 -->
<g id="node5" class="node">
<title>Node5</title>
<g id="a_node5"><a xlink:title=" ">
<polygon fill="white" stroke="#bfbfbf" points="247.5,-265 247.5,-322 276.5,-322 276.5,-265 247.5,-265"/>
<text text-anchor="middle" x="262" y="-310" font-family="Helvetica,sans-Serif" font-size="10.00">int</text>
<polyline fill="none" stroke="#bfbfbf" points="247.5,-303 276.5,-303 "/>
<text text-anchor="middle" x="262" y="-291" font-family="Helvetica,sans-Serif" font-size="10.00"> </text>
<polyline fill="none" stroke="#bfbfbf" points="247.5,-284 276.5,-284 "/>
<text text-anchor="middle" x="262" y="-272" font-family="Helvetica,sans-Serif" font-size="10.00"> </text>
</a>
</g>
</g>
<!-- Node5&#45;&gt;Node1 -->
<g id="edge4" class="edge">
<title>Node5&#45;&gt;Node1</title>
<path fill="none" stroke="#404040" d="M257.8,-265C254.13,-243.28 248.12,-212.34 240,-186 239.31,-183.75 238.58,-181.49 237.83,-179.21"/>
<polygon fill="none" stroke="#404040" points="237.8,-179.11 232.06,-174.74 233.89,-167.76 239.62,-172.13 237.8,-179.11"/>
<text text-anchor="middle" x="289.5" y="-233" font-family="Helvetica,sans-Serif" font-size="10.00"> +nBoundaries</text>
<text text-anchor="middle" x="289.5" y="-222" font-family="Helvetica,sans-Serif" font-size="10.00">+nInterfaces</text>
<text text-anchor="middle" x="289.5" y="-211" font-family="Helvetica,sans-Serif" font-size="10.00">+nNodesX</text>
<text text-anchor="middle" x="289.5" y="-200" font-family="Helvetica,sans-Serif" font-size="10.00">+nNodesY</text>
<text text-anchor="middle" x="289.5" y="-189" font-family="Helvetica,sans-Serif" font-size="10.00">+nNodes</text>
</g>
</g>
</svg>
