<?xml version="1.0" encoding="UTF-8" standalone="no"?>
<!DOCTYPE svg PUBLIC "-//W3C//DTD SVG 1.1//EN"
 "http://www.w3.org/Graphics/SVG/1.1/DTD/svg11.dtd">
<!-- Generated by graphviz version 2.43.0 (0)
 -->
<!-- Title: Grid::Grid Pages: 1 -->
<svg width="360pt" height="332pt"
 viewBox="0.00 0.00 360.00 332.00" xmlns="http://www.w3.org/2000/svg" xmlns:xlink="http://www.w3.org/1999/xlink">
<g id="graph0" class="graph" transform="scale(1 1) rotate(0) translate(4 328)">
<title>Grid::Grid</title>
<polygon fill="white" stroke="transparent" points="-4,4 -4,-328 356,-328 356,4 -4,4"/>
<!-- Node1 -->
<g id="node1" class="node">
<title>Node1</title>
<g id="a_node1"><a xlink:title=" ">
<polygon fill="#bfbfbf" stroke="black" points="0,-152.5 0,-171.5 63,-171.5 63,-152.5 0,-152.5"/>
<text text-anchor="middle" x="31.5" y="-159.5" font-family="Helvetica,sans-Serif" font-size="10.00">Grid::Grid</text>
</a>
</g>
</g>
<!-- Node2 -->
<g id="node2" class="node">
<title>Node2</title>
<g id="a_node2"><a xlink:href="classGridxhtml#a957bfa776c9608ad647e946f55c276a7" target="_top" xlink:title="Builds a 2D structured quadrilateral mesh on a rectangular domain.">
<polygon fill="white" stroke="black" points="100,-304.5 100,-323.5 227,-323.5 227,-304.5 100,-304.5"/>
<text text-anchor="middle" x="163.5" y="-311.5" font-family="Helvetica,sans-Serif" font-size="10.00">Grid::buildUniformGrid</text>
</a>
</g>
</g>
<!-- Node1&#45;&gt;Node2 -->
<g id="edge1" class="edge">
<title>Node1&#45;&gt;Node2</title>
<path fill="none" stroke="midnightblue" d="M34.54,-171.68C40.21,-196.15 58.49,-260.95 99,-295 101,-296.68 103.15,-298.22 105.41,-299.62"/>
<polygon fill="midnightblue" stroke="midnightblue" points="104.04,-302.85 114.52,-304.37 107.27,-296.64 104.04,-302.85"/>
</g>
<!-- Node4 -->
<g id="node4" class="node">
<title>Node4</title>
<g id="a_node4"><a xlink:href="classGridxhtml#afd8ffc074f8481e1b9ef6b2db3a61da9" target="_top" xlink:title="Returns the number of interfaces (edges) on the mesh.">
<polygon fill="white" stroke="black" points="106,-266.5 106,-285.5 221,-285.5 221,-266.5 106,-266.5"/>
<text text-anchor="middle" x="163.5" y="-273.5" font-family="Helvetica,sans-Serif" font-size="10.00">Grid::getNInterfaces</text>
</a>
</g>
</g>
<!-- Node1&#45;&gt;Node4 -->
<g id="edge3" class="edge">
<title>Node1&#45;&gt;Node4</title>
<path fill="none" stroke="midnightblue" d="M36.61,-171.7C45.25,-190.93 67.17,-234.02 99,-257 101.71,-258.95 104.61,-260.71 107.64,-262.28"/>
<polygon fill="midnightblue" stroke="midnightblue" points="106.46,-265.59 117.01,-266.5 109.33,-259.2 106.46,-265.59"/>
</g>
<!-- Node5 -->
<g id="node5" class="node">
<title>Node5</title>
<g id="a_node5"><a xlink:href="classGridxhtml#a13ffa5ab5552148c9cf43ef546b6150e" target="_top" xlink:title="Returns the number of nodes on the mesh.">
<polygon fill="white" stroke="black" points="115,-228.5 115,-247.5 212,-247.5 212,-228.5 115,-228.5"/>
<text text-anchor="middle" x="163.5" y="-235.5" font-family="Helvetica,sans-Serif" font-size="10.00">Grid::getNNodes</text>
</a>
</g>
</g>
<!-- Node1&#45;&gt;Node5 -->
<g id="edge4" class="edge">
<title>Node1&#45;&gt;Node5</title>
<path fill="none" stroke="midnightblue" d="M41.45,-171.9C53.4,-184.55 75.78,-206.32 99,-219 103.03,-221.2 107.34,-223.17 111.76,-224.94"/>
<polygon fill="midnightblue" stroke="midnightblue" points="110.91,-228.36 121.51,-228.49 113.31,-221.78 110.91,-228.36"/>
</g>
<!-- Node6 -->
<g id="node6" class="node">
<title>Node6</title>
<g id="a_node6"><a xlink:href="classConfigxhtml#a03a9142584529a63d27a723f35f3dfee" target="_top" xlink:title="Gets the number of nodes on X&#45;direction.">
<polygon fill="white" stroke="black" points="106,-190.5 106,-209.5 221,-209.5 221,-190.5 106,-190.5"/>
<text text-anchor="middle" x="163.5" y="-197.5" font-family="Helvetica,sans-Serif" font-size="10.00">Config::getNNodesX</text>
</a>
</g>
</g>
<!-- Node1&#45;&gt;Node6 -->
<g id="edge5" class="edge">
<title>Node1&#45;&gt;Node6</title>
<path fill="none" stroke="midnightblue" d="M63.31,-171.01C80.24,-175.95 101.49,-182.17 119.98,-187.57"/>
<polygon fill="midnightblue" stroke="midnightblue" points="119.06,-190.95 129.64,-190.39 121.02,-184.23 119.06,-190.95"/>
</g>
<!-- Node7 -->
<g id="node7" class="node">
<title>Node7</title>
<g id="a_node7"><a xlink:href="classConfigxhtml#a430a593945597ac6a8b0a5250ffc1595" target="_top" xlink:title="Gets the number of nodes on Y&#45;direction.">
<polygon fill="white" stroke="black" points="106.5,-152.5 106.5,-171.5 220.5,-171.5 220.5,-152.5 106.5,-152.5"/>
<text text-anchor="middle" x="163.5" y="-159.5" font-family="Helvetica,sans-Serif" font-size="10.00">Config::getNNodesY</text>
</a>
</g>
</g>
<!-- Node1&#45;&gt;Node7 -->
<g id="edge6" class="edge">
<title>Node1&#45;&gt;Node7</title>
<path fill="none" stroke="midnightblue" d="M63.31,-162C73.3,-162 84.79,-162 96.33,-162"/>
<polygon fill="midnightblue" stroke="midnightblue" points="96.45,-165.5 106.45,-162 96.45,-158.5 96.45,-165.5"/>
</g>
<!-- Node8 -->
<g id="node8" class="node">
<title>Node8</title>
<g id="a_node8"><a xlink:href="classConfigxhtml#a722ef1ddbae7fba43985a9416fd44bc9" target="_top" xlink:title="Gets the X&#45;coordinate of the second vertex on X&#45;axis.">
<polygon fill="white" stroke="black" points="101.5,-114.5 101.5,-133.5 225.5,-133.5 225.5,-114.5 101.5,-114.5"/>
<text text-anchor="middle" x="163.5" y="-121.5" font-family="Helvetica,sans-Serif" font-size="10.00">Config::getXFinalLimit</text>
</a>
</g>
</g>
<!-- Node1&#45;&gt;Node8 -->
<g id="edge7" class="edge">
<title>Node1&#45;&gt;Node8</title>
<path fill="none" stroke="midnightblue" d="M63.31,-152.99C80.24,-148.05 101.49,-141.83 119.98,-136.43"/>
<polygon fill="midnightblue" stroke="midnightblue" points="121.02,-139.77 129.64,-133.61 119.06,-133.05 121.02,-139.77"/>
</g>
<!-- Node9 -->
<g id="node9" class="node">
<title>Node9</title>
<g id="a_node9"><a xlink:href="classConfigxhtml#a2a0eb2a5282ac784e092e80ef12ab164" target="_top" xlink:title="Gets the X&#45;coordinate of the first vertex on X&#45;axis.">
<polygon fill="white" stroke="black" points="99,-76.5 99,-95.5 228,-95.5 228,-76.5 99,-76.5"/>
<text text-anchor="middle" x="163.5" y="-83.5" font-family="Helvetica,sans-Serif" font-size="10.00">Config::getXInitialLimit</text>
</a>
</g>
</g>
<!-- Node1&#45;&gt;Node9 -->
<g id="edge8" class="edge">
<title>Node1&#45;&gt;Node9</title>
<path fill="none" stroke="midnightblue" d="M41.45,-152.1C53.4,-139.45 75.78,-117.68 99,-105 103.03,-102.8 107.34,-100.83 111.76,-99.06"/>
<polygon fill="midnightblue" stroke="midnightblue" points="113.31,-102.22 121.51,-95.51 110.91,-95.64 113.31,-102.22"/>
</g>
<!-- Node10 -->
<g id="node10" class="node">
<title>Node10</title>
<g id="a_node10"><a xlink:href="classConfigxhtml#ae107c6263a2861886a8f86b2356da887" target="_top" xlink:title="Gets the Y&#45;coordinate of the second vertex on Y&#45;axis.">
<polygon fill="white" stroke="black" points="102,-38.5 102,-57.5 225,-57.5 225,-38.5 102,-38.5"/>
<text text-anchor="middle" x="163.5" y="-45.5" font-family="Helvetica,sans-Serif" font-size="10.00">Config::getYFinalLimit</text>
</a>
</g>
</g>
<!-- Node1&#45;&gt;Node10 -->
<g id="edge9" class="edge">
<title>Node1&#45;&gt;Node10</title>
<path fill="none" stroke="midnightblue" d="M36.61,-152.3C45.25,-133.07 67.17,-89.98 99,-67 101.71,-65.05 104.61,-63.29 107.64,-61.72"/>
<polygon fill="midnightblue" stroke="midnightblue" points="109.33,-64.8 117.01,-57.5 106.46,-58.41 109.33,-64.8"/>
</g>
<!-- Node11 -->
<g id="node11" class="node">
<title>Node11</title>
<g id="a_node11"><a xlink:href="classConfigxhtml#ab777cf7a3d3d25bf2bd23169a3596c92" target="_top" xlink:title="Gets the Y&#45;coordinate of the first vertex on Y&#45;axis.">
<polygon fill="white" stroke="black" points="99.5,-0.5 99.5,-19.5 227.5,-19.5 227.5,-0.5 99.5,-0.5"/>
<text text-anchor="middle" x="163.5" y="-7.5" font-family="Helvetica,sans-Serif" font-size="10.00">Config::getYInitialLimit</text>
</a>
</g>
</g>
<!-- Node1&#45;&gt;Node11 -->
<g id="edge10" class="edge">
<title>Node1&#45;&gt;Node11</title>
<path fill="none" stroke="midnightblue" d="M34.54,-152.32C40.21,-127.85 58.49,-63.05 99,-29 101,-27.32 103.15,-25.78 105.41,-24.38"/>
<polygon fill="midnightblue" stroke="midnightblue" points="107.27,-27.36 114.52,-19.63 104.04,-21.15 107.27,-27.36"/>
</g>
<!-- Node3 -->
<g id="node3" class="node">
<title>Node3</title>
<g id="a_node3"><a xlink:href="namespaceswexhtml#aca666e377868955898f5bc54f97d8075" target="_top" xlink:title="Prints an error message and exit the program.">
<polygon fill="white" stroke="black" points="264,-304.5 264,-323.5 352,-323.5 352,-304.5 264,-304.5"/>
<text text-anchor="middle" x="308" y="-311.5" font-family="Helvetica,sans-Serif" font-size="10.00">swe::printError</text>
</a>
</g>
</g>
<!-- Node2&#45;&gt;Node3 -->
<g id="edge2" class="edge">
<title>Node2&#45;&gt;Node3</title>
<path fill="none" stroke="midnightblue" d="M227,-314C235.92,-314 245.03,-314 253.76,-314"/>
<polygon fill="midnightblue" stroke="midnightblue" points="253.78,-317.5 263.78,-314 253.78,-310.5 253.78,-317.5"/>
</g>
</g>
</svg>
