<?xml version="1.0" encoding="UTF-8" standalone="no"?>
<!DOCTYPE svg PUBLIC "-//W3C//DTD SVG 1.1//EN"
 "http://www.w3.org/Graphics/SVG/1.1/DTD/svg11.dtd">
<!-- Generated by graphviz version 2.43.0 (0)
 -->
<!-- Title: LaxWendroffFlux Pages: 1 -->
<svg width="135pt" height="314pt"
 viewBox="0.00 0.00 135.00 314.00" xmlns="http://www.w3.org/2000/svg" xmlns:xlink="http://www.w3.org/1999/xlink">
<g id="graph0" class="graph" transform="scale(1 1) rotate(0) translate(4 310)">
<title>LaxWendroffFlux</title>
<polygon fill="white" stroke="transparent" points="-4,4 -4,-310 131,-310 131,4 -4,4"/>
<!-- Node1 -->
<g id="node1" class="node">
<title>Node1</title>
<g id="a_node1"><a xlink:title="Child class LaxWendroffFlux defines attributes and methods for computing the numerical flux with Lax&#45;...">
<polygon fill="#bfbfbf" stroke="black" points="0,-0.5 0,-112.5 127,-112.5 127,-0.5 0,-0.5"/>
<text text-anchor="middle" x="63.5" y="-100.5" font-family="Helvetica,sans-Serif" font-size="10.00">LaxWendroffFlux</text>
<polyline fill="none" stroke="black" points="0,-93.5 127,-93.5 "/>
<text text-anchor="start" x="8" y="-81.5" font-family="Helvetica,sans-Serif" font-size="10.00">&#45; flux_inter</text>
<text text-anchor="start" x="8" y="-70.5" font-family="Helvetica,sans-Serif" font-size="10.00">&#45; velocity_inter</text>
<text text-anchor="start" x="8" y="-59.5" font-family="Helvetica,sans-Serif" font-size="10.00">&#45; projJacobian</text>
<text text-anchor="start" x="8" y="-48.5" font-family="Helvetica,sans-Serif" font-size="10.00">&#45; height_inter</text>
<polyline fill="none" stroke="black" points="0,-41.5 127,-41.5 "/>
<text text-anchor="start" x="8" y="-29.5" font-family="Helvetica,sans-Serif" font-size="10.00">+ LaxWendroffFlux()</text>
<text text-anchor="start" x="8" y="-18.5" font-family="Helvetica,sans-Serif" font-size="10.00">+ ~LaxWendroffFlux()</text>
<text text-anchor="start" x="8" y="-7.5" font-family="Helvetica,sans-Serif" font-size="10.00">+ computeFlux()</text>
</a>
</g>
</g>
<!-- Node2 -->
<g id="node2" class="node">
<title>Node2</title>
<g id="a_node2"><a xlink:href="classNumericalFluxesxhtml" target="_top" xlink:title="Class NumericalFluxes is an abstract class defining general attributes used to compute numerical flux...">
<polygon fill="white" stroke="black" points="0.5,-149.5 0.5,-305.5 126.5,-305.5 126.5,-149.5 0.5,-149.5"/>
<text text-anchor="middle" x="63.5" y="-293.5" font-family="Helvetica,sans-Serif" font-size="10.00">NumericalFluxes</text>
<polyline fill="none" stroke="black" points="0.5,-286.5 126.5,-286.5 "/>
<text text-anchor="start" x="8.5" y="-274.5" font-family="Helvetica,sans-Serif" font-size="10.00">+ numericalFlux</text>
<text text-anchor="start" x="8.5" y="-263.5" font-family="Helvetica,sans-Serif" font-size="10.00"># normal</text>
<text text-anchor="start" x="8.5" y="-252.5" font-family="Helvetica,sans-Serif" font-size="10.00"># flux_l</text>
<text text-anchor="start" x="8.5" y="-241.5" font-family="Helvetica,sans-Serif" font-size="10.00"># flux_r</text>
<text text-anchor="start" x="8.5" y="-230.5" font-family="Helvetica,sans-Serif" font-size="10.00"># velocity_l</text>
<text text-anchor="start" x="8.5" y="-219.5" font-family="Helvetica,sans-Serif" font-size="10.00"># velocity_r</text>
<text text-anchor="start" x="8.5" y="-208.5" font-family="Helvetica,sans-Serif" font-size="10.00"># height_l</text>
<text text-anchor="start" x="8.5" y="-197.5" font-family="Helvetica,sans-Serif" font-size="10.00"># height_r</text>
<polyline fill="none" stroke="black" points="0.5,-190.5 126.5,-190.5 "/>
<text text-anchor="start" x="8.5" y="-178.5" font-family="Helvetica,sans-Serif" font-size="10.00">+ NumericalFluxes()</text>
<text text-anchor="start" x="8.5" y="-167.5" font-family="Helvetica,sans-Serif" font-size="10.00">+ ~NumericalFluxes()</text>
<text text-anchor="start" x="8.5" y="-156.5" font-family="Helvetica,sans-Serif" font-size="10.00">+ computeFlux()</text>
</a>
</g>
</g>
<!-- Node2&#45;&gt;Node1 -->
<g id="edge1" class="edge">
<title>Node2&#45;&gt;Node1</title>
<path fill="none" stroke="midnightblue" d="M63.5,-139.25C63.5,-130.24 63.5,-121.28 63.5,-112.76"/>
<polygon fill="none" stroke="midnightblue" points="60,-139.42 63.5,-149.42 67,-139.42 60,-139.42"/>
</g>
</g>
</svg>
