<?xml version="1.0" encoding="UTF-8" standalone="no"?>
<!DOCTYPE svg PUBLIC "-//W3C//DTD SVG 1.1//EN"
 "http://www.w3.org/Graphics/SVG/1.1/DTD/svg11.dtd">
<!-- Generated by graphviz version 2.43.0 (0)
 -->
<!-- Title: HighResFlux::computeFlux Pages: 1 -->
<svg width="906pt" height="546pt"
 viewBox="0.00 0.00 906.00 546.00" xmlns="http://www.w3.org/2000/svg" xmlns:xlink="http://www.w3.org/1999/xlink">
<g id="graph0" class="graph" transform="scale(1 1) rotate(0) translate(4 542)">
<title>HighResFlux::computeFlux</title>
<polygon fill="white" stroke="transparent" points="-4,4 -4,-542 902,-542 902,4 -4,4"/>
<!-- Node1 -->
<g id="node1" class="node">
<title>Node1</title>
<g id="a_node1"><a xlink:title="Overridden method for computing the numerical flux on interfaceID using an high resolution scheme.">
<polygon fill="#bfbfbf" stroke="black" points="0,-228.5 0,-247.5 148,-247.5 148,-228.5 0,-228.5"/>
<text text-anchor="middle" x="74" y="-235.5" font-family="Helvetica,sans-Serif" font-size="10.00">HighResFlux::computeFlux</text>
</a>
</g>
</g>
<!-- Node2 -->
<g id="node2" class="node">
<title>Node2</title>
<g id="a_node2"><a xlink:href="classRoeFluxxhtml#a3b06be2b2c76bb0f2605eb5639d04651" target="_top" xlink:title="Overridden method for computing the numerical flux on interfaceID using the Roe linearization.">
<polygon fill="white" stroke="black" points="198.5,-316.5 198.5,-335.5 324.5,-335.5 324.5,-316.5 198.5,-316.5"/>
<text text-anchor="middle" x="261.5" y="-323.5" font-family="Helvetica,sans-Serif" font-size="10.00">RoeFlux::computeFlux</text>
</a>
</g>
</g>
<!-- Node1&#45;&gt;Node2 -->
<g id="edge1" class="edge">
<title>Node1&#45;&gt;Node2</title>
<path fill="none" stroke="midnightblue" d="M95.2,-247.59C127.96,-263.12 192.81,-293.89 230.82,-311.92"/>
<polygon fill="midnightblue" stroke="midnightblue" points="229.78,-315.3 240.32,-316.43 232.79,-308.98 229.78,-315.3"/>
</g>
<!-- Node3 -->
<g id="node3" class="node">
<title>Node3</title>
<g id="a_node3"><a xlink:href="classSolutionxhtml#a4a125cf00e6d055d4e4f07f240bd5f06" target="_top" xlink:title="Returns the value of the conservative variable 1 (h) at nodeID.">
<polygon fill="white" stroke="black" points="406.5,-518.5 406.5,-537.5 537.5,-537.5 537.5,-518.5 406.5,-518.5"/>
<text text-anchor="middle" x="472" y="-525.5" font-family="Helvetica,sans-Serif" font-size="10.00">Solution::conservative1</text>
</a>
</g>
</g>
<!-- Node1&#45;&gt;Node3 -->
<g id="edge14" class="edge">
<title>Node1&#45;&gt;Node3</title>
<path fill="none" stroke="midnightblue" d="M77.37,-247.87C85.81,-280.88 117.48,-388.43 184,-445 243.7,-495.77 332.9,-515.52 395.98,-523.19"/>
<polygon fill="midnightblue" stroke="midnightblue" points="395.94,-526.7 406.27,-524.36 396.73,-519.75 395.94,-526.7"/>
</g>
<!-- Node4 -->
<g id="node4" class="node">
<title>Node4</title>
<g id="a_node4"><a xlink:href="classSolutionxhtml#a854dcab81b7d871752c058b007533faa" target="_top" xlink:title="Returns the value of the conservative variable 2 (h*u) at nodeID.">
<polygon fill="white" stroke="black" points="406.5,-480.5 406.5,-499.5 537.5,-499.5 537.5,-480.5 406.5,-480.5"/>
<text text-anchor="middle" x="472" y="-487.5" font-family="Helvetica,sans-Serif" font-size="10.00">Solution::conservative2</text>
</a>
</g>
</g>
<!-- Node1&#45;&gt;Node4 -->
<g id="edge15" class="edge">
<title>Node1&#45;&gt;Node4</title>
<path fill="none" stroke="midnightblue" d="M79.16,-247.64C91.31,-274.8 129.43,-352.72 184,-396 245.77,-444.99 334.01,-468.86 396.3,-480.22"/>
<polygon fill="midnightblue" stroke="midnightblue" points="395.99,-483.72 406.45,-482 397.2,-476.83 395.99,-483.72"/>
</g>
<!-- Node5 -->
<g id="node5" class="node">
<title>Node5</title>
<g id="a_node5"><a xlink:href="classSolutionxhtml#a3b27c41a9fba14b1b4b60933cbcd5e2c" target="_top" xlink:title="Returns the value of the conservative variable 3 (h*v) at nodeID.">
<polygon fill="white" stroke="black" points="406.5,-442.5 406.5,-461.5 537.5,-461.5 537.5,-442.5 406.5,-442.5"/>
<text text-anchor="middle" x="472" y="-449.5" font-family="Helvetica,sans-Serif" font-size="10.00">Solution::conservative3</text>
</a>
</g>
</g>
<!-- Node1&#45;&gt;Node5 -->
<g id="edge16" class="edge">
<title>Node1&#45;&gt;Node5</title>
<path fill="none" stroke="midnightblue" d="M82.85,-247.7C99.63,-267.96 141,-315.33 184,-345 260.93,-398.08 286.09,-404.17 375,-433 383.4,-435.72 392.34,-438.12 401.26,-440.22"/>
<polygon fill="midnightblue" stroke="midnightblue" points="400.77,-443.7 411.29,-442.46 402.29,-436.86 400.77,-443.7"/>
</g>
<!-- Node6 -->
<g id="node6" class="node">
<title>Node6</title>
<g id="a_node6"><a xlink:href="classGridxhtml#a4e37698e22ce482fa5ab2527dc78f0a9" target="_top" xlink:title="Gets the adjacent nodes to an interface (edge)">
<polygon fill="white" stroke="black" points="618,-141 618,-171 761,-171 761,-141 618,-141"/>
<text text-anchor="start" x="626" y="-159" font-family="Helvetica,sans-Serif" font-size="10.00">Grid::getAdjacentNodesTo</text>
<text text-anchor="middle" x="689.5" y="-148" font-family="Helvetica,sans-Serif" font-size="10.00">Interface</text>
</a>
</g>
</g>
<!-- Node1&#45;&gt;Node6 -->
<g id="edge17" class="edge">
<title>Node1&#45;&gt;Node6</title>
<path fill="none" stroke="midnightblue" d="M117.49,-228.42C175.41,-215.71 282.53,-193.44 375,-181 453.68,-170.42 544.12,-163.79 607.58,-160.04"/>
<polygon fill="midnightblue" stroke="midnightblue" points="608.14,-163.52 617.92,-159.44 607.73,-156.53 608.14,-163.52"/>
</g>
<!-- Node9 -->
<g id="node9" class="node">
<title>Node9</title>
<g id="a_node9"><a xlink:href="classModelEquationsxhtml#a63dc8124ff79ec29985885f605c4d9c2" target="_top" xlink:title="Sets the eigenvalues projected on the direction defined by the normal.">
<polygon fill="white" stroke="black" points="375,-228.5 375,-247.5 569,-247.5 569,-228.5 375,-228.5"/>
<text text-anchor="middle" x="472" y="-235.5" font-family="Helvetica,sans-Serif" font-size="10.00">ModelEquations::setProjEigenvalues</text>
</a>
</g>
</g>
<!-- Node1&#45;&gt;Node9 -->
<g id="edge26" class="edge">
<title>Node1&#45;&gt;Node9</title>
<path fill="none" stroke="midnightblue" d="M148.09,-238C208.78,-238 295.93,-238 364.4,-238"/>
<polygon fill="midnightblue" stroke="midnightblue" points="364.79,-241.5 374.79,-238 364.79,-234.5 364.79,-241.5"/>
</g>
<!-- Node13 -->
<g id="node13" class="node">
<title>Node13</title>
<g id="a_node13"><a xlink:href="classGridxhtml#aa3c3eb4bc0025097011a570976b5ef74" target="_top" xlink:title="Returns the measure of an edge of the dual grid.">
<polygon fill="white" stroke="black" points="188,-114.5 188,-133.5 335,-133.5 335,-114.5 188,-114.5"/>
<text text-anchor="middle" x="261.5" y="-121.5" font-family="Helvetica,sans-Serif" font-size="10.00">Grid::getDualEdgeMeasure</text>
</a>
</g>
</g>
<!-- Node1&#45;&gt;Node13 -->
<g id="edge18" class="edge">
<title>Node1&#45;&gt;Node13</title>
<path fill="none" stroke="midnightblue" d="M83.99,-228.43C101.56,-210.27 142.37,-170.59 184,-148 192.18,-143.56 201.3,-139.81 210.31,-136.68"/>
<polygon fill="midnightblue" stroke="midnightblue" points="211.57,-139.95 220,-133.53 209.41,-133.29 211.57,-139.95"/>
</g>
<!-- Node15 -->
<g id="node15" class="node">
<title>Node15</title>
<g id="a_node15"><a xlink:href="classHighResFluxxhtml#a8b49e66f58f79c89170ee0aed5f2f2f4" target="_top" xlink:title="Sets the value of the flux limiter.">
<polygon fill="white" stroke="black" points="184,-67.5 184,-86.5 339,-86.5 339,-67.5 184,-67.5"/>
<text text-anchor="middle" x="261.5" y="-74.5" font-family="Helvetica,sans-Serif" font-size="10.00">HighResFlux::setFluxLimiter</text>
</a>
</g>
</g>
<!-- Node1&#45;&gt;Node15 -->
<g id="edge24" class="edge">
<title>Node1&#45;&gt;Node15</title>
<path fill="none" stroke="midnightblue" d="M80.31,-228.49C94.22,-204.41 134.1,-140.44 184,-105 192.65,-98.86 202.8,-93.91 212.83,-89.98"/>
<polygon fill="midnightblue" stroke="midnightblue" points="214.15,-93.23 222.35,-86.53 211.76,-86.65 214.15,-93.23"/>
</g>
<!-- Node16 -->
<g id="node16" class="node">
<title>Node16</title>
<g id="a_node16"><a xlink:href="NumericalFluxes_8hxhtml#a1ab31b90bc584c635ec159468ceed9b2" target="_top" xlink:title="Returns the sign of the object T.">
<polygon fill="white" stroke="black" points="455,-0.5 455,-19.5 489,-19.5 489,-0.5 455,-0.5"/>
<text text-anchor="middle" x="472" y="-7.5" font-family="Helvetica,sans-Serif" font-size="10.00">sgn</text>
</a>
</g>
</g>
<!-- Node1&#45;&gt;Node16 -->
<g id="edge27" class="edge">
<title>Node1&#45;&gt;Node16</title>
<path fill="none" stroke="midnightblue" d="M77.74,-228.17C86.91,-197.28 119.6,-101.68 184,-58 265.94,-2.42 390.64,-3.81 444.6,-7.51"/>
<polygon fill="midnightblue" stroke="midnightblue" points="444.46,-11.01 454.7,-8.3 445,-4.04 444.46,-11.01"/>
</g>
<!-- Node2&#45;&gt;Node3 -->
<g id="edge2" class="edge">
<title>Node2&#45;&gt;Node3</title>
<path fill="none" stroke="midnightblue" d="M265.44,-335.92C275.21,-367.08 309.78,-463.66 375,-509 381.52,-513.53 388.87,-517.05 396.51,-519.76"/>
<polygon fill="midnightblue" stroke="midnightblue" points="395.73,-523.18 406.32,-522.78 397.79,-516.49 395.73,-523.18"/>
</g>
<!-- Node2&#45;&gt;Node4 -->
<g id="edge3" class="edge">
<title>Node2&#45;&gt;Node4</title>
<path fill="none" stroke="midnightblue" d="M266.93,-335.71C279.59,-362.22 318.61,-436.18 375,-471 381.66,-475.11 389.03,-478.36 396.64,-480.92"/>
<polygon fill="midnightblue" stroke="midnightblue" points="395.78,-484.32 406.37,-483.81 397.78,-477.61 395.78,-484.32"/>
</g>
<!-- Node2&#45;&gt;Node5 -->
<g id="edge4" class="edge">
<title>Node2&#45;&gt;Node5</title>
<path fill="none" stroke="midnightblue" d="M273.01,-335.52C287.86,-349.04 315.77,-374.62 339,-397 355.3,-412.7 355.04,-422.34 375,-433 381.8,-436.63 389.2,-439.57 396.78,-441.95"/>
<polygon fill="midnightblue" stroke="midnightblue" points="395.87,-445.33 406.44,-444.67 397.77,-438.59 395.87,-445.33"/>
</g>
<!-- Node2&#45;&gt;Node6 -->
<g id="edge5" class="edge">
<title>Node2&#45;&gt;Node6</title>
<path fill="none" stroke="midnightblue" d="M296.33,-316.39C318.59,-310.21 348.43,-302.21 375,-296 460.64,-275.99 489.81,-295.26 569,-257 608.99,-237.68 646.65,-201.83 668.64,-178.46"/>
<polygon fill="midnightblue" stroke="midnightblue" points="671.27,-180.77 675.48,-171.05 666.12,-176.02 671.27,-180.77"/>
</g>
<!-- Node8 -->
<g id="node8" class="node">
<title>Node8</title>
<g id="a_node8"><a xlink:href="classGridxhtml#a267c212cd957e88a027c520dae9c1a4c" target="_top" xlink:title="Gets the normal vector to an edge of the dual grid.">
<polygon fill="white" stroke="black" points="386,-190.5 386,-209.5 558,-209.5 558,-190.5 386,-190.5"/>
<text text-anchor="middle" x="472" y="-197.5" font-family="Helvetica,sans-Serif" font-size="10.00">Grid::getNormalToDualGridEdge</text>
</a>
</g>
</g>
<!-- Node2&#45;&gt;Node8 -->
<g id="edge7" class="edge">
<title>Node2&#45;&gt;Node8</title>
<path fill="none" stroke="midnightblue" d="M269.42,-316.44C285.39,-295.15 327.13,-243.79 375,-219 379.6,-216.62 384.46,-214.54 389.46,-212.71"/>
<polygon fill="midnightblue" stroke="midnightblue" points="390.8,-215.96 399.21,-209.52 388.62,-209.31 390.8,-215.96"/>
</g>
<!-- Node2&#45;&gt;Node9 -->
<g id="edge10" class="edge">
<title>Node2&#45;&gt;Node9</title>
<path fill="none" stroke="midnightblue" d="M276.43,-316.4C297.09,-302.57 337.45,-277.04 375,-262 386.7,-257.31 399.58,-253.34 412.01,-250.06"/>
<polygon fill="midnightblue" stroke="midnightblue" points="413,-253.41 421.84,-247.57 411.29,-246.63 413,-253.41"/>
</g>
<!-- Node10 -->
<g id="node10" class="node">
<title>Node10</title>
<g id="a_node10"><a xlink:href="classModelEquationsxhtml#af36c6cb949a2afa74888d79aa3c3dcc9" target="_top" xlink:title="Sets the flux vector projected on the direction defined by the normal.">
<polygon fill="white" stroke="black" points="394.5,-354.5 394.5,-373.5 549.5,-373.5 549.5,-354.5 394.5,-354.5"/>
<text text-anchor="middle" x="472" y="-361.5" font-family="Helvetica,sans-Serif" font-size="10.00">ModelEquations::setProjFlux</text>
</a>
</g>
</g>
<!-- Node2&#45;&gt;Node10 -->
<g id="edge11" class="edge">
<title>Node2&#45;&gt;Node10</title>
<path fill="none" stroke="midnightblue" d="M314.84,-335.54C343.35,-340.73 378.8,-347.2 408.72,-352.65"/>
<polygon fill="midnightblue" stroke="midnightblue" points="408.17,-356.11 418.63,-354.46 409.42,-349.22 408.17,-356.11"/>
</g>
<!-- Node11 -->
<g id="node11" class="node">
<title>Node11</title>
<g id="a_node11"><a xlink:href="classModelEquationsxhtml#ab71e479ad381fcf52769b011e1b7a76f" target="_top" xlink:title="Sets the matrix of left eigenvectors projected on the direction defined by the normal.">
<polygon fill="white" stroke="black" points="395.5,-305 395.5,-335 548.5,-335 548.5,-305 395.5,-305"/>
<text text-anchor="start" x="403.5" y="-323" font-family="Helvetica,sans-Serif" font-size="10.00">ModelEquations::setProjLeft</text>
<text text-anchor="middle" x="472" y="-312" font-family="Helvetica,sans-Serif" font-size="10.00">Matrix</text>
</a>
</g>
</g>
<!-- Node2&#45;&gt;Node11 -->
<g id="edge12" class="edge">
<title>Node2&#45;&gt;Node11</title>
<path fill="none" stroke="midnightblue" d="M324.77,-324.21C343.77,-323.66 364.99,-323.05 385.25,-322.47"/>
<polygon fill="midnightblue" stroke="midnightblue" points="385.52,-325.96 395.42,-322.18 385.32,-318.96 385.52,-325.96"/>
</g>
<!-- Node12 -->
<g id="node12" class="node">
<title>Node12</title>
<g id="a_node12"><a xlink:href="classModelEquationsxhtml#afa722d5fa5faeb0e1baaba5b1d5fd9b9" target="_top" xlink:title="Sets the matrix of right eigenvectors projected on the direction defined by the normal.">
<polygon fill="white" stroke="black" points="392,-393 392,-423 552,-423 552,-393 392,-393"/>
<text text-anchor="start" x="400" y="-411" font-family="Helvetica,sans-Serif" font-size="10.00">ModelEquations::setProjRight</text>
<text text-anchor="middle" x="472" y="-400" font-family="Helvetica,sans-Serif" font-size="10.00">Matrix</text>
</a>
</g>
</g>
<!-- Node2&#45;&gt;Node12 -->
<g id="edge13" class="edge">
<title>Node2&#45;&gt;Node12</title>
<path fill="none" stroke="midnightblue" d="M278.77,-335.65C300.2,-348.03 339.37,-369.51 375,-383 381.7,-385.54 388.76,-387.91 395.88,-390.1"/>
<polygon fill="midnightblue" stroke="midnightblue" points="395.02,-393.5 405.6,-392.98 397.01,-386.79 395.02,-393.5"/>
</g>
<!-- Node7 -->
<g id="node7" class="node">
<title>Node7</title>
<g id="a_node7"><a xlink:href="namespaceswexhtml#aca666e377868955898f5bc54f97d8075" target="_top" xlink:title="Prints an error message and exit the program.">
<polygon fill="white" stroke="black" points="810,-111.5 810,-130.5 898,-130.5 898,-111.5 810,-111.5"/>
<text text-anchor="middle" x="854" y="-118.5" font-family="Helvetica,sans-Serif" font-size="10.00">swe::printError</text>
</a>
</g>
</g>
<!-- Node6&#45;&gt;Node7 -->
<g id="edge6" class="edge">
<title>Node6&#45;&gt;Node7</title>
<path fill="none" stroke="midnightblue" d="M760.36,-140.95C773.66,-138.09 787.38,-135.13 800.05,-132.4"/>
<polygon fill="midnightblue" stroke="midnightblue" points="800.92,-135.8 809.96,-130.27 799.45,-128.95 800.92,-135.8"/>
</g>
<!-- Node8&#45;&gt;Node6 -->
<g id="edge8" class="edge">
<title>Node8&#45;&gt;Node6</title>
<path fill="none" stroke="midnightblue" d="M519.76,-190.45C545.45,-185.21 578.04,-178.55 607.71,-172.49"/>
<polygon fill="midnightblue" stroke="midnightblue" points="608.55,-175.9 617.65,-170.47 607.15,-169.04 608.55,-175.9"/>
</g>
<!-- Node8&#45;&gt;Node7 -->
<g id="edge9" class="edge">
<title>Node8&#45;&gt;Node7</title>
<path fill="none" stroke="midnightblue" d="M558.11,-207.51C619.93,-209.92 704.56,-206.84 774,-181 798.51,-171.88 821.75,-152.46 836.59,-138.18"/>
<polygon fill="midnightblue" stroke="midnightblue" points="839.31,-140.4 843.93,-130.87 834.37,-135.44 839.31,-140.4"/>
</g>
<!-- Node13&#45;&gt;Node6 -->
<g id="edge19" class="edge">
<title>Node13&#45;&gt;Node6</title>
<path fill="none" stroke="midnightblue" d="M335.25,-129.46C410.87,-135.14 528.94,-144.01 607.49,-149.91"/>
<polygon fill="midnightblue" stroke="midnightblue" points="607.59,-153.43 617.82,-150.69 608.11,-146.45 607.59,-153.43"/>
</g>
<!-- Node13&#45;&gt;Node7 -->
<g id="edge23" class="edge">
<title>Node13&#45;&gt;Node7</title>
<path fill="none" stroke="midnightblue" d="M296.18,-114.41C318.39,-108.46 348.21,-101.18 375,-97 550.38,-69.66 601.57,-37.92 774,-80 794.51,-85.01 815.63,-96.35 830.87,-105.84"/>
<polygon fill="midnightblue" stroke="midnightblue" points="829.24,-108.95 839.54,-111.43 833.04,-103.07 829.24,-108.95"/>
</g>
<!-- Node13&#45;&gt;Node8 -->
<g id="edge22" class="edge">
<title>Node13&#45;&gt;Node8</title>
<path fill="none" stroke="midnightblue" d="M288.91,-133.63C326.04,-147.16 393.77,-171.85 435.34,-187"/>
<polygon fill="midnightblue" stroke="midnightblue" points="434.21,-190.32 444.81,-190.45 436.61,-183.74 434.21,-190.32"/>
</g>
<!-- Node14 -->
<g id="node14" class="node">
<title>Node14</title>
<g id="a_node14"><a xlink:href="classGridxhtml#a91328f210cc0eeee8177d075d0efa4eb" target="_top" xlink:title="Gets measures of a dual grid element (length of both edges)">
<polygon fill="white" stroke="black" points="605,-89.5 605,-108.5 774,-108.5 774,-89.5 605,-89.5"/>
<text text-anchor="middle" x="689.5" y="-96.5" font-family="Helvetica,sans-Serif" font-size="10.00">Grid::getDualElementMeasures</text>
</a>
</g>
</g>
<!-- Node13&#45;&gt;Node14 -->
<g id="edge20" class="edge">
<title>Node13&#45;&gt;Node14</title>
<path fill="none" stroke="midnightblue" d="M331.12,-114.48C345.59,-112.75 360.78,-111.13 375,-110 448.67,-104.14 532.32,-101.4 594.68,-100.12"/>
<polygon fill="midnightblue" stroke="midnightblue" points="594.96,-103.61 604.89,-99.92 594.82,-96.62 594.96,-103.61"/>
</g>
<!-- Node14&#45;&gt;Node7 -->
<g id="edge21" class="edge">
<title>Node14&#45;&gt;Node7</title>
<path fill="none" stroke="midnightblue" d="M760.83,-108.52C773.83,-110.28 787.21,-112.09 799.61,-113.77"/>
<polygon fill="midnightblue" stroke="midnightblue" points="799.38,-117.27 809.76,-115.15 800.32,-110.34 799.38,-117.27"/>
</g>
<!-- Node15&#45;&gt;Node16 -->
<g id="edge25" class="edge">
<title>Node15&#45;&gt;Node16</title>
<path fill="none" stroke="midnightblue" d="M285.06,-67.46C307.57,-58.15 343.29,-43.98 375,-34 398.37,-26.64 425.49,-20.04 444.93,-15.63"/>
<polygon fill="midnightblue" stroke="midnightblue" points="445.87,-19 454.87,-13.41 444.35,-12.17 445.87,-19"/>
</g>
</g>
</svg>
