<?xml version="1.0" encoding="UTF-8" standalone="no"?>
<!DOCTYPE svg PUBLIC "-//W3C//DTD SVG 1.1//EN"
 "http://www.w3.org/Graphics/SVG/1.1/DTD/svg11.dtd">
<!-- Generated by graphviz version 2.43.0 (0)
 -->
<!-- Title: LaxWendroffFlux::computeFlux Pages: 1 -->
<svg width="927pt" height="294pt"
 viewBox="0.00 0.00 927.00 294.00" xmlns="http://www.w3.org/2000/svg" xmlns:xlink="http://www.w3.org/1999/xlink">
<g id="graph0" class="graph" transform="scale(1 1) rotate(0) translate(4 290)">
<title>LaxWendroffFlux::computeFlux</title>
<polygon fill="white" stroke="transparent" points="-4,4 -4,-290 923,-290 923,4 -4,4"/>
<!-- Node1 -->
<g id="node1" class="node">
<title>Node1</title>
<g id="a_node1"><a xlink:title="Overridden method for computing the numerical flux on interfaceID using the Lax&#45;Wendroff scheme.">
<polygon fill="#bfbfbf" stroke="black" points="0,-133.5 0,-152.5 170,-152.5 170,-133.5 0,-133.5"/>
<text text-anchor="middle" x="85" y="-140.5" font-family="Helvetica,sans-Serif" font-size="10.00">LaxWendroffFlux::computeFlux</text>
</a>
</g>
</g>
<!-- Node2 -->
<g id="node2" class="node">
<title>Node2</title>
<g id="a_node2"><a xlink:href="classSolutionxhtml#a4a125cf00e6d055d4e4f07f240bd5f06" target="_top" xlink:title="Returns the value of the conservative variable 1 (h) at nodeID.">
<polygon fill="white" stroke="black" points="228.5,-266.5 228.5,-285.5 359.5,-285.5 359.5,-266.5 228.5,-266.5"/>
<text text-anchor="middle" x="294" y="-273.5" font-family="Helvetica,sans-Serif" font-size="10.00">Solution::conservative1</text>
</a>
</g>
</g>
<!-- Node1&#45;&gt;Node2 -->
<g id="edge1" class="edge">
<title>Node1&#45;&gt;Node2</title>
<path fill="none" stroke="midnightblue" d="M93.17,-152.78C110.1,-175.1 154.97,-229.95 206,-257 210.49,-259.38 215.27,-261.47 220.18,-263.29"/>
<polygon fill="midnightblue" stroke="midnightblue" points="219.16,-266.64 229.76,-266.48 221.38,-260 219.16,-266.64"/>
</g>
<!-- Node3 -->
<g id="node3" class="node">
<title>Node3</title>
<g id="a_node3"><a xlink:href="classSolutionxhtml#a854dcab81b7d871752c058b007533faa" target="_top" xlink:title="Returns the value of the conservative variable 2 (h*u) at nodeID.">
<polygon fill="white" stroke="black" points="228.5,-228.5 228.5,-247.5 359.5,-247.5 359.5,-228.5 228.5,-228.5"/>
<text text-anchor="middle" x="294" y="-235.5" font-family="Helvetica,sans-Serif" font-size="10.00">Solution::conservative2</text>
</a>
</g>
</g>
<!-- Node1&#45;&gt;Node3 -->
<g id="edge2" class="edge">
<title>Node1&#45;&gt;Node3</title>
<path fill="none" stroke="midnightblue" d="M97.83,-152.51C118.5,-168.65 163.12,-201.38 206,-219 212.25,-221.57 218.89,-223.81 225.62,-225.76"/>
<polygon fill="midnightblue" stroke="midnightblue" points="224.93,-229.2 235.5,-228.43 226.76,-222.45 224.93,-229.2"/>
</g>
<!-- Node4 -->
<g id="node4" class="node">
<title>Node4</title>
<g id="a_node4"><a xlink:href="classSolutionxhtml#a3b27c41a9fba14b1b4b60933cbcd5e2c" target="_top" xlink:title="Returns the value of the conservative variable 3 (h*v) at nodeID.">
<polygon fill="white" stroke="black" points="228.5,-190.5 228.5,-209.5 359.5,-209.5 359.5,-190.5 228.5,-190.5"/>
<text text-anchor="middle" x="294" y="-197.5" font-family="Helvetica,sans-Serif" font-size="10.00">Solution::conservative3</text>
</a>
</g>
</g>
<!-- Node1&#45;&gt;Node4 -->
<g id="edge3" class="edge">
<title>Node1&#45;&gt;Node4</title>
<path fill="none" stroke="midnightblue" d="M120.65,-152.54C155.72,-162.2 210.11,-177.18 248.39,-187.72"/>
<polygon fill="midnightblue" stroke="midnightblue" points="247.67,-191.15 258.24,-190.43 249.53,-184.4 247.67,-191.15"/>
</g>
<!-- Node5 -->
<g id="node5" class="node">
<title>Node5</title>
<g id="a_node5"><a xlink:href="classGridxhtml#a4e37698e22ce482fa5ab2527dc78f0a9" target="_top" xlink:title="Gets the adjacent nodes to an interface (edge)">
<polygon fill="white" stroke="black" points="639,-90 639,-120 782,-120 782,-90 639,-90"/>
<text text-anchor="start" x="647" y="-108" font-family="Helvetica,sans-Serif" font-size="10.00">Grid::getAdjacentNodesTo</text>
<text text-anchor="middle" x="710.5" y="-97" font-family="Helvetica,sans-Serif" font-size="10.00">Interface</text>
</a>
</g>
</g>
<!-- Node1&#45;&gt;Node5 -->
<g id="edge4" class="edge">
<title>Node1&#45;&gt;Node5</title>
<path fill="none" stroke="midnightblue" d="M170.09,-137.88C290.4,-130.54 510.18,-117.15 628.67,-109.93"/>
<polygon fill="midnightblue" stroke="midnightblue" points="629,-113.41 638.77,-109.31 628.57,-106.43 629,-113.41"/>
</g>
<!-- Node7 -->
<g id="node7" class="node">
<title>Node7</title>
<g id="a_node7"><a xlink:href="classGridxhtml#aa3c3eb4bc0025097011a570976b5ef74" target="_top" xlink:title="Returns the measure of an edge of the dual grid.">
<polygon fill="white" stroke="black" points="220.5,-76.5 220.5,-95.5 367.5,-95.5 367.5,-76.5 220.5,-76.5"/>
<text text-anchor="middle" x="294" y="-83.5" font-family="Helvetica,sans-Serif" font-size="10.00">Grid::getDualEdgeMeasure</text>
</a>
</g>
</g>
<!-- Node1&#45;&gt;Node7 -->
<g id="edge6" class="edge">
<title>Node1&#45;&gt;Node7</title>
<path fill="none" stroke="midnightblue" d="M120.65,-133.46C155.72,-123.8 210.11,-108.82 248.39,-98.28"/>
<polygon fill="midnightblue" stroke="midnightblue" points="249.53,-101.6 258.24,-95.57 247.67,-94.85 249.53,-101.6"/>
</g>
<!-- Node9 -->
<g id="node9" class="node">
<title>Node9</title>
<g id="a_node9"><a xlink:href="classGridxhtml#a267c212cd957e88a027c520dae9c1a4c" target="_top" xlink:title="Gets the normal vector to an edge of the dual grid.">
<polygon fill="white" stroke="black" points="418,-152.5 418,-171.5 590,-171.5 590,-152.5 418,-152.5"/>
<text text-anchor="middle" x="504" y="-159.5" font-family="Helvetica,sans-Serif" font-size="10.00">Grid::getNormalToDualGridEdge</text>
</a>
</g>
</g>
<!-- Node1&#45;&gt;Node9 -->
<g id="edge14" class="edge">
<title>Node1&#45;&gt;Node9</title>
<path fill="none" stroke="midnightblue" d="M170.14,-146.83C238.84,-149.96 335.94,-154.39 407.55,-157.65"/>
<polygon fill="midnightblue" stroke="midnightblue" points="407.77,-161.16 417.92,-158.12 408.09,-154.17 407.77,-161.16"/>
</g>
<!-- Node10 -->
<g id="node10" class="node">
<title>Node10</title>
<g id="a_node10"><a xlink:href="classModelEquationsxhtml#af36c6cb949a2afa74888d79aa3c3dcc9" target="_top" xlink:title="Sets the flux vector projected on the direction defined by the normal.">
<polygon fill="white" stroke="black" points="216.5,-38.5 216.5,-57.5 371.5,-57.5 371.5,-38.5 216.5,-38.5"/>
<text text-anchor="middle" x="294" y="-45.5" font-family="Helvetica,sans-Serif" font-size="10.00">ModelEquations::setProjFlux</text>
</a>
</g>
</g>
<!-- Node1&#45;&gt;Node10 -->
<g id="edge15" class="edge">
<title>Node1&#45;&gt;Node10</title>
<path fill="none" stroke="midnightblue" d="M97.83,-133.49C118.5,-117.35 163.12,-84.62 206,-67 212.25,-64.43 218.89,-62.19 225.62,-60.24"/>
<polygon fill="midnightblue" stroke="midnightblue" points="226.76,-63.55 235.5,-57.57 224.93,-56.8 226.76,-63.55"/>
</g>
<!-- Node11 -->
<g id="node11" class="node">
<title>Node11</title>
<g id="a_node11"><a xlink:href="classModelEquationsxhtml#a362ff35ee67218e73094a6234f9e17f2" target="_top" xlink:title="Sets the Jacobian matrix projected on the direction defined by the normal.">
<polygon fill="white" stroke="black" points="206,-0.5 206,-19.5 382,-19.5 382,-0.5 206,-0.5"/>
<text text-anchor="middle" x="294" y="-7.5" font-family="Helvetica,sans-Serif" font-size="10.00">ModelEquations::setProjJacobian</text>
</a>
</g>
</g>
<!-- Node1&#45;&gt;Node11 -->
<g id="edge16" class="edge">
<title>Node1&#45;&gt;Node11</title>
<path fill="none" stroke="midnightblue" d="M93.17,-133.22C110.1,-110.9 154.97,-56.05 206,-29 210.49,-26.62 215.27,-24.53 220.18,-22.71"/>
<polygon fill="midnightblue" stroke="midnightblue" points="221.38,-26 229.76,-19.52 219.16,-19.36 221.38,-26"/>
</g>
<!-- Node6 -->
<g id="node6" class="node">
<title>Node6</title>
<g id="a_node6"><a xlink:href="namespaceswexhtml#aca666e377868955898f5bc54f97d8075" target="_top" xlink:title="Prints an error message and exit the program.">
<polygon fill="white" stroke="black" points="831,-60.5 831,-79.5 919,-79.5 919,-60.5 831,-60.5"/>
<text text-anchor="middle" x="875" y="-67.5" font-family="Helvetica,sans-Serif" font-size="10.00">swe::printError</text>
</a>
</g>
</g>
<!-- Node5&#45;&gt;Node6 -->
<g id="edge5" class="edge">
<title>Node5&#45;&gt;Node6</title>
<path fill="none" stroke="midnightblue" d="M781.36,-89.95C794.66,-87.09 808.38,-84.13 821.05,-81.4"/>
<polygon fill="midnightblue" stroke="midnightblue" points="821.92,-84.8 830.96,-79.27 820.45,-77.95 821.92,-84.8"/>
</g>
<!-- Node7&#45;&gt;Node5 -->
<g id="edge7" class="edge">
<title>Node7&#45;&gt;Node5</title>
<path fill="none" stroke="midnightblue" d="M367.67,-89.33C440.63,-92.68 552.78,-97.82 628.55,-101.29"/>
<polygon fill="midnightblue" stroke="midnightblue" points="628.84,-104.81 638.99,-101.77 629.16,-97.81 628.84,-104.81"/>
</g>
<!-- Node7&#45;&gt;Node6 -->
<g id="edge13" class="edge">
<title>Node7&#45;&gt;Node6</title>
<path fill="none" stroke="midnightblue" d="M367.74,-83.99C485.79,-80.73 716.33,-74.36 820.56,-71.48"/>
<polygon fill="midnightblue" stroke="midnightblue" points="820.95,-74.97 830.85,-71.19 820.75,-67.97 820.95,-74.97"/>
</g>
<!-- Node8 -->
<g id="node8" class="node">
<title>Node8</title>
<g id="a_node8"><a xlink:href="classGridxhtml#a91328f210cc0eeee8177d075d0efa4eb" target="_top" xlink:title="Gets measures of a dual grid element (length of both edges)">
<polygon fill="white" stroke="black" points="626,-0.5 626,-19.5 795,-19.5 795,-0.5 626,-0.5"/>
<text text-anchor="middle" x="710.5" y="-7.5" font-family="Helvetica,sans-Serif" font-size="10.00">Grid::getDualElementMeasures</text>
</a>
</g>
</g>
<!-- Node7&#45;&gt;Node8 -->
<g id="edge8" class="edge">
<title>Node7&#45;&gt;Node8</title>
<path fill="none" stroke="midnightblue" d="M357.72,-76.49C366.13,-74.02 374.45,-70.92 382,-67 401.27,-57.01 398.11,-42.69 418,-34 480.13,-6.85 556.75,-1.49 615.84,-2.58"/>
<polygon fill="midnightblue" stroke="midnightblue" points="615.83,-6.08 625.92,-2.83 616.01,0.92 615.83,-6.08"/>
</g>
<!-- Node7&#45;&gt;Node9 -->
<g id="edge10" class="edge">
<title>Node7&#45;&gt;Node9</title>
<path fill="none" stroke="midnightblue" d="M321.34,-95.63C358.38,-109.16 425.96,-133.85 467.43,-149"/>
<polygon fill="midnightblue" stroke="midnightblue" points="466.28,-152.31 476.87,-152.45 468.68,-145.73 466.28,-152.31"/>
</g>
<!-- Node8&#45;&gt;Node6 -->
<g id="edge9" class="edge">
<title>Node8&#45;&gt;Node6</title>
<path fill="none" stroke="midnightblue" d="M749.29,-19.59C763.74,-23.59 780.28,-28.57 795,-34 812.28,-40.38 831.07,-48.88 845.99,-56.01"/>
<polygon fill="midnightblue" stroke="midnightblue" points="844.65,-59.25 855.17,-60.47 847.7,-52.95 844.65,-59.25"/>
</g>
<!-- Node9&#45;&gt;Node5 -->
<g id="edge11" class="edge">
<title>Node9&#45;&gt;Node5</title>
<path fill="none" stroke="midnightblue" d="M539.23,-152.46C568.23,-144.38 610.58,-132.57 645.79,-122.76"/>
<polygon fill="midnightblue" stroke="midnightblue" points="646.82,-126.1 655.52,-120.05 644.94,-119.36 646.82,-126.1"/>
</g>
<!-- Node9&#45;&gt;Node6 -->
<g id="edge12" class="edge">
<title>Node9&#45;&gt;Node6</title>
<path fill="none" stroke="midnightblue" d="M590.06,-164.42C649.44,-163.31 729.49,-156.14 795,-130 819.29,-120.3 842.57,-101 857.48,-86.89"/>
<polygon fill="midnightblue" stroke="midnightblue" points="860.15,-89.18 864.86,-79.69 855.26,-84.17 860.15,-89.18"/>
</g>
</g>
</svg>
