<?xml version="1.0" encoding="UTF-8" standalone="no"?>
<!DOCTYPE svg PUBLIC "-//W3C//DTD SVG 1.1//EN"
 "http://www.w3.org/Graphics/SVG/1.1/DTD/svg11.dtd">
<!-- Generated by graphviz version 2.43.0 (0)
 -->
<!-- Title: Solver::Solver Pages: 1 -->
<svg width="269pt" height="154pt"
 viewBox="0.00 0.00 269.00 154.00" xmlns="http://www.w3.org/2000/svg" xmlns:xlink="http://www.w3.org/1999/xlink">
<g id="graph0" class="graph" transform="scale(1 1) rotate(0) translate(4 150)">
<title>Solver::Solver</title>
<polygon fill="white" stroke="transparent" points="-4,4 -4,-150 265,-150 265,4 -4,4"/>
<!-- Node1 -->
<g id="node1" class="node">
<title>Node1</title>
<g id="a_node1"><a xlink:title=" ">
<polygon fill="#bfbfbf" stroke="black" points="0,-66.5 0,-85.5 84,-85.5 84,-66.5 0,-66.5"/>
<text text-anchor="middle" x="42" y="-73.5" font-family="Helvetica,sans-Serif" font-size="10.00">Solver::Solver</text>
</a>
</g>
</g>
<!-- Node2 -->
<g id="node2" class="node">
<title>Node2</title>
<g id="a_node2"><a xlink:href="classConfigxhtml#aceb0b3f43ea48282ea97ed90448657f5" target="_top" xlink:title="Gets the CFL number.">
<polygon fill="white" stroke="black" points="127,-126.5 127,-145.5 254,-145.5 254,-126.5 127,-126.5"/>
<text text-anchor="middle" x="190.5" y="-133.5" font-family="Helvetica,sans-Serif" font-size="10.00">Config::getCFLNumber</text>
</a>
</g>
</g>
<!-- Node1&#45;&gt;Node2 -->
<g id="edge1" class="edge">
<title>Node1&#45;&gt;Node2</title>
<path fill="none" stroke="midnightblue" d="M58.44,-85.54C73.64,-94.62 97.76,-108.17 120,-117 125.95,-119.36 132.3,-121.54 138.65,-123.51"/>
<polygon fill="midnightblue" stroke="midnightblue" points="137.99,-126.97 148.58,-126.44 139.97,-120.25 137.99,-126.97"/>
</g>
<!-- Node3 -->
<g id="node3" class="node">
<title>Node3</title>
<g id="a_node3"><a xlink:href="classConfigxhtml#a9673ccea0020b4a838e06624fad3c398" target="_top" xlink:title="Returns a vector containing boundaries tag where Euler BC are applied.">
<polygon fill="white" stroke="black" points="126.5,-88.5 126.5,-107.5 254.5,-107.5 254.5,-88.5 126.5,-88.5"/>
<text text-anchor="middle" x="190.5" y="-95.5" font-family="Helvetica,sans-Serif" font-size="10.00">Config::getMarkerEuler</text>
</a>
</g>
</g>
<!-- Node1&#45;&gt;Node3 -->
<g id="edge2" class="edge">
<title>Node1&#45;&gt;Node3</title>
<path fill="none" stroke="midnightblue" d="M84.2,-82.19C94.24,-83.69 105.29,-85.35 116.33,-87.01"/>
<polygon fill="midnightblue" stroke="midnightblue" points="116.03,-90.51 126.44,-88.53 117.07,-83.58 116.03,-90.51"/>
</g>
<!-- Node4 -->
<g id="node4" class="node">
<title>Node4</title>
<g id="a_node4"><a xlink:href="classConfigxhtml#aa8153ad1d352f6e47857557d99ccd5f3" target="_top" xlink:title="Gets the numerical fluxes method.">
<polygon fill="white" stroke="black" points="120,-39 120,-69 261,-69 261,-39 120,-39"/>
<text text-anchor="start" x="128" y="-57" font-family="Helvetica,sans-Serif" font-size="10.00">Config::getNumericalFlux</text>
<text text-anchor="middle" x="190.5" y="-46" font-family="Helvetica,sans-Serif" font-size="10.00">Method</text>
</a>
</g>
</g>
<!-- Node1&#45;&gt;Node4 -->
<g id="edge3" class="edge">
<title>Node1&#45;&gt;Node4</title>
<path fill="none" stroke="midnightblue" d="M84.2,-69.81C92.25,-68.6 100.95,-67.3 109.78,-65.97"/>
<polygon fill="midnightblue" stroke="midnightblue" points="110.4,-69.42 119.77,-64.47 109.36,-62.5 110.4,-69.42"/>
</g>
<!-- Node5 -->
<g id="node5" class="node">
<title>Node5</title>
<g id="a_node5"><a xlink:href="classConfigxhtml#a1f8020af93f07c55ad70a4ac876d9d06" target="_top" xlink:title="Gets the total simulation time.">
<polygon fill="white" stroke="black" points="132,-0.5 132,-19.5 249,-19.5 249,-0.5 132,-0.5"/>
<text text-anchor="middle" x="190.5" y="-7.5" font-family="Helvetica,sans-Serif" font-size="10.00">Config::getTotalTime</text>
</a>
</g>
</g>
<!-- Node1&#45;&gt;Node5 -->
<g id="edge4" class="edge">
<title>Node1&#45;&gt;Node5</title>
<path fill="none" stroke="midnightblue" d="M56.61,-66.39C71.56,-56.18 96.57,-40.16 120,-30 126.27,-27.28 133.01,-24.81 139.75,-22.61"/>
<polygon fill="midnightblue" stroke="midnightblue" points="141.03,-25.88 149.55,-19.59 138.96,-19.19 141.03,-25.88"/>
</g>
</g>
</svg>
