<?xml version="1.0" encoding="UTF-8" standalone="no"?>
<!DOCTYPE svg PUBLIC "-//W3C//DTD SVG 1.1//EN"
 "http://www.w3.org/Graphics/SVG/1.1/DTD/svg11.dtd">
<!-- Generated by graphviz version 2.43.0 (0)
 -->
<!-- Title: RoeFlux Pages: 1 -->
<svg width="134pt" height="584pt"
 viewBox="0.00 0.00 134.00 584.00" xmlns="http://www.w3.org/2000/svg" xmlns:xlink="http://www.w3.org/1999/xlink">
<g id="graph0" class="graph" transform="scale(1 1) rotate(0) translate(4 580)">
<title>RoeFlux</title>
<polygon fill="white" stroke="transparent" points="-4,4 -4,-580 130,-580 130,4 -4,4"/>
<!-- Node1 -->
<g id="node1" class="node">
<title>Node1</title>
<g id="a_node1"><a xlink:title="Child class RoeFlux defines attributes and methods for computing the numerical flux with first order ...">
<polygon fill="#bfbfbf" stroke="black" points="13.5,-215.5 13.5,-382.5 112.5,-382.5 112.5,-215.5 13.5,-215.5"/>
<text text-anchor="middle" x="63" y="-370.5" font-family="Helvetica,sans-Serif" font-size="10.00">RoeFlux</text>
<polyline fill="none" stroke="black" points="13.5,-363.5 112.5,-363.5 "/>
<text text-anchor="start" x="21.5" y="-351.5" font-family="Helvetica,sans-Serif" font-size="10.00"># entropyFix</text>
<text text-anchor="start" x="21.5" y="-340.5" font-family="Helvetica,sans-Serif" font-size="10.00"># lambda_l</text>
<text text-anchor="start" x="21.5" y="-329.5" font-family="Helvetica,sans-Serif" font-size="10.00"># lambda_r</text>
<text text-anchor="start" x="21.5" y="-318.5" font-family="Helvetica,sans-Serif" font-size="10.00"># lambda</text>
<text text-anchor="start" x="21.5" y="-307.5" font-family="Helvetica,sans-Serif" font-size="10.00"># roeVelocity</text>
<text text-anchor="start" x="21.5" y="-296.5" font-family="Helvetica,sans-Serif" font-size="10.00"># diffW</text>
<text text-anchor="start" x="21.5" y="-285.5" font-family="Helvetica,sans-Serif" font-size="10.00"># matrixR</text>
<text text-anchor="start" x="21.5" y="-274.5" font-family="Helvetica,sans-Serif" font-size="10.00"># matrixL</text>
<text text-anchor="start" x="21.5" y="-263.5" font-family="Helvetica,sans-Serif" font-size="10.00"># roeHeight</text>
<polyline fill="none" stroke="black" points="13.5,-256.5 112.5,-256.5 "/>
<text text-anchor="start" x="21.5" y="-244.5" font-family="Helvetica,sans-Serif" font-size="10.00">+ RoeFlux()</text>
<text text-anchor="start" x="21.5" y="-233.5" font-family="Helvetica,sans-Serif" font-size="10.00">+ ~RoeFlux()</text>
<text text-anchor="start" x="21.5" y="-222.5" font-family="Helvetica,sans-Serif" font-size="10.00">+ computeFlux()</text>
</a>
</g>
</g>
<!-- Node3 -->
<g id="node3" class="node">
<title>Node3</title>
<g id="a_node3"><a xlink:href="classHighResFluxxhtml" target="_top" xlink:title="Child class HighResFlux defines attributes and methods for computing the numerical flux with an high ...">
<polygon fill="white" stroke="black" points="10,-0.5 10,-178.5 116,-178.5 116,-0.5 10,-0.5"/>
<text text-anchor="middle" x="63" y="-166.5" font-family="Helvetica,sans-Serif" font-size="10.00">HighResFlux</text>
<polyline fill="none" stroke="black" points="10,-159.5 116,-159.5 "/>
<text text-anchor="start" x="18" y="-147.5" font-family="Helvetica,sans-Serif" font-size="10.00">&#45; diffW_l</text>
<text text-anchor="start" x="18" y="-136.5" font-family="Helvetica,sans-Serif" font-size="10.00">&#45; diffW_r</text>
<text text-anchor="start" x="18" y="-125.5" font-family="Helvetica,sans-Serif" font-size="10.00">&#45; diffV_l</text>
<text text-anchor="start" x="18" y="-114.5" font-family="Helvetica,sans-Serif" font-size="10.00">&#45; diffV_r</text>
<text text-anchor="start" x="18" y="-103.5" font-family="Helvetica,sans-Serif" font-size="10.00">&#45; diffV_up</text>
<text text-anchor="start" x="18" y="-92.5" font-family="Helvetica,sans-Serif" font-size="10.00">&#45; diffV</text>
<text text-anchor="start" x="18" y="-81.5" font-family="Helvetica,sans-Serif" font-size="10.00">&#45; lambdaSigned</text>
<text text-anchor="start" x="18" y="-70.5" font-family="Helvetica,sans-Serif" font-size="10.00">&#45; phi</text>
<text text-anchor="start" x="18" y="-59.5" font-family="Helvetica,sans-Serif" font-size="10.00">&#45; fluxLimiter</text>
<polyline fill="none" stroke="black" points="10,-52.5 116,-52.5 "/>
<text text-anchor="start" x="18" y="-40.5" font-family="Helvetica,sans-Serif" font-size="10.00">+ HighResFlux()</text>
<text text-anchor="start" x="18" y="-29.5" font-family="Helvetica,sans-Serif" font-size="10.00">+ ~HighResFlux()</text>
<text text-anchor="start" x="18" y="-18.5" font-family="Helvetica,sans-Serif" font-size="10.00">+ setFluxLimiter()</text>
<text text-anchor="start" x="18" y="-7.5" font-family="Helvetica,sans-Serif" font-size="10.00">+ computeFlux()</text>
</a>
</g>
</g>
<!-- Node1&#45;&gt;Node3 -->
<g id="edge2" class="edge">
<title>Node1&#45;&gt;Node3</title>
<path fill="none" stroke="midnightblue" d="M63,-205.11C63,-196.3 63,-187.38 63,-178.61"/>
<polygon fill="none" stroke="midnightblue" points="59.5,-205.39 63,-215.39 66.5,-205.39 59.5,-205.39"/>
</g>
<!-- Node2 -->
<g id="node2" class="node">
<title>Node2</title>
<g id="a_node2"><a xlink:href="classNumericalFluxesxhtml" target="_top" xlink:title="Class NumericalFluxes is an abstract class defining general attributes used to compute numerical flux...">
<polygon fill="white" stroke="black" points="0,-419.5 0,-575.5 126,-575.5 126,-419.5 0,-419.5"/>
<text text-anchor="middle" x="63" y="-563.5" font-family="Helvetica,sans-Serif" font-size="10.00">NumericalFluxes</text>
<polyline fill="none" stroke="black" points="0,-556.5 126,-556.5 "/>
<text text-anchor="start" x="8" y="-544.5" font-family="Helvetica,sans-Serif" font-size="10.00">+ numericalFlux</text>
<text text-anchor="start" x="8" y="-533.5" font-family="Helvetica,sans-Serif" font-size="10.00"># normal</text>
<text text-anchor="start" x="8" y="-522.5" font-family="Helvetica,sans-Serif" font-size="10.00"># flux_l</text>
<text text-anchor="start" x="8" y="-511.5" font-family="Helvetica,sans-Serif" font-size="10.00"># flux_r</text>
<text text-anchor="start" x="8" y="-500.5" font-family="Helvetica,sans-Serif" font-size="10.00"># velocity_l</text>
<text text-anchor="start" x="8" y="-489.5" font-family="Helvetica,sans-Serif" font-size="10.00"># velocity_r</text>
<text text-anchor="start" x="8" y="-478.5" font-family="Helvetica,sans-Serif" font-size="10.00"># height_l</text>
<text text-anchor="start" x="8" y="-467.5" font-family="Helvetica,sans-Serif" font-size="10.00"># height_r</text>
<polyline fill="none" stroke="black" points="0,-460.5 126,-460.5 "/>
<text text-anchor="start" x="8" y="-448.5" font-family="Helvetica,sans-Serif" font-size="10.00">+ NumericalFluxes()</text>
<text text-anchor="start" x="8" y="-437.5" font-family="Helvetica,sans-Serif" font-size="10.00">+ ~NumericalFluxes()</text>
<text text-anchor="start" x="8" y="-426.5" font-family="Helvetica,sans-Serif" font-size="10.00">+ computeFlux()</text>
</a>
</g>
</g>
<!-- Node2&#45;&gt;Node1 -->
<g id="edge1" class="edge">
<title>Node2&#45;&gt;Node1</title>
<path fill="none" stroke="midnightblue" d="M63,-409.15C63,-400.36 63,-391.45 63,-382.71"/>
<polygon fill="none" stroke="midnightblue" points="59.5,-409.4 63,-419.4 66.5,-409.4 59.5,-409.4"/>
</g>
</g>
</svg>
