<?xml version="1.0" encoding="UTF-8" standalone="no"?>
<!DOCTYPE svg PUBLIC "-//W3C//DTD SVG 1.1//EN"
 "http://www.w3.org/Graphics/SVG/1.1/DTD/svg11.dtd">
<!-- Generated by graphviz version 2.43.0 (0)
 -->
<!-- Title: Grid::getDualElementArea Pages: 1 -->
<svg width="481pt" height="47pt"
 viewBox="0.00 0.00 481.00 47.00" xmlns="http://www.w3.org/2000/svg" xmlns:xlink="http://www.w3.org/1999/xlink">
<g id="graph0" class="graph" transform="scale(1 1) rotate(0) translate(4 43)">
<title>Grid::getDualElementArea</title>
<polygon fill="white" stroke="transparent" points="-4,4 -4,-43 477,-43 477,4 -4,4"/>
<!-- Node1 -->
<g id="node1" class="node">
<title>Node1</title>
<g id="a_node1"><a xlink:title="Returns the area of a dual element.">
<polygon fill="#bfbfbf" stroke="black" points="0,-0.5 0,-19.5 144,-19.5 144,-0.5 0,-0.5"/>
<text text-anchor="middle" x="72" y="-7.5" font-family="Helvetica,sans-Serif" font-size="10.00">Grid::getDualElementArea</text>
</a>
</g>
</g>
<!-- Node2 -->
<g id="node2" class="node">
<title>Node2</title>
<g id="a_node2"><a xlink:href="classGridxhtml#a91328f210cc0eeee8177d075d0efa4eb" target="_top" xlink:title="Gets measures of a dual grid element (length of both edges)">
<polygon fill="white" stroke="black" points="180,-19.5 180,-38.5 349,-38.5 349,-19.5 180,-19.5"/>
<text text-anchor="middle" x="264.5" y="-26.5" font-family="Helvetica,sans-Serif" font-size="10.00">Grid::getDualElementMeasures</text>
</a>
</g>
</g>
<!-- Node1&#45;&gt;Node2 -->
<g id="edge1" class="edge">
<title>Node1&#45;&gt;Node2</title>
<path fill="none" stroke="midnightblue" d="M144.21,-17.1C152.56,-17.94 161.18,-18.79 169.78,-19.65"/>
<polygon fill="midnightblue" stroke="midnightblue" points="169.56,-23.15 179.86,-20.66 170.26,-16.18 169.56,-23.15"/>
</g>
<!-- Node3 -->
<g id="node3" class="node">
<title>Node3</title>
<g id="a_node3"><a xlink:href="namespaceswexhtml#aca666e377868955898f5bc54f97d8075" target="_top" xlink:title="Prints an error message and exit the program.">
<polygon fill="white" stroke="black" points="385,-0.5 385,-19.5 473,-19.5 473,-0.5 385,-0.5"/>
<text text-anchor="middle" x="429" y="-7.5" font-family="Helvetica,sans-Serif" font-size="10.00">swe::printError</text>
</a>
</g>
</g>
<!-- Node1&#45;&gt;Node3 -->
<g id="edge3" class="edge">
<title>Node1&#45;&gt;Node3</title>
<path fill="none" stroke="midnightblue" d="M144.41,-10C212.46,-10 313.35,-10 374.66,-10"/>
<polygon fill="midnightblue" stroke="midnightblue" points="374.89,-13.5 384.89,-10 374.89,-6.5 374.89,-13.5"/>
</g>
<!-- Node2&#45;&gt;Node3 -->
<g id="edge2" class="edge">
<title>Node2&#45;&gt;Node3</title>
<path fill="none" stroke="midnightblue" d="M347.23,-19.44C356.54,-18.36 365.85,-17.27 374.66,-16.24"/>
<polygon fill="midnightblue" stroke="midnightblue" points="375.22,-19.7 384.74,-15.06 374.4,-12.74 375.22,-19.7"/>
</g>
</g>
</svg>
