<?xml version="1.0" encoding="UTF-8" standalone="no"?>
<!DOCTYPE svg PUBLIC "-//W3C//DTD SVG 1.1//EN"
 "http://www.w3.org/Graphics/SVG/1.1/DTD/svg11.dtd">
<!-- Generated by graphviz version 2.43.0 (0)
 -->
<!-- Title: Config Pages: 1 -->
<svg width="710pt" height="624pt"
 viewBox="0.00 0.00 709.50 624.00" xmlns="http://www.w3.org/2000/svg" xmlns:xlink="http://www.w3.org/1999/xlink">
<g id="graph0" class="graph" transform="scale(1 1) rotate(0) translate(4 620)">
<title>Config</title>
<polygon fill="white" stroke="transparent" points="-4,4 -4,-620 705.5,-620 705.5,4 -4,4"/>
<!-- Node1 -->
<g id="node1" class="node">
<title>Node1</title>
<g id="a_node1"><a xlink:title="Class Config reads the configuration file and stores all the information for the simulation.">
<polygon fill="#bfbfbf" stroke="black" points="227.5,-0.5 227.5,-244.5 386.5,-244.5 386.5,-0.5 227.5,-0.5"/>
<text text-anchor="middle" x="307" y="-232.5" font-family="Helvetica,sans-Serif" font-size="10.00">Config</text>
<polyline fill="none" stroke="black" points="227.5,-225.5 386.5,-225.5 "/>
<text text-anchor="middle" x="307" y="-213.5" font-family="Helvetica,sans-Serif" font-size="10.00"> </text>
<polyline fill="none" stroke="black" points="227.5,-206.5 386.5,-206.5 "/>
<text text-anchor="start" x="235.5" y="-194.5" font-family="Helvetica,sans-Serif" font-size="10.00">+ Config()</text>
<text text-anchor="start" x="235.5" y="-183.5" font-family="Helvetica,sans-Serif" font-size="10.00">+ ~Config()</text>
<text text-anchor="start" x="235.5" y="-172.5" font-family="Helvetica,sans-Serif" font-size="10.00">+ getNNodesX()</text>
<text text-anchor="start" x="235.5" y="-161.5" font-family="Helvetica,sans-Serif" font-size="10.00">+ getNNodesY()</text>
<text text-anchor="start" x="235.5" y="-150.5" font-family="Helvetica,sans-Serif" font-size="10.00">+ getNumericalFluxMethod()</text>
<text text-anchor="start" x="235.5" y="-139.5" font-family="Helvetica,sans-Serif" font-size="10.00">+ getFluxLimiter()</text>
<text text-anchor="start" x="235.5" y="-128.5" font-family="Helvetica,sans-Serif" font-size="10.00">+ getXInitialLimit()</text>
<text text-anchor="start" x="235.5" y="-117.5" font-family="Helvetica,sans-Serif" font-size="10.00">+ getXFinalLimit()</text>
<text text-anchor="start" x="235.5" y="-106.5" font-family="Helvetica,sans-Serif" font-size="10.00">+ getYInitialLimit()</text>
<text text-anchor="start" x="235.5" y="-95.5" font-family="Helvetica,sans-Serif" font-size="10.00">+ getYFinalLimit()</text>
<text text-anchor="start" x="235.5" y="-84.5" font-family="Helvetica,sans-Serif" font-size="10.00">+ getTotalTime()</text>
<text text-anchor="start" x="235.5" y="-73.5" font-family="Helvetica,sans-Serif" font-size="10.00">+ getCFLNumber()</text>
<text text-anchor="start" x="235.5" y="-62.5" font-family="Helvetica,sans-Serif" font-size="10.00">+ getEntropyFix()</text>
<text text-anchor="start" x="235.5" y="-51.5" font-family="Helvetica,sans-Serif" font-size="10.00">+ getMarkerEuler()</text>
<text text-anchor="start" x="235.5" y="-40.5" font-family="Helvetica,sans-Serif" font-size="10.00">+ getMarkerOpen()</text>
<text text-anchor="start" x="235.5" y="-29.5" font-family="Helvetica,sans-Serif" font-size="10.00">&#45; initDefault()</text>
<text text-anchor="start" x="235.5" y="-18.5" font-family="Helvetica,sans-Serif" font-size="10.00">&#45; readConfigOptions()</text>
<text text-anchor="start" x="235.5" y="-7.5" font-family="Helvetica,sans-Serif" font-size="10.00">&#45; printSimulationSettings()</text>
</a>
</g>
</g>
<!-- Node2 -->
<g id="node2" class="node">
<title>Node2</title>
<g id="a_node2"><a xlink:title=" ">
<polygon fill="white" stroke="#bfbfbf" points="0,-347.5 0,-404.5 50,-404.5 50,-347.5 0,-347.5"/>
<text text-anchor="middle" x="25" y="-392.5" font-family="Helvetica,sans-Serif" font-size="10.00">double</text>
<polyline fill="none" stroke="#bfbfbf" points="0,-385.5 50,-385.5 "/>
<text text-anchor="middle" x="25" y="-373.5" font-family="Helvetica,sans-Serif" font-size="10.00"> </text>
<polyline fill="none" stroke="#bfbfbf" points="0,-366.5 50,-366.5 "/>
<text text-anchor="middle" x="25" y="-354.5" font-family="Helvetica,sans-Serif" font-size="10.00"> </text>
</a>
</g>
</g>
<!-- Node2&#45;&gt;Node1 -->
<g id="edge1" class="edge">
<title>Node2&#45;&gt;Node1</title>
<path fill="none" stroke="#404040" d="M29.29,-347.45C34.29,-322.98 44.63,-287.41 65,-263 104.95,-215.13 165.81,-180.16 216.5,-157.2"/>
<polygon fill="none" stroke="#404040" points="216.51,-157.2 220.38,-151.11 227.48,-152.34 223.61,-158.43 216.51,-157.2"/>
<text text-anchor="middle" x="90.5" y="-321" font-family="Helvetica,sans-Serif" font-size="10.00"> &#45;xFLim</text>
<text text-anchor="middle" x="90.5" y="-310" font-family="Helvetica,sans-Serif" font-size="10.00">&#45;yFLim</text>
<text text-anchor="middle" x="90.5" y="-299" font-family="Helvetica,sans-Serif" font-size="10.00">&#45;x0Lim</text>
<text text-anchor="middle" x="90.5" y="-288" font-family="Helvetica,sans-Serif" font-size="10.00">&#45;y0Lim</text>
<text text-anchor="middle" x="90.5" y="-277" font-family="Helvetica,sans-Serif" font-size="10.00">&#45;cfl</text>
<text text-anchor="middle" x="90.5" y="-266" font-family="Helvetica,sans-Serif" font-size="10.00">&#45;totalTime</text>
</g>
<!-- Node3 -->
<g id="node3" class="node">
<title>Node3</title>
<g id="a_node3"><a xlink:title=" ">
<polygon fill="white" stroke="#bfbfbf" points="68.5,-347.5 68.5,-404.5 163.5,-404.5 163.5,-347.5 68.5,-347.5"/>
<text text-anchor="middle" x="116" y="-392.5" font-family="Helvetica,sans-Serif" font-size="10.00">numericalFlux_t</text>
<polyline fill="none" stroke="#bfbfbf" points="68.5,-385.5 163.5,-385.5 "/>
<text text-anchor="middle" x="116" y="-373.5" font-family="Helvetica,sans-Serif" font-size="10.00"> </text>
<polyline fill="none" stroke="#bfbfbf" points="68.5,-366.5 163.5,-366.5 "/>
<text text-anchor="middle" x="116" y="-354.5" font-family="Helvetica,sans-Serif" font-size="10.00"> </text>
</a>
</g>
</g>
<!-- Node3&#45;&gt;Node1 -->
<g id="edge2" class="edge">
<title>Node3&#45;&gt;Node1</title>
<path fill="none" stroke="#404040" d="M116.93,-347.38C118.85,-323.51 124.38,-288.88 140,-263 159.38,-230.89 188.84,-202.7 217.65,-180.23"/>
<polygon fill="none" stroke="#404040" points="217.83,-180.09 220.19,-173.28 227.39,-172.83 225.03,-179.65 217.83,-180.09"/>
<text text-anchor="middle" x="183.5" y="-293.5" font-family="Helvetica,sans-Serif" font-size="10.00"> &#45;numMethodFlux</text>
</g>
<!-- Node4 -->
<g id="node4" class="node">
<title>Node4</title>
<g id="a_node4"><a xlink:title=" ">
<polygon fill="white" stroke="#bfbfbf" points="187.5,-347.5 187.5,-404.5 264.5,-404.5 264.5,-347.5 187.5,-347.5"/>
<text text-anchor="middle" x="226" y="-392.5" font-family="Helvetica,sans-Serif" font-size="10.00">entropyFix_t</text>
<polyline fill="none" stroke="#bfbfbf" points="187.5,-385.5 264.5,-385.5 "/>
<text text-anchor="middle" x="226" y="-373.5" font-family="Helvetica,sans-Serif" font-size="10.00"> </text>
<polyline fill="none" stroke="#bfbfbf" points="187.5,-366.5 264.5,-366.5 "/>
<text text-anchor="middle" x="226" y="-354.5" font-family="Helvetica,sans-Serif" font-size="10.00"> </text>
</a>
</g>
</g>
<!-- Node4&#45;&gt;Node1 -->
<g id="edge3" class="edge">
<title>Node4&#45;&gt;Node1</title>
<path fill="none" stroke="#404040" d="M228.73,-347.4C231.47,-324.46 236.51,-291.13 245,-263 245.69,-260.72 246.41,-258.42 247.15,-256.12"/>
<polygon fill="none" stroke="#404040" points="247.22,-255.92 245.35,-248.95 251.06,-244.55 252.93,-251.51 247.22,-255.92"/>
<text text-anchor="middle" x="274" y="-293.5" font-family="Helvetica,sans-Serif" font-size="10.00"> &#45;entropyFix</text>
</g>
<!-- Node5 -->
<g id="node5" class="node">
<title>Node5</title>
<g id="a_node5"><a xlink:title=" ">
<polygon fill="white" stroke="#bfbfbf" points="292.5,-347.5 292.5,-404.5 321.5,-404.5 321.5,-347.5 292.5,-347.5"/>
<text text-anchor="middle" x="307" y="-392.5" font-family="Helvetica,sans-Serif" font-size="10.00">int</text>
<polyline fill="none" stroke="#bfbfbf" points="292.5,-385.5 321.5,-385.5 "/>
<text text-anchor="middle" x="307" y="-373.5" font-family="Helvetica,sans-Serif" font-size="10.00"> </text>
<polyline fill="none" stroke="#bfbfbf" points="292.5,-366.5 321.5,-366.5 "/>
<text text-anchor="middle" x="307" y="-354.5" font-family="Helvetica,sans-Serif" font-size="10.00"> </text>
</a>
</g>
</g>
<!-- Node5&#45;&gt;Node1 -->
<g id="edge4" class="edge">
<title>Node5&#45;&gt;Node1</title>
<path fill="none" stroke="#404040" d="M307,-347.12C307,-324.59 307,-291.07 307,-256.81"/>
<polygon fill="none" stroke="#404040" points="307,-256.67 303,-250.67 307,-244.67 311,-250.67 307,-256.67"/>
<text text-anchor="middle" x="332.5" y="-299" font-family="Helvetica,sans-Serif" font-size="10.00"> &#45;nNodesX</text>
<text text-anchor="middle" x="332.5" y="-288" font-family="Helvetica,sans-Serif" font-size="10.00">&#45;nNodesY</text>
</g>
<!-- Node6 -->
<g id="node6" class="node">
<title>Node6</title>
<g id="a_node6"><a xlink:title="STL class.">
<polygon fill="white" stroke="#bfbfbf" points="356.5,-452.5 356.5,-509.5 421.5,-509.5 421.5,-452.5 356.5,-452.5"/>
<text text-anchor="middle" x="389" y="-497.5" font-family="Helvetica,sans-Serif" font-size="10.00">std::string</text>
<polyline fill="none" stroke="#bfbfbf" points="356.5,-490.5 421.5,-490.5 "/>
<text text-anchor="middle" x="389" y="-478.5" font-family="Helvetica,sans-Serif" font-size="10.00"> </text>
<polyline fill="none" stroke="#bfbfbf" points="356.5,-471.5 421.5,-471.5 "/>
<text text-anchor="middle" x="389" y="-459.5" font-family="Helvetica,sans-Serif" font-size="10.00"> </text>
</a>
</g>
</g>
<!-- Node6&#45;&gt;Node1 -->
<g id="edge5" class="edge">
<title>Node6&#45;&gt;Node1</title>
<path fill="none" stroke="#404040" d="M387.12,-452.22C383.86,-410.59 375.84,-329.75 359,-263 358.45,-260.84 357.89,-258.66 357.3,-256.48"/>
<polygon fill="none" stroke="#404040" points="357.24,-256.28 351.76,-251.59 353.98,-244.73 359.46,-249.42 357.24,-256.28"/>
<text text-anchor="middle" x="429" y="-384.5" font-family="Helvetica,sans-Serif" font-size="10.00"> &#45;entropyFix_s</text>
<text text-anchor="middle" x="429" y="-373.5" font-family="Helvetica,sans-Serif" font-size="10.00">&#45;numMethodFlux_s</text>
<text text-anchor="middle" x="429" y="-362.5" font-family="Helvetica,sans-Serif" font-size="10.00">&#45;fluxLimiter_s</text>
</g>
<!-- Node8 -->
<g id="node8" class="node">
<title>Node8</title>
<g id="a_node8"><a xlink:title=" ">
<polygon fill="white" stroke="#bfbfbf" points="485.5,-347.5 485.5,-404.5 604.5,-404.5 604.5,-347.5 485.5,-347.5"/>
<text text-anchor="middle" x="545" y="-392.5" font-family="Helvetica,sans-Serif" font-size="10.00">std::vector&lt; string &gt;</text>
<polyline fill="none" stroke="#bfbfbf" points="485.5,-385.5 604.5,-385.5 "/>
<text text-anchor="middle" x="545" y="-373.5" font-family="Helvetica,sans-Serif" font-size="10.00"> </text>
<polyline fill="none" stroke="#bfbfbf" points="485.5,-366.5 604.5,-366.5 "/>
<text text-anchor="middle" x="545" y="-354.5" font-family="Helvetica,sans-Serif" font-size="10.00"> </text>
</a>
</g>
</g>
<!-- Node6&#45;&gt;Node8 -->
<g id="edge8" class="edge">
<title>Node6&#45;&gt;Node8</title>
<path fill="none" stroke="#404040" d="M421.7,-458.41C442.33,-444.79 469.42,-426.9 492.95,-411.37"/>
<polygon fill="none" stroke="#404040" points="493.12,-411.26 495.92,-404.61 503.13,-404.64 500.33,-411.29 493.12,-411.26"/>
<text text-anchor="middle" x="500" y="-426" font-family="Helvetica,sans-Serif" font-size="10.00"> +elements</text>
</g>
<!-- Node7 -->
<g id="node7" class="node">
<title>Node7</title>
<g id="a_node7"><a xlink:title="STL class.">
<polygon fill="white" stroke="#bfbfbf" points="337,-547.5 337,-615.5 441,-615.5 441,-547.5 337,-547.5"/>
<text text-anchor="start" x="345" y="-603.5" font-family="Helvetica,sans-Serif" font-size="10.00">std::basic_string&lt;</text>
<text text-anchor="middle" x="389" y="-592.5" font-family="Helvetica,sans-Serif" font-size="10.00"> char &gt;</text>
<polyline fill="none" stroke="#bfbfbf" points="337,-585.5 441,-585.5 "/>
<text text-anchor="middle" x="389" y="-573.5" font-family="Helvetica,sans-Serif" font-size="10.00"> </text>
<polyline fill="none" stroke="#bfbfbf" points="337,-566.5 441,-566.5 "/>
<text text-anchor="middle" x="389" y="-554.5" font-family="Helvetica,sans-Serif" font-size="10.00"> </text>
</a>
</g>
</g>
<!-- Node7&#45;&gt;Node6 -->
<g id="edge6" class="edge">
<title>Node7&#45;&gt;Node6</title>
<path fill="none" stroke="midnightblue" d="M389,-537.38C389,-527.94 389,-518.2 389,-509.57"/>
<polygon fill="none" stroke="midnightblue" points="385.5,-537.43 389,-547.43 392.5,-537.43 385.5,-537.43"/>
</g>
<!-- Node8&#45;&gt;Node1 -->
<g id="edge7" class="edge">
<title>Node8&#45;&gt;Node1</title>
<path fill="none" stroke="#404040" d="M518.62,-347.12C488.89,-315.71 438.97,-262.95 395.08,-216.57"/>
<polygon fill="none" stroke="#404040" points="394.92,-216.41 387.89,-214.8 386.67,-207.69 393.7,-209.3 394.92,-216.41"/>
<text text-anchor="middle" x="532.5" y="-299" font-family="Helvetica,sans-Serif" font-size="10.00"> &#45;markerEuler</text>
<text text-anchor="middle" x="532.5" y="-288" font-family="Helvetica,sans-Serif" font-size="10.00">&#45;markerOpen</text>
</g>
<!-- Node9 -->
<g id="node9" class="node">
<title>Node9</title>
<g id="a_node9"><a xlink:title=" ">
<polygon fill="white" stroke="#bfbfbf" points="622.5,-347.5 622.5,-404.5 701.5,-404.5 701.5,-347.5 622.5,-347.5"/>
<text text-anchor="middle" x="662" y="-392.5" font-family="Helvetica,sans-Serif" font-size="10.00">fluxLimiter_t</text>
<polyline fill="none" stroke="#bfbfbf" points="622.5,-385.5 701.5,-385.5 "/>
<text text-anchor="middle" x="662" y="-373.5" font-family="Helvetica,sans-Serif" font-size="10.00"> </text>
<polyline fill="none" stroke="#bfbfbf" points="622.5,-366.5 701.5,-366.5 "/>
<text text-anchor="middle" x="662" y="-354.5" font-family="Helvetica,sans-Serif" font-size="10.00"> </text>
</a>
</g>
</g>
<!-- Node9&#45;&gt;Node1 -->
<g id="edge9" class="edge">
<title>Node9&#45;&gt;Node1</title>
<path fill="none" stroke="#404040" d="M643.78,-347.03C626.85,-322.62 599.81,-287.37 570,-263 518.08,-220.54 451.21,-185.29 397.9,-160.84"/>
<polygon fill="none" stroke="#404040" points="397.67,-160.73 390.56,-161.9 386.74,-155.78 393.85,-154.61 397.67,-160.73"/>
<text text-anchor="middle" x="660.5" y="-293.5" font-family="Helvetica,sans-Serif" font-size="10.00"> &#45;fluxLimiter</text>
</g>
</g>
</svg>
