<?xml version="1.0" encoding="UTF-8" standalone="no"?>
<!DOCTYPE svg PUBLIC "-//W3C//DTD SVG 1.1//EN"
 "http://www.w3.org/Graphics/SVG/1.1/DTD/svg11.dtd">
<!-- Generated by graphviz version 2.43.0 (0)
 -->
<!-- Title: RoeFlux Pages: 1 -->
<svg width="285pt" height="405pt"
 viewBox="0.00 0.00 285.37 405.00" xmlns="http://www.w3.org/2000/svg" xmlns:xlink="http://www.w3.org/1999/xlink">
<g id="graph0" class="graph" transform="scale(1 1) rotate(0) translate(4 401)">
<title>RoeFlux</title>
<polygon fill="white" stroke="transparent" points="-4,4 -4,-401 281.37,-401 281.37,4 -4,4"/>
<!-- Node1 -->
<g id="node1" class="node">
<title>Node1</title>
<g id="a_node1"><a xlink:title="Child class RoeFlux defines attributes and methods for computing the numerical flux with first order ...">
<polygon fill="#bfbfbf" stroke="black" points="107.87,-0.5 107.87,-79.5 206.87,-79.5 206.87,-0.5 107.87,-0.5"/>
<text text-anchor="middle" x="157.37" y="-67.5" font-family="Helvetica,sans-Serif" font-size="10.00">RoeFlux</text>
<polyline fill="none" stroke="black" points="107.87,-60.5 206.87,-60.5 "/>
<text text-anchor="middle" x="157.37" y="-48.5" font-family="Helvetica,sans-Serif" font-size="10.00"> </text>
<polyline fill="none" stroke="black" points="107.87,-41.5 206.87,-41.5 "/>
<text text-anchor="start" x="115.87" y="-29.5" font-family="Helvetica,sans-Serif" font-size="10.00">+ RoeFlux()</text>
<text text-anchor="start" x="115.87" y="-18.5" font-family="Helvetica,sans-Serif" font-size="10.00">+ ~RoeFlux()</text>
<text text-anchor="start" x="115.87" y="-7.5" font-family="Helvetica,sans-Serif" font-size="10.00">+ computeFlux()</text>
</a>
</g>
</g>
<!-- Node2 -->
<g id="node2" class="node">
<title>Node2</title>
<g id="a_node2"><a xlink:href="classNumericalFluxesxhtml" target="_top" xlink:title="Class NumericalFluxes is an abstract class defining general attributes used to compute numerical flux...">
<polygon fill="white" stroke="black" points="94.37,-131.5 94.37,-210.5 220.37,-210.5 220.37,-131.5 94.37,-131.5"/>
<text text-anchor="middle" x="157.37" y="-198.5" font-family="Helvetica,sans-Serif" font-size="10.00">NumericalFluxes</text>
<polyline fill="none" stroke="black" points="94.37,-191.5 220.37,-191.5 "/>
<text text-anchor="middle" x="157.37" y="-179.5" font-family="Helvetica,sans-Serif" font-size="10.00"> </text>
<polyline fill="none" stroke="black" points="94.37,-172.5 220.37,-172.5 "/>
<text text-anchor="start" x="102.37" y="-160.5" font-family="Helvetica,sans-Serif" font-size="10.00">+ NumericalFluxes()</text>
<text text-anchor="start" x="102.37" y="-149.5" font-family="Helvetica,sans-Serif" font-size="10.00">+ ~NumericalFluxes()</text>
<text text-anchor="start" x="102.37" y="-138.5" font-family="Helvetica,sans-Serif" font-size="10.00">+ computeFlux()</text>
</a>
</g>
</g>
<!-- Node2&#45;&gt;Node1 -->
<g id="edge1" class="edge">
<title>Node2&#45;&gt;Node1</title>
<path fill="none" stroke="midnightblue" d="M157.37,-121.06C157.37,-107.37 157.37,-92.69 157.37,-79.68"/>
<polygon fill="none" stroke="midnightblue" points="153.87,-121.3 157.37,-131.3 160.87,-121.3 153.87,-121.3"/>
</g>
<!-- Node3 -->
<g id="node3" class="node">
<title>Node3</title>
<g id="a_node3"><a xlink:title=" ">
<polygon fill="white" stroke="#bfbfbf" points="3.37,-339.5 3.37,-396.5 53.37,-396.5 53.37,-339.5 3.37,-339.5"/>
<text text-anchor="middle" x="28.37" y="-384.5" font-family="Helvetica,sans-Serif" font-size="10.00">double</text>
<polyline fill="none" stroke="#bfbfbf" points="3.37,-377.5 53.37,-377.5 "/>
<text text-anchor="middle" x="28.37" y="-365.5" font-family="Helvetica,sans-Serif" font-size="10.00"> </text>
<polyline fill="none" stroke="#bfbfbf" points="3.37,-358.5 53.37,-358.5 "/>
<text text-anchor="middle" x="28.37" y="-346.5" font-family="Helvetica,sans-Serif" font-size="10.00"> </text>
</a>
</g>
</g>
<!-- Node3&#45;&gt;Node1 -->
<g id="edge3" class="edge">
<title>Node3&#45;&gt;Node1</title>
<path fill="none" stroke="#404040" d="M19.04,-339.35C4.95,-292.38 -16.34,-195.46 21.37,-127 37.55,-97.62 68.47,-76.88 96.74,-63.14"/>
<polygon fill="none" stroke="#404040" points="96.92,-63.06 100.7,-56.92 107.82,-58.04 104.05,-64.18 96.92,-63.06"/>
<text text-anchor="middle" x="53.37" y="-207" font-family="Helvetica,sans-Serif" font-size="10.00"> #matrixL</text>
<text text-anchor="middle" x="53.37" y="-196" font-family="Helvetica,sans-Serif" font-size="10.00">#lambda_l</text>
<text text-anchor="middle" x="53.37" y="-185" font-family="Helvetica,sans-Serif" font-size="10.00">#matrixR</text>
<text text-anchor="middle" x="53.37" y="-174" font-family="Helvetica,sans-Serif" font-size="10.00">#roeVelocity</text>
<text text-anchor="middle" x="53.37" y="-163" font-family="Helvetica,sans-Serif" font-size="10.00">#diffW</text>
<text text-anchor="middle" x="53.37" y="-152" font-family="Helvetica,sans-Serif" font-size="10.00">#roeHeight</text>
<text text-anchor="middle" x="53.37" y="-141" font-family="Helvetica,sans-Serif" font-size="10.00">#lambda</text>
<text text-anchor="middle" x="53.37" y="-130" font-family="Helvetica,sans-Serif" font-size="10.00">#lambda_r</text>
</g>
<!-- Node3&#45;&gt;Node2 -->
<g id="edge2" class="edge">
<title>Node3&#45;&gt;Node2</title>
<path fill="none" stroke="#404040" d="M46.58,-339.47C66.89,-308.77 100.16,-258.49 124.94,-221.02"/>
<polygon fill="none" stroke="#404040" points="125.07,-220.83 125.05,-213.61 131.69,-210.82 131.72,-218.03 125.07,-220.83"/>
<text text-anchor="middle" x="157.37" y="-313" font-family="Helvetica,sans-Serif" font-size="10.00"> +numericalFlux</text>
<text text-anchor="middle" x="157.37" y="-302" font-family="Helvetica,sans-Serif" font-size="10.00">#velocity_l</text>
<text text-anchor="middle" x="157.37" y="-291" font-family="Helvetica,sans-Serif" font-size="10.00">#flux_l</text>
<text text-anchor="middle" x="157.37" y="-280" font-family="Helvetica,sans-Serif" font-size="10.00">#height_r</text>
<text text-anchor="middle" x="157.37" y="-269" font-family="Helvetica,sans-Serif" font-size="10.00">#normal</text>
<text text-anchor="middle" x="157.37" y="-258" font-family="Helvetica,sans-Serif" font-size="10.00">#velocity_r</text>
<text text-anchor="middle" x="157.37" y="-247" font-family="Helvetica,sans-Serif" font-size="10.00">#height_l</text>
<text text-anchor="middle" x="157.37" y="-236" font-family="Helvetica,sans-Serif" font-size="10.00">#flux_r</text>
</g>
<!-- Node4 -->
<g id="node4" class="node">
<title>Node4</title>
<g id="a_node4"><a xlink:title=" ">
<polygon fill="white" stroke="#bfbfbf" points="238.37,-142.5 238.37,-199.5 276.37,-199.5 276.37,-142.5 238.37,-142.5"/>
<text text-anchor="middle" x="257.37" y="-187.5" font-family="Helvetica,sans-Serif" font-size="10.00">bool</text>
<polyline fill="none" stroke="#bfbfbf" points="238.37,-180.5 276.37,-180.5 "/>
<text text-anchor="middle" x="257.37" y="-168.5" font-family="Helvetica,sans-Serif" font-size="10.00"> </text>
<polyline fill="none" stroke="#bfbfbf" points="238.37,-161.5 276.37,-161.5 "/>
<text text-anchor="middle" x="257.37" y="-149.5" font-family="Helvetica,sans-Serif" font-size="10.00"> </text>
</a>
</g>
</g>
<!-- Node4&#45;&gt;Node1 -->
<g id="edge4" class="edge">
<title>Node4&#45;&gt;Node1</title>
<path fill="none" stroke="#404040" d="M240.08,-142.37C236.64,-137.19 232.98,-131.87 229.37,-127 220.05,-114.4 209.47,-101.23 199.35,-89.08"/>
<polygon fill="none" stroke="#404040" points="199.09,-88.77 192.17,-86.76 191.36,-79.59 198.29,-81.6 199.09,-88.77"/>
<text text-anchor="middle" x="245.87" y="-101" font-family="Helvetica,sans-Serif" font-size="10.00"> #entropyFix</text>
</g>
</g>
</svg>
