<?xml version="1.0" encoding="UTF-8" standalone="no"?>
<!DOCTYPE svg PUBLIC "-//W3C//DTD SVG 1.1//EN"
 "http://www.w3.org/Graphics/SVG/1.1/DTD/svg11.dtd">
<!-- Generated by graphviz version 2.43.0 (0)
 -->
<!-- Title: Grid::getNormalToDualGridEdge Pages: 1 -->
<svg width="483pt" height="56pt"
 viewBox="0.00 0.00 483.00 55.50" xmlns="http://www.w3.org/2000/svg" xmlns:xlink="http://www.w3.org/1999/xlink">
<g id="graph0" class="graph" transform="scale(1 1) rotate(0) translate(4 51.5)">
<title>Grid::getNormalToDualGridEdge</title>
<polygon fill="white" stroke="transparent" points="-4,4 -4,-51.5 479,-51.5 479,4 -4,4"/>
<!-- Node1 -->
<g id="node1" class="node">
<title>Node1</title>
<g id="a_node1"><a xlink:title="Gets the normal vector to an edge of the dual grid.">
<polygon fill="#bfbfbf" stroke="black" points="0,-0.5 0,-19.5 172,-19.5 172,-0.5 0,-0.5"/>
<text text-anchor="middle" x="86" y="-7.5" font-family="Helvetica,sans-Serif" font-size="10.00">Grid::getNormalToDualGridEdge</text>
</a>
</g>
</g>
<!-- Node2 -->
<g id="node2" class="node">
<title>Node2</title>
<g id="a_node2"><a xlink:href="classGridxhtml#a4e37698e22ce482fa5ab2527dc78f0a9" target="_top" xlink:title="Gets the adjacent nodes to an interface (edge)">
<polygon fill="white" stroke="black" points="208,-17 208,-47 351,-47 351,-17 208,-17"/>
<text text-anchor="start" x="216" y="-35" font-family="Helvetica,sans-Serif" font-size="10.00">Grid::getAdjacentNodesTo</text>
<text text-anchor="middle" x="279.5" y="-24" font-family="Helvetica,sans-Serif" font-size="10.00">Interface</text>
</a>
</g>
</g>
<!-- Node1&#45;&gt;Node2 -->
<g id="edge1" class="edge">
<title>Node1&#45;&gt;Node2</title>
<path fill="none" stroke="midnightblue" d="M169.88,-19.52C179.16,-20.59 188.6,-21.67 197.85,-22.74"/>
<polygon fill="midnightblue" stroke="midnightblue" points="197.47,-26.21 207.8,-23.88 198.26,-19.26 197.47,-26.21"/>
</g>
<!-- Node3 -->
<g id="node3" class="node">
<title>Node3</title>
<g id="a_node3"><a xlink:href="namespaceswexhtml#aca666e377868955898f5bc54f97d8075" target="_top" xlink:title="Prints an error message and exit the program.">
<polygon fill="white" stroke="black" points="387,-0.5 387,-19.5 475,-19.5 475,-0.5 387,-0.5"/>
<text text-anchor="middle" x="431" y="-7.5" font-family="Helvetica,sans-Serif" font-size="10.00">swe::printError</text>
</a>
</g>
</g>
<!-- Node1&#45;&gt;Node3 -->
<g id="edge3" class="edge">
<title>Node1&#45;&gt;Node3</title>
<path fill="none" stroke="midnightblue" d="M172.27,-8.41C184.27,-8.24 196.44,-8.1 208,-8 271.55,-7.47 287.45,-7.2 351,-8 359.38,-8.11 368.26,-8.28 376.92,-8.47"/>
<polygon fill="midnightblue" stroke="midnightblue" points="376.87,-11.97 386.95,-8.71 377.04,-4.97 376.87,-11.97"/>
</g>
<!-- Node2&#45;&gt;Node3 -->
<g id="edge2" class="edge">
<title>Node2&#45;&gt;Node3</title>
<path fill="none" stroke="midnightblue" d="M351.31,-21.58C359.8,-20.33 368.36,-19.07 376.55,-17.87"/>
<polygon fill="midnightblue" stroke="midnightblue" points="377.3,-21.29 386.68,-16.37 376.28,-14.37 377.3,-21.29"/>
</g>
</g>
</svg>
