<?xml version="1.0" encoding="UTF-8" standalone="no"?>
<!DOCTYPE svg PUBLIC "-//W3C//DTD SVG 1.1//EN"
 "http://www.w3.org/Graphics/SVG/1.1/DTD/svg11.dtd">
<!-- Generated by graphviz version 2.43.0 (0)
 -->
<!-- Title: Config::Config Pages: 1 -->
<svg width="627pt" height="209pt"
 viewBox="0.00 0.00 627.00 209.37" xmlns="http://www.w3.org/2000/svg" xmlns:xlink="http://www.w3.org/1999/xlink">
<g id="graph0" class="graph" transform="scale(1 1) rotate(0) translate(4 205.37)">
<title>Config::Config</title>
<polygon fill="white" stroke="transparent" points="-4,4 -4,-205.37 623,-205.37 623,4 -4,4"/>
<!-- Node1 -->
<g id="node1" class="node">
<title>Node1</title>
<g id="a_node1"><a xlink:title="Constructor of the class.">
<polygon fill="#bfbfbf" stroke="black" points="0,-133.5 0,-152.5 86,-152.5 86,-133.5 0,-133.5"/>
<text text-anchor="middle" x="43" y="-140.5" font-family="Helvetica,sans-Serif" font-size="10.00">Config::Config</text>
</a>
</g>
</g>
<!-- Node2 -->
<g id="node2" class="node">
<title>Node2</title>
<g id="a_node2"><a xlink:href="classConfigxhtml#a1f2a76ebb4179341c001dd645366d6f1" target="_top" xlink:title="Initializes the default values.">
<polygon fill="white" stroke="black" points="153.5,-171.5 153.5,-190.5 259.5,-190.5 259.5,-171.5 153.5,-171.5"/>
<text text-anchor="middle" x="206.5" y="-178.5" font-family="Helvetica,sans-Serif" font-size="10.00">Config::initDefault</text>
</a>
</g>
</g>
<!-- Node1&#45;&gt;Node2 -->
<g id="edge1" class="edge">
<title>Node1&#45;&gt;Node2</title>
<path fill="none" stroke="midnightblue" d="M82.85,-152.59C95.34,-155.64 109.25,-159 122,-162 132.09,-164.38 142.88,-166.87 153.23,-169.24"/>
<polygon fill="midnightblue" stroke="midnightblue" points="152.46,-172.65 162.99,-171.46 154.02,-165.82 152.46,-172.65"/>
</g>
<!-- Node3 -->
<g id="node3" class="node">
<title>Node3</title>
<g id="a_node3"><a xlink:href="classConfigxhtml#a04d499d71cec9aaaa9377cce8a6bb1b0" target="_top" xlink:title="Prints simulation settings on screen.">
<polygon fill="white" stroke="black" points="122,-133.5 122,-152.5 291,-152.5 291,-133.5 122,-133.5"/>
<text text-anchor="middle" x="206.5" y="-140.5" font-family="Helvetica,sans-Serif" font-size="10.00">Config::printSimulationSettings</text>
</a>
</g>
</g>
<!-- Node1&#45;&gt;Node3 -->
<g id="edge2" class="edge">
<title>Node1&#45;&gt;Node3</title>
<path fill="none" stroke="midnightblue" d="M86.01,-143C94.02,-143 102.7,-143 111.6,-143"/>
<polygon fill="midnightblue" stroke="midnightblue" points="111.72,-146.5 121.72,-143 111.72,-139.5 111.72,-146.5"/>
</g>
<!-- Node4 -->
<g id="node4" class="node">
<title>Node4</title>
<g id="a_node4"><a xlink:href="classConfigxhtml#ab26406ce91eab1436b24859ded6f08d6" target="_top" xlink:title="Parses the config file and stores options and values.">
<polygon fill="white" stroke="black" points="134,-95.5 134,-114.5 279,-114.5 279,-95.5 134,-95.5"/>
<text text-anchor="middle" x="206.5" y="-102.5" font-family="Helvetica,sans-Serif" font-size="10.00">Config::readConfigOptions</text>
</a>
</g>
</g>
<!-- Node1&#45;&gt;Node4 -->
<g id="edge3" class="edge">
<title>Node1&#45;&gt;Node4</title>
<path fill="none" stroke="midnightblue" d="M82.85,-133.41C95.34,-130.36 109.25,-127 122,-124 132.09,-121.62 142.88,-119.13 153.23,-116.76"/>
<polygon fill="midnightblue" stroke="midnightblue" points="154.02,-120.18 162.99,-114.54 152.46,-113.35 154.02,-120.18"/>
</g>
<!-- Node5 -->
<g id="node5" class="node">
<title>Node5</title>
<g id="a_node5"><a xlink:href="namespaceswexhtml#ad962c13147a198364f993657b930b3d8" target="_top" xlink:title="Returns the enumerator related to the option string within the given map.">
<polygon fill="white" stroke="black" points="339,-152.5 339,-171.5 470,-171.5 470,-152.5 339,-152.5"/>
<text text-anchor="middle" x="404.5" y="-159.5" font-family="Helvetica,sans-Serif" font-size="10.00">swe::getEnumFromMap</text>
</a>
</g>
</g>
<!-- Node4&#45;&gt;Node5 -->
<g id="edge4" class="edge">
<title>Node4&#45;&gt;Node5</title>
<path fill="none" stroke="midnightblue" d="M259.34,-114.58C269.97,-117.15 280.96,-120.28 291,-124 307.97,-130.28 310.1,-136.55 327,-143 333.44,-145.46 340.31,-147.69 347.19,-149.68"/>
<polygon fill="midnightblue" stroke="midnightblue" points="346.66,-153.16 357.23,-152.42 348.51,-146.41 346.66,-153.16"/>
</g>
<!-- Node6 -->
<g id="node6" class="node">
<title>Node6</title>
<g id="a_node6"><a xlink:href="namespaceswexhtml#aca666e377868955898f5bc54f97d8075" target="_top" xlink:title="Prints an error message and exit the program.">
<polygon fill="white" stroke="black" points="524.5,-114.5 524.5,-133.5 612.5,-133.5 612.5,-114.5 524.5,-114.5"/>
<text text-anchor="middle" x="568.5" y="-121.5" font-family="Helvetica,sans-Serif" font-size="10.00">swe::printError</text>
</a>
</g>
</g>
<!-- Node4&#45;&gt;Node6 -->
<g id="edge22" class="edge">
<title>Node4&#45;&gt;Node6</title>
<path fill="none" stroke="midnightblue" d="M273.04,-114.57C279.42,-117.04 285.54,-120.14 291,-124 315.46,-141.3 300.76,-166.54 327,-181 387.33,-214.25 416.07,-200.96 482,-181 508.17,-173.08 533.66,-154.21 549.89,-140.34"/>
<polygon fill="midnightblue" stroke="midnightblue" points="552.31,-142.87 557.49,-133.63 547.68,-137.62 552.31,-142.87"/>
</g>
<!-- Node7 -->
<g id="node7" class="node">
<title>Node7</title>
<g id="a_node7"><a xlink:href="namespaceswexhtml#a8c1ec9326b8b65ca0b13b58db66b22af" target="_top" xlink:title="Returns the selected double option. If it is mandatory, returns the defaultValue if the option is not...">
<polygon fill="white" stroke="black" points="342,-114.5 342,-133.5 467,-133.5 467,-114.5 342,-114.5"/>
<text text-anchor="middle" x="404.5" y="-121.5" font-family="Helvetica,sans-Serif" font-size="10.00">swe::getOptionDouble</text>
</a>
</g>
</g>
<!-- Node4&#45;&gt;Node7 -->
<g id="edge6" class="edge">
<title>Node4&#45;&gt;Node7</title>
<path fill="none" stroke="midnightblue" d="M279.09,-111.94C296.28,-113.61 314.64,-115.39 331.82,-117.05"/>
<polygon fill="midnightblue" stroke="midnightblue" points="331.5,-120.54 341.79,-118.02 332.18,-113.57 331.5,-120.54"/>
</g>
<!-- Node10 -->
<g id="node10" class="node">
<title>Node10</title>
<g id="a_node10"><a xlink:href="namespaceswexhtml#a9328d9e8020926fcc4a0b36b200a0951" target="_top" xlink:title="Returns the selected integer option. If it is mandatory, returns the defaultValue if the option is no...">
<polygon fill="white" stroke="black" points="342,-76.5 342,-95.5 467,-95.5 467,-76.5 342,-76.5"/>
<text text-anchor="middle" x="404.5" y="-83.5" font-family="Helvetica,sans-Serif" font-size="10.00">swe::getOptionInteger</text>
</a>
</g>
</g>
<!-- Node4&#45;&gt;Node10 -->
<g id="edge10" class="edge">
<title>Node4&#45;&gt;Node10</title>
<path fill="none" stroke="midnightblue" d="M279.09,-98.06C296.28,-96.39 314.64,-94.61 331.82,-92.95"/>
<polygon fill="midnightblue" stroke="midnightblue" points="332.18,-96.43 341.79,-91.98 331.5,-89.46 332.18,-96.43"/>
</g>
<!-- Node11 -->
<g id="node11" class="node">
<title>Node11</title>
<g id="a_node11"><a xlink:href="namespaceswexhtml#a7b988c6641ac2c6971a03a7fdc6ce6ae" target="_top" xlink:title="Returns the selected string option among the possible contained in the list.">
<polygon fill="white" stroke="black" points="345,-0.5 345,-19.5 464,-19.5 464,-0.5 345,-0.5"/>
<text text-anchor="middle" x="404.5" y="-7.5" font-family="Helvetica,sans-Serif" font-size="10.00">swe::getOptionString</text>
</a>
</g>
</g>
<!-- Node4&#45;&gt;Node11 -->
<g id="edge14" class="edge">
<title>Node4&#45;&gt;Node11</title>
<path fill="none" stroke="midnightblue" d="M219.65,-95.36C240.46,-79.32 284.74,-47.11 327,-29 332.78,-26.52 338.95,-24.32 345.18,-22.38"/>
<polygon fill="midnightblue" stroke="midnightblue" points="346.35,-25.69 354.97,-19.54 344.4,-18.96 346.35,-25.69"/>
</g>
<!-- Node13 -->
<g id="node13" class="node">
<title>Node13</title>
<g id="a_node13"><a xlink:href="namespaceswexhtml#a801c180cde1b3d593380f77138323f35" target="_top" xlink:title="Returns the vector of strings option.">
<polygon fill="white" stroke="black" points="327,-38.5 327,-57.5 482,-57.5 482,-38.5 327,-38.5"/>
<text text-anchor="middle" x="404.5" y="-45.5" font-family="Helvetica,sans-Serif" font-size="10.00">swe::getOptionVectorStrings</text>
</a>
</g>
</g>
<!-- Node4&#45;&gt;Node13 -->
<g id="edge18" class="edge">
<title>Node4&#45;&gt;Node13</title>
<path fill="none" stroke="midnightblue" d="M235.84,-95.42C259.95,-87.41 295.58,-75.89 327,-67 335.42,-64.62 344.41,-62.24 353.15,-60.02"/>
<polygon fill="midnightblue" stroke="midnightblue" points="354.03,-63.4 362.88,-57.57 352.32,-56.61 354.03,-63.4"/>
</g>
<!-- Node5&#45;&gt;Node6 -->
<g id="edge5" class="edge">
<title>Node5&#45;&gt;Node6</title>
<path fill="none" stroke="midnightblue" d="M446.38,-152.41C467.85,-147.37 494.36,-141.16 517.1,-135.82"/>
<polygon fill="midnightblue" stroke="midnightblue" points="517.98,-139.21 526.91,-133.52 516.38,-132.4 517.98,-139.21"/>
</g>
<!-- Node7&#45;&gt;Node6 -->
<g id="edge9" class="edge">
<title>Node7&#45;&gt;Node6</title>
<path fill="none" stroke="midnightblue" d="M467.21,-124C482.61,-124 499,-124 513.97,-124"/>
<polygon fill="midnightblue" stroke="midnightblue" points="514.08,-127.5 524.08,-124 514.08,-120.5 514.08,-127.5"/>
</g>
<!-- Node8 -->
<g id="node8" class="node">
<title>Node8</title>
<g id="a_node8"><a xlink:href="namespaceswexhtml#ad16a86c30855f6cf6015555ed0148dcc" target="_top" xlink:title="Returns the line of fileName in which keyword is found.">
<polygon fill="white" stroke="black" points="530,-38.5 530,-57.5 607,-57.5 607,-38.5 530,-38.5"/>
<text text-anchor="middle" x="568.5" y="-45.5" font-family="Helvetica,sans-Serif" font-size="10.00">swe::jumpTo</text>
</a>
</g>
</g>
<!-- Node7&#45;&gt;Node8 -->
<g id="edge7" class="edge">
<title>Node7&#45;&gt;Node8</title>
<path fill="none" stroke="midnightblue" d="M460.5,-114.4C468,-111.94 475.38,-108.86 482,-105 502.1,-93.28 498.66,-79.93 518,-67 520.88,-65.07 523.98,-63.3 527.18,-61.68"/>
<polygon fill="midnightblue" stroke="midnightblue" points="528.69,-64.84 536.34,-57.52 525.79,-58.47 528.69,-64.84"/>
</g>
<!-- Node9 -->
<g id="node9" class="node">
<title>Node9</title>
<g id="a_node9"><a xlink:href="namespaceswexhtml#a028619a1d8fcc5fbce7253f26597b388" target="_top" xlink:title="Prints a message when a default option is used.">
<polygon fill="white" stroke="black" points="518,-76.5 518,-95.5 619,-95.5 619,-76.5 518,-76.5"/>
<text text-anchor="middle" x="568.5" y="-83.5" font-family="Helvetica,sans-Serif" font-size="10.00">swe::printDefault</text>
</a>
</g>
</g>
<!-- Node7&#45;&gt;Node9 -->
<g id="edge8" class="edge">
<title>Node7&#45;&gt;Node9</title>
<path fill="none" stroke="midnightblue" d="M446.38,-114.41C467.85,-109.37 494.36,-103.16 517.1,-97.82"/>
<polygon fill="midnightblue" stroke="midnightblue" points="517.98,-101.21 526.91,-95.52 516.38,-94.4 517.98,-101.21"/>
</g>
<!-- Node10&#45;&gt;Node6 -->
<g id="edge13" class="edge">
<title>Node10&#45;&gt;Node6</title>
<path fill="none" stroke="midnightblue" d="M446.38,-95.59C467.85,-100.63 494.36,-106.84 517.1,-112.18"/>
<polygon fill="midnightblue" stroke="midnightblue" points="516.38,-115.6 526.91,-114.48 517.98,-108.79 516.38,-115.6"/>
</g>
<!-- Node10&#45;&gt;Node8 -->
<g id="edge11" class="edge">
<title>Node10&#45;&gt;Node8</title>
<path fill="none" stroke="midnightblue" d="M446.38,-76.41C468.75,-71.16 496.59,-64.63 519.93,-59.16"/>
<polygon fill="midnightblue" stroke="midnightblue" points="521.03,-62.5 529.96,-56.8 519.43,-55.68 521.03,-62.5"/>
</g>
<!-- Node10&#45;&gt;Node9 -->
<g id="edge12" class="edge">
<title>Node10&#45;&gt;Node9</title>
<path fill="none" stroke="midnightblue" d="M467.21,-86C480.4,-86 494.32,-86 507.45,-86"/>
<polygon fill="midnightblue" stroke="midnightblue" points="507.78,-89.5 517.78,-86 507.78,-82.5 507.78,-89.5"/>
</g>
<!-- Node11&#45;&gt;Node8 -->
<g id="edge15" class="edge">
<title>Node11&#45;&gt;Node8</title>
<path fill="none" stroke="midnightblue" d="M446.38,-19.59C468.75,-24.84 496.59,-31.37 519.93,-36.84"/>
<polygon fill="midnightblue" stroke="midnightblue" points="519.43,-40.32 529.96,-39.2 521.03,-33.5 519.43,-40.32"/>
</g>
<!-- Node11&#45;&gt;Node9 -->
<g id="edge16" class="edge">
<title>Node11&#45;&gt;Node9</title>
<path fill="none" stroke="midnightblue" d="M460.5,-19.6C468,-22.06 475.38,-25.14 482,-29 502.1,-40.72 498.66,-54.07 518,-67 520.88,-68.93 523.98,-70.7 527.18,-72.32"/>
<polygon fill="midnightblue" stroke="midnightblue" points="525.79,-75.53 536.34,-76.48 528.69,-69.16 525.79,-75.53"/>
</g>
<!-- Node12 -->
<g id="node12" class="node">
<title>Node12</title>
<g id="a_node12"><a xlink:href="namespaceswexhtml#a6433aaafee87e52ab9cbcc3ab911961a" target="_top" xlink:title="Trims spaces in a string.">
<polygon fill="white" stroke="black" points="537.5,-0.5 537.5,-19.5 599.5,-19.5 599.5,-0.5 537.5,-0.5"/>
<text text-anchor="middle" x="568.5" y="-7.5" font-family="Helvetica,sans-Serif" font-size="10.00">swe::trim</text>
</a>
</g>
</g>
<!-- Node11&#45;&gt;Node12 -->
<g id="edge17" class="edge">
<title>Node11&#45;&gt;Node12</title>
<path fill="none" stroke="midnightblue" d="M464.44,-10C485.36,-10 508.4,-10 527.38,-10"/>
<polygon fill="midnightblue" stroke="midnightblue" points="527.47,-13.5 537.47,-10 527.47,-6.5 527.47,-13.5"/>
</g>
<!-- Node13&#45;&gt;Node6 -->
<g id="edge20" class="edge">
<title>Node13&#45;&gt;Node6</title>
<path fill="none" stroke="midnightblue" d="M460.5,-57.6C468,-60.06 475.38,-63.14 482,-67 502.1,-78.72 498.66,-92.07 518,-105 520.88,-106.93 523.98,-108.7 527.18,-110.32"/>
<polygon fill="midnightblue" stroke="midnightblue" points="525.79,-113.53 536.34,-114.48 528.69,-107.16 525.79,-113.53"/>
</g>
<!-- Node13&#45;&gt;Node8 -->
<g id="edge19" class="edge">
<title>Node13&#45;&gt;Node8</title>
<path fill="none" stroke="midnightblue" d="M482.23,-48C495.01,-48 507.93,-48 519.71,-48"/>
<polygon fill="midnightblue" stroke="midnightblue" points="519.74,-51.5 529.74,-48 519.74,-44.5 519.74,-51.5"/>
</g>
<!-- Node13&#45;&gt;Node12 -->
<g id="edge21" class="edge">
<title>Node13&#45;&gt;Node12</title>
<path fill="none" stroke="midnightblue" d="M446.38,-38.41C471.26,-32.58 502.89,-25.15 527.59,-19.36"/>
<polygon fill="midnightblue" stroke="midnightblue" points="528.44,-22.76 537.37,-17.07 526.84,-15.94 528.44,-22.76"/>
</g>
</g>
</svg>
