<?xml version="1.0" encoding="UTF-8" standalone="no"?>
<!DOCTYPE svg PUBLIC "-//W3C//DTD SVG 1.1//EN"
 "http://www.w3.org/Graphics/SVG/1.1/DTD/svg11.dtd">
<!-- Generated by graphviz version 2.43.0 (0)
 -->
<!-- Title: Solution::Solution Pages: 1 -->
<svg width="437pt" height="28pt"
 viewBox="0.00 0.00 437.00 28.00" xmlns="http://www.w3.org/2000/svg" xmlns:xlink="http://www.w3.org/1999/xlink">
<g id="graph0" class="graph" transform="scale(1 1) rotate(0) translate(4 24)">
<title>Solution::Solution</title>
<polygon fill="white" stroke="transparent" points="-4,4 -4,-24 433,-24 433,4 -4,4"/>
<!-- Node1 -->
<g id="node1" class="node">
<title>Node1</title>
<g id="a_node1"><a xlink:title=" ">
<polygon fill="#bfbfbf" stroke="black" points="0,-0.5 0,-19.5 102,-19.5 102,-0.5 0,-0.5"/>
<text text-anchor="middle" x="51" y="-7.5" font-family="Helvetica,sans-Serif" font-size="10.00">Solution::Solution</text>
</a>
</g>
</g>
<!-- Node2 -->
<g id="node2" class="node">
<title>Node2</title>
<g id="a_node2"><a xlink:href="classSolutionxhtml#aec6110f896a093833bd7507e03b24770" target="_top" xlink:title="Initializes the solution on a mesh.">
<polygon fill="white" stroke="black" points="138,-0.5 138,-19.5 296,-19.5 296,-0.5 138,-0.5"/>
<text text-anchor="middle" x="217" y="-7.5" font-family="Helvetica,sans-Serif" font-size="10.00">Solution::initSolutionOnMesh</text>
</a>
</g>
</g>
<!-- Node1&#45;&gt;Node2 -->
<g id="edge1" class="edge">
<title>Node1&#45;&gt;Node2</title>
<path fill="none" stroke="midnightblue" d="M102.1,-10C110.22,-10 118.84,-10 127.56,-10"/>
<polygon fill="midnightblue" stroke="midnightblue" points="127.81,-13.5 137.81,-10 127.81,-6.5 127.81,-13.5"/>
</g>
<!-- Node3 -->
<g id="node3" class="node">
<title>Node3</title>
<g id="a_node3"><a xlink:href="classGridxhtml#a13ffa5ab5552148c9cf43ef546b6150e" target="_top" xlink:title="Returns the number of nodes on the mesh.">
<polygon fill="white" stroke="black" points="332,-0.5 332,-19.5 429,-19.5 429,-0.5 332,-0.5"/>
<text text-anchor="middle" x="380.5" y="-7.5" font-family="Helvetica,sans-Serif" font-size="10.00">Grid::getNNodes</text>
</a>
</g>
</g>
<!-- Node2&#45;&gt;Node3 -->
<g id="edge2" class="edge">
<title>Node2&#45;&gt;Node3</title>
<path fill="none" stroke="midnightblue" d="M296.38,-10C304.86,-10 313.37,-10 321.54,-10"/>
<polygon fill="midnightblue" stroke="midnightblue" points="321.68,-13.5 331.68,-10 321.68,-6.5 321.68,-13.5"/>
</g>
</g>
</svg>
