<?xml version="1.0" encoding="UTF-8" standalone="no"?>
<!DOCTYPE svg PUBLIC "-//W3C//DTD SVG 1.1//EN"
 "http://www.w3.org/Graphics/SVG/1.1/DTD/svg11.dtd">
<!-- Generated by graphviz version 2.43.0 (0)
 -->
<!-- Title: Solver::setInitialSolution Pages: 1 -->
<svg width="311pt" height="104pt"
 viewBox="0.00 0.00 311.00 104.00" xmlns="http://www.w3.org/2000/svg" xmlns:xlink="http://www.w3.org/1999/xlink">
<g id="graph0" class="graph" transform="scale(1 1) rotate(0) translate(4 100)">
<title>Solver::setInitialSolution</title>
<polygon fill="white" stroke="transparent" points="-4,4 -4,-100 307,-100 307,4 -4,4"/>
<!-- Node1 -->
<g id="node1" class="node">
<title>Node1</title>
<g id="a_node1"><a xlink:title="Sets the initial condition.">
<polygon fill="#bfbfbf" stroke="black" points="0,-38.5 0,-57.5 136,-57.5 136,-38.5 0,-38.5"/>
<text text-anchor="middle" x="68" y="-45.5" font-family="Helvetica,sans-Serif" font-size="10.00">Solver::setInitialSolution</text>
</a>
</g>
</g>
<!-- Node2 -->
<g id="node2" class="node">
<title>Node2</title>
<g id="a_node2"><a xlink:href="classSolutionxhtml#a4a125cf00e6d055d4e4f07f240bd5f06" target="_top" xlink:title="Returns the value of the conservative variable 1 (h) at nodeID.">
<polygon fill="white" stroke="black" points="172,-76.5 172,-95.5 303,-95.5 303,-76.5 172,-76.5"/>
<text text-anchor="middle" x="237.5" y="-83.5" font-family="Helvetica,sans-Serif" font-size="10.00">Solution::conservative1</text>
</a>
</g>
</g>
<!-- Node1&#45;&gt;Node2 -->
<g id="edge1" class="edge">
<title>Node1&#45;&gt;Node2</title>
<path fill="none" stroke="midnightblue" d="M111.27,-57.59C133.57,-62.65 161.12,-68.9 184.7,-74.25"/>
<polygon fill="midnightblue" stroke="midnightblue" points="184.01,-77.68 194.54,-76.48 185.56,-70.85 184.01,-77.68"/>
</g>
<!-- Node3 -->
<g id="node3" class="node">
<title>Node3</title>
<g id="a_node3"><a xlink:href="classSolutionxhtml#a854dcab81b7d871752c058b007533faa" target="_top" xlink:title="Returns the value of the conservative variable 2 (h*u) at nodeID.">
<polygon fill="white" stroke="black" points="172,-38.5 172,-57.5 303,-57.5 303,-38.5 172,-38.5"/>
<text text-anchor="middle" x="237.5" y="-45.5" font-family="Helvetica,sans-Serif" font-size="10.00">Solution::conservative2</text>
</a>
</g>
</g>
<!-- Node1&#45;&gt;Node3 -->
<g id="edge2" class="edge">
<title>Node1&#45;&gt;Node3</title>
<path fill="none" stroke="midnightblue" d="M136.16,-48C144.51,-48 153.09,-48 161.54,-48"/>
<polygon fill="midnightblue" stroke="midnightblue" points="161.77,-51.5 171.77,-48 161.77,-44.5 161.77,-51.5"/>
</g>
<!-- Node4 -->
<g id="node4" class="node">
<title>Node4</title>
<g id="a_node4"><a xlink:href="classSolutionxhtml#a3b27c41a9fba14b1b4b60933cbcd5e2c" target="_top" xlink:title="Returns the value of the conservative variable 3 (h*v) at nodeID.">
<polygon fill="white" stroke="black" points="172,-0.5 172,-19.5 303,-19.5 303,-0.5 172,-0.5"/>
<text text-anchor="middle" x="237.5" y="-7.5" font-family="Helvetica,sans-Serif" font-size="10.00">Solution::conservative3</text>
</a>
</g>
</g>
<!-- Node1&#45;&gt;Node4 -->
<g id="edge3" class="edge">
<title>Node1&#45;&gt;Node4</title>
<path fill="none" stroke="midnightblue" d="M111.27,-38.41C133.57,-33.35 161.12,-27.1 184.7,-21.75"/>
<polygon fill="midnightblue" stroke="midnightblue" points="185.56,-25.15 194.54,-19.52 184.01,-18.32 185.56,-25.15"/>
</g>
</g>
</svg>
