<?xml version="1.0" encoding="UTF-8" standalone="no"?>
<!DOCTYPE svg PUBLIC "-//W3C//DTD SVG 1.1//EN"
 "http://www.w3.org/Graphics/SVG/1.1/DTD/svg11.dtd">
<!-- Generated by graphviz version 2.43.0 (0)
 -->
<!-- Title: OutputManager::printSolutionCsv Pages: 1 -->
<svg width="354pt" height="142pt"
 viewBox="0.00 0.00 354.00 142.00" xmlns="http://www.w3.org/2000/svg" xmlns:xlink="http://www.w3.org/1999/xlink">
<g id="graph0" class="graph" transform="scale(1 1) rotate(0) translate(4 138)">
<title>OutputManager::printSolutionCsv</title>
<polygon fill="white" stroke="transparent" points="-4,4 -4,-138 350,-138 350,4 -4,4"/>
<!-- Node1 -->
<g id="node1" class="node">
<title>Node1</title>
<g id="a_node1"><a xlink:title="Prints the solution in csv format.">
<polygon fill="#bfbfbf" stroke="black" points="0,-57.5 0,-76.5 179,-76.5 179,-57.5 0,-57.5"/>
<text text-anchor="middle" x="89.5" y="-64.5" font-family="Helvetica,sans-Serif" font-size="10.00">OutputManager::printSolutionCsv</text>
</a>
</g>
</g>
<!-- Node2 -->
<g id="node2" class="node">
<title>Node2</title>
<g id="a_node2"><a xlink:href="classSolutionxhtml#a4a125cf00e6d055d4e4f07f240bd5f06" target="_top" xlink:title="Returns the value of the conservative variable 1 (h) at nodeID.">
<polygon fill="white" stroke="black" points="215,-114.5 215,-133.5 346,-133.5 346,-114.5 215,-114.5"/>
<text text-anchor="middle" x="280.5" y="-121.5" font-family="Helvetica,sans-Serif" font-size="10.00">Solution::conservative1</text>
</a>
</g>
</g>
<!-- Node1&#45;&gt;Node2 -->
<g id="edge1" class="edge">
<title>Node1&#45;&gt;Node2</title>
<path fill="none" stroke="midnightblue" d="M121.43,-76.53C146.6,-84.27 183.07,-95.42 215,-105 222.23,-107.17 229.92,-109.45 237.38,-111.66"/>
<polygon fill="midnightblue" stroke="midnightblue" points="236.42,-115.02 247,-114.49 238.4,-108.31 236.42,-115.02"/>
</g>
<!-- Node3 -->
<g id="node3" class="node">
<title>Node3</title>
<g id="a_node3"><a xlink:href="classSolutionxhtml#a854dcab81b7d871752c058b007533faa" target="_top" xlink:title="Returns the value of the conservative variable 2 (h*u) at nodeID.">
<polygon fill="white" stroke="black" points="215,-76.5 215,-95.5 346,-95.5 346,-76.5 215,-76.5"/>
<text text-anchor="middle" x="280.5" y="-83.5" font-family="Helvetica,sans-Serif" font-size="10.00">Solution::conservative2</text>
</a>
</g>
</g>
<!-- Node1&#45;&gt;Node3 -->
<g id="edge2" class="edge">
<title>Node1&#45;&gt;Node3</title>
<path fill="none" stroke="midnightblue" d="M179.19,-75.92C187.71,-76.77 196.3,-77.64 204.67,-78.48"/>
<polygon fill="midnightblue" stroke="midnightblue" points="204.45,-81.97 214.75,-79.49 205.16,-75.01 204.45,-81.97"/>
</g>
<!-- Node4 -->
<g id="node4" class="node">
<title>Node4</title>
<g id="a_node4"><a xlink:href="classSolutionxhtml#a3b27c41a9fba14b1b4b60933cbcd5e2c" target="_top" xlink:title="Returns the value of the conservative variable 3 (h*v) at nodeID.">
<polygon fill="white" stroke="black" points="215,-38.5 215,-57.5 346,-57.5 346,-38.5 215,-38.5"/>
<text text-anchor="middle" x="280.5" y="-45.5" font-family="Helvetica,sans-Serif" font-size="10.00">Solution::conservative3</text>
</a>
</g>
</g>
<!-- Node1&#45;&gt;Node4 -->
<g id="edge3" class="edge">
<title>Node1&#45;&gt;Node4</title>
<path fill="none" stroke="midnightblue" d="M179.19,-58.08C187.71,-57.23 196.3,-56.36 204.67,-55.52"/>
<polygon fill="midnightblue" stroke="midnightblue" points="205.16,-58.99 214.75,-54.51 204.45,-52.03 205.16,-58.99"/>
</g>
<!-- Node5 -->
<g id="node5" class="node">
<title>Node5</title>
<g id="a_node5"><a xlink:href="namespaceswexhtml#aca666e377868955898f5bc54f97d8075" target="_top" xlink:title="Prints an error message and exit the program.">
<polygon fill="white" stroke="black" points="236.5,-0.5 236.5,-19.5 324.5,-19.5 324.5,-0.5 236.5,-0.5"/>
<text text-anchor="middle" x="280.5" y="-7.5" font-family="Helvetica,sans-Serif" font-size="10.00">swe::printError</text>
</a>
</g>
</g>
<!-- Node1&#45;&gt;Node5 -->
<g id="edge4" class="edge">
<title>Node1&#45;&gt;Node5</title>
<path fill="none" stroke="midnightblue" d="M121.43,-57.47C146.6,-49.73 183.07,-38.58 215,-29 222.23,-26.83 229.92,-24.55 237.38,-22.34"/>
<polygon fill="midnightblue" stroke="midnightblue" points="238.4,-25.69 247,-19.51 236.42,-18.98 238.4,-25.69"/>
</g>
</g>
</svg>
