<?xml version="1.0" encoding="UTF-8" standalone="no"?>
<!DOCTYPE svg PUBLIC "-//W3C//DTD SVG 1.1//EN"
 "http://www.w3.org/Graphics/SVG/1.1/DTD/svg11.dtd">
<!-- Generated by graphviz version 2.43.0 (0)
 -->
<!-- Title: Solver::setTimeStep Pages: 1 -->
<svg width="519pt" height="180pt"
 viewBox="0.00 0.00 519.00 180.00" xmlns="http://www.w3.org/2000/svg" xmlns:xlink="http://www.w3.org/1999/xlink">
<g id="graph0" class="graph" transform="scale(1 1) rotate(0) translate(4 176)">
<title>Solver::setTimeStep</title>
<polygon fill="white" stroke="transparent" points="-4,4 -4,-176 515,-176 515,4 -4,4"/>
<!-- Node1 -->
<g id="node1" class="node">
<title>Node1</title>
<g id="a_node1"><a xlink:title="Sets the time step at every iteration with a fixed CFL number.">
<polygon fill="#bfbfbf" stroke="black" points="0,-76.5 0,-95.5 114,-95.5 114,-76.5 0,-76.5"/>
<text text-anchor="middle" x="57" y="-83.5" font-family="Helvetica,sans-Serif" font-size="10.00">Solver::setTimeStep</text>
</a>
</g>
</g>
<!-- Node2 -->
<g id="node2" class="node">
<title>Node2</title>
<g id="a_node2"><a xlink:href="classGridxhtml#a91328f210cc0eeee8177d075d0efa4eb" target="_top" xlink:title="Gets measures of a dual grid element (length of both edges)">
<polygon fill="white" stroke="black" points="162.5,-152.5 162.5,-171.5 331.5,-171.5 331.5,-152.5 162.5,-152.5"/>
<text text-anchor="middle" x="247" y="-159.5" font-family="Helvetica,sans-Serif" font-size="10.00">Grid::getDualElementMeasures</text>
</a>
</g>
</g>
<!-- Node1&#45;&gt;Node2 -->
<g id="edge1" class="edge">
<title>Node1&#45;&gt;Node2</title>
<path fill="none" stroke="midnightblue" d="M70.32,-95.67C87.28,-108.49 119.23,-130.89 150,-143 156.74,-145.65 163.89,-147.95 171.14,-149.93"/>
<polygon fill="midnightblue" stroke="midnightblue" points="170.5,-153.38 181.05,-152.45 172.22,-146.6 170.5,-153.38"/>
</g>
<!-- Node4 -->
<g id="node4" class="node">
<title>Node4</title>
<g id="a_node4"><a xlink:href="classSolutionxhtml#a93ca33bcde0dd438ff4ab40b3cff4b80" target="_top" xlink:title="Returns the value of the primitive variable 1 (h) at nodeID.">
<polygon fill="white" stroke="black" points="190.5,-76.5 190.5,-95.5 303.5,-95.5 303.5,-76.5 190.5,-76.5"/>
<text text-anchor="middle" x="247" y="-83.5" font-family="Helvetica,sans-Serif" font-size="10.00">Solution::primitive1</text>
</a>
</g>
</g>
<!-- Node1&#45;&gt;Node4 -->
<g id="edge3" class="edge">
<title>Node1&#45;&gt;Node4</title>
<path fill="none" stroke="midnightblue" d="M114.15,-86C134.98,-86 158.79,-86 180.39,-86"/>
<polygon fill="midnightblue" stroke="midnightblue" points="180.46,-89.5 190.46,-86 180.46,-82.5 180.46,-89.5"/>
</g>
<!-- Node6 -->
<g id="node6" class="node">
<title>Node6</title>
<g id="a_node6"><a xlink:href="classSolutionxhtml#ad6a4954517a6f464d9a5f7b366c26abc" target="_top" xlink:title="Returns the value of the primitive variable 2 (u) at nodeID.">
<polygon fill="white" stroke="black" points="190.5,-114.5 190.5,-133.5 303.5,-133.5 303.5,-114.5 190.5,-114.5"/>
<text text-anchor="middle" x="247" y="-121.5" font-family="Helvetica,sans-Serif" font-size="10.00">Solution::primitive2</text>
</a>
</g>
</g>
<!-- Node1&#45;&gt;Node6 -->
<g id="edge5" class="edge">
<title>Node1&#45;&gt;Node6</title>
<path fill="none" stroke="midnightblue" d="M103.84,-95.55C118.58,-98.59 134.97,-101.96 150,-105 161.97,-107.42 174.78,-109.98 187.03,-112.41"/>
<polygon fill="midnightblue" stroke="midnightblue" points="186.66,-115.9 197.15,-114.41 188.02,-109.04 186.66,-115.9"/>
</g>
<!-- Node8 -->
<g id="node8" class="node">
<title>Node8</title>
<g id="a_node8"><a xlink:href="classSolutionxhtml#ae1679ee032038dd0d29e31002d426c9e" target="_top" xlink:title="Returns the value of the primitive variable 3 (v) at nodeID.">
<polygon fill="white" stroke="black" points="190.5,-38.5 190.5,-57.5 303.5,-57.5 303.5,-38.5 190.5,-38.5"/>
<text text-anchor="middle" x="247" y="-45.5" font-family="Helvetica,sans-Serif" font-size="10.00">Solution::primitive3</text>
</a>
</g>
</g>
<!-- Node1&#45;&gt;Node8 -->
<g id="edge8" class="edge">
<title>Node1&#45;&gt;Node8</title>
<path fill="none" stroke="midnightblue" d="M103.84,-76.45C118.58,-73.41 134.97,-70.04 150,-67 161.97,-64.58 174.78,-62.02 187.03,-59.59"/>
<polygon fill="midnightblue" stroke="midnightblue" points="188.02,-62.96 197.15,-57.59 186.66,-56.1 188.02,-62.96"/>
</g>
<!-- Node10 -->
<g id="node10" class="node">
<title>Node10</title>
<g id="a_node10"><a xlink:href="classModelEquationsxhtml#a63dc8124ff79ec29985885f605c4d9c2" target="_top" xlink:title="Sets the eigenvalues projected on the direction defined by the normal.">
<polygon fill="white" stroke="black" points="150,-0.5 150,-19.5 344,-19.5 344,-0.5 150,-0.5"/>
<text text-anchor="middle" x="247" y="-7.5" font-family="Helvetica,sans-Serif" font-size="10.00">ModelEquations::setProjEigenvalues</text>
</a>
</g>
</g>
<!-- Node1&#45;&gt;Node10 -->
<g id="edge11" class="edge">
<title>Node1&#45;&gt;Node10</title>
<path fill="none" stroke="midnightblue" d="M70.32,-76.33C87.28,-63.51 119.23,-41.11 150,-29 156.74,-26.35 163.89,-24.05 171.14,-22.07"/>
<polygon fill="midnightblue" stroke="midnightblue" points="172.22,-25.4 181.05,-19.55 170.5,-18.62 172.22,-25.4"/>
</g>
<!-- Node3 -->
<g id="node3" class="node">
<title>Node3</title>
<g id="a_node3"><a xlink:href="namespaceswexhtml#aca666e377868955898f5bc54f97d8075" target="_top" xlink:title="Prints an error message and exit the program.">
<polygon fill="white" stroke="black" points="401.5,-152.5 401.5,-171.5 489.5,-171.5 489.5,-152.5 401.5,-152.5"/>
<text text-anchor="middle" x="445.5" y="-159.5" font-family="Helvetica,sans-Serif" font-size="10.00">swe::printError</text>
</a>
</g>
</g>
<!-- Node2&#45;&gt;Node3 -->
<g id="edge2" class="edge">
<title>Node2&#45;&gt;Node3</title>
<path fill="none" stroke="midnightblue" d="M331.62,-162C351.8,-162 372.82,-162 391.17,-162"/>
<polygon fill="midnightblue" stroke="midnightblue" points="391.36,-165.5 401.36,-162 391.36,-158.5 391.36,-165.5"/>
</g>
<!-- Node5 -->
<g id="node5" class="node">
<title>Node5</title>
<g id="a_node5"><a xlink:href="classSolutionxhtml#a4a125cf00e6d055d4e4f07f240bd5f06" target="_top" xlink:title="Returns the value of the conservative variable 1 (h) at nodeID.">
<polygon fill="white" stroke="black" points="380,-76.5 380,-95.5 511,-95.5 511,-76.5 380,-76.5"/>
<text text-anchor="middle" x="445.5" y="-83.5" font-family="Helvetica,sans-Serif" font-size="10.00">Solution::conservative1</text>
</a>
</g>
</g>
<!-- Node4&#45;&gt;Node5 -->
<g id="edge4" class="edge">
<title>Node4&#45;&gt;Node5</title>
<path fill="none" stroke="midnightblue" d="M303.52,-86C324,-86 347.55,-86 369.47,-86"/>
<polygon fill="midnightblue" stroke="midnightblue" points="369.74,-89.5 379.74,-86 369.74,-82.5 369.74,-89.5"/>
</g>
<!-- Node6&#45;&gt;Node5 -->
<g id="edge6" class="edge">
<title>Node6&#45;&gt;Node5</title>
<path fill="none" stroke="midnightblue" d="M297.33,-114.46C323.96,-109.31 357.03,-102.92 385.07,-97.49"/>
<polygon fill="midnightblue" stroke="midnightblue" points="385.99,-100.88 395.15,-95.54 384.67,-94.01 385.99,-100.88"/>
</g>
<!-- Node7 -->
<g id="node7" class="node">
<title>Node7</title>
<g id="a_node7"><a xlink:href="classSolutionxhtml#a854dcab81b7d871752c058b007533faa" target="_top" xlink:title="Returns the value of the conservative variable 2 (h*u) at nodeID.">
<polygon fill="white" stroke="black" points="380,-114.5 380,-133.5 511,-133.5 511,-114.5 380,-114.5"/>
<text text-anchor="middle" x="445.5" y="-121.5" font-family="Helvetica,sans-Serif" font-size="10.00">Solution::conservative2</text>
</a>
</g>
</g>
<!-- Node6&#45;&gt;Node7 -->
<g id="edge7" class="edge">
<title>Node6&#45;&gt;Node7</title>
<path fill="none" stroke="midnightblue" d="M303.52,-124C324,-124 347.55,-124 369.47,-124"/>
<polygon fill="midnightblue" stroke="midnightblue" points="369.74,-127.5 379.74,-124 369.74,-120.5 369.74,-127.5"/>
</g>
<!-- Node8&#45;&gt;Node5 -->
<g id="edge9" class="edge">
<title>Node8&#45;&gt;Node5</title>
<path fill="none" stroke="midnightblue" d="M297.33,-57.54C323.96,-62.69 357.03,-69.08 385.07,-74.51"/>
<polygon fill="midnightblue" stroke="midnightblue" points="384.67,-77.99 395.15,-76.46 385.99,-71.12 384.67,-77.99"/>
</g>
<!-- Node9 -->
<g id="node9" class="node">
<title>Node9</title>
<g id="a_node9"><a xlink:href="classSolutionxhtml#a3b27c41a9fba14b1b4b60933cbcd5e2c" target="_top" xlink:title="Returns the value of the conservative variable 3 (h*v) at nodeID.">
<polygon fill="white" stroke="black" points="380,-38.5 380,-57.5 511,-57.5 511,-38.5 380,-38.5"/>
<text text-anchor="middle" x="445.5" y="-45.5" font-family="Helvetica,sans-Serif" font-size="10.00">Solution::conservative3</text>
</a>
</g>
</g>
<!-- Node8&#45;&gt;Node9 -->
<g id="edge10" class="edge">
<title>Node8&#45;&gt;Node9</title>
<path fill="none" stroke="midnightblue" d="M303.52,-48C324,-48 347.55,-48 369.47,-48"/>
<polygon fill="midnightblue" stroke="midnightblue" points="369.74,-51.5 379.74,-48 369.74,-44.5 369.74,-51.5"/>
</g>
</g>
</svg>
