<?xml version="1.0" encoding="UTF-8" standalone="no"?>
<!DOCTYPE svg PUBLIC "-//W3C//DTD SVG 1.1//EN"
 "http://www.w3.org/Graphics/SVG/1.1/DTD/svg11.dtd">
<!-- Generated by graphviz version 2.43.0 (0)
 -->
<!-- Title: Solver::updateSolution Pages: 1 -->
<svg width="644pt" height="142pt"
 viewBox="0.00 0.00 644.00 142.00" xmlns="http://www.w3.org/2000/svg" xmlns:xlink="http://www.w3.org/1999/xlink">
<g id="graph0" class="graph" transform="scale(1 1) rotate(0) translate(4 138)">
<title>Solver::updateSolution</title>
<polygon fill="white" stroke="transparent" points="-4,4 -4,-138 640,-138 640,4 -4,4"/>
<!-- Node1 -->
<g id="node1" class="node">
<title>Node1</title>
<g id="a_node1"><a xlink:title="Updates the solution with the new computed values.">
<polygon fill="#bfbfbf" stroke="black" points="0,-57.5 0,-76.5 127,-76.5 127,-57.5 0,-57.5"/>
<text text-anchor="middle" x="63.5" y="-64.5" font-family="Helvetica,sans-Serif" font-size="10.00">Solver::updateSolution</text>
</a>
</g>
</g>
<!-- Node2 -->
<g id="node2" class="node">
<title>Node2</title>
<g id="a_node2"><a xlink:href="classSolutionxhtml#a4a125cf00e6d055d4e4f07f240bd5f06" target="_top" xlink:title="Returns the value of the conservative variable 1 (h) at nodeID.">
<polygon fill="white" stroke="black" points="169.5,-114.5 169.5,-133.5 300.5,-133.5 300.5,-114.5 169.5,-114.5"/>
<text text-anchor="middle" x="235" y="-121.5" font-family="Helvetica,sans-Serif" font-size="10.00">Solution::conservative1</text>
</a>
</g>
</g>
<!-- Node1&#45;&gt;Node2 -->
<g id="edge1" class="edge">
<title>Node1&#45;&gt;Node2</title>
<path fill="none" stroke="midnightblue" d="M87.34,-76.61C107.14,-84.75 136.68,-96.43 163,-105 170.26,-107.36 177.99,-109.66 185.6,-111.79"/>
<polygon fill="midnightblue" stroke="midnightblue" points="184.89,-115.22 195.46,-114.49 186.74,-108.47 184.89,-115.22"/>
</g>
<!-- Node3 -->
<g id="node3" class="node">
<title>Node3</title>
<g id="a_node3"><a xlink:href="classSolutionxhtml#a854dcab81b7d871752c058b007533faa" target="_top" xlink:title="Returns the value of the conservative variable 2 (h*u) at nodeID.">
<polygon fill="white" stroke="black" points="169.5,-76.5 169.5,-95.5 300.5,-95.5 300.5,-76.5 169.5,-76.5"/>
<text text-anchor="middle" x="235" y="-83.5" font-family="Helvetica,sans-Serif" font-size="10.00">Solution::conservative2</text>
</a>
</g>
</g>
<!-- Node1&#45;&gt;Node3 -->
<g id="edge2" class="edge">
<title>Node1&#45;&gt;Node3</title>
<path fill="none" stroke="midnightblue" d="M127.13,-74.02C137.57,-75.19 148.48,-76.41 159.18,-77.61"/>
<polygon fill="midnightblue" stroke="midnightblue" points="159.03,-81.12 169.35,-78.75 159.81,-74.16 159.03,-81.12"/>
</g>
<!-- Node4 -->
<g id="node4" class="node">
<title>Node4</title>
<g id="a_node4"><a xlink:href="classSolutionxhtml#a3b27c41a9fba14b1b4b60933cbcd5e2c" target="_top" xlink:title="Returns the value of the conservative variable 3 (h*v) at nodeID.">
<polygon fill="white" stroke="black" points="169.5,-38.5 169.5,-57.5 300.5,-57.5 300.5,-38.5 169.5,-38.5"/>
<text text-anchor="middle" x="235" y="-45.5" font-family="Helvetica,sans-Serif" font-size="10.00">Solution::conservative3</text>
</a>
</g>
</g>
<!-- Node1&#45;&gt;Node4 -->
<g id="edge3" class="edge">
<title>Node1&#45;&gt;Node4</title>
<path fill="none" stroke="midnightblue" d="M127.13,-59.98C137.57,-58.81 148.48,-57.59 159.18,-56.39"/>
<polygon fill="midnightblue" stroke="midnightblue" points="159.81,-59.84 169.35,-55.25 159.03,-52.88 159.81,-59.84"/>
</g>
<!-- Node5 -->
<g id="node5" class="node">
<title>Node5</title>
<g id="a_node5"><a xlink:href="classGridxhtml#a88bbc32e4b2ac70838e95874ea88d245" target="_top" xlink:title="Returns the area of a dual element.">
<polygon fill="white" stroke="black" points="163,-0.5 163,-19.5 307,-19.5 307,-0.5 163,-0.5"/>
<text text-anchor="middle" x="235" y="-7.5" font-family="Helvetica,sans-Serif" font-size="10.00">Grid::getDualElementArea</text>
</a>
</g>
</g>
<!-- Node1&#45;&gt;Node5 -->
<g id="edge4" class="edge">
<title>Node1&#45;&gt;Node5</title>
<path fill="none" stroke="midnightblue" d="M87.34,-57.39C107.14,-49.25 136.68,-37.57 163,-29 170.26,-26.64 177.99,-24.34 185.6,-22.21"/>
<polygon fill="midnightblue" stroke="midnightblue" points="186.74,-25.53 195.46,-19.51 184.89,-18.78 186.74,-25.53"/>
</g>
<!-- Node6 -->
<g id="node6" class="node">
<title>Node6</title>
<g id="a_node6"><a xlink:href="classGridxhtml#a91328f210cc0eeee8177d075d0efa4eb" target="_top" xlink:title="Gets measures of a dual grid element (length of both edges)">
<polygon fill="white" stroke="black" points="343,-19.5 343,-38.5 512,-38.5 512,-19.5 343,-19.5"/>
<text text-anchor="middle" x="427.5" y="-26.5" font-family="Helvetica,sans-Serif" font-size="10.00">Grid::getDualElementMeasures</text>
</a>
</g>
</g>
<!-- Node5&#45;&gt;Node6 -->
<g id="edge5" class="edge">
<title>Node5&#45;&gt;Node6</title>
<path fill="none" stroke="midnightblue" d="M307.21,-17.1C315.56,-17.94 324.18,-18.79 332.78,-19.65"/>
<polygon fill="midnightblue" stroke="midnightblue" points="332.56,-23.15 342.86,-20.66 333.26,-16.18 332.56,-23.15"/>
</g>
<!-- Node7 -->
<g id="node7" class="node">
<title>Node7</title>
<g id="a_node7"><a xlink:href="namespaceswexhtml#aca666e377868955898f5bc54f97d8075" target="_top" xlink:title="Prints an error message and exit the program.">
<polygon fill="white" stroke="black" points="548,-0.5 548,-19.5 636,-19.5 636,-0.5 548,-0.5"/>
<text text-anchor="middle" x="592" y="-7.5" font-family="Helvetica,sans-Serif" font-size="10.00">swe::printError</text>
</a>
</g>
</g>
<!-- Node5&#45;&gt;Node7 -->
<g id="edge7" class="edge">
<title>Node5&#45;&gt;Node7</title>
<path fill="none" stroke="midnightblue" d="M307.41,-10C375.46,-10 476.35,-10 537.66,-10"/>
<polygon fill="midnightblue" stroke="midnightblue" points="537.89,-13.5 547.89,-10 537.89,-6.5 537.89,-13.5"/>
</g>
<!-- Node6&#45;&gt;Node7 -->
<g id="edge6" class="edge">
<title>Node6&#45;&gt;Node7</title>
<path fill="none" stroke="midnightblue" d="M510.23,-19.44C519.54,-18.36 528.85,-17.27 537.66,-16.24"/>
<polygon fill="midnightblue" stroke="midnightblue" points="538.22,-19.7 547.74,-15.06 537.4,-12.74 538.22,-19.7"/>
</g>
</g>
</svg>
