<?xml version="1.0" encoding="UTF-8" standalone="no"?>
<!DOCTYPE svg PUBLIC "-//W3C//DTD SVG 1.1//EN"
 "http://www.w3.org/Graphics/SVG/1.1/DTD/svg11.dtd">
<!-- Generated by graphviz version 2.43.0 (0)
 -->
<!-- Title: NumericalFluxes Pages: 1 -->
<svg width="256pt" height="584pt"
 viewBox="0.00 0.00 255.50 584.00" xmlns="http://www.w3.org/2000/svg" xmlns:xlink="http://www.w3.org/1999/xlink">
<g id="graph0" class="graph" transform="scale(1 1) rotate(0) translate(4 580)">
<title>NumericalFluxes</title>
<polygon fill="white" stroke="transparent" points="-4,4 -4,-580 251.5,-580 251.5,4 -4,4"/>
<!-- Node1 -->
<g id="node1" class="node">
<title>Node1</title>
<g id="a_node1"><a xlink:title="Class NumericalFluxes is an abstract class defining general attributes used to compute numerical flux...">
<polygon fill="#bfbfbf" stroke="black" points="65.5,-419.5 65.5,-575.5 191.5,-575.5 191.5,-419.5 65.5,-419.5"/>
<text text-anchor="middle" x="128.5" y="-563.5" font-family="Helvetica,sans-Serif" font-size="10.00">NumericalFluxes</text>
<polyline fill="none" stroke="black" points="65.5,-556.5 191.5,-556.5 "/>
<text text-anchor="start" x="73.5" y="-544.5" font-family="Helvetica,sans-Serif" font-size="10.00">+ numericalFlux</text>
<text text-anchor="start" x="73.5" y="-533.5" font-family="Helvetica,sans-Serif" font-size="10.00"># normal</text>
<text text-anchor="start" x="73.5" y="-522.5" font-family="Helvetica,sans-Serif" font-size="10.00"># flux_l</text>
<text text-anchor="start" x="73.5" y="-511.5" font-family="Helvetica,sans-Serif" font-size="10.00"># flux_r</text>
<text text-anchor="start" x="73.5" y="-500.5" font-family="Helvetica,sans-Serif" font-size="10.00"># velocity_l</text>
<text text-anchor="start" x="73.5" y="-489.5" font-family="Helvetica,sans-Serif" font-size="10.00"># velocity_r</text>
<text text-anchor="start" x="73.5" y="-478.5" font-family="Helvetica,sans-Serif" font-size="10.00"># height_l</text>
<text text-anchor="start" x="73.5" y="-467.5" font-family="Helvetica,sans-Serif" font-size="10.00"># height_r</text>
<polyline fill="none" stroke="black" points="65.5,-460.5 191.5,-460.5 "/>
<text text-anchor="start" x="73.5" y="-448.5" font-family="Helvetica,sans-Serif" font-size="10.00">+ NumericalFluxes()</text>
<text text-anchor="start" x="73.5" y="-437.5" font-family="Helvetica,sans-Serif" font-size="10.00">+ ~NumericalFluxes()</text>
<text text-anchor="start" x="73.5" y="-426.5" font-family="Helvetica,sans-Serif" font-size="10.00">+ computeFlux()</text>
</a>
</g>
</g>
<!-- Node2 -->
<g id="node2" class="node">
<title>Node2</title>
<g id="a_node2"><a xlink:href="classLaxWendroffFluxxhtml" target="_top" xlink:title="Child class LaxWendroffFlux defines attributes and methods for computing the numerical flux with Lax&#45;...">
<polygon fill="white" stroke="black" points="0,-243 0,-355 127,-355 127,-243 0,-243"/>
<text text-anchor="middle" x="63.5" y="-343" font-family="Helvetica,sans-Serif" font-size="10.00">LaxWendroffFlux</text>
<polyline fill="none" stroke="black" points="0,-336 127,-336 "/>
<text text-anchor="start" x="8" y="-324" font-family="Helvetica,sans-Serif" font-size="10.00">&#45; flux_inter</text>
<text text-anchor="start" x="8" y="-313" font-family="Helvetica,sans-Serif" font-size="10.00">&#45; velocity_inter</text>
<text text-anchor="start" x="8" y="-302" font-family="Helvetica,sans-Serif" font-size="10.00">&#45; projJacobian</text>
<text text-anchor="start" x="8" y="-291" font-family="Helvetica,sans-Serif" font-size="10.00">&#45; height_inter</text>
<polyline fill="none" stroke="black" points="0,-284 127,-284 "/>
<text text-anchor="start" x="8" y="-272" font-family="Helvetica,sans-Serif" font-size="10.00">+ LaxWendroffFlux()</text>
<text text-anchor="start" x="8" y="-261" font-family="Helvetica,sans-Serif" font-size="10.00">+ ~LaxWendroffFlux()</text>
<text text-anchor="start" x="8" y="-250" font-family="Helvetica,sans-Serif" font-size="10.00">+ computeFlux()</text>
</a>
</g>
</g>
<!-- Node1&#45;&gt;Node2 -->
<g id="edge1" class="edge">
<title>Node1&#45;&gt;Node2</title>
<path fill="none" stroke="midnightblue" d="M99.8,-409.75C93.65,-391.16 87.32,-372.01 81.7,-355.02"/>
<polygon fill="none" stroke="midnightblue" points="96.53,-411.01 103,-419.4 103.18,-408.81 96.53,-411.01"/>
</g>
<!-- Node3 -->
<g id="node3" class="node">
<title>Node3</title>
<g id="a_node3"><a xlink:href="classRoeFluxxhtml" target="_top" xlink:title="Child class RoeFlux defines attributes and methods for computing the numerical flux with first order ...">
<polygon fill="white" stroke="black" points="145,-215.5 145,-382.5 244,-382.5 244,-215.5 145,-215.5"/>
<text text-anchor="middle" x="194.5" y="-370.5" font-family="Helvetica,sans-Serif" font-size="10.00">RoeFlux</text>
<polyline fill="none" stroke="black" points="145,-363.5 244,-363.5 "/>
<text text-anchor="start" x="153" y="-351.5" font-family="Helvetica,sans-Serif" font-size="10.00"># entropyFix</text>
<text text-anchor="start" x="153" y="-340.5" font-family="Helvetica,sans-Serif" font-size="10.00"># lambda_l</text>
<text text-anchor="start" x="153" y="-329.5" font-family="Helvetica,sans-Serif" font-size="10.00"># lambda_r</text>
<text text-anchor="start" x="153" y="-318.5" font-family="Helvetica,sans-Serif" font-size="10.00"># lambda</text>
<text text-anchor="start" x="153" y="-307.5" font-family="Helvetica,sans-Serif" font-size="10.00"># roeVelocity</text>
<text text-anchor="start" x="153" y="-296.5" font-family="Helvetica,sans-Serif" font-size="10.00"># diffW</text>
<text text-anchor="start" x="153" y="-285.5" font-family="Helvetica,sans-Serif" font-size="10.00"># matrixR</text>
<text text-anchor="start" x="153" y="-274.5" font-family="Helvetica,sans-Serif" font-size="10.00"># matrixL</text>
<text text-anchor="start" x="153" y="-263.5" font-family="Helvetica,sans-Serif" font-size="10.00"># roeHeight</text>
<polyline fill="none" stroke="black" points="145,-256.5 244,-256.5 "/>
<text text-anchor="start" x="153" y="-244.5" font-family="Helvetica,sans-Serif" font-size="10.00">+ RoeFlux()</text>
<text text-anchor="start" x="153" y="-233.5" font-family="Helvetica,sans-Serif" font-size="10.00">+ ~RoeFlux()</text>
<text text-anchor="start" x="153" y="-222.5" font-family="Helvetica,sans-Serif" font-size="10.00">+ computeFlux()</text>
</a>
</g>
</g>
<!-- Node1&#45;&gt;Node3 -->
<g id="edge2" class="edge">
<title>Node1&#45;&gt;Node3</title>
<path fill="none" stroke="midnightblue" d="M157.65,-409.73C160.66,-400.75 163.72,-391.64 166.72,-382.71"/>
<polygon fill="none" stroke="midnightblue" points="154.26,-408.81 154.4,-419.4 160.9,-411.04 154.26,-408.81"/>
</g>
<!-- Node4 -->
<g id="node4" class="node">
<title>Node4</title>
<g id="a_node4"><a xlink:href="classHighResFluxxhtml" target="_top" xlink:title="Child class HighResFlux defines attributes and methods for computing the numerical flux with an high ...">
<polygon fill="white" stroke="black" points="141.5,-0.5 141.5,-178.5 247.5,-178.5 247.5,-0.5 141.5,-0.5"/>
<text text-anchor="middle" x="194.5" y="-166.5" font-family="Helvetica,sans-Serif" font-size="10.00">HighResFlux</text>
<polyline fill="none" stroke="black" points="141.5,-159.5 247.5,-159.5 "/>
<text text-anchor="start" x="149.5" y="-147.5" font-family="Helvetica,sans-Serif" font-size="10.00">&#45; diffW_l</text>
<text text-anchor="start" x="149.5" y="-136.5" font-family="Helvetica,sans-Serif" font-size="10.00">&#45; diffW_r</text>
<text text-anchor="start" x="149.5" y="-125.5" font-family="Helvetica,sans-Serif" font-size="10.00">&#45; diffV_l</text>
<text text-anchor="start" x="149.5" y="-114.5" font-family="Helvetica,sans-Serif" font-size="10.00">&#45; diffV_r</text>
<text text-anchor="start" x="149.5" y="-103.5" font-family="Helvetica,sans-Serif" font-size="10.00">&#45; diffV_up</text>
<text text-anchor="start" x="149.5" y="-92.5" font-family="Helvetica,sans-Serif" font-size="10.00">&#45; diffV</text>
<text text-anchor="start" x="149.5" y="-81.5" font-family="Helvetica,sans-Serif" font-size="10.00">&#45; lambdaSigned</text>
<text text-anchor="start" x="149.5" y="-70.5" font-family="Helvetica,sans-Serif" font-size="10.00">&#45; phi</text>
<text text-anchor="start" x="149.5" y="-59.5" font-family="Helvetica,sans-Serif" font-size="10.00">&#45; fluxLimiter</text>
<polyline fill="none" stroke="black" points="141.5,-52.5 247.5,-52.5 "/>
<text text-anchor="start" x="149.5" y="-40.5" font-family="Helvetica,sans-Serif" font-size="10.00">+ HighResFlux()</text>
<text text-anchor="start" x="149.5" y="-29.5" font-family="Helvetica,sans-Serif" font-size="10.00">+ ~HighResFlux()</text>
<text text-anchor="start" x="149.5" y="-18.5" font-family="Helvetica,sans-Serif" font-size="10.00">+ setFluxLimiter()</text>
<text text-anchor="start" x="149.5" y="-7.5" font-family="Helvetica,sans-Serif" font-size="10.00">+ computeFlux()</text>
</a>
</g>
</g>
<!-- Node3&#45;&gt;Node4 -->
<g id="edge3" class="edge">
<title>Node3&#45;&gt;Node4</title>
<path fill="none" stroke="midnightblue" d="M194.5,-205.11C194.5,-196.3 194.5,-187.38 194.5,-178.61"/>
<polygon fill="none" stroke="midnightblue" points="191,-205.39 194.5,-215.39 198,-205.39 191,-205.39"/>
</g>
</g>
</svg>
