<?xml version="1.0" encoding="UTF-8" standalone="no"?>
<!DOCTYPE svg PUBLIC "-//W3C//DTD SVG 1.1//EN"
 "http://www.w3.org/Graphics/SVG/1.1/DTD/svg11.dtd">
<!-- Generated by graphviz version 2.43.0 (0)
 -->
<!-- Title: NumericalFluxes Pages: 1 -->
<svg width="153pt" height="270pt"
 viewBox="0.00 0.00 153.00 270.00" xmlns="http://www.w3.org/2000/svg" xmlns:xlink="http://www.w3.org/1999/xlink">
<g id="graph0" class="graph" transform="scale(1 1) rotate(0) translate(4 266)">
<title>NumericalFluxes</title>
<polygon fill="white" stroke="transparent" points="-4,4 -4,-266 149,-266 149,4 -4,4"/>
<!-- Node1 -->
<g id="node1" class="node">
<title>Node1</title>
<g id="a_node1"><a xlink:title="Class NumericalFluxes is an abstract class defining general attributes used to compute numerical flux...">
<polygon fill="#bfbfbf" stroke="black" points="0,-0.5 0,-79.5 126,-79.5 126,-0.5 0,-0.5"/>
<text text-anchor="middle" x="63" y="-67.5" font-family="Helvetica,sans-Serif" font-size="10.00">NumericalFluxes</text>
<polyline fill="none" stroke="black" points="0,-60.5 126,-60.5 "/>
<text text-anchor="middle" x="63" y="-48.5" font-family="Helvetica,sans-Serif" font-size="10.00"> </text>
<polyline fill="none" stroke="black" points="0,-41.5 126,-41.5 "/>
<text text-anchor="start" x="8" y="-29.5" font-family="Helvetica,sans-Serif" font-size="10.00">+ NumericalFluxes()</text>
<text text-anchor="start" x="8" y="-18.5" font-family="Helvetica,sans-Serif" font-size="10.00">+ ~NumericalFluxes()</text>
<text text-anchor="start" x="8" y="-7.5" font-family="Helvetica,sans-Serif" font-size="10.00">+ computeFlux()</text>
</a>
</g>
</g>
<!-- Node2 -->
<g id="node2" class="node">
<title>Node2</title>
<g id="a_node2"><a xlink:title=" ">
<polygon fill="white" stroke="#bfbfbf" points="38,-204.5 38,-261.5 88,-261.5 88,-204.5 38,-204.5"/>
<text text-anchor="middle" x="63" y="-249.5" font-family="Helvetica,sans-Serif" font-size="10.00">double</text>
<polyline fill="none" stroke="#bfbfbf" points="38,-242.5 88,-242.5 "/>
<text text-anchor="middle" x="63" y="-230.5" font-family="Helvetica,sans-Serif" font-size="10.00"> </text>
<polyline fill="none" stroke="#bfbfbf" points="38,-223.5 88,-223.5 "/>
<text text-anchor="middle" x="63" y="-211.5" font-family="Helvetica,sans-Serif" font-size="10.00"> </text>
</a>
</g>
</g>
<!-- Node2&#45;&gt;Node1 -->
<g id="edge1" class="edge">
<title>Node2&#45;&gt;Node1</title>
<path fill="none" stroke="#404040" d="M63,-204.23C63,-174.89 63,-127.98 63,-91.96"/>
<polygon fill="none" stroke="#404040" points="63,-91.72 59,-85.72 63,-79.72 67,-85.72 63,-91.72"/>
<text text-anchor="middle" x="104" y="-178" font-family="Helvetica,sans-Serif" font-size="10.00"> +numericalFlux</text>
<text text-anchor="middle" x="104" y="-167" font-family="Helvetica,sans-Serif" font-size="10.00">#velocity_l</text>
<text text-anchor="middle" x="104" y="-156" font-family="Helvetica,sans-Serif" font-size="10.00">#flux_l</text>
<text text-anchor="middle" x="104" y="-145" font-family="Helvetica,sans-Serif" font-size="10.00">#height_r</text>
<text text-anchor="middle" x="104" y="-134" font-family="Helvetica,sans-Serif" font-size="10.00">#normal</text>
<text text-anchor="middle" x="104" y="-123" font-family="Helvetica,sans-Serif" font-size="10.00">#velocity_r</text>
<text text-anchor="middle" x="104" y="-112" font-family="Helvetica,sans-Serif" font-size="10.00">#height_l</text>
<text text-anchor="middle" x="104" y="-101" font-family="Helvetica,sans-Serif" font-size="10.00">#flux_r</text>
</g>
</g>
</svg>
