<?xml version="1.0" encoding="UTF-8" standalone="no"?>
<!DOCTYPE svg PUBLIC "-//W3C//DTD SVG 1.1//EN"
 "http://www.w3.org/Graphics/SVG/1.1/DTD/svg11.dtd">
<!-- Generated by graphviz version 2.43.0 (0)
 -->
<!-- Title: HighResFlux Pages: 1 -->
<svg width="346pt" height="620pt"
 viewBox="0.00 0.00 345.94 620.00" xmlns="http://www.w3.org/2000/svg" xmlns:xlink="http://www.w3.org/1999/xlink">
<g id="graph0" class="graph" transform="scale(1 1) rotate(0) translate(4 616)">
<title>HighResFlux</title>
<polygon fill="white" stroke="transparent" points="-4,4 -4,-616 341.94,-616 341.94,4 -4,4"/>
<!-- Node1 -->
<g id="node1" class="node">
<title>Node1</title>
<g id="a_node1"><a xlink:title="Child class HighResFlux defines attributes and methods for computing the numerical flux with an high ...">
<polygon fill="#bfbfbf" stroke="black" points="62.94,-0.5 62.94,-90.5 168.94,-90.5 168.94,-0.5 62.94,-0.5"/>
<text text-anchor="middle" x="115.94" y="-78.5" font-family="Helvetica,sans-Serif" font-size="10.00">HighResFlux</text>
<polyline fill="none" stroke="black" points="62.94,-71.5 168.94,-71.5 "/>
<text text-anchor="middle" x="115.94" y="-59.5" font-family="Helvetica,sans-Serif" font-size="10.00"> </text>
<polyline fill="none" stroke="black" points="62.94,-52.5 168.94,-52.5 "/>
<text text-anchor="start" x="70.94" y="-40.5" font-family="Helvetica,sans-Serif" font-size="10.00">+ HighResFlux()</text>
<text text-anchor="start" x="70.94" y="-29.5" font-family="Helvetica,sans-Serif" font-size="10.00">+ ~HighResFlux()</text>
<text text-anchor="start" x="70.94" y="-18.5" font-family="Helvetica,sans-Serif" font-size="10.00">+ setFluxLimiter()</text>
<text text-anchor="start" x="70.94" y="-7.5" font-family="Helvetica,sans-Serif" font-size="10.00">+ computeFlux()</text>
</a>
</g>
</g>
<!-- Node2 -->
<g id="node2" class="node">
<title>Node2</title>
<g id="a_node2"><a xlink:href="classRoeFluxxhtml" target="_top" xlink:title="Child class RoeFlux defines attributes and methods for computing the numerical flux with first order ...">
<polygon fill="white" stroke="black" points="66.44,-138.5 66.44,-217.5 165.44,-217.5 165.44,-138.5 66.44,-138.5"/>
<text text-anchor="middle" x="115.94" y="-205.5" font-family="Helvetica,sans-Serif" font-size="10.00">RoeFlux</text>
<polyline fill="none" stroke="black" points="66.44,-198.5 165.44,-198.5 "/>
<text text-anchor="middle" x="115.94" y="-186.5" font-family="Helvetica,sans-Serif" font-size="10.00"> </text>
<polyline fill="none" stroke="black" points="66.44,-179.5 165.44,-179.5 "/>
<text text-anchor="start" x="74.44" y="-167.5" font-family="Helvetica,sans-Serif" font-size="10.00">+ RoeFlux()</text>
<text text-anchor="start" x="74.44" y="-156.5" font-family="Helvetica,sans-Serif" font-size="10.00">+ ~RoeFlux()</text>
<text text-anchor="start" x="74.44" y="-145.5" font-family="Helvetica,sans-Serif" font-size="10.00">+ computeFlux()</text>
</a>
</g>
</g>
<!-- Node2&#45;&gt;Node1 -->
<g id="edge1" class="edge">
<title>Node2&#45;&gt;Node1</title>
<path fill="none" stroke="midnightblue" d="M115.94,-128.16C115.94,-115.93 115.94,-102.88 115.94,-90.88"/>
<polygon fill="none" stroke="midnightblue" points="112.44,-128.2 115.94,-138.2 119.44,-128.2 112.44,-128.2"/>
</g>
<!-- Node3 -->
<g id="node3" class="node">
<title>Node3</title>
<g id="a_node3"><a xlink:href="classNumericalFluxesxhtml" target="_top" xlink:title="Class NumericalFluxes is an abstract class defining general attributes used to compute numerical flux...">
<polygon fill="white" stroke="black" points="155.94,-346.5 155.94,-425.5 281.94,-425.5 281.94,-346.5 155.94,-346.5"/>
<text text-anchor="middle" x="218.94" y="-413.5" font-family="Helvetica,sans-Serif" font-size="10.00">NumericalFluxes</text>
<polyline fill="none" stroke="black" points="155.94,-406.5 281.94,-406.5 "/>
<text text-anchor="middle" x="218.94" y="-394.5" font-family="Helvetica,sans-Serif" font-size="10.00"> </text>
<polyline fill="none" stroke="black" points="155.94,-387.5 281.94,-387.5 "/>
<text text-anchor="start" x="163.94" y="-375.5" font-family="Helvetica,sans-Serif" font-size="10.00">+ NumericalFluxes()</text>
<text text-anchor="start" x="163.94" y="-364.5" font-family="Helvetica,sans-Serif" font-size="10.00">+ ~NumericalFluxes()</text>
<text text-anchor="start" x="163.94" y="-353.5" font-family="Helvetica,sans-Serif" font-size="10.00">+ computeFlux()</text>
</a>
</g>
</g>
<!-- Node3&#45;&gt;Node2 -->
<g id="edge2" class="edge">
<title>Node3&#45;&gt;Node2</title>
<path fill="none" stroke="midnightblue" d="M195.09,-337.3C176.91,-300.93 152.18,-251.47 135.23,-217.57"/>
<polygon fill="none" stroke="midnightblue" points="191.97,-338.87 199.57,-346.25 198.23,-335.74 191.97,-338.87"/>
</g>
<!-- Node4 -->
<g id="node4" class="node">
<title>Node4</title>
<g id="a_node4"><a xlink:title=" ">
<polygon fill="white" stroke="#bfbfbf" points="48.94,-554.5 48.94,-611.5 98.94,-611.5 98.94,-554.5 48.94,-554.5"/>
<text text-anchor="middle" x="73.94" y="-599.5" font-family="Helvetica,sans-Serif" font-size="10.00">double</text>
<polyline fill="none" stroke="#bfbfbf" points="48.94,-592.5 98.94,-592.5 "/>
<text text-anchor="middle" x="73.94" y="-580.5" font-family="Helvetica,sans-Serif" font-size="10.00"> </text>
<polyline fill="none" stroke="#bfbfbf" points="48.94,-573.5 98.94,-573.5 "/>
<text text-anchor="middle" x="73.94" y="-561.5" font-family="Helvetica,sans-Serif" font-size="10.00"> </text>
</a>
</g>
</g>
<!-- Node4&#45;&gt;Node1 -->
<g id="edge6" class="edge">
<title>Node4&#45;&gt;Node1</title>
<path fill="none" stroke="#404040" d="M60.83,-554.47C34.54,-495.66 -19.81,-353.55 7.94,-236 19.63,-186.48 48.8,-136.74 73.88,-100.65"/>
<polygon fill="none" stroke="#404040" points="73.89,-100.63 74.1,-93.43 80.83,-90.84 80.63,-98.05 73.89,-100.63"/>
<text text-anchor="middle" x="44.94" y="-316" font-family="Helvetica,sans-Serif" font-size="10.00"> &#45;phi</text>
<text text-anchor="middle" x="44.94" y="-305" font-family="Helvetica,sans-Serif" font-size="10.00">&#45;diffW_l</text>
<text text-anchor="middle" x="44.94" y="-294" font-family="Helvetica,sans-Serif" font-size="10.00">&#45;diffV</text>
<text text-anchor="middle" x="44.94" y="-283" font-family="Helvetica,sans-Serif" font-size="10.00">&#45;diffV_r</text>
<text text-anchor="middle" x="44.94" y="-272" font-family="Helvetica,sans-Serif" font-size="10.00">&#45;diffV_up</text>
<text text-anchor="middle" x="44.94" y="-261" font-family="Helvetica,sans-Serif" font-size="10.00">&#45;diffW_r</text>
<text text-anchor="middle" x="44.94" y="-250" font-family="Helvetica,sans-Serif" font-size="10.00">&#45;diffV_l</text>
<text text-anchor="middle" x="44.94" y="-239" font-family="Helvetica,sans-Serif" font-size="10.00">&#45;lambdaSigned</text>
</g>
<!-- Node4&#45;&gt;Node2 -->
<g id="edge4" class="edge">
<title>Node4&#45;&gt;Node2</title>
<path fill="none" stroke="#404040" d="M73.52,-554.17C73.18,-509.33 73.84,-418.39 82.94,-342 87.49,-303.87 96.22,-261.36 103.56,-229.31"/>
<polygon fill="none" stroke="#404040" points="103.57,-229.26 101.03,-222.51 106.29,-217.58 108.82,-224.33 103.57,-229.26"/>
<text text-anchor="middle" x="114.94" y="-422" font-family="Helvetica,sans-Serif" font-size="10.00"> #matrixL</text>
<text text-anchor="middle" x="114.94" y="-411" font-family="Helvetica,sans-Serif" font-size="10.00">#lambda_l</text>
<text text-anchor="middle" x="114.94" y="-400" font-family="Helvetica,sans-Serif" font-size="10.00">#matrixR</text>
<text text-anchor="middle" x="114.94" y="-389" font-family="Helvetica,sans-Serif" font-size="10.00">#roeVelocity</text>
<text text-anchor="middle" x="114.94" y="-378" font-family="Helvetica,sans-Serif" font-size="10.00">#diffW</text>
<text text-anchor="middle" x="114.94" y="-367" font-family="Helvetica,sans-Serif" font-size="10.00">#roeHeight</text>
<text text-anchor="middle" x="114.94" y="-356" font-family="Helvetica,sans-Serif" font-size="10.00">#lambda</text>
<text text-anchor="middle" x="114.94" y="-345" font-family="Helvetica,sans-Serif" font-size="10.00">#lambda_r</text>
</g>
<!-- Node4&#45;&gt;Node3 -->
<g id="edge3" class="edge">
<title>Node4&#45;&gt;Node3</title>
<path fill="none" stroke="#404040" d="M94.41,-554.47C117.34,-523.64 154.95,-473.06 182.85,-435.54"/>
<polygon fill="none" stroke="#404040" points="182.92,-435.45 183.29,-428.25 190.08,-425.82 189.71,-433.02 182.92,-435.45"/>
<text text-anchor="middle" x="212.94" y="-528" font-family="Helvetica,sans-Serif" font-size="10.00"> +numericalFlux</text>
<text text-anchor="middle" x="212.94" y="-517" font-family="Helvetica,sans-Serif" font-size="10.00">#velocity_l</text>
<text text-anchor="middle" x="212.94" y="-506" font-family="Helvetica,sans-Serif" font-size="10.00">#flux_l</text>
<text text-anchor="middle" x="212.94" y="-495" font-family="Helvetica,sans-Serif" font-size="10.00">#height_r</text>
<text text-anchor="middle" x="212.94" y="-484" font-family="Helvetica,sans-Serif" font-size="10.00">#normal</text>
<text text-anchor="middle" x="212.94" y="-473" font-family="Helvetica,sans-Serif" font-size="10.00">#velocity_r</text>
<text text-anchor="middle" x="212.94" y="-462" font-family="Helvetica,sans-Serif" font-size="10.00">#height_l</text>
<text text-anchor="middle" x="212.94" y="-451" font-family="Helvetica,sans-Serif" font-size="10.00">#flux_r</text>
</g>
<!-- Node5 -->
<g id="node5" class="node">
<title>Node5</title>
<g id="a_node5"><a xlink:title=" ">
<polygon fill="white" stroke="#bfbfbf" points="299.94,-357.5 299.94,-414.5 337.94,-414.5 337.94,-357.5 299.94,-357.5"/>
<text text-anchor="middle" x="318.94" y="-402.5" font-family="Helvetica,sans-Serif" font-size="10.00">bool</text>
<polyline fill="none" stroke="#bfbfbf" points="299.94,-395.5 337.94,-395.5 "/>
<text text-anchor="middle" x="318.94" y="-383.5" font-family="Helvetica,sans-Serif" font-size="10.00"> </text>
<polyline fill="none" stroke="#bfbfbf" points="299.94,-376.5 337.94,-376.5 "/>
<text text-anchor="middle" x="318.94" y="-364.5" font-family="Helvetica,sans-Serif" font-size="10.00"> </text>
</a>
</g>
</g>
<!-- Node5&#45;&gt;Node2 -->
<g id="edge5" class="edge">
<title>Node5&#45;&gt;Node2</title>
<path fill="none" stroke="#404040" d="M302.38,-357.49C298.82,-352.19 294.92,-346.8 290.94,-342 255.4,-299.18 209.11,-256.52 173.06,-225.59"/>
<polygon fill="none" stroke="#404040" points="172.8,-225.36 165.64,-224.52 163.66,-217.59 170.82,-218.43 172.8,-225.36"/>
<text text-anchor="middle" x="305.44" y="-277.5" font-family="Helvetica,sans-Serif" font-size="10.00"> #entropyFix</text>
</g>
<!-- Node6 -->
<g id="node6" class="node">
<title>Node6</title>
<g id="a_node6"><a xlink:title=" ">
<polygon fill="white" stroke="#bfbfbf" points="183.44,-149.5 183.44,-206.5 212.44,-206.5 212.44,-149.5 183.44,-149.5"/>
<text text-anchor="middle" x="197.94" y="-194.5" font-family="Helvetica,sans-Serif" font-size="10.00">int</text>
<polyline fill="none" stroke="#bfbfbf" points="183.44,-187.5 212.44,-187.5 "/>
<text text-anchor="middle" x="197.94" y="-175.5" font-family="Helvetica,sans-Serif" font-size="10.00"> </text>
<polyline fill="none" stroke="#bfbfbf" points="183.44,-168.5 212.44,-168.5 "/>
<text text-anchor="middle" x="197.94" y="-156.5" font-family="Helvetica,sans-Serif" font-size="10.00"> </text>
</a>
</g>
</g>
<!-- Node6&#45;&gt;Node1 -->
<g id="edge7" class="edge">
<title>Node6&#45;&gt;Node1</title>
<path fill="none" stroke="#404040" d="M183.24,-151.74C180.51,-147.15 177.67,-142.42 174.94,-138 167.57,-126.06 159.51,-113.34 151.79,-101.31"/>
<polygon fill="none" stroke="#404040" points="151.61,-101.04 145,-98.16 145.11,-90.95 151.72,-93.83 151.61,-101.04"/>
<text text-anchor="middle" x="192.44" y="-112" font-family="Helvetica,sans-Serif" font-size="10.00"> &#45;fluxLimiter</text>
</g>
</g>
</svg>
