<?xml version="1.0" encoding="UTF-8" standalone="no"?>
<!DOCTYPE svg PUBLIC "-//W3C//DTD SVG 1.1//EN"
 "http://www.w3.org/Graphics/SVG/1.1/DTD/svg11.dtd">
<!-- Generated by graphviz version 2.43.0 (0)
 -->
<!-- Title: LaxWendroffFlux Pages: 1 -->
<svg width="243pt" height="387pt"
 viewBox="0.00 0.00 242.50 387.00" xmlns="http://www.w3.org/2000/svg" xmlns:xlink="http://www.w3.org/1999/xlink">
<g id="graph0" class="graph" transform="scale(1 1) rotate(0) translate(4 383)">
<title>LaxWendroffFlux</title>
<polygon fill="white" stroke="transparent" points="-4,4 -4,-383 238.5,-383 238.5,4 -4,4"/>
<!-- Node1 -->
<g id="node1" class="node">
<title>Node1</title>
<g id="a_node1"><a xlink:title="Child class LaxWendroffFlux defines attributes and methods for computing the numerical flux with Lax&#45;...">
<polygon fill="#bfbfbf" stroke="black" points="0,-0.5 0,-79.5 127,-79.5 127,-0.5 0,-0.5"/>
<text text-anchor="middle" x="63.5" y="-67.5" font-family="Helvetica,sans-Serif" font-size="10.00">LaxWendroffFlux</text>
<polyline fill="none" stroke="black" points="0,-60.5 127,-60.5 "/>
<text text-anchor="middle" x="63.5" y="-48.5" font-family="Helvetica,sans-Serif" font-size="10.00"> </text>
<polyline fill="none" stroke="black" points="0,-41.5 127,-41.5 "/>
<text text-anchor="start" x="8" y="-29.5" font-family="Helvetica,sans-Serif" font-size="10.00">+ LaxWendroffFlux()</text>
<text text-anchor="start" x="8" y="-18.5" font-family="Helvetica,sans-Serif" font-size="10.00">+ ~LaxWendroffFlux()</text>
<text text-anchor="start" x="8" y="-7.5" font-family="Helvetica,sans-Serif" font-size="10.00">+ computeFlux()</text>
</a>
</g>
</g>
<!-- Node2 -->
<g id="node2" class="node">
<title>Node2</title>
<g id="a_node2"><a xlink:href="classNumericalFluxesxhtml" target="_top" xlink:title="Class NumericalFluxes is an abstract class defining general attributes used to compute numerical flux...">
<polygon fill="white" stroke="black" points="108.5,-117.5 108.5,-196.5 234.5,-196.5 234.5,-117.5 108.5,-117.5"/>
<text text-anchor="middle" x="171.5" y="-184.5" font-family="Helvetica,sans-Serif" font-size="10.00">NumericalFluxes</text>
<polyline fill="none" stroke="black" points="108.5,-177.5 234.5,-177.5 "/>
<text text-anchor="middle" x="171.5" y="-165.5" font-family="Helvetica,sans-Serif" font-size="10.00"> </text>
<polyline fill="none" stroke="black" points="108.5,-158.5 234.5,-158.5 "/>
<text text-anchor="start" x="116.5" y="-146.5" font-family="Helvetica,sans-Serif" font-size="10.00">+ NumericalFluxes()</text>
<text text-anchor="start" x="116.5" y="-135.5" font-family="Helvetica,sans-Serif" font-size="10.00">+ ~NumericalFluxes()</text>
<text text-anchor="start" x="116.5" y="-124.5" font-family="Helvetica,sans-Serif" font-size="10.00">+ computeFlux()</text>
</a>
</g>
</g>
<!-- Node2&#45;&gt;Node1 -->
<g id="edge1" class="edge">
<title>Node2&#45;&gt;Node1</title>
<path fill="none" stroke="midnightblue" d="M128.16,-109.86C118.78,-99.86 108.94,-89.38 99.85,-79.71"/>
<polygon fill="none" stroke="midnightblue" points="125.84,-112.49 135.24,-117.39 130.94,-107.7 125.84,-112.49"/>
</g>
<!-- Node3 -->
<g id="node3" class="node">
<title>Node3</title>
<g id="a_node3"><a xlink:title=" ">
<polygon fill="white" stroke="#bfbfbf" points="10.5,-321.5 10.5,-378.5 60.5,-378.5 60.5,-321.5 10.5,-321.5"/>
<text text-anchor="middle" x="35.5" y="-366.5" font-family="Helvetica,sans-Serif" font-size="10.00">double</text>
<polyline fill="none" stroke="#bfbfbf" points="10.5,-359.5 60.5,-359.5 "/>
<text text-anchor="middle" x="35.5" y="-347.5" font-family="Helvetica,sans-Serif" font-size="10.00"> </text>
<polyline fill="none" stroke="#bfbfbf" points="10.5,-340.5 60.5,-340.5 "/>
<text text-anchor="middle" x="35.5" y="-328.5" font-family="Helvetica,sans-Serif" font-size="10.00"> </text>
</a>
</g>
</g>
<!-- Node3&#45;&gt;Node1 -->
<g id="edge3" class="edge">
<title>Node3&#45;&gt;Node1</title>
<path fill="none" stroke="#404040" d="M30.38,-321.45C23.19,-277.59 12.62,-189.43 28.5,-117 30.4,-108.32 33.4,-99.44 36.85,-90.97"/>
<polygon fill="none" stroke="#404040" points="36.97,-90.7 35.71,-83.6 41.78,-79.71 43.04,-86.81 36.97,-90.7"/>
<text text-anchor="middle" x="64" y="-171" font-family="Helvetica,sans-Serif" font-size="10.00"> &#45;height_inter</text>
<text text-anchor="middle" x="64" y="-160" font-family="Helvetica,sans-Serif" font-size="10.00">&#45;flux_inter</text>
<text text-anchor="middle" x="64" y="-149" font-family="Helvetica,sans-Serif" font-size="10.00">&#45;projJacobian</text>
<text text-anchor="middle" x="64" y="-138" font-family="Helvetica,sans-Serif" font-size="10.00">&#45;velocity_inter</text>
</g>
<!-- Node3&#45;&gt;Node2 -->
<g id="edge2" class="edge">
<title>Node3&#45;&gt;Node2</title>
<path fill="none" stroke="#404040" d="M55.28,-321.23C76.62,-291.25 111.03,-242.92 136.88,-206.62"/>
<polygon fill="none" stroke="#404040" points="136.97,-206.5 137.19,-199.29 143.93,-196.72 143.71,-203.93 136.97,-206.5"/>
<text text-anchor="middle" x="168.5" y="-295" font-family="Helvetica,sans-Serif" font-size="10.00"> +numericalFlux</text>
<text text-anchor="middle" x="168.5" y="-284" font-family="Helvetica,sans-Serif" font-size="10.00">#velocity_l</text>
<text text-anchor="middle" x="168.5" y="-273" font-family="Helvetica,sans-Serif" font-size="10.00">#flux_l</text>
<text text-anchor="middle" x="168.5" y="-262" font-family="Helvetica,sans-Serif" font-size="10.00">#height_r</text>
<text text-anchor="middle" x="168.5" y="-251" font-family="Helvetica,sans-Serif" font-size="10.00">#normal</text>
<text text-anchor="middle" x="168.5" y="-240" font-family="Helvetica,sans-Serif" font-size="10.00">#velocity_r</text>
<text text-anchor="middle" x="168.5" y="-229" font-family="Helvetica,sans-Serif" font-size="10.00">#height_l</text>
<text text-anchor="middle" x="168.5" y="-218" font-family="Helvetica,sans-Serif" font-size="10.00">#flux_r</text>
</g>
</g>
</svg>
