<?xml version="1.0" encoding="UTF-8" standalone="no"?>
<!DOCTYPE svg PUBLIC "-//W3C//DTD SVG 1.1//EN"
 "http://www.w3.org/Graphics/SVG/1.1/DTD/svg11.dtd">
<!-- Generated by graphviz version 2.43.0 (0)
 -->
<!-- Title: Grid::getDualEdgeMeasure Pages: 1 -->
<svg width="692pt" height="143pt"
 viewBox="0.00 0.00 692.00 142.90" xmlns="http://www.w3.org/2000/svg" xmlns:xlink="http://www.w3.org/1999/xlink">
<g id="graph0" class="graph" transform="scale(1 1) rotate(0) translate(4 138.9)">
<title>Grid::getDualEdgeMeasure</title>
<polygon fill="white" stroke="transparent" points="-4,4 -4,-138.9 688,-138.9 688,4 -4,4"/>
<!-- Node1 -->
<g id="node1" class="node">
<title>Node1</title>
<g id="a_node1"><a xlink:title="Returns the measure of an edge of the dual grid.">
<polygon fill="#bfbfbf" stroke="black" points="0,-63.5 0,-82.5 147,-82.5 147,-63.5 0,-63.5"/>
<text text-anchor="middle" x="73.5" y="-70.5" font-family="Helvetica,sans-Serif" font-size="10.00">Grid::getDualEdgeMeasure</text>
</a>
</g>
</g>
<!-- Node2 -->
<g id="node2" class="node">
<title>Node2</title>
<g id="a_node2"><a xlink:href="classGridxhtml#a4e37698e22ce482fa5ab2527dc78f0a9" target="_top" xlink:title="Gets the adjacent nodes to an interface (edge)">
<polygon fill="white" stroke="black" points="404,-77 404,-107 547,-107 547,-77 404,-77"/>
<text text-anchor="start" x="412" y="-95" font-family="Helvetica,sans-Serif" font-size="10.00">Grid::getAdjacentNodesTo</text>
<text text-anchor="middle" x="475.5" y="-84" font-family="Helvetica,sans-Serif" font-size="10.00">Interface</text>
</a>
</g>
</g>
<!-- Node1&#45;&gt;Node2 -->
<g id="edge1" class="edge">
<title>Node1&#45;&gt;Node2</title>
<path fill="none" stroke="midnightblue" d="M147.4,-76.46C216.88,-79.76 321.3,-84.72 393.39,-88.15"/>
<polygon fill="midnightblue" stroke="midnightblue" points="393.62,-91.66 403.78,-88.64 393.96,-84.67 393.62,-91.66"/>
</g>
<!-- Node3 -->
<g id="node3" class="node">
<title>Node3</title>
<g id="a_node3"><a xlink:href="namespaceswexhtml#aca666e377868955898f5bc54f97d8075" target="_top" xlink:title="Prints an error message and exit the program.">
<polygon fill="white" stroke="black" points="596,-60.5 596,-79.5 684,-79.5 684,-60.5 596,-60.5"/>
<text text-anchor="middle" x="640" y="-67.5" font-family="Helvetica,sans-Serif" font-size="10.00">swe::printError</text>
</a>
</g>
</g>
<!-- Node1&#45;&gt;Node3 -->
<g id="edge8" class="edge">
<title>Node1&#45;&gt;Node3</title>
<path fill="none" stroke="midnightblue" d="M103.31,-82.58C179.45,-106.43 391.69,-163.28 560,-117 582.12,-110.92 604.32,-96.84 619.52,-85.67"/>
<polygon fill="midnightblue" stroke="midnightblue" points="621.78,-88.35 627.61,-79.51 617.54,-82.78 621.78,-88.35"/>
</g>
<!-- Node4 -->
<g id="node4" class="node">
<title>Node4</title>
<g id="a_node4"><a xlink:href="classGridxhtml#a91328f210cc0eeee8177d075d0efa4eb" target="_top" xlink:title="Gets measures of a dual grid element (length of both edges)">
<polygon fill="white" stroke="black" points="391,-0.5 391,-19.5 560,-19.5 560,-0.5 391,-0.5"/>
<text text-anchor="middle" x="475.5" y="-7.5" font-family="Helvetica,sans-Serif" font-size="10.00">Grid::getDualElementMeasures</text>
</a>
</g>
</g>
<!-- Node1&#45;&gt;Node4 -->
<g id="edge3" class="edge">
<title>Node1&#45;&gt;Node4</title>
<path fill="none" stroke="midnightblue" d="M96.47,-63.46C118.06,-54.54 152.17,-41.61 183,-35 248.12,-21.04 323.01,-14.82 380.58,-12.07"/>
<polygon fill="midnightblue" stroke="midnightblue" points="380.92,-15.56 390.75,-11.62 380.6,-8.57 380.92,-15.56"/>
</g>
<!-- Node5 -->
<g id="node5" class="node">
<title>Node5</title>
<g id="a_node5"><a xlink:href="classGridxhtml#a267c212cd957e88a027c520dae9c1a4c" target="_top" xlink:title="Gets the normal vector to an edge of the dual grid.">
<polygon fill="white" stroke="black" points="183,-44.5 183,-63.5 355,-63.5 355,-44.5 183,-44.5"/>
<text text-anchor="middle" x="269" y="-51.5" font-family="Helvetica,sans-Serif" font-size="10.00">Grid::getNormalToDualGridEdge</text>
</a>
</g>
</g>
<!-- Node1&#45;&gt;Node5 -->
<g id="edge5" class="edge">
<title>Node1&#45;&gt;Node5</title>
<path fill="none" stroke="midnightblue" d="M147.1,-65.87C155.5,-65.05 164.17,-64.2 172.81,-63.35"/>
<polygon fill="midnightblue" stroke="midnightblue" points="173.32,-66.81 182.93,-62.35 172.64,-59.85 173.32,-66.81"/>
</g>
<!-- Node2&#45;&gt;Node3 -->
<g id="edge2" class="edge">
<title>Node2&#45;&gt;Node3</title>
<path fill="none" stroke="midnightblue" d="M547.3,-82.41C560.13,-80.68 573.31,-78.89 585.54,-77.24"/>
<polygon fill="midnightblue" stroke="midnightblue" points="586.12,-80.69 595.56,-75.88 585.18,-73.75 586.12,-80.69"/>
</g>
<!-- Node4&#45;&gt;Node3 -->
<g id="edge4" class="edge">
<title>Node4&#45;&gt;Node3</title>
<path fill="none" stroke="midnightblue" d="M514.29,-19.59C528.74,-23.59 545.28,-28.57 560,-34 577.28,-40.38 596.07,-48.88 610.99,-56.01"/>
<polygon fill="midnightblue" stroke="midnightblue" points="609.65,-59.25 620.17,-60.47 612.7,-52.95 609.65,-59.25"/>
</g>
<!-- Node5&#45;&gt;Node2 -->
<g id="edge6" class="edge">
<title>Node5&#45;&gt;Node2</title>
<path fill="none" stroke="midnightblue" d="M321.34,-63.54C343.28,-67.62 369.42,-72.47 393.84,-77.01"/>
<polygon fill="midnightblue" stroke="midnightblue" points="393.35,-80.48 403.82,-78.87 394.63,-73.6 393.35,-80.48"/>
</g>
<!-- Node5&#45;&gt;Node3 -->
<g id="edge7" class="edge">
<title>Node5&#45;&gt;Node3</title>
<path fill="none" stroke="midnightblue" d="M355.12,-57.69C426.14,-60.77 525.17,-65.06 585.53,-67.68"/>
<polygon fill="midnightblue" stroke="midnightblue" points="585.47,-71.18 595.61,-68.12 585.77,-64.19 585.47,-71.18"/>
</g>
</g>
</svg>
