<?xml version="1.0" encoding="UTF-8" standalone="no"?>
<!DOCTYPE svg PUBLIC "-//W3C//DTD SVG 1.1//EN"
 "http://www.w3.org/Graphics/SVG/1.1/DTD/svg11.dtd">
<!-- Generated by graphviz version 2.43.0 (0)
 -->
<!-- Title: include/Config.inl Pages: 1 -->
<svg width="479pt" height="420pt"
 viewBox="0.00 0.00 479.00 420.00" xmlns="http://www.w3.org/2000/svg" xmlns:xlink="http://www.w3.org/1999/xlink">
<g id="graph0" class="graph" transform="scale(1 1) rotate(0) translate(4 416)">
<title>include/Config.inl</title>
<polygon fill="white" stroke="transparent" points="-4,4 -4,-416 475,-416 475,4 -4,4"/>
<!-- Node1 -->
<g id="node1" class="node">
<title>Node1</title>
<g id="a_node1"><a xlink:title=" ">
<polygon fill="#bfbfbf" stroke="black" points="43.5,-392.5 43.5,-411.5 144.5,-411.5 144.5,-392.5 43.5,-392.5"/>
<text text-anchor="middle" x="94" y="-399.5" font-family="Helvetica,sans-Serif" font-size="10.00">include/Config.inl</text>
</a>
</g>
</g>
<!-- Node2 -->
<g id="node2" class="node">
<title>Node2</title>
<g id="a_node2"><a xlink:href="Config_8hxhtml" target="_top" xlink:title=" ">
<polygon fill="white" stroke="black" points="46.5,-336.5 46.5,-355.5 141.5,-355.5 141.5,-336.5 46.5,-336.5"/>
<text text-anchor="middle" x="94" y="-343.5" font-family="Helvetica,sans-Serif" font-size="10.00">include/Config.h</text>
</a>
</g>
</g>
<!-- Node1&#45;&gt;Node2 -->
<g id="edge1" class="edge">
<title>Node1&#45;&gt;Node2</title>
<path fill="none" stroke="midnightblue" d="M87.53,-382.1C86.9,-373.14 87.34,-362.86 88.87,-355.75"/>
<polygon fill="midnightblue" stroke="midnightblue" points="84.07,-382.62 88.83,-392.08 91.01,-381.71 84.07,-382.62"/>
</g>
<!-- Node2&#45;&gt;Node1 -->
<g id="edge3" class="edge">
<title>Node2&#45;&gt;Node1</title>
<path fill="none" stroke="midnightblue" d="M100.46,-365.69C101.11,-374.64 100.68,-384.93 99.17,-392.08"/>
<polygon fill="midnightblue" stroke="midnightblue" points="103.92,-365.2 99.13,-355.75 96.98,-366.13 103.92,-365.2"/>
</g>
<!-- Node3 -->
<g id="node3" class="node">
<title>Node3</title>
<g id="a_node3"><a xlink:href="Config_8cppxhtml" target="_top" xlink:title=" ">
<polygon fill="white" stroke="black" points="0,-280.5 0,-299.5 86,-299.5 86,-280.5 0,-280.5"/>
<text text-anchor="middle" x="43" y="-287.5" font-family="Helvetica,sans-Serif" font-size="10.00">src/Config.cpp</text>
</a>
</g>
</g>
<!-- Node2&#45;&gt;Node3 -->
<g id="edge2" class="edge">
<title>Node2&#45;&gt;Node3</title>
<path fill="none" stroke="midnightblue" d="M78.62,-328.72C69.63,-319.2 58.64,-307.56 51.26,-299.75"/>
<polygon fill="midnightblue" stroke="midnightblue" points="76.17,-331.22 85.58,-336.08 81.26,-326.41 76.17,-331.22"/>
</g>
<!-- Node4 -->
<g id="node4" class="node">
<title>Node4</title>
<g id="a_node4"><a xlink:href="Grid_8hxhtml" target="_top" xlink:title=" ">
<polygon fill="white" stroke="black" points="104,-280.5 104,-299.5 188,-299.5 188,-280.5 104,-280.5"/>
<text text-anchor="middle" x="146" y="-287.5" font-family="Helvetica,sans-Serif" font-size="10.00">include/Grid.h</text>
</a>
</g>
</g>
<!-- Node2&#45;&gt;Node4 -->
<g id="edge4" class="edge">
<title>Node2&#45;&gt;Node4</title>
<path fill="none" stroke="midnightblue" d="M109.68,-328.72C118.84,-319.2 130.05,-307.56 137.57,-299.75"/>
<polygon fill="midnightblue" stroke="midnightblue" points="107,-326.45 102.59,-336.08 112.04,-331.31 107,-326.45"/>
</g>
<!-- Node5 -->
<g id="node5" class="node">
<title>Node5</title>
<g id="a_node5"><a xlink:href="Grid_8cppxhtml" target="_top" xlink:title=" ">
<polygon fill="white" stroke="black" points="56,-224.5 56,-243.5 130,-243.5 130,-224.5 56,-224.5"/>
<text text-anchor="middle" x="93" y="-231.5" font-family="Helvetica,sans-Serif" font-size="10.00">src/Grid.cpp</text>
</a>
</g>
</g>
<!-- Node4&#45;&gt;Node5 -->
<g id="edge5" class="edge">
<title>Node4&#45;&gt;Node5</title>
<path fill="none" stroke="midnightblue" d="M130.02,-272.72C120.68,-263.2 109.25,-251.56 101.59,-243.75"/>
<polygon fill="midnightblue" stroke="midnightblue" points="127.75,-275.4 137.25,-280.08 132.74,-270.49 127.75,-275.4"/>
</g>
<!-- Node6 -->
<g id="node6" class="node">
<title>Node6</title>
<g id="a_node6"><a xlink:href="Solution_8hxhtml" target="_top" xlink:title=" ">
<polygon fill="white" stroke="black" points="148,-224.5 148,-243.5 252,-243.5 252,-224.5 148,-224.5"/>
<text text-anchor="middle" x="200" y="-231.5" font-family="Helvetica,sans-Serif" font-size="10.00">include/Solution.h</text>
</a>
</g>
</g>
<!-- Node4&#45;&gt;Node6 -->
<g id="edge6" class="edge">
<title>Node4&#45;&gt;Node6</title>
<path fill="none" stroke="midnightblue" d="M162,-273C171.57,-263.43 183.36,-251.64 191.25,-243.75"/>
<polygon fill="midnightblue" stroke="midnightblue" points="159.51,-270.54 154.92,-280.08 164.46,-275.49 159.51,-270.54"/>
</g>
<!-- Node7 -->
<g id="node7" class="node">
<title>Node7</title>
<g id="a_node7"><a xlink:href="Solution_8cppxhtml" target="_top" xlink:title=" ">
<polygon fill="white" stroke="black" points="84,-168.5 84,-187.5 178,-187.5 178,-168.5 84,-168.5"/>
<text text-anchor="middle" x="131" y="-175.5" font-family="Helvetica,sans-Serif" font-size="10.00">src/Solution.cpp</text>
</a>
</g>
</g>
<!-- Node6&#45;&gt;Node7 -->
<g id="edge7" class="edge">
<title>Node6&#45;&gt;Node7</title>
<path fill="none" stroke="midnightblue" d="M180.96,-218.1C168.54,-208.38 152.76,-196.03 142.29,-187.83"/>
<polygon fill="midnightblue" stroke="midnightblue" points="178.88,-220.92 188.91,-224.32 183.2,-215.4 178.88,-220.92"/>
</g>
<!-- Node8 -->
<g id="node8" class="node">
<title>Node8</title>
<g id="a_node8"><a xlink:href="NumericalFluxes_8hxhtml" target="_top" xlink:title=" ">
<polygon fill="white" stroke="black" points="196,-168.5 196,-187.5 342,-187.5 342,-168.5 196,-168.5"/>
<text text-anchor="middle" x="269" y="-175.5" font-family="Helvetica,sans-Serif" font-size="10.00">include/NumericalFluxes.h</text>
</a>
</g>
</g>
<!-- Node6&#45;&gt;Node8 -->
<g id="edge8" class="edge">
<title>Node6&#45;&gt;Node8</title>
<path fill="none" stroke="midnightblue" d="M219.04,-218.1C231.46,-208.38 247.24,-196.03 257.71,-187.83"/>
<polygon fill="midnightblue" stroke="midnightblue" points="216.8,-215.4 211.09,-224.32 221.12,-220.92 216.8,-215.4"/>
</g>
<!-- Node9 -->
<g id="node9" class="node">
<title>Node9</title>
<g id="a_node9"><a xlink:href="NumericalFluxes_8cppxhtml" target="_top" xlink:title=" ">
<polygon fill="white" stroke="black" points="133.5,-112.5 133.5,-131.5 270.5,-131.5 270.5,-112.5 133.5,-112.5"/>
<text text-anchor="middle" x="202" y="-119.5" font-family="Helvetica,sans-Serif" font-size="10.00">src/NumericalFluxes.cpp</text>
</a>
</g>
</g>
<!-- Node8&#45;&gt;Node9 -->
<g id="edge9" class="edge">
<title>Node8&#45;&gt;Node9</title>
<path fill="none" stroke="midnightblue" d="M250.17,-161.82C238.16,-152.15 223.03,-139.95 212.96,-131.83"/>
<polygon fill="midnightblue" stroke="midnightblue" points="248.25,-164.77 258.24,-168.32 252.65,-159.32 248.25,-164.77"/>
</g>
<!-- Node10 -->
<g id="node10" class="node">
<title>Node10</title>
<g id="a_node10"><a xlink:href="Solver_8hxhtml" target="_top" xlink:title=" ">
<polygon fill="white" stroke="black" points="288.5,-112.5 288.5,-131.5 383.5,-131.5 383.5,-112.5 288.5,-112.5"/>
<text text-anchor="middle" x="336" y="-119.5" font-family="Helvetica,sans-Serif" font-size="10.00">include/Solver.h</text>
</a>
</g>
</g>
<!-- Node8&#45;&gt;Node10 -->
<g id="edge10" class="edge">
<title>Node8&#45;&gt;Node10</title>
<path fill="none" stroke="midnightblue" d="M287.83,-161.82C299.84,-152.15 314.97,-139.95 325.04,-131.83"/>
<polygon fill="midnightblue" stroke="midnightblue" points="285.35,-159.32 279.76,-168.32 289.75,-164.77 285.35,-159.32"/>
</g>
<!-- Node11 -->
<g id="node11" class="node">
<title>Node11</title>
<g id="a_node11"><a xlink:href="main_8cppxhtml" target="_top" xlink:title=" ">
<polygon fill="white" stroke="black" points="130.5,-56.5 130.5,-75.5 209.5,-75.5 209.5,-56.5 130.5,-56.5"/>
<text text-anchor="middle" x="170" y="-63.5" font-family="Helvetica,sans-Serif" font-size="10.00">src/main.cpp</text>
</a>
</g>
</g>
<!-- Node10&#45;&gt;Node11 -->
<g id="edge11" class="edge">
<title>Node10&#45;&gt;Node11</title>
<path fill="none" stroke="midnightblue" d="M300.05,-109.3C268.77,-99.13 224.18,-84.62 196.18,-75.52"/>
<polygon fill="midnightblue" stroke="midnightblue" points="299.1,-112.68 309.7,-112.44 301.27,-106.02 299.1,-112.68"/>
</g>
<!-- Node12 -->
<g id="node12" class="node">
<title>Node12</title>
<g id="a_node12"><a xlink:href="Solver_8cppxhtml" target="_top" xlink:title=" ">
<polygon fill="white" stroke="black" points="227.5,-56.5 227.5,-75.5 312.5,-75.5 312.5,-56.5 227.5,-56.5"/>
<text text-anchor="middle" x="270" y="-63.5" font-family="Helvetica,sans-Serif" font-size="10.00">src/Solver.cpp</text>
</a>
</g>
</g>
<!-- Node10&#45;&gt;Node12 -->
<g id="edge12" class="edge">
<title>Node10&#45;&gt;Node12</title>
<path fill="none" stroke="midnightblue" d="M317.45,-105.82C305.62,-96.15 290.71,-83.95 280.8,-75.83"/>
<polygon fill="midnightblue" stroke="midnightblue" points="315.44,-108.7 325.4,-112.32 319.87,-103.28 315.44,-108.7"/>
</g>
<!-- Node13 -->
<g id="node13" class="node">
<title>Node13</title>
<g id="a_node13"><a xlink:href="OutputManager_8hxhtml" target="_top" xlink:title=" ">
<polygon fill="white" stroke="black" points="331,-56.5 331,-75.5 471,-75.5 471,-56.5 331,-56.5"/>
<text text-anchor="middle" x="401" y="-63.5" font-family="Helvetica,sans-Serif" font-size="10.00">include/OutputManager.h</text>
</a>
</g>
</g>
<!-- Node10&#45;&gt;Node13 -->
<g id="edge13" class="edge">
<title>Node10&#45;&gt;Node13</title>
<path fill="none" stroke="midnightblue" d="M349.03,-105C359.59,-95.43 374.15,-83.64 385.34,-75.75"/>
<polygon fill="midnightblue" stroke="midnightblue" points="346.41,-102.66 341.57,-112.08 351.23,-107.74 346.41,-102.66"/>
</g>
<!-- Node13&#45;&gt;Node10 -->
<g id="edge15" class="edge">
<title>Node13&#45;&gt;Node10</title>
<path fill="none" stroke="midnightblue" d="M388.03,-82.94C377.44,-92.55 362.78,-104.42 351.56,-112.32"/>
<polygon fill="midnightblue" stroke="midnightblue" points="390.67,-85.26 395.52,-75.83 385.85,-80.18 390.67,-85.26"/>
</g>
<!-- Node14 -->
<g id="node14" class="node">
<title>Node14</title>
<g id="a_node14"><a xlink:href="OutputManager_8cppxhtml" target="_top" xlink:title=" ">
<polygon fill="white" stroke="black" points="336,-0.5 336,-19.5 466,-19.5 466,-0.5 336,-0.5"/>
<text text-anchor="middle" x="401" y="-7.5" font-family="Helvetica,sans-Serif" font-size="10.00">src/OutputManager.cpp</text>
</a>
</g>
</g>
<!-- Node13&#45;&gt;Node14 -->
<g id="edge14" class="edge">
<title>Node13&#45;&gt;Node14</title>
<path fill="none" stroke="midnightblue" d="M401,-45.8C401,-36.91 401,-26.78 401,-19.75"/>
<polygon fill="midnightblue" stroke="midnightblue" points="397.5,-46.08 401,-56.08 404.5,-46.08 397.5,-46.08"/>
</g>
</g>
</svg>
