<?xml version="1.0" encoding="UTF-8" standalone="no"?>
<!DOCTYPE svg PUBLIC "-//W3C//DTD SVG 1.1//EN"
 "http://www.w3.org/Graphics/SVG/1.1/DTD/svg11.dtd">
<!-- Generated by graphviz version 2.43.0 (0)
 -->
<!-- Title: src/Config.cpp Pages: 1 -->
<svg width="585pt" height="252pt"
 viewBox="0.00 0.00 585.00 252.00" xmlns="http://www.w3.org/2000/svg" xmlns:xlink="http://www.w3.org/1999/xlink">
<g id="graph0" class="graph" transform="scale(1 1) rotate(0) translate(4 248)">
<title>src/Config.cpp</title>
<polygon fill="white" stroke="transparent" points="-4,4 -4,-248 581,-248 581,4 -4,4"/>
<!-- Node1 -->
<g id="node1" class="node">
<title>Node1</title>
<g id="a_node1"><a xlink:title=" ">
<polygon fill="#bfbfbf" stroke="black" points="267,-224.5 267,-243.5 353,-243.5 353,-224.5 267,-224.5"/>
<text text-anchor="middle" x="310" y="-231.5" font-family="Helvetica,sans-Serif" font-size="10.00">src/Config.cpp</text>
</a>
</g>
</g>
<!-- Node2 -->
<g id="node2" class="node">
<title>Node2</title>
<g id="a_node2"><a xlink:href="Config_8hxhtml" target="_top" xlink:title=" ">
<polygon fill="white" stroke="black" points="281.5,-168.5 281.5,-187.5 338.5,-187.5 338.5,-168.5 281.5,-168.5"/>
<text text-anchor="middle" x="310" y="-175.5" font-family="Helvetica,sans-Serif" font-size="10.00">Config.h</text>
</a>
</g>
</g>
<!-- Node1&#45;&gt;Node2 -->
<g id="edge1" class="edge">
<title>Node1&#45;&gt;Node2</title>
<path fill="none" stroke="midnightblue" d="M310,-224.08C310,-217.01 310,-206.86 310,-197.99"/>
<polygon fill="midnightblue" stroke="midnightblue" points="313.5,-197.75 310,-187.75 306.5,-197.75 313.5,-197.75"/>
</g>
<!-- Node3 -->
<g id="node3" class="node">
<title>Node3</title>
<g id="a_node3"><a xlink:href="Enums_8hxhtml" target="_top" xlink:title="Header Enums.h contains enumerators defining configuration options and maps handling configuration su...">
<polygon fill="white" stroke="black" points="56.5,-56.5 56.5,-75.5 115.5,-75.5 115.5,-56.5 56.5,-56.5"/>
<text text-anchor="middle" x="86" y="-63.5" font-family="Helvetica,sans-Serif" font-size="10.00">Enums.h</text>
</a>
</g>
</g>
<!-- Node2&#45;&gt;Node3 -->
<g id="edge2" class="edge">
<title>Node2&#45;&gt;Node3</title>
<path fill="none" stroke="midnightblue" d="M292.42,-168.37C253.33,-149.17 158.99,-102.84 112.62,-80.07"/>
<polygon fill="midnightblue" stroke="midnightblue" points="114.01,-76.86 103.5,-75.59 110.93,-83.14 114.01,-76.86"/>
</g>
<!-- Node7 -->
<g id="node7" class="node">
<title>Node7</title>
<g id="a_node7"><a xlink:href="Utils_8hxhtml" target="_top" xlink:title=" ">
<polygon fill="white" stroke="black" points="249,-112.5 249,-131.5 297,-131.5 297,-112.5 249,-112.5"/>
<text text-anchor="middle" x="273" y="-119.5" font-family="Helvetica,sans-Serif" font-size="10.00">Utils.h</text>
</a>
</g>
</g>
<!-- Node2&#45;&gt;Node7 -->
<g id="edge6" class="edge">
<title>Node2&#45;&gt;Node7</title>
<path fill="none" stroke="midnightblue" d="M303.89,-168.08C298.72,-160.53 291.15,-149.49 284.81,-140.23"/>
<polygon fill="midnightblue" stroke="midnightblue" points="287.54,-138.02 279,-131.75 281.76,-141.98 287.54,-138.02"/>
</g>
<!-- Node14 -->
<g id="node14" class="node">
<title>Node14</title>
<g id="a_node14"><a xlink:href="Config_8inlxhtml" target="_top" xlink:title=" ">
<polygon fill="white" stroke="black" points="315.5,-112.5 315.5,-131.5 378.5,-131.5 378.5,-112.5 315.5,-112.5"/>
<text text-anchor="middle" x="347" y="-119.5" font-family="Helvetica,sans-Serif" font-size="10.00">Config.inl</text>
</a>
</g>
</g>
<!-- Node2&#45;&gt;Node14 -->
<g id="edge14" class="edge">
<title>Node2&#45;&gt;Node14</title>
<path fill="none" stroke="midnightblue" d="M310.94,-168.08C314.6,-160.38 322,-149.03 329.3,-139.65"/>
<polygon fill="midnightblue" stroke="midnightblue" points="332.17,-141.68 335.87,-131.75 326.79,-137.2 332.17,-141.68"/>
</g>
<!-- Node4 -->
<g id="node4" class="node">
<title>Node4</title>
<g id="a_node4"><a xlink:title=" ">
<polygon fill="white" stroke="#bfbfbf" points="0,-0.5 0,-19.5 44,-19.5 44,-0.5 0,-0.5"/>
<text text-anchor="middle" x="22" y="-7.5" font-family="Helvetica,sans-Serif" font-size="10.00">string</text>
</a>
</g>
</g>
<!-- Node3&#45;&gt;Node4 -->
<g id="edge3" class="edge">
<title>Node3&#45;&gt;Node4</title>
<path fill="none" stroke="midnightblue" d="M75.72,-56.32C66.16,-48.26 51.72,-36.08 40.22,-26.37"/>
<polygon fill="midnightblue" stroke="midnightblue" points="42.37,-23.61 32.47,-19.83 37.86,-28.96 42.37,-23.61"/>
</g>
<!-- Node5 -->
<g id="node5" class="node">
<title>Node5</title>
<g id="a_node5"><a xlink:title=" ">
<polygon fill="white" stroke="#bfbfbf" points="62.5,-0.5 62.5,-19.5 109.5,-19.5 109.5,-0.5 62.5,-0.5"/>
<text text-anchor="middle" x="86" y="-7.5" font-family="Helvetica,sans-Serif" font-size="10.00">vector</text>
</a>
</g>
</g>
<!-- Node3&#45;&gt;Node5 -->
<g id="edge4" class="edge">
<title>Node3&#45;&gt;Node5</title>
<path fill="none" stroke="midnightblue" d="M86,-56.08C86,-49.01 86,-38.86 86,-29.99"/>
<polygon fill="midnightblue" stroke="midnightblue" points="89.5,-29.75 86,-19.75 82.5,-29.75 89.5,-29.75"/>
</g>
<!-- Node6 -->
<g id="node6" class="node">
<title>Node6</title>
<g id="a_node6"><a xlink:title=" ">
<polygon fill="white" stroke="#bfbfbf" points="128,-0.5 128,-19.5 166,-19.5 166,-0.5 128,-0.5"/>
<text text-anchor="middle" x="147" y="-7.5" font-family="Helvetica,sans-Serif" font-size="10.00">map</text>
</a>
</g>
</g>
<!-- Node3&#45;&gt;Node6 -->
<g id="edge5" class="edge">
<title>Node3&#45;&gt;Node6</title>
<path fill="none" stroke="midnightblue" d="M95.8,-56.32C104.82,-48.34 118.41,-36.31 129.32,-26.65"/>
<polygon fill="midnightblue" stroke="midnightblue" points="131.85,-29.08 137.02,-19.83 127.21,-23.84 131.85,-29.08"/>
</g>
<!-- Node7&#45;&gt;Node3 -->
<g id="edge13" class="edge">
<title>Node7&#45;&gt;Node3</title>
<path fill="none" stroke="midnightblue" d="M248.94,-114.05C217.74,-105.04 162.91,-89.21 125.55,-78.42"/>
<polygon fill="midnightblue" stroke="midnightblue" points="126.09,-74.93 115.51,-75.52 124.15,-81.66 126.09,-74.93"/>
</g>
<!-- Node8 -->
<g id="node8" class="node">
<title>Node8</title>
<g id="a_node8"><a xlink:title=" ">
<polygon fill="white" stroke="#bfbfbf" points="133.5,-56.5 133.5,-75.5 188.5,-75.5 188.5,-56.5 133.5,-56.5"/>
<text text-anchor="middle" x="161" y="-63.5" font-family="Helvetica,sans-Serif" font-size="10.00">fstream</text>
</a>
</g>
</g>
<!-- Node7&#45;&gt;Node8 -->
<g id="edge7" class="edge">
<title>Node7&#45;&gt;Node8</title>
<path fill="none" stroke="midnightblue" d="M255.01,-112.32C236.96,-103.62 208.95,-90.12 188.2,-80.11"/>
<polygon fill="midnightblue" stroke="midnightblue" points="189.48,-76.84 178.95,-75.65 186.44,-83.15 189.48,-76.84"/>
</g>
<!-- Node9 -->
<g id="node9" class="node">
<title>Node9</title>
<g id="a_node9"><a xlink:title=" ">
<polygon fill="white" stroke="#bfbfbf" points="207,-56.5 207,-75.5 263,-75.5 263,-56.5 207,-56.5"/>
<text text-anchor="middle" x="235" y="-63.5" font-family="Helvetica,sans-Serif" font-size="10.00">sstream</text>
</a>
</g>
</g>
<!-- Node7&#45;&gt;Node9 -->
<g id="edge8" class="edge">
<title>Node7&#45;&gt;Node9</title>
<path fill="none" stroke="midnightblue" d="M266.73,-112.08C261.36,-104.46 253.48,-93.26 246.92,-83.94"/>
<polygon fill="midnightblue" stroke="midnightblue" points="249.78,-81.91 241.16,-75.75 244.05,-85.94 249.78,-81.91"/>
</g>
<!-- Node10 -->
<g id="node10" class="node">
<title>Node10</title>
<g id="a_node10"><a xlink:title=" ">
<polygon fill="white" stroke="#bfbfbf" points="281,-56.5 281,-75.5 341,-75.5 341,-56.5 281,-56.5"/>
<text text-anchor="middle" x="311" y="-63.5" font-family="Helvetica,sans-Serif" font-size="10.00">iostream</text>
</a>
</g>
</g>
<!-- Node7&#45;&gt;Node10 -->
<g id="edge9" class="edge">
<title>Node7&#45;&gt;Node10</title>
<path fill="none" stroke="midnightblue" d="M279.27,-112.08C284.64,-104.46 292.52,-93.26 299.08,-83.94"/>
<polygon fill="midnightblue" stroke="midnightblue" points="301.95,-85.94 304.84,-75.75 296.22,-81.91 301.95,-85.94"/>
</g>
<!-- Node11 -->
<g id="node11" class="node">
<title>Node11</title>
<g id="a_node11"><a xlink:title=" ">
<polygon fill="white" stroke="#bfbfbf" points="359,-56.5 359,-75.5 423,-75.5 423,-56.5 359,-56.5"/>
<text text-anchor="middle" x="391" y="-63.5" font-family="Helvetica,sans-Serif" font-size="10.00">algorithm</text>
</a>
</g>
</g>
<!-- Node7&#45;&gt;Node11 -->
<g id="edge10" class="edge">
<title>Node7&#45;&gt;Node11</title>
<path fill="none" stroke="midnightblue" d="M291.7,-112.44C310.94,-103.64 341.15,-89.81 363.2,-79.72"/>
<polygon fill="midnightblue" stroke="midnightblue" points="364.75,-82.86 372.39,-75.52 361.84,-76.5 364.75,-82.86"/>
</g>
<!-- Node12 -->
<g id="node12" class="node">
<title>Node12</title>
<g id="a_node12"><a xlink:title=" ">
<polygon fill="white" stroke="#bfbfbf" points="441,-56.5 441,-75.5 495,-75.5 495,-56.5 441,-56.5"/>
<text text-anchor="middle" x="468" y="-63.5" font-family="Helvetica,sans-Serif" font-size="10.00">dirent.h</text>
</a>
</g>
</g>
<!-- Node7&#45;&gt;Node12 -->
<g id="edge11" class="edge">
<title>Node7&#45;&gt;Node12</title>
<path fill="none" stroke="midnightblue" d="M297.3,-114.27C330.93,-104.96 391.92,-88.07 431.16,-77.2"/>
<polygon fill="midnightblue" stroke="midnightblue" points="432.18,-80.55 440.88,-74.51 430.31,-73.81 432.18,-80.55"/>
</g>
<!-- Node13 -->
<g id="node13" class="node">
<title>Node13</title>
<g id="a_node13"><a xlink:title=" ">
<polygon fill="white" stroke="#bfbfbf" points="513,-56.5 513,-75.5 577,-75.5 577,-56.5 513,-56.5"/>
<text text-anchor="middle" x="545" y="-63.5" font-family="Helvetica,sans-Serif" font-size="10.00">sys/stat.h</text>
</a>
</g>
</g>
<!-- Node7&#45;&gt;Node13 -->
<g id="edge12" class="edge">
<title>Node7&#45;&gt;Node13</title>
<path fill="none" stroke="midnightblue" d="M297.09,-114.38C300.41,-113.53 303.78,-112.72 307,-112 390.81,-93.28 415.05,-93.5 502.93,-76.15"/>
<polygon fill="midnightblue" stroke="midnightblue" points="503.67,-79.57 512.79,-74.18 502.3,-72.71 503.67,-79.57"/>
</g>
<!-- Node14&#45;&gt;Node2 -->
<g id="edge15" class="edge">
<title>Node14&#45;&gt;Node2</title>
<path fill="none" stroke="midnightblue" d="M346.13,-131.75C342.53,-139.4 335.16,-150.74 327.86,-160.14"/>
<polygon fill="midnightblue" stroke="midnightblue" points="324.96,-158.15 321.28,-168.08 330.35,-162.62 324.96,-158.15"/>
</g>
</g>
</svg>
