<?xml version="1.0" encoding="UTF-8" standalone="no"?>
<!DOCTYPE svg PUBLIC "-//W3C//DTD SVG 1.1//EN"
 "http://www.w3.org/Graphics/SVG/1.1/DTD/svg11.dtd">
<!-- Generated by graphviz version 2.43.0 (0)
 -->
<!-- Title: include/Config.h Pages: 1 -->
<svg width="599pt" height="364pt"
 viewBox="0.00 0.00 599.00 364.00" xmlns="http://www.w3.org/2000/svg" xmlns:xlink="http://www.w3.org/1999/xlink">
<g id="graph0" class="graph" transform="scale(1 1) rotate(0) translate(4 360)">
<title>include/Config.h</title>
<polygon fill="white" stroke="transparent" points="-4,4 -4,-360 595,-360 595,4 -4,4"/>
<!-- Node1 -->
<g id="node1" class="node">
<title>Node1</title>
<g id="a_node1"><a xlink:title=" ">
<polygon fill="#bfbfbf" stroke="black" points="107.5,-336.5 107.5,-355.5 202.5,-355.5 202.5,-336.5 107.5,-336.5"/>
<text text-anchor="middle" x="155" y="-343.5" font-family="Helvetica,sans-Serif" font-size="10.00">include/Config.h</text>
</a>
</g>
</g>
<!-- Node2 -->
<g id="node2" class="node">
<title>Node2</title>
<g id="a_node2"><a xlink:href="Config_8cppxhtml" target="_top" xlink:title=" ">
<polygon fill="white" stroke="black" points="0,-280.5 0,-299.5 86,-299.5 86,-280.5 0,-280.5"/>
<text text-anchor="middle" x="43" y="-287.5" font-family="Helvetica,sans-Serif" font-size="10.00">src/Config.cpp</text>
</a>
</g>
</g>
<!-- Node1&#45;&gt;Node2 -->
<g id="edge1" class="edge">
<title>Node1&#45;&gt;Node2</title>
<path fill="none" stroke="midnightblue" d="M127.75,-331.86C106.98,-321.85 78.98,-308.35 60.95,-299.65"/>
<polygon fill="midnightblue" stroke="midnightblue" points="126.48,-335.13 137.01,-336.32 129.52,-328.83 126.48,-335.13"/>
</g>
<!-- Node3 -->
<g id="node3" class="node">
<title>Node3</title>
<g id="a_node3"><a xlink:href="Config_8inlxhtml" target="_top" xlink:title=" ">
<polygon fill="white" stroke="black" points="104.5,-280.5 104.5,-299.5 205.5,-299.5 205.5,-280.5 104.5,-280.5"/>
<text text-anchor="middle" x="155" y="-287.5" font-family="Helvetica,sans-Serif" font-size="10.00">include/Config.inl</text>
</a>
</g>
</g>
<!-- Node1&#45;&gt;Node3 -->
<g id="edge2" class="edge">
<title>Node1&#45;&gt;Node3</title>
<path fill="none" stroke="midnightblue" d="M148.53,-326.1C147.9,-317.14 148.34,-306.86 149.87,-299.75"/>
<polygon fill="midnightblue" stroke="midnightblue" points="145.07,-326.62 149.83,-336.08 152.01,-325.71 145.07,-326.62"/>
</g>
<!-- Node4 -->
<g id="node4" class="node">
<title>Node4</title>
<g id="a_node4"><a xlink:href="Grid_8hxhtml" target="_top" xlink:title=" ">
<polygon fill="white" stroke="black" points="224,-280.5 224,-299.5 308,-299.5 308,-280.5 224,-280.5"/>
<text text-anchor="middle" x="266" y="-287.5" font-family="Helvetica,sans-Serif" font-size="10.00">include/Grid.h</text>
</a>
</g>
</g>
<!-- Node1&#45;&gt;Node4 -->
<g id="edge4" class="edge">
<title>Node1&#45;&gt;Node4</title>
<path fill="none" stroke="midnightblue" d="M182.01,-331.86C202.59,-321.85 230.34,-308.35 248.21,-299.65"/>
<polygon fill="midnightblue" stroke="midnightblue" points="180.3,-328.8 172.83,-336.32 183.36,-335.1 180.3,-328.8"/>
</g>
<!-- Node3&#45;&gt;Node1 -->
<g id="edge3" class="edge">
<title>Node3&#45;&gt;Node1</title>
<path fill="none" stroke="midnightblue" d="M161.46,-309.69C162.11,-318.64 161.68,-328.93 160.17,-336.08"/>
<polygon fill="midnightblue" stroke="midnightblue" points="164.92,-309.2 160.13,-299.75 157.98,-310.13 164.92,-309.2"/>
</g>
<!-- Node5 -->
<g id="node5" class="node">
<title>Node5</title>
<g id="a_node5"><a xlink:href="Grid_8cppxhtml" target="_top" xlink:title=" ">
<polygon fill="white" stroke="black" points="176,-224.5 176,-243.5 250,-243.5 250,-224.5 176,-224.5"/>
<text text-anchor="middle" x="213" y="-231.5" font-family="Helvetica,sans-Serif" font-size="10.00">src/Grid.cpp</text>
</a>
</g>
</g>
<!-- Node4&#45;&gt;Node5 -->
<g id="edge5" class="edge">
<title>Node4&#45;&gt;Node5</title>
<path fill="none" stroke="midnightblue" d="M250.02,-272.72C240.68,-263.2 229.25,-251.56 221.59,-243.75"/>
<polygon fill="midnightblue" stroke="midnightblue" points="247.75,-275.4 257.25,-280.08 252.74,-270.49 247.75,-275.4"/>
</g>
<!-- Node6 -->
<g id="node6" class="node">
<title>Node6</title>
<g id="a_node6"><a xlink:href="Solution_8hxhtml" target="_top" xlink:title=" ">
<polygon fill="white" stroke="black" points="268,-224.5 268,-243.5 372,-243.5 372,-224.5 268,-224.5"/>
<text text-anchor="middle" x="320" y="-231.5" font-family="Helvetica,sans-Serif" font-size="10.00">include/Solution.h</text>
</a>
</g>
</g>
<!-- Node4&#45;&gt;Node6 -->
<g id="edge6" class="edge">
<title>Node4&#45;&gt;Node6</title>
<path fill="none" stroke="midnightblue" d="M282,-273C291.57,-263.43 303.36,-251.64 311.25,-243.75"/>
<polygon fill="midnightblue" stroke="midnightblue" points="279.51,-270.54 274.92,-280.08 284.46,-275.49 279.51,-270.54"/>
</g>
<!-- Node7 -->
<g id="node7" class="node">
<title>Node7</title>
<g id="a_node7"><a xlink:href="Solution_8cppxhtml" target="_top" xlink:title=" ">
<polygon fill="white" stroke="black" points="204,-168.5 204,-187.5 298,-187.5 298,-168.5 204,-168.5"/>
<text text-anchor="middle" x="251" y="-175.5" font-family="Helvetica,sans-Serif" font-size="10.00">src/Solution.cpp</text>
</a>
</g>
</g>
<!-- Node6&#45;&gt;Node7 -->
<g id="edge7" class="edge">
<title>Node6&#45;&gt;Node7</title>
<path fill="none" stroke="midnightblue" d="M300.96,-218.1C288.54,-208.38 272.76,-196.03 262.29,-187.83"/>
<polygon fill="midnightblue" stroke="midnightblue" points="298.88,-220.92 308.91,-224.32 303.2,-215.4 298.88,-220.92"/>
</g>
<!-- Node8 -->
<g id="node8" class="node">
<title>Node8</title>
<g id="a_node8"><a xlink:href="NumericalFluxes_8hxhtml" target="_top" xlink:title=" ">
<polygon fill="white" stroke="black" points="316,-168.5 316,-187.5 462,-187.5 462,-168.5 316,-168.5"/>
<text text-anchor="middle" x="389" y="-175.5" font-family="Helvetica,sans-Serif" font-size="10.00">include/NumericalFluxes.h</text>
</a>
</g>
</g>
<!-- Node6&#45;&gt;Node8 -->
<g id="edge8" class="edge">
<title>Node6&#45;&gt;Node8</title>
<path fill="none" stroke="midnightblue" d="M339.04,-218.1C351.46,-208.38 367.24,-196.03 377.71,-187.83"/>
<polygon fill="midnightblue" stroke="midnightblue" points="336.8,-215.4 331.09,-224.32 341.12,-220.92 336.8,-215.4"/>
</g>
<!-- Node9 -->
<g id="node9" class="node">
<title>Node9</title>
<g id="a_node9"><a xlink:href="NumericalFluxes_8cppxhtml" target="_top" xlink:title=" ">
<polygon fill="white" stroke="black" points="253.5,-112.5 253.5,-131.5 390.5,-131.5 390.5,-112.5 253.5,-112.5"/>
<text text-anchor="middle" x="322" y="-119.5" font-family="Helvetica,sans-Serif" font-size="10.00">src/NumericalFluxes.cpp</text>
</a>
</g>
</g>
<!-- Node8&#45;&gt;Node9 -->
<g id="edge9" class="edge">
<title>Node8&#45;&gt;Node9</title>
<path fill="none" stroke="midnightblue" d="M370.17,-161.82C358.16,-152.15 343.03,-139.95 332.96,-131.83"/>
<polygon fill="midnightblue" stroke="midnightblue" points="368.25,-164.77 378.24,-168.32 372.65,-159.32 368.25,-164.77"/>
</g>
<!-- Node10 -->
<g id="node10" class="node">
<title>Node10</title>
<g id="a_node10"><a xlink:href="Solver_8hxhtml" target="_top" xlink:title=" ">
<polygon fill="white" stroke="black" points="408.5,-112.5 408.5,-131.5 503.5,-131.5 503.5,-112.5 408.5,-112.5"/>
<text text-anchor="middle" x="456" y="-119.5" font-family="Helvetica,sans-Serif" font-size="10.00">include/Solver.h</text>
</a>
</g>
</g>
<!-- Node8&#45;&gt;Node10 -->
<g id="edge10" class="edge">
<title>Node8&#45;&gt;Node10</title>
<path fill="none" stroke="midnightblue" d="M407.83,-161.82C419.84,-152.15 434.97,-139.95 445.04,-131.83"/>
<polygon fill="midnightblue" stroke="midnightblue" points="405.35,-159.32 399.76,-168.32 409.75,-164.77 405.35,-159.32"/>
</g>
<!-- Node11 -->
<g id="node11" class="node">
<title>Node11</title>
<g id="a_node11"><a xlink:href="main_8cppxhtml" target="_top" xlink:title=" ">
<polygon fill="white" stroke="black" points="250.5,-56.5 250.5,-75.5 329.5,-75.5 329.5,-56.5 250.5,-56.5"/>
<text text-anchor="middle" x="290" y="-63.5" font-family="Helvetica,sans-Serif" font-size="10.00">src/main.cpp</text>
</a>
</g>
</g>
<!-- Node10&#45;&gt;Node11 -->
<g id="edge11" class="edge">
<title>Node10&#45;&gt;Node11</title>
<path fill="none" stroke="midnightblue" d="M420.05,-109.3C388.77,-99.13 344.18,-84.62 316.18,-75.52"/>
<polygon fill="midnightblue" stroke="midnightblue" points="419.1,-112.68 429.7,-112.44 421.27,-106.02 419.1,-112.68"/>
</g>
<!-- Node12 -->
<g id="node12" class="node">
<title>Node12</title>
<g id="a_node12"><a xlink:href="Solver_8cppxhtml" target="_top" xlink:title=" ">
<polygon fill="white" stroke="black" points="347.5,-56.5 347.5,-75.5 432.5,-75.5 432.5,-56.5 347.5,-56.5"/>
<text text-anchor="middle" x="390" y="-63.5" font-family="Helvetica,sans-Serif" font-size="10.00">src/Solver.cpp</text>
</a>
</g>
</g>
<!-- Node10&#45;&gt;Node12 -->
<g id="edge12" class="edge">
<title>Node10&#45;&gt;Node12</title>
<path fill="none" stroke="midnightblue" d="M437.45,-105.82C425.62,-96.15 410.71,-83.95 400.8,-75.83"/>
<polygon fill="midnightblue" stroke="midnightblue" points="435.44,-108.7 445.4,-112.32 439.87,-103.28 435.44,-108.7"/>
</g>
<!-- Node13 -->
<g id="node13" class="node">
<title>Node13</title>
<g id="a_node13"><a xlink:href="OutputManager_8hxhtml" target="_top" xlink:title=" ">
<polygon fill="white" stroke="black" points="451,-56.5 451,-75.5 591,-75.5 591,-56.5 451,-56.5"/>
<text text-anchor="middle" x="521" y="-63.5" font-family="Helvetica,sans-Serif" font-size="10.00">include/OutputManager.h</text>
</a>
</g>
</g>
<!-- Node10&#45;&gt;Node13 -->
<g id="edge13" class="edge">
<title>Node10&#45;&gt;Node13</title>
<path fill="none" stroke="midnightblue" d="M469.03,-105C479.59,-95.43 494.15,-83.64 505.34,-75.75"/>
<polygon fill="midnightblue" stroke="midnightblue" points="466.41,-102.66 461.57,-112.08 471.23,-107.74 466.41,-102.66"/>
</g>
<!-- Node13&#45;&gt;Node10 -->
<g id="edge15" class="edge">
<title>Node13&#45;&gt;Node10</title>
<path fill="none" stroke="midnightblue" d="M508.03,-82.94C497.44,-92.55 482.78,-104.42 471.56,-112.32"/>
<polygon fill="midnightblue" stroke="midnightblue" points="510.67,-85.26 515.52,-75.83 505.85,-80.18 510.67,-85.26"/>
</g>
<!-- Node14 -->
<g id="node14" class="node">
<title>Node14</title>
<g id="a_node14"><a xlink:href="OutputManager_8cppxhtml" target="_top" xlink:title=" ">
<polygon fill="white" stroke="black" points="456,-0.5 456,-19.5 586,-19.5 586,-0.5 456,-0.5"/>
<text text-anchor="middle" x="521" y="-7.5" font-family="Helvetica,sans-Serif" font-size="10.00">src/OutputManager.cpp</text>
</a>
</g>
</g>
<!-- Node13&#45;&gt;Node14 -->
<g id="edge14" class="edge">
<title>Node13&#45;&gt;Node14</title>
<path fill="none" stroke="midnightblue" d="M521,-45.8C521,-36.91 521,-26.78 521,-19.75"/>
<polygon fill="midnightblue" stroke="midnightblue" points="517.5,-46.08 521,-56.08 524.5,-46.08 517.5,-46.08"/>
</g>
</g>
</svg>
