<?xml version="1.0" encoding="UTF-8" standalone="no"?>
<!DOCTYPE svg PUBLIC "-//W3C//DTD SVG 1.1//EN"
 "http://www.w3.org/Graphics/SVG/1.1/DTD/svg11.dtd">
<!-- Generated by graphviz version 2.43.0 (0)
 -->
<!-- Title: include/Enums.h Pages: 1 -->
<svg width="598pt" height="476pt"
 viewBox="0.00 0.00 598.00 476.00" xmlns="http://www.w3.org/2000/svg" xmlns:xlink="http://www.w3.org/1999/xlink">
<g id="graph0" class="graph" transform="scale(1 1) rotate(0) translate(4 472)">
<title>include/Enums.h</title>
<polygon fill="white" stroke="transparent" points="-4,4 -4,-472 594,-472 594,4 -4,4"/>
<!-- Node1 -->
<g id="node1" class="node">
<title>Node1</title>
<g id="a_node1"><a xlink:title="Header Enums.h contains enumerators defining configuration options and maps handling configuration su...">
<polygon fill="#bfbfbf" stroke="black" points="141.5,-448.5 141.5,-467.5 238.5,-467.5 238.5,-448.5 141.5,-448.5"/>
<text text-anchor="middle" x="190" y="-455.5" font-family="Helvetica,sans-Serif" font-size="10.00">include/Enums.h</text>
</a>
</g>
</g>
<!-- Node2 -->
<g id="node2" class="node">
<title>Node2</title>
<g id="a_node2"><a xlink:href="Config_8hxhtml" target="_top" xlink:title=" ">
<polygon fill="white" stroke="black" points="107.5,-336.5 107.5,-355.5 202.5,-355.5 202.5,-336.5 107.5,-336.5"/>
<text text-anchor="middle" x="155" y="-343.5" font-family="Helvetica,sans-Serif" font-size="10.00">include/Config.h</text>
</a>
</g>
</g>
<!-- Node1&#45;&gt;Node2 -->
<g id="edge1" class="edge">
<title>Node1&#45;&gt;Node2</title>
<path fill="none" stroke="midnightblue" d="M183.27,-438.83C180.32,-430.66 176.88,-420.89 174,-412 167.56,-392.09 160.89,-368.44 157.42,-355.88"/>
<polygon fill="midnightblue" stroke="midnightblue" points="180.06,-440.24 186.79,-448.42 186.63,-437.83 180.06,-440.24"/>
</g>
<!-- Node16 -->
<g id="node16" class="node">
<title>Node16</title>
<g id="a_node16"><a xlink:href="Utils_8hxhtml" target="_top" xlink:title=" ">
<polygon fill="white" stroke="black" points="183,-392.5 183,-411.5 269,-411.5 269,-392.5 183,-392.5"/>
<text text-anchor="middle" x="226" y="-399.5" font-family="Helvetica,sans-Serif" font-size="10.00">include/Utils.h</text>
</a>
</g>
</g>
<!-- Node1&#45;&gt;Node16 -->
<g id="edge17" class="edge">
<title>Node1&#45;&gt;Node16</title>
<path fill="none" stroke="midnightblue" d="M201.62,-439.57C207.82,-430.27 215.17,-419.25 220.17,-411.75"/>
<polygon fill="midnightblue" stroke="midnightblue" points="198.58,-437.82 195.94,-448.08 204.4,-441.7 198.58,-437.82"/>
</g>
<!-- Node3 -->
<g id="node3" class="node">
<title>Node3</title>
<g id="a_node3"><a xlink:href="Config_8cppxhtml" target="_top" xlink:title=" ">
<polygon fill="white" stroke="black" points="0,-280.5 0,-299.5 86,-299.5 86,-280.5 0,-280.5"/>
<text text-anchor="middle" x="43" y="-287.5" font-family="Helvetica,sans-Serif" font-size="10.00">src/Config.cpp</text>
</a>
</g>
</g>
<!-- Node2&#45;&gt;Node3 -->
<g id="edge2" class="edge">
<title>Node2&#45;&gt;Node3</title>
<path fill="none" stroke="midnightblue" d="M127.75,-331.86C106.98,-321.85 78.98,-308.35 60.95,-299.65"/>
<polygon fill="midnightblue" stroke="midnightblue" points="126.48,-335.13 137.01,-336.32 129.52,-328.83 126.48,-335.13"/>
</g>
<!-- Node4 -->
<g id="node4" class="node">
<title>Node4</title>
<g id="a_node4"><a xlink:href="Config_8inlxhtml" target="_top" xlink:title=" ">
<polygon fill="white" stroke="black" points="104.5,-280.5 104.5,-299.5 205.5,-299.5 205.5,-280.5 104.5,-280.5"/>
<text text-anchor="middle" x="155" y="-287.5" font-family="Helvetica,sans-Serif" font-size="10.00">include/Config.inl</text>
</a>
</g>
</g>
<!-- Node2&#45;&gt;Node4 -->
<g id="edge3" class="edge">
<title>Node2&#45;&gt;Node4</title>
<path fill="none" stroke="midnightblue" d="M148.53,-326.1C147.9,-317.14 148.34,-306.86 149.87,-299.75"/>
<polygon fill="midnightblue" stroke="midnightblue" points="145.07,-326.62 149.83,-336.08 152.01,-325.71 145.07,-326.62"/>
</g>
<!-- Node5 -->
<g id="node5" class="node">
<title>Node5</title>
<g id="a_node5"><a xlink:href="Grid_8hxhtml" target="_top" xlink:title=" ">
<polygon fill="white" stroke="black" points="224,-280.5 224,-299.5 308,-299.5 308,-280.5 224,-280.5"/>
<text text-anchor="middle" x="266" y="-287.5" font-family="Helvetica,sans-Serif" font-size="10.00">include/Grid.h</text>
</a>
</g>
</g>
<!-- Node2&#45;&gt;Node5 -->
<g id="edge5" class="edge">
<title>Node2&#45;&gt;Node5</title>
<path fill="none" stroke="midnightblue" d="M182.01,-331.86C202.59,-321.85 230.34,-308.35 248.21,-299.65"/>
<polygon fill="midnightblue" stroke="midnightblue" points="180.3,-328.8 172.83,-336.32 183.36,-335.1 180.3,-328.8"/>
</g>
<!-- Node4&#45;&gt;Node2 -->
<g id="edge4" class="edge">
<title>Node4&#45;&gt;Node2</title>
<path fill="none" stroke="midnightblue" d="M161.46,-309.69C162.11,-318.64 161.68,-328.93 160.17,-336.08"/>
<polygon fill="midnightblue" stroke="midnightblue" points="164.92,-309.2 160.13,-299.75 157.98,-310.13 164.92,-309.2"/>
</g>
<!-- Node6 -->
<g id="node6" class="node">
<title>Node6</title>
<g id="a_node6"><a xlink:href="Grid_8cppxhtml" target="_top" xlink:title=" ">
<polygon fill="white" stroke="black" points="175,-224.5 175,-243.5 249,-243.5 249,-224.5 175,-224.5"/>
<text text-anchor="middle" x="212" y="-231.5" font-family="Helvetica,sans-Serif" font-size="10.00">src/Grid.cpp</text>
</a>
</g>
</g>
<!-- Node5&#45;&gt;Node6 -->
<g id="edge6" class="edge">
<title>Node5&#45;&gt;Node6</title>
<path fill="none" stroke="midnightblue" d="M250,-273C240.43,-263.43 228.64,-251.64 220.75,-243.75"/>
<polygon fill="midnightblue" stroke="midnightblue" points="247.54,-275.49 257.08,-280.08 252.49,-270.54 247.54,-275.49"/>
</g>
<!-- Node7 -->
<g id="node7" class="node">
<title>Node7</title>
<g id="a_node7"><a xlink:href="Solution_8hxhtml" target="_top" xlink:title=" ">
<polygon fill="white" stroke="black" points="267,-224.5 267,-243.5 371,-243.5 371,-224.5 267,-224.5"/>
<text text-anchor="middle" x="319" y="-231.5" font-family="Helvetica,sans-Serif" font-size="10.00">include/Solution.h</text>
</a>
</g>
</g>
<!-- Node5&#45;&gt;Node7 -->
<g id="edge7" class="edge">
<title>Node5&#45;&gt;Node7</title>
<path fill="none" stroke="midnightblue" d="M281.98,-272.72C291.32,-263.2 302.75,-251.56 310.41,-243.75"/>
<polygon fill="midnightblue" stroke="midnightblue" points="279.26,-270.49 274.75,-280.08 284.25,-275.4 279.26,-270.49"/>
</g>
<!-- Node8 -->
<g id="node8" class="node">
<title>Node8</title>
<g id="a_node8"><a xlink:href="Solution_8cppxhtml" target="_top" xlink:title=" ">
<polygon fill="white" stroke="black" points="203,-168.5 203,-187.5 297,-187.5 297,-168.5 203,-168.5"/>
<text text-anchor="middle" x="250" y="-175.5" font-family="Helvetica,sans-Serif" font-size="10.00">src/Solution.cpp</text>
</a>
</g>
</g>
<!-- Node7&#45;&gt;Node8 -->
<g id="edge8" class="edge">
<title>Node7&#45;&gt;Node8</title>
<path fill="none" stroke="midnightblue" d="M299.96,-218.1C287.54,-208.38 271.76,-196.03 261.29,-187.83"/>
<polygon fill="midnightblue" stroke="midnightblue" points="297.88,-220.92 307.91,-224.32 302.2,-215.4 297.88,-220.92"/>
</g>
<!-- Node9 -->
<g id="node9" class="node">
<title>Node9</title>
<g id="a_node9"><a xlink:href="NumericalFluxes_8hxhtml" target="_top" xlink:title=" ">
<polygon fill="white" stroke="black" points="315,-168.5 315,-187.5 461,-187.5 461,-168.5 315,-168.5"/>
<text text-anchor="middle" x="388" y="-175.5" font-family="Helvetica,sans-Serif" font-size="10.00">include/NumericalFluxes.h</text>
</a>
</g>
</g>
<!-- Node7&#45;&gt;Node9 -->
<g id="edge9" class="edge">
<title>Node7&#45;&gt;Node9</title>
<path fill="none" stroke="midnightblue" d="M338.04,-218.1C350.46,-208.38 366.24,-196.03 376.71,-187.83"/>
<polygon fill="midnightblue" stroke="midnightblue" points="335.8,-215.4 330.09,-224.32 340.12,-220.92 335.8,-215.4"/>
</g>
<!-- Node10 -->
<g id="node10" class="node">
<title>Node10</title>
<g id="a_node10"><a xlink:href="NumericalFluxes_8cppxhtml" target="_top" xlink:title=" ">
<polygon fill="white" stroke="black" points="252.5,-112.5 252.5,-131.5 389.5,-131.5 389.5,-112.5 252.5,-112.5"/>
<text text-anchor="middle" x="321" y="-119.5" font-family="Helvetica,sans-Serif" font-size="10.00">src/NumericalFluxes.cpp</text>
</a>
</g>
</g>
<!-- Node9&#45;&gt;Node10 -->
<g id="edge10" class="edge">
<title>Node9&#45;&gt;Node10</title>
<path fill="none" stroke="midnightblue" d="M369.17,-161.82C357.16,-152.15 342.03,-139.95 331.96,-131.83"/>
<polygon fill="midnightblue" stroke="midnightblue" points="367.25,-164.77 377.24,-168.32 371.65,-159.32 367.25,-164.77"/>
</g>
<!-- Node11 -->
<g id="node11" class="node">
<title>Node11</title>
<g id="a_node11"><a xlink:href="Solver_8hxhtml" target="_top" xlink:title=" ">
<polygon fill="white" stroke="black" points="407.5,-112.5 407.5,-131.5 502.5,-131.5 502.5,-112.5 407.5,-112.5"/>
<text text-anchor="middle" x="455" y="-119.5" font-family="Helvetica,sans-Serif" font-size="10.00">include/Solver.h</text>
</a>
</g>
</g>
<!-- Node9&#45;&gt;Node11 -->
<g id="edge11" class="edge">
<title>Node9&#45;&gt;Node11</title>
<path fill="none" stroke="midnightblue" d="M406.83,-161.82C418.84,-152.15 433.97,-139.95 444.04,-131.83"/>
<polygon fill="midnightblue" stroke="midnightblue" points="404.35,-159.32 398.76,-168.32 408.75,-164.77 404.35,-159.32"/>
</g>
<!-- Node12 -->
<g id="node12" class="node">
<title>Node12</title>
<g id="a_node12"><a xlink:href="main_8cppxhtml" target="_top" xlink:title=" ">
<polygon fill="white" stroke="black" points="249.5,-56.5 249.5,-75.5 328.5,-75.5 328.5,-56.5 249.5,-56.5"/>
<text text-anchor="middle" x="289" y="-63.5" font-family="Helvetica,sans-Serif" font-size="10.00">src/main.cpp</text>
</a>
</g>
</g>
<!-- Node11&#45;&gt;Node12 -->
<g id="edge12" class="edge">
<title>Node11&#45;&gt;Node12</title>
<path fill="none" stroke="midnightblue" d="M419.05,-109.3C387.77,-99.13 343.18,-84.62 315.18,-75.52"/>
<polygon fill="midnightblue" stroke="midnightblue" points="418.1,-112.68 428.7,-112.44 420.27,-106.02 418.1,-112.68"/>
</g>
<!-- Node13 -->
<g id="node13" class="node">
<title>Node13</title>
<g id="a_node13"><a xlink:href="Solver_8cppxhtml" target="_top" xlink:title=" ">
<polygon fill="white" stroke="black" points="346.5,-56.5 346.5,-75.5 431.5,-75.5 431.5,-56.5 346.5,-56.5"/>
<text text-anchor="middle" x="389" y="-63.5" font-family="Helvetica,sans-Serif" font-size="10.00">src/Solver.cpp</text>
</a>
</g>
</g>
<!-- Node11&#45;&gt;Node13 -->
<g id="edge13" class="edge">
<title>Node11&#45;&gt;Node13</title>
<path fill="none" stroke="midnightblue" d="M436.45,-105.82C424.62,-96.15 409.71,-83.95 399.8,-75.83"/>
<polygon fill="midnightblue" stroke="midnightblue" points="434.44,-108.7 444.4,-112.32 438.87,-103.28 434.44,-108.7"/>
</g>
<!-- Node14 -->
<g id="node14" class="node">
<title>Node14</title>
<g id="a_node14"><a xlink:href="OutputManager_8hxhtml" target="_top" xlink:title=" ">
<polygon fill="white" stroke="black" points="450,-56.5 450,-75.5 590,-75.5 590,-56.5 450,-56.5"/>
<text text-anchor="middle" x="520" y="-63.5" font-family="Helvetica,sans-Serif" font-size="10.00">include/OutputManager.h</text>
</a>
</g>
</g>
<!-- Node11&#45;&gt;Node14 -->
<g id="edge14" class="edge">
<title>Node11&#45;&gt;Node14</title>
<path fill="none" stroke="midnightblue" d="M468.03,-105C478.59,-95.43 493.15,-83.64 504.34,-75.75"/>
<polygon fill="midnightblue" stroke="midnightblue" points="465.41,-102.66 460.57,-112.08 470.23,-107.74 465.41,-102.66"/>
</g>
<!-- Node14&#45;&gt;Node11 -->
<g id="edge16" class="edge">
<title>Node14&#45;&gt;Node11</title>
<path fill="none" stroke="midnightblue" d="M507.03,-82.94C496.44,-92.55 481.78,-104.42 470.56,-112.32"/>
<polygon fill="midnightblue" stroke="midnightblue" points="509.67,-85.26 514.52,-75.83 504.85,-80.18 509.67,-85.26"/>
</g>
<!-- Node15 -->
<g id="node15" class="node">
<title>Node15</title>
<g id="a_node15"><a xlink:href="OutputManager_8cppxhtml" target="_top" xlink:title=" ">
<polygon fill="white" stroke="black" points="455,-0.5 455,-19.5 585,-19.5 585,-0.5 455,-0.5"/>
<text text-anchor="middle" x="520" y="-7.5" font-family="Helvetica,sans-Serif" font-size="10.00">src/OutputManager.cpp</text>
</a>
</g>
</g>
<!-- Node14&#45;&gt;Node15 -->
<g id="edge15" class="edge">
<title>Node14&#45;&gt;Node15</title>
<path fill="none" stroke="midnightblue" d="M520,-45.8C520,-36.91 520,-26.78 520,-19.75"/>
<polygon fill="midnightblue" stroke="midnightblue" points="516.5,-46.08 520,-56.08 523.5,-46.08 516.5,-46.08"/>
</g>
<!-- Node16&#45;&gt;Node2 -->
<g id="edge19" class="edge">
<title>Node16&#45;&gt;Node2</title>
<path fill="none" stroke="midnightblue" d="M206.41,-386.1C193.63,-376.38 177.39,-364.03 166.61,-355.83"/>
<polygon fill="midnightblue" stroke="midnightblue" points="204.51,-389.06 214.59,-392.32 208.75,-383.48 204.51,-389.06"/>
</g>
<!-- Node17 -->
<g id="node17" class="node">
<title>Node17</title>
<g id="a_node17"><a xlink:href="Utils_8cppxhtml" target="_top" xlink:title=" ">
<polygon fill="white" stroke="black" points="220.5,-336.5 220.5,-355.5 297.5,-355.5 297.5,-336.5 220.5,-336.5"/>
<text text-anchor="middle" x="259" y="-343.5" font-family="Helvetica,sans-Serif" font-size="10.00">src/Utils.cpp</text>
</a>
</g>
</g>
<!-- Node16&#45;&gt;Node17 -->
<g id="edge18" class="edge">
<title>Node16&#45;&gt;Node17</title>
<path fill="none" stroke="midnightblue" d="M236.83,-383.27C242.47,-374.05 249.12,-363.17 253.65,-355.75"/>
<polygon fill="midnightblue" stroke="midnightblue" points="233.68,-381.73 231.45,-392.08 239.65,-385.38 233.68,-381.73"/>
</g>
</g>
</svg>
