<?xml version="1.0" encoding="UTF-8" standalone="no"?>
<!DOCTYPE svg PUBLIC "-//W3C//DTD SVG 1.1//EN"
 "http://www.w3.org/Graphics/SVG/1.1/DTD/svg11.dtd">
<!-- Generated by graphviz version 2.43.0 (0)
 -->
<!-- Title: include/Grid.h Pages: 1 -->
<svg width="424pt" height="308pt"
 viewBox="0.00 0.00 424.00 308.00" xmlns="http://www.w3.org/2000/svg" xmlns:xlink="http://www.w3.org/1999/xlink">
<g id="graph0" class="graph" transform="scale(1 1) rotate(0) translate(4 304)">
<title>include/Grid.h</title>
<polygon fill="white" stroke="transparent" points="-4,4 -4,-304 420,-304 420,4 -4,4"/>
<!-- Node1 -->
<g id="node1" class="node">
<title>Node1</title>
<g id="a_node1"><a xlink:title=" ">
<polygon fill="#bfbfbf" stroke="black" points="48,-280.5 48,-299.5 132,-299.5 132,-280.5 48,-280.5"/>
<text text-anchor="middle" x="90" y="-287.5" font-family="Helvetica,sans-Serif" font-size="10.00">include/Grid.h</text>
</a>
</g>
</g>
<!-- Node2 -->
<g id="node2" class="node">
<title>Node2</title>
<g id="a_node2"><a xlink:href="Grid_8cppxhtml" target="_top" xlink:title=" ">
<polygon fill="white" stroke="black" points="0,-224.5 0,-243.5 74,-243.5 74,-224.5 0,-224.5"/>
<text text-anchor="middle" x="37" y="-231.5" font-family="Helvetica,sans-Serif" font-size="10.00">src/Grid.cpp</text>
</a>
</g>
</g>
<!-- Node1&#45;&gt;Node2 -->
<g id="edge1" class="edge">
<title>Node1&#45;&gt;Node2</title>
<path fill="none" stroke="midnightblue" d="M74.02,-272.72C64.68,-263.2 53.25,-251.56 45.59,-243.75"/>
<polygon fill="midnightblue" stroke="midnightblue" points="71.75,-275.4 81.25,-280.08 76.74,-270.49 71.75,-275.4"/>
</g>
<!-- Node3 -->
<g id="node3" class="node">
<title>Node3</title>
<g id="a_node3"><a xlink:href="Solution_8hxhtml" target="_top" xlink:title=" ">
<polygon fill="white" stroke="black" points="92,-224.5 92,-243.5 196,-243.5 196,-224.5 92,-224.5"/>
<text text-anchor="middle" x="144" y="-231.5" font-family="Helvetica,sans-Serif" font-size="10.00">include/Solution.h</text>
</a>
</g>
</g>
<!-- Node1&#45;&gt;Node3 -->
<g id="edge2" class="edge">
<title>Node1&#45;&gt;Node3</title>
<path fill="none" stroke="midnightblue" d="M106,-273C115.57,-263.43 127.36,-251.64 135.25,-243.75"/>
<polygon fill="midnightblue" stroke="midnightblue" points="103.51,-270.54 98.92,-280.08 108.46,-275.49 103.51,-270.54"/>
</g>
<!-- Node4 -->
<g id="node4" class="node">
<title>Node4</title>
<g id="a_node4"><a xlink:href="Solution_8cppxhtml" target="_top" xlink:title=" ">
<polygon fill="white" stroke="black" points="28,-168.5 28,-187.5 122,-187.5 122,-168.5 28,-168.5"/>
<text text-anchor="middle" x="75" y="-175.5" font-family="Helvetica,sans-Serif" font-size="10.00">src/Solution.cpp</text>
</a>
</g>
</g>
<!-- Node3&#45;&gt;Node4 -->
<g id="edge3" class="edge">
<title>Node3&#45;&gt;Node4</title>
<path fill="none" stroke="midnightblue" d="M124.96,-218.1C112.54,-208.38 96.76,-196.03 86.29,-187.83"/>
<polygon fill="midnightblue" stroke="midnightblue" points="122.88,-220.92 132.91,-224.32 127.2,-215.4 122.88,-220.92"/>
</g>
<!-- Node5 -->
<g id="node5" class="node">
<title>Node5</title>
<g id="a_node5"><a xlink:href="NumericalFluxes_8hxhtml" target="_top" xlink:title=" ">
<polygon fill="white" stroke="black" points="140,-168.5 140,-187.5 286,-187.5 286,-168.5 140,-168.5"/>
<text text-anchor="middle" x="213" y="-175.5" font-family="Helvetica,sans-Serif" font-size="10.00">include/NumericalFluxes.h</text>
</a>
</g>
</g>
<!-- Node3&#45;&gt;Node5 -->
<g id="edge4" class="edge">
<title>Node3&#45;&gt;Node5</title>
<path fill="none" stroke="midnightblue" d="M163.04,-218.1C175.46,-208.38 191.24,-196.03 201.71,-187.83"/>
<polygon fill="midnightblue" stroke="midnightblue" points="160.8,-215.4 155.09,-224.32 165.12,-220.92 160.8,-215.4"/>
</g>
<!-- Node6 -->
<g id="node6" class="node">
<title>Node6</title>
<g id="a_node6"><a xlink:href="NumericalFluxes_8cppxhtml" target="_top" xlink:title=" ">
<polygon fill="white" stroke="black" points="77.5,-112.5 77.5,-131.5 214.5,-131.5 214.5,-112.5 77.5,-112.5"/>
<text text-anchor="middle" x="146" y="-119.5" font-family="Helvetica,sans-Serif" font-size="10.00">src/NumericalFluxes.cpp</text>
</a>
</g>
</g>
<!-- Node5&#45;&gt;Node6 -->
<g id="edge5" class="edge">
<title>Node5&#45;&gt;Node6</title>
<path fill="none" stroke="midnightblue" d="M194.17,-161.82C182.16,-152.15 167.03,-139.95 156.96,-131.83"/>
<polygon fill="midnightblue" stroke="midnightblue" points="192.25,-164.77 202.24,-168.32 196.65,-159.32 192.25,-164.77"/>
</g>
<!-- Node7 -->
<g id="node7" class="node">
<title>Node7</title>
<g id="a_node7"><a xlink:href="Solver_8hxhtml" target="_top" xlink:title=" ">
<polygon fill="white" stroke="black" points="232.5,-112.5 232.5,-131.5 327.5,-131.5 327.5,-112.5 232.5,-112.5"/>
<text text-anchor="middle" x="280" y="-119.5" font-family="Helvetica,sans-Serif" font-size="10.00">include/Solver.h</text>
</a>
</g>
</g>
<!-- Node5&#45;&gt;Node7 -->
<g id="edge6" class="edge">
<title>Node5&#45;&gt;Node7</title>
<path fill="none" stroke="midnightblue" d="M231.83,-161.82C243.84,-152.15 258.97,-139.95 269.04,-131.83"/>
<polygon fill="midnightblue" stroke="midnightblue" points="229.35,-159.32 223.76,-168.32 233.75,-164.77 229.35,-159.32"/>
</g>
<!-- Node8 -->
<g id="node8" class="node">
<title>Node8</title>
<g id="a_node8"><a xlink:href="main_8cppxhtml" target="_top" xlink:title=" ">
<polygon fill="white" stroke="black" points="75.5,-56.5 75.5,-75.5 154.5,-75.5 154.5,-56.5 75.5,-56.5"/>
<text text-anchor="middle" x="115" y="-63.5" font-family="Helvetica,sans-Serif" font-size="10.00">src/main.cpp</text>
</a>
</g>
</g>
<!-- Node7&#45;&gt;Node8 -->
<g id="edge7" class="edge">
<title>Node7&#45;&gt;Node8</title>
<path fill="none" stroke="midnightblue" d="M244.26,-109.3C213.17,-99.13 168.85,-84.62 141.02,-75.52"/>
<polygon fill="midnightblue" stroke="midnightblue" points="243.26,-112.66 253.86,-112.44 245.44,-106.01 243.26,-112.66"/>
</g>
<!-- Node9 -->
<g id="node9" class="node">
<title>Node9</title>
<g id="a_node9"><a xlink:href="Solver_8cppxhtml" target="_top" xlink:title=" ">
<polygon fill="white" stroke="black" points="172.5,-56.5 172.5,-75.5 257.5,-75.5 257.5,-56.5 172.5,-56.5"/>
<text text-anchor="middle" x="215" y="-63.5" font-family="Helvetica,sans-Serif" font-size="10.00">src/Solver.cpp</text>
</a>
</g>
</g>
<!-- Node7&#45;&gt;Node9 -->
<g id="edge8" class="edge">
<title>Node7&#45;&gt;Node9</title>
<path fill="none" stroke="midnightblue" d="M261.73,-105.82C250.08,-96.15 235.4,-83.95 225.63,-75.83"/>
<polygon fill="midnightblue" stroke="midnightblue" points="259.63,-108.63 269.56,-112.32 264.1,-103.24 259.63,-108.63"/>
</g>
<!-- Node10 -->
<g id="node10" class="node">
<title>Node10</title>
<g id="a_node10"><a xlink:href="OutputManager_8hxhtml" target="_top" xlink:title=" ">
<polygon fill="white" stroke="black" points="276,-56.5 276,-75.5 416,-75.5 416,-56.5 276,-56.5"/>
<text text-anchor="middle" x="346" y="-63.5" font-family="Helvetica,sans-Serif" font-size="10.00">include/OutputManager.h</text>
</a>
</g>
</g>
<!-- Node7&#45;&gt;Node10 -->
<g id="edge9" class="edge">
<title>Node7&#45;&gt;Node10</title>
<path fill="none" stroke="midnightblue" d="M293.06,-105.24C303.89,-95.56 318.97,-83.53 330.43,-75.57"/>
<polygon fill="midnightblue" stroke="midnightblue" points="290.65,-102.7 285.73,-112.08 295.43,-107.82 290.65,-102.7"/>
</g>
<!-- Node10&#45;&gt;Node7 -->
<g id="edge11" class="edge">
<title>Node10&#45;&gt;Node7</title>
<path fill="none" stroke="midnightblue" d="M332.74,-82.94C321.97,-92.55 307.09,-104.42 295.72,-112.32"/>
<polygon fill="midnightblue" stroke="midnightblue" points="335.43,-85.22 340.35,-75.83 330.65,-80.1 335.43,-85.22"/>
</g>
<!-- Node11 -->
<g id="node11" class="node">
<title>Node11</title>
<g id="a_node11"><a xlink:href="OutputManager_8cppxhtml" target="_top" xlink:title=" ">
<polygon fill="white" stroke="black" points="281,-0.5 281,-19.5 411,-19.5 411,-0.5 281,-0.5"/>
<text text-anchor="middle" x="346" y="-7.5" font-family="Helvetica,sans-Serif" font-size="10.00">src/OutputManager.cpp</text>
</a>
</g>
</g>
<!-- Node10&#45;&gt;Node11 -->
<g id="edge10" class="edge">
<title>Node10&#45;&gt;Node11</title>
<path fill="none" stroke="midnightblue" d="M346,-45.8C346,-36.91 346,-26.78 346,-19.75"/>
<polygon fill="midnightblue" stroke="midnightblue" points="342.5,-46.08 346,-56.08 349.5,-46.08 342.5,-46.08"/>
</g>
</g>
</svg>
