<?xml version="1.0" encoding="UTF-8" standalone="no"?>
<!DOCTYPE svg PUBLIC "-//W3C//DTD SVG 1.1//EN"
 "http://www.w3.org/Graphics/SVG/1.1/DTD/svg11.dtd">
<!-- Generated by graphviz version 2.43.0 (0)
 -->
<!-- Title: Graphical Class Hierarchy Pages: 1 -->
<svg width="357pt" height="66pt"
 viewBox="0.00 0.00 357.00 66.00" xmlns="http://www.w3.org/2000/svg" xmlns:xlink="http://www.w3.org/1999/xlink">
<g id="graph0" class="graph" transform="scale(1 1) rotate(0) translate(4 62)">
<title>Graphical Class Hierarchy</title>
<polygon fill="white" stroke="transparent" points="-4,4 -4,-62 353,-62 353,4 -4,4"/>
<!-- Node0 -->
<g id="node1" class="node">
<title>Node0</title>
<g id="a_node1"><a xlink:href="classNumericalFluxesxhtml" target="_top" xlink:title="Class NumericalFluxes is an abstract class defining general attributes used to compute numerical flux...">
<polygon fill="white" stroke="black" points="0,-19.5 0,-38.5 99,-38.5 99,-19.5 0,-19.5"/>
<text text-anchor="middle" x="49.5" y="-26.5" font-family="Helvetica,sans-Serif" font-size="10.00">NumericalFluxes</text>
</a>
</g>
</g>
<!-- Node1 -->
<g id="node2" class="node">
<title>Node1</title>
<g id="a_node2"><a xlink:href="classLaxWendroffFluxxhtml" target="_top" xlink:title="Child class LaxWendroffFlux defines attributes and methods for computing the numerical flux with Lax&#45;...">
<polygon fill="white" stroke="black" points="135,-38.5 135,-57.5 235,-57.5 235,-38.5 135,-38.5"/>
<text text-anchor="middle" x="185" y="-45.5" font-family="Helvetica,sans-Serif" font-size="10.00">LaxWendroffFlux</text>
</a>
</g>
</g>
<!-- Node0&#45;&gt;Node1 -->
<g id="edge1" class="edge">
<title>Node0&#45;&gt;Node1</title>
<path fill="none" stroke="midnightblue" d="M109.04,-37.33C117.63,-38.55 126.41,-39.8 134.79,-41"/>
<polygon fill="midnightblue" stroke="midnightblue" points="109.47,-33.86 99.07,-35.91 108.48,-40.79 109.47,-33.86"/>
</g>
<!-- Node2 -->
<g id="node3" class="node">
<title>Node2</title>
<g id="a_node3"><a xlink:href="classRoeFluxxhtml" target="_top" xlink:title="Child class RoeFlux defines attributes and methods for computing the numerical flux with first order ...">
<polygon fill="white" stroke="black" points="157,-0.5 157,-19.5 213,-19.5 213,-0.5 157,-0.5"/>
<text text-anchor="middle" x="185" y="-7.5" font-family="Helvetica,sans-Serif" font-size="10.00">RoeFlux</text>
</a>
</g>
</g>
<!-- Node0&#45;&gt;Node2 -->
<g id="edge2" class="edge">
<title>Node0&#45;&gt;Node2</title>
<path fill="none" stroke="midnightblue" d="M109.23,-20.64C125.73,-18.29 142.9,-15.85 156.62,-13.9"/>
<polygon fill="midnightblue" stroke="midnightblue" points="108.48,-17.21 99.07,-22.09 109.47,-24.14 108.48,-17.21"/>
</g>
<!-- Node3 -->
<g id="node4" class="node">
<title>Node3</title>
<g id="a_node4"><a xlink:href="classHighResFluxxhtml" target="_top" xlink:title="Child class HighResFlux defines attributes and methods for computing the numerical flux with an high ...">
<polygon fill="white" stroke="black" points="271,-0.5 271,-19.5 349,-19.5 349,-0.5 271,-0.5"/>
<text text-anchor="middle" x="310" y="-7.5" font-family="Helvetica,sans-Serif" font-size="10.00">HighResFlux</text>
</a>
</g>
</g>
<!-- Node2&#45;&gt;Node3 -->
<g id="edge3" class="edge">
<title>Node2&#45;&gt;Node3</title>
<path fill="none" stroke="midnightblue" d="M223.68,-10C238.56,-10 255.63,-10 270.58,-10"/>
<polygon fill="midnightblue" stroke="midnightblue" points="223.3,-6.5 213.3,-10 223.3,-13.5 223.3,-6.5"/>
</g>
</g>
</svg>
