<?xml version="1.0" encoding="UTF-8" standalone="no"?>
<!DOCTYPE svg PUBLIC "-//W3C//DTD SVG 1.1//EN"
 "http://www.w3.org/Graphics/SVG/1.1/DTD/svg11.dtd">
<!-- Generated by graphviz version 2.43.0 (0)
 -->
<!-- Title: main Pages: 1 -->
<svg width="981pt" height="838pt"
 viewBox="0.00 0.00 981.00 838.46" xmlns="http://www.w3.org/2000/svg" xmlns:xlink="http://www.w3.org/1999/xlink">
<g id="graph0" class="graph" transform="scale(1 1) rotate(0) translate(4 834.46)">
<title>main</title>
<polygon fill="white" stroke="transparent" points="-4,4 -4,-834.46 977,-834.46 977,4 -4,4"/>
<!-- Node1 -->
<g id="node1" class="node">
<title>Node1</title>
<g id="a_node1"><a xlink:title=" ">
<polygon fill="#bfbfbf" stroke="black" points="0,-684.5 0,-703.5 41,-703.5 41,-684.5 0,-684.5"/>
<text text-anchor="middle" x="20.5" y="-691.5" font-family="Helvetica,sans-Serif" font-size="10.00">main</text>
</a>
</g>
</g>
<!-- Node2 -->
<g id="node2" class="node">
<title>Node2</title>
<g id="a_node2"><a xlink:href="namespaceswexhtml#aca666e377868955898f5bc54f97d8075" target="_top" xlink:title="Prints an error message and exit the program.">
<polygon fill="white" stroke="black" points="885,-285.5 885,-304.5 973,-304.5 973,-285.5 885,-285.5"/>
<text text-anchor="middle" x="929" y="-292.5" font-family="Helvetica,sans-Serif" font-size="10.00">swe::printError</text>
</a>
</g>
</g>
<!-- Node1&#45;&gt;Node2 -->
<g id="edge1" class="edge">
<title>Node1&#45;&gt;Node2</title>
<path fill="none" stroke="midnightblue" d="M29.5,-703.62C39.46,-714.96 57.56,-733.6 77,-744 178.7,-798.41 213.16,-808 328.5,-808 328.5,-808 328.5,-808 530,-808 672.45,-808 745.03,-874.37 849,-777 917.72,-712.65 926.66,-397.28 927.83,-314.78"/>
<polygon fill="midnightblue" stroke="midnightblue" points="931.33,-314.78 927.94,-304.74 924.33,-314.69 931.33,-314.78"/>
</g>
<!-- Node3 -->
<g id="node3" class="node">
<title>Node3</title>
<g id="a_node3"><a xlink:href="classOutputManagerxhtml#ae0eadbd95bb38b1e48c72426c6bcabc8" target="_top" xlink:title="Prints the solution in csv format.">
<polygon fill="white" stroke="black" points="439.5,-722.5 439.5,-741.5 618.5,-741.5 618.5,-722.5 439.5,-722.5"/>
<text text-anchor="middle" x="529" y="-729.5" font-family="Helvetica,sans-Serif" font-size="10.00">OutputManager::printSolutionCsv</text>
</a>
</g>
</g>
<!-- Node1&#45;&gt;Node3 -->
<g id="edge2" class="edge">
<title>Node1&#45;&gt;Node3</title>
<path fill="none" stroke="midnightblue" d="M41.05,-695.47C104.26,-700.21 306.22,-715.36 429.3,-724.6"/>
<polygon fill="midnightblue" stroke="midnightblue" points="429.26,-728.1 439.49,-725.36 429.78,-721.12 429.26,-728.1"/>
</g>
<!-- Node7 -->
<g id="node7" class="node">
<title>Node7</title>
<g id="a_node7"><a xlink:href="classOutputManagerxhtml#a31a9ca44bdfd56000a6e4e536f19e1db" target="_top" xlink:title="Prints the solution in VTK format.">
<polygon fill="white" stroke="black" points="439,-760.5 439,-779.5 619,-779.5 619,-760.5 439,-760.5"/>
<text text-anchor="middle" x="529" y="-767.5" font-family="Helvetica,sans-Serif" font-size="10.00">OutputManager::printSolutionVTK</text>
</a>
</g>
</g>
<!-- Node1&#45;&gt;Node7 -->
<g id="edge7" class="edge">
<title>Node1&#45;&gt;Node7</title>
<path fill="none" stroke="midnightblue" d="M40.82,-703.55C51.29,-708.33 64.59,-713.76 77,-717 195.57,-747.9 336.41,-760.81 428.77,-766.19"/>
<polygon fill="midnightblue" stroke="midnightblue" points="428.76,-769.7 438.94,-766.77 429.16,-762.71 428.76,-769.7"/>
</g>
<!-- Node8 -->
<g id="node8" class="node">
<title>Node8</title>
<g id="a_node8"><a xlink:href="classSolverxhtml#ac53ded217e12b67e465bc33a3aca9233" target="_top" xlink:title="Runs the solver.">
<polygon fill="white" stroke="black" points="77,-418.5 77,-437.5 220,-437.5 220,-418.5 77,-418.5"/>
<text text-anchor="middle" x="148.5" y="-425.5" font-family="Helvetica,sans-Serif" font-size="10.00">Solver::runGodnuovSolver</text>
</a>
</g>
</g>
<!-- Node1&#45;&gt;Node8 -->
<g id="edge12" class="edge">
<title>Node1&#45;&gt;Node8</title>
<path fill="none" stroke="midnightblue" d="M26.13,-684.22C44.7,-645.03 113.88,-498.97 138.63,-446.73"/>
<polygon fill="midnightblue" stroke="midnightblue" points="141.84,-448.13 142.96,-437.59 135.51,-445.13 141.84,-448.13"/>
</g>
<!-- Node28 -->
<g id="node28" class="node">
<title>Node28</title>
<g id="a_node28"><a xlink:href="classSolverxhtml#a559d2392286136eb030c4811cf0ea7c1" target="_top" xlink:title="Sets the initial condition.">
<polygon fill="white" stroke="black" points="461,-646.5 461,-665.5 597,-665.5 597,-646.5 461,-646.5"/>
<text text-anchor="middle" x="529" y="-653.5" font-family="Helvetica,sans-Serif" font-size="10.00">Solver::setInitialSolution</text>
</a>
</g>
</g>
<!-- Node1&#45;&gt;Node28 -->
<g id="edge57" class="edge">
<title>Node1&#45;&gt;Node28</title>
<path fill="none" stroke="midnightblue" d="M41.05,-692.53C108.09,-687.5 331.15,-670.77 450.72,-661.8"/>
<polygon fill="midnightblue" stroke="midnightblue" points="451.19,-665.27 460.9,-661.03 450.67,-658.29 451.19,-665.27"/>
</g>
<!-- Node29 -->
<g id="node29" class="node">
<title>Node29</title>
<g id="a_node29"><a xlink:href="namespaceswexhtml#a925e4dc3d878572f223d1e6b7c1801c4" target="_top" xlink:title="Creates an empty directory if it does not exist. Otherwise it cleans or keeps its files.">
<polygon fill="white" stroke="black" points="99,-209.5 99,-228.5 198,-228.5 198,-209.5 99,-209.5"/>
<text text-anchor="middle" x="148.5" y="-216.5" font-family="Helvetica,sans-Serif" font-size="10.00">swe::setupFolder</text>
</a>
</g>
</g>
<!-- Node1&#45;&gt;Node29 -->
<g id="edge61" class="edge">
<title>Node1&#45;&gt;Node29</title>
<path fill="none" stroke="midnightblue" d="M22.81,-684.27C27.84,-647.69 47.22,-515.04 77,-409 94.94,-345.12 124.71,-272.25 139.14,-238.3"/>
<polygon fill="midnightblue" stroke="midnightblue" points="142.53,-239.27 143.25,-228.7 136.1,-236.51 142.53,-239.27"/>
</g>
<!-- Node3&#45;&gt;Node2 -->
<g id="edge6" class="edge">
<title>Node3&#45;&gt;Node2</title>
<path fill="none" stroke="midnightblue" d="M618.51,-736.63C701,-738.96 816.08,-736.44 849,-707 908.38,-653.88 923.97,-390.61 927.24,-315.21"/>
<polygon fill="midnightblue" stroke="midnightblue" points="930.76,-314.92 927.67,-304.78 923.76,-314.63 930.76,-314.92"/>
</g>
<!-- Node4 -->
<g id="node4" class="node">
<title>Node4</title>
<g id="a_node4"><a xlink:href="classSolutionxhtml#a4a125cf00e6d055d4e4f07f240bd5f06" target="_top" xlink:title="Returns the value of the conservative variable 1 (h) at nodeID.">
<polygon fill="white" stroke="black" points="686.5,-594.5 686.5,-613.5 817.5,-613.5 817.5,-594.5 686.5,-594.5"/>
<text text-anchor="middle" x="752" y="-601.5" font-family="Helvetica,sans-Serif" font-size="10.00">Solution::conservative1</text>
</a>
</g>
</g>
<!-- Node3&#45;&gt;Node4 -->
<g id="edge3" class="edge">
<title>Node3&#45;&gt;Node4</title>
<path fill="none" stroke="midnightblue" d="M549.57,-722.33C568.69,-712.27 597.91,-695.16 619,-675 639.06,-655.83 631.8,-639.22 655,-624 661.61,-619.67 668.97,-616.24 676.6,-613.55"/>
<polygon fill="midnightblue" stroke="midnightblue" points="677.87,-616.82 686.38,-610.51 675.79,-610.14 677.87,-616.82"/>
</g>
<!-- Node5 -->
<g id="node5" class="node">
<title>Node5</title>
<g id="a_node5"><a xlink:href="classSolutionxhtml#a854dcab81b7d871752c058b007533faa" target="_top" xlink:title="Returns the value of the conservative variable 2 (h*u) at nodeID.">
<polygon fill="white" stroke="black" points="686.5,-678.5 686.5,-697.5 817.5,-697.5 817.5,-678.5 686.5,-678.5"/>
<text text-anchor="middle" x="752" y="-685.5" font-family="Helvetica,sans-Serif" font-size="10.00">Solution::conservative2</text>
</a>
</g>
</g>
<!-- Node3&#45;&gt;Node5 -->
<g id="edge4" class="edge">
<title>Node3&#45;&gt;Node5</title>
<path fill="none" stroke="midnightblue" d="M577.95,-722.45C611.84,-715.71 657.42,-706.63 693.3,-699.49"/>
<polygon fill="midnightblue" stroke="midnightblue" points="694.02,-702.91 703.14,-697.53 692.65,-696.05 694.02,-702.91"/>
</g>
<!-- Node6 -->
<g id="node6" class="node">
<title>Node6</title>
<g id="a_node6"><a xlink:href="classSolutionxhtml#a3b27c41a9fba14b1b4b60933cbcd5e2c" target="_top" xlink:title="Returns the value of the conservative variable 3 (h*v) at nodeID.">
<polygon fill="white" stroke="black" points="686.5,-633.5 686.5,-652.5 817.5,-652.5 817.5,-633.5 686.5,-633.5"/>
<text text-anchor="middle" x="752" y="-640.5" font-family="Helvetica,sans-Serif" font-size="10.00">Solution::conservative3</text>
</a>
</g>
</g>
<!-- Node3&#45;&gt;Node6 -->
<g id="edge5" class="edge">
<title>Node3&#45;&gt;Node6</title>
<path fill="none" stroke="midnightblue" d="M546.49,-722.33C569.95,-708.88 614.6,-684.47 655,-669 668.89,-663.68 684.3,-659 698.63,-655.13"/>
<polygon fill="midnightblue" stroke="midnightblue" points="699.57,-658.5 708.35,-652.58 697.79,-651.73 699.57,-658.5"/>
</g>
<!-- Node7&#45;&gt;Node2 -->
<g id="edge11" class="edge">
<title>Node7&#45;&gt;Node2</title>
<path fill="none" stroke="midnightblue" d="M571.23,-779.55C638.78,-792.52 773.09,-806.7 849,-736 911.67,-677.64 924.98,-393.4 927.47,-315.04"/>
<polygon fill="midnightblue" stroke="midnightblue" points="930.98,-314.76 927.78,-304.66 923.99,-314.55 930.98,-314.76"/>
</g>
<!-- Node7&#45;&gt;Node4 -->
<g id="edge8" class="edge">
<title>Node7&#45;&gt;Node4</title>
<path fill="none" stroke="midnightblue" d="M605.44,-760.42C610.37,-757.88 614.96,-754.78 619,-751 661.83,-710.9 612.07,-663.99 655,-624 661.27,-618.16 668.78,-613.85 676.8,-610.68"/>
<polygon fill="midnightblue" stroke="midnightblue" points="678.04,-613.96 686.42,-607.47 675.82,-607.32 678.04,-613.96"/>
</g>
<!-- Node7&#45;&gt;Node5 -->
<g id="edge9" class="edge">
<title>Node7&#45;&gt;Node5</title>
<path fill="none" stroke="midnightblue" d="M584.68,-760.45C596.15,-757.85 608.08,-754.71 619,-751 657.33,-737.97 699.11,-716.73 725.18,-702.57"/>
<polygon fill="midnightblue" stroke="midnightblue" points="726.96,-705.58 734.04,-697.7 723.59,-699.45 726.96,-705.58"/>
</g>
<!-- Node7&#45;&gt;Node6 -->
<g id="edge10" class="edge">
<title>Node7&#45;&gt;Node6</title>
<path fill="none" stroke="midnightblue" d="M603.57,-760.38C609.11,-757.88 614.35,-754.79 619,-751 649.86,-725.86 624.84,-694.97 655,-669 661.4,-663.49 668.85,-659.14 676.72,-655.71"/>
<polygon fill="midnightblue" stroke="midnightblue" points="678.05,-658.94 686.12,-652.08 675.53,-652.41 678.05,-658.94"/>
</g>
<!-- Node8&#45;&gt;Node3 -->
<g id="edge25" class="edge">
<title>Node8&#45;&gt;Node3</title>
<path fill="none" stroke="midnightblue" d="M153.42,-437.68C165.18,-465.77 202.7,-548.47 256,-599 310.14,-650.32 340.34,-639.52 403,-680 419.8,-690.85 421.07,-698.14 439,-707 449.24,-712.06 460.66,-716.23 471.82,-719.63"/>
<polygon fill="midnightblue" stroke="midnightblue" points="470.94,-723.02 481.52,-722.41 472.88,-716.29 470.94,-723.02"/>
</g>
<!-- Node8&#45;&gt;Node7 -->
<g id="edge26" class="edge">
<title>Node8&#45;&gt;Node7</title>
<path fill="none" stroke="midnightblue" d="M151.77,-437.81C160.07,-471.69 191.65,-585.38 256,-653 312.73,-712.61 404.88,-743.42 465.96,-758.14"/>
<polygon fill="midnightblue" stroke="midnightblue" points="465.33,-761.59 475.86,-760.45 466.92,-754.77 465.33,-761.59"/>
</g>
<!-- Node9 -->
<g id="node9" class="node">
<title>Node9</title>
<g id="a_node9"><a xlink:href="classSolverxhtml#a0d319ea1751d1778f1fd7b5db6cc03d3" target="_top" xlink:title="Adds the numerical flux at an interface (edge) to the residual on a node.">
<polygon fill="white" stroke="black" points="690,-342.5 690,-361.5 814,-361.5 814,-342.5 690,-342.5"/>
<text text-anchor="middle" x="752" y="-349.5" font-family="Helvetica,sans-Serif" font-size="10.00">Solver::addToResidual</text>
</a>
</g>
</g>
<!-- Node8&#45;&gt;Node9 -->
<g id="edge13" class="edge">
<title>Node8&#45;&gt;Node9</title>
<path fill="none" stroke="midnightblue" d="M201.38,-418.48C259.19,-408.13 355.53,-391.64 439,-381 521.3,-370.51 616.27,-362.22 679.61,-357.24"/>
<polygon fill="midnightblue" stroke="midnightblue" points="680.19,-360.71 689.88,-356.44 679.64,-353.73 680.19,-360.71"/>
</g>
<!-- Node10 -->
<g id="node10" class="node">
<title>Node10</title>
<g id="a_node10"><a xlink:href="classGridxhtml#a4e37698e22ce482fa5ab2527dc78f0a9" target="_top" xlink:title="Gets the adjacent nodes to an interface (edge)">
<polygon fill="white" stroke="black" points="680.5,-103 680.5,-133 823.5,-133 823.5,-103 680.5,-103"/>
<text text-anchor="start" x="688.5" y="-121" font-family="Helvetica,sans-Serif" font-size="10.00">Grid::getAdjacentNodesTo</text>
<text text-anchor="middle" x="752" y="-110" font-family="Helvetica,sans-Serif" font-size="10.00">Interface</text>
</a>
</g>
</g>
<!-- Node8&#45;&gt;Node10 -->
<g id="edge14" class="edge">
<title>Node8&#45;&gt;Node10</title>
<path fill="none" stroke="midnightblue" d="M152.55,-418.25C165.67,-376.93 218.25,-216.69 256,-181 367.41,-75.67 561.35,-85.87 670.46,-102.19"/>
<polygon fill="midnightblue" stroke="midnightblue" points="670.01,-105.67 680.43,-103.74 671.08,-98.75 670.01,-105.67"/>
</g>
<!-- Node11 -->
<g id="node11" class="node">
<title>Node11</title>
<g id="a_node11"><a xlink:href="classGridxhtml#aa3c3eb4bc0025097011a570976b5ef74" target="_top" xlink:title="Returns the measure of an edge of the dual grid.">
<polygon fill="white" stroke="black" points="256,-190.5 256,-209.5 403,-209.5 403,-190.5 256,-190.5"/>
<text text-anchor="middle" x="329.5" y="-197.5" font-family="Helvetica,sans-Serif" font-size="10.00">Grid::getDualEdgeMeasure</text>
</a>
</g>
</g>
<!-- Node8&#45;&gt;Node11 -->
<g id="edge16" class="edge">
<title>Node8&#45;&gt;Node11</title>
<path fill="none" stroke="midnightblue" d="M156.96,-418.49C184.26,-383.73 278.92,-263.16 314.68,-217.61"/>
<polygon fill="midnightblue" stroke="midnightblue" points="317.58,-219.57 321,-209.55 312.08,-215.25 317.58,-219.57"/>
</g>
<!-- Node14 -->
<g id="node14" class="node">
<title>Node14</title>
<g id="a_node14"><a xlink:href="classSolverxhtml#af032125624713c82956bd0806338d2b7" target="_top" xlink:title="Initializes the residual vector.">
<polygon fill="white" stroke="black" points="261,-76.5 261,-95.5 398,-95.5 398,-76.5 261,-76.5"/>
<text text-anchor="middle" x="329.5" y="-83.5" font-family="Helvetica,sans-Serif" font-size="10.00">Solver::initializeResidual</text>
</a>
</g>
</g>
<!-- Node8&#45;&gt;Node14 -->
<g id="edge24" class="edge">
<title>Node8&#45;&gt;Node14</title>
<path fill="none" stroke="midnightblue" d="M153.45,-418.21C164.65,-390.31 197.24,-307.92 220,-238 238.29,-181.81 215.17,-152.73 256,-110 259.68,-106.14 264,-102.91 268.66,-100.19"/>
<polygon fill="midnightblue" stroke="midnightblue" points="270.56,-103.16 277.96,-95.58 267.45,-96.89 270.56,-103.16"/>
</g>
<!-- Node15 -->
<g id="node15" class="node">
<title>Node15</title>
<g id="a_node15"><a xlink:href="classSolverxhtml#a58df618a20580845ecf961fabb339377" target="_top" xlink:title="Sets boundary conditions on boundaryID.">
<polygon fill="white" stroke="black" points="445.5,-418.5 445.5,-437.5 612.5,-437.5 612.5,-418.5 445.5,-418.5"/>
<text text-anchor="middle" x="529" y="-425.5" font-family="Helvetica,sans-Serif" font-size="10.00">Solver::setBoundaryConditions</text>
</a>
</g>
</g>
<!-- Node8&#45;&gt;Node15 -->
<g id="edge27" class="edge">
<title>Node8&#45;&gt;Node15</title>
<path fill="none" stroke="midnightblue" d="M220.25,-428C281,-428 369.01,-428 435.37,-428"/>
<polygon fill="midnightblue" stroke="midnightblue" points="435.41,-431.5 445.41,-428 435.41,-424.5 435.41,-431.5"/>
</g>
<!-- Node21 -->
<g id="node21" class="node">
<title>Node21</title>
<g id="a_node21"><a xlink:href="classSolverxhtml#a1b453fe47f2e674408f5d23d9b21c68e" target="_top" xlink:title="Sets the time step at every iteration with a fixed CFL number.">
<polygon fill="white" stroke="black" points="272.5,-456.5 272.5,-475.5 386.5,-475.5 386.5,-456.5 272.5,-456.5"/>
<text text-anchor="middle" x="329.5" y="-463.5" font-family="Helvetica,sans-Serif" font-size="10.00">Solver::setTimeStep</text>
</a>
</g>
</g>
<!-- Node8&#45;&gt;Node21 -->
<g id="edge38" class="edge">
<title>Node8&#45;&gt;Node21</title>
<path fill="none" stroke="midnightblue" d="M194.67,-437.59C218.72,-442.69 248.47,-449.01 273.82,-454.39"/>
<polygon fill="midnightblue" stroke="midnightblue" points="273.15,-457.83 283.66,-456.48 274.6,-450.98 273.15,-457.83"/>
</g>
<!-- Node25 -->
<g id="node25" class="node">
<title>Node25</title>
<g id="a_node25"><a xlink:href="classSolverxhtml#af0e5e528ceeda297f8adce888ebe7630" target="_top" xlink:title="Subtracts the numerical flux at an interface (edge) to the residual on a node.">
<polygon fill="white" stroke="black" points="256.5,-38.5 256.5,-57.5 402.5,-57.5 402.5,-38.5 256.5,-38.5"/>
<text text-anchor="middle" x="329.5" y="-45.5" font-family="Helvetica,sans-Serif" font-size="10.00">Solver::subtractToResidual</text>
</a>
</g>
</g>
<!-- Node8&#45;&gt;Node25 -->
<g id="edge49" class="edge">
<title>Node8&#45;&gt;Node25</title>
<path fill="none" stroke="midnightblue" d="M153.69,-418.28C165.51,-390.58 199.58,-308.64 220,-238 241.57,-163.39 202.44,-123.24 256,-67 257.26,-65.67 258.61,-64.43 260.02,-63.28"/>
<polygon fill="midnightblue" stroke="midnightblue" points="262.34,-65.94 268.77,-57.52 258.49,-60.09 262.34,-65.94"/>
</g>
<!-- Node26 -->
<g id="node26" class="node">
<title>Node26</title>
<g id="a_node26"><a xlink:href="classSolverxhtml#afb136eafb56dc14c53b4cbf294e6c8f6" target="_top" xlink:title="Updates the solution with the new computed values.">
<polygon fill="white" stroke="black" points="266,-570.5 266,-589.5 393,-589.5 393,-570.5 266,-570.5"/>
<text text-anchor="middle" x="329.5" y="-577.5" font-family="Helvetica,sans-Serif" font-size="10.00">Solver::updateSolution</text>
</a>
</g>
</g>
<!-- Node8&#45;&gt;Node26 -->
<g id="edge50" class="edge">
<title>Node8&#45;&gt;Node26</title>
<path fill="none" stroke="midnightblue" d="M160.7,-437.51C190.58,-462.89 272.48,-532.43 309.68,-564.02"/>
<polygon fill="midnightblue" stroke="midnightblue" points="307.42,-566.69 317.31,-570.5 311.95,-561.35 307.42,-566.69"/>
</g>
<!-- Node10&#45;&gt;Node2 -->
<g id="edge15" class="edge">
<title>Node10&#45;&gt;Node2</title>
<path fill="none" stroke="midnightblue" d="M823.92,-133.13C832.94,-137.01 841.59,-141.88 849,-148 890.57,-182.33 913.44,-244.41 922.84,-275.77"/>
<polygon fill="midnightblue" stroke="midnightblue" points="919.5,-276.82 925.61,-285.48 926.23,-274.9 919.5,-276.82"/>
</g>
<!-- Node11&#45;&gt;Node2 -->
<g id="edge23" class="edge">
<title>Node11&#45;&gt;Node2</title>
<path fill="none" stroke="midnightblue" d="M403.28,-198.86C505.39,-199.28 695.82,-207.53 849,-257 867.53,-262.99 887.28,-272.48 902.39,-280.48"/>
<polygon fill="midnightblue" stroke="midnightblue" points="901.14,-283.79 911.6,-285.48 904.47,-277.63 901.14,-283.79"/>
</g>
<!-- Node11&#45;&gt;Node10 -->
<g id="edge17" class="edge">
<title>Node11&#45;&gt;Node10</title>
<path fill="none" stroke="midnightblue" d="M344.45,-190.28C364.38,-176.98 402.62,-153.53 439,-143 515.42,-120.87 606.49,-115.88 670.45,-115.66"/>
<polygon fill="midnightblue" stroke="midnightblue" points="670.47,-119.16 680.47,-115.66 670.47,-112.16 670.47,-119.16"/>
</g>
<!-- Node12 -->
<g id="node12" class="node">
<title>Node12</title>
<g id="a_node12"><a xlink:href="classGridxhtml#a91328f210cc0eeee8177d075d0efa4eb" target="_top" xlink:title="Gets measures of a dual grid element (length of both edges)">
<polygon fill="white" stroke="black" points="667.5,-266.5 667.5,-285.5 836.5,-285.5 836.5,-266.5 667.5,-266.5"/>
<text text-anchor="middle" x="752" y="-273.5" font-family="Helvetica,sans-Serif" font-size="10.00">Grid::getDualElementMeasures</text>
</a>
</g>
</g>
<!-- Node11&#45;&gt;Node12 -->
<g id="edge18" class="edge">
<title>Node11&#45;&gt;Node12</title>
<path fill="none" stroke="midnightblue" d="M383.33,-209.55C460.94,-223.57 605.5,-249.7 688.35,-264.68"/>
<polygon fill="midnightblue" stroke="midnightblue" points="687.92,-268.16 698.39,-266.49 689.17,-261.27 687.92,-268.16"/>
</g>
<!-- Node13 -->
<g id="node13" class="node">
<title>Node13</title>
<g id="a_node13"><a xlink:href="classGridxhtml#a267c212cd957e88a027c520dae9c1a4c" target="_top" xlink:title="Gets the normal vector to an edge of the dual grid.">
<polygon fill="white" stroke="black" points="443,-152.5 443,-171.5 615,-171.5 615,-152.5 443,-152.5"/>
<text text-anchor="middle" x="529" y="-159.5" font-family="Helvetica,sans-Serif" font-size="10.00">Grid::getNormalToDualGridEdge</text>
</a>
</g>
</g>
<!-- Node11&#45;&gt;Node13 -->
<g id="edge20" class="edge">
<title>Node11&#45;&gt;Node13</title>
<path fill="none" stroke="midnightblue" d="M380.08,-190.46C406.85,-185.31 440.08,-178.92 468.26,-173.49"/>
<polygon fill="midnightblue" stroke="midnightblue" points="469.24,-176.87 478.4,-171.54 467.92,-170 469.24,-176.87"/>
</g>
<!-- Node12&#45;&gt;Node2 -->
<g id="edge19" class="edge">
<title>Node12&#45;&gt;Node2</title>
<path fill="none" stroke="midnightblue" d="M836.66,-285.08C849.57,-286.48 862.6,-287.9 874.6,-289.2"/>
<polygon fill="midnightblue" stroke="midnightblue" points="874.55,-292.72 884.87,-290.32 875.3,-285.76 874.55,-292.72"/>
</g>
<!-- Node13&#45;&gt;Node2 -->
<g id="edge22" class="edge">
<title>Node13&#45;&gt;Node2</title>
<path fill="none" stroke="midnightblue" d="M587.99,-152.47C655.28,-144.4 767.42,-140.43 849,-186 885.05,-206.13 908.96,-250.39 920.33,-275.88"/>
<polygon fill="midnightblue" stroke="midnightblue" points="917.17,-277.41 924.31,-285.24 923.61,-274.67 917.17,-277.41"/>
</g>
<!-- Node13&#45;&gt;Node10 -->
<g id="edge21" class="edge">
<title>Node13&#45;&gt;Node10</title>
<path fill="none" stroke="midnightblue" d="M577.95,-152.45C604.99,-147.07 639.47,-140.21 670.53,-134.02"/>
<polygon fill="midnightblue" stroke="midnightblue" points="671.35,-137.43 680.48,-132.04 669.99,-130.56 671.35,-137.43"/>
</g>
<!-- Node15&#45;&gt;Node4 -->
<g id="edge29" class="edge">
<title>Node15&#45;&gt;Node4</title>
<path fill="none" stroke="midnightblue" d="M605.95,-437.71C610.7,-440.23 615.12,-443.29 619,-447 664.81,-490.8 608.86,-541.54 655,-585 661.22,-590.86 668.71,-595.15 676.72,-598.26"/>
<polygon fill="midnightblue" stroke="midnightblue" points="675.73,-601.62 686.32,-601.4 677.9,-594.97 675.73,-601.62"/>
</g>
<!-- Node15&#45;&gt;Node5 -->
<g id="edge30" class="edge">
<title>Node15&#45;&gt;Node5</title>
<path fill="none" stroke="midnightblue" d="M606.74,-437.56C611.24,-440.12 615.4,-443.23 619,-447 685.97,-517.01 589.95,-590.2 655,-662 661.06,-668.69 668.66,-673.74 676.91,-677.53"/>
<polygon fill="midnightblue" stroke="midnightblue" points="675.86,-680.88 686.45,-681.29 678.43,-674.37 675.86,-680.88"/>
</g>
<!-- Node15&#45;&gt;Node6 -->
<g id="edge31" class="edge">
<title>Node15&#45;&gt;Node6</title>
<path fill="none" stroke="midnightblue" d="M606.59,-437.71C611.13,-440.23 615.33,-443.3 619,-447 675.21,-503.7 598.65,-566.44 655,-623 661.13,-629.15 668.63,-633.65 676.72,-636.9"/>
<polygon fill="midnightblue" stroke="midnightblue" points="675.83,-640.3 686.42,-640.18 678.07,-633.66 675.83,-640.3"/>
</g>
<!-- Node15&#45;&gt;Node9 -->
<g id="edge28" class="edge">
<title>Node15&#45;&gt;Node9</title>
<path fill="none" stroke="midnightblue" d="M547.69,-418.34C571.45,-405.73 615.27,-383.8 655,-371 663.55,-368.25 672.66,-365.82 681.74,-363.7"/>
<polygon fill="midnightblue" stroke="midnightblue" points="682.55,-367.11 691.56,-361.52 681.03,-360.27 682.55,-367.11"/>
</g>
<!-- Node15&#45;&gt;Node12 -->
<g id="edge33" class="edge">
<title>Node15&#45;&gt;Node12</title>
<path fill="none" stroke="midnightblue" d="M541.73,-418.36C563.49,-400.65 611.82,-362.09 655,-333 677.93,-317.55 705.12,-301.62 724.69,-290.54"/>
<polygon fill="midnightblue" stroke="midnightblue" points="726.64,-293.46 733.64,-285.52 723.21,-287.36 726.64,-293.46"/>
</g>
<!-- Node16 -->
<g id="node16" class="node">
<title>Node16</title>
<g id="a_node16"><a xlink:href="namespaceswexhtml#a548f8e0cd38a5e3c7ac9f58ff37fcd2b" target="_top" xlink:title="Returns true whether string strTarget is found in vector vect.">
<polygon fill="white" stroke="black" points="682,-506.5 682,-525.5 822,-525.5 822,-506.5 682,-506.5"/>
<text text-anchor="middle" x="752" y="-513.5" font-family="Helvetica,sans-Serif" font-size="10.00">swe::existsInVectorString</text>
</a>
</g>
</g>
<!-- Node15&#45;&gt;Node16 -->
<g id="edge32" class="edge">
<title>Node15&#45;&gt;Node16</title>
<path fill="none" stroke="midnightblue" d="M599.59,-437.52C606.44,-440 613.05,-443.11 619,-447 641.93,-461.97 631.96,-482.2 655,-497 660.35,-500.44 666.18,-503.27 672.25,-505.61"/>
<polygon fill="midnightblue" stroke="midnightblue" points="671.33,-509 681.93,-508.9 673.58,-502.37 671.33,-509"/>
</g>
<!-- Node17 -->
<g id="node17" class="node">
<title>Node17</title>
<g id="a_node17"><a xlink:href="classModelEquationsxhtml#a63dc8124ff79ec29985885f605c4d9c2" target="_top" xlink:title="Sets the eigenvalues projected on the direction defined by the normal.">
<polygon fill="white" stroke="black" points="655,-380.5 655,-399.5 849,-399.5 849,-380.5 655,-380.5"/>
<text text-anchor="middle" x="752" y="-387.5" font-family="Helvetica,sans-Serif" font-size="10.00">ModelEquations::setProjEigenvalues</text>
</a>
</g>
</g>
<!-- Node15&#45;&gt;Node17 -->
<g id="edge34" class="edge">
<title>Node15&#45;&gt;Node17</title>
<path fill="none" stroke="midnightblue" d="M585.48,-418.46C615.83,-413.24 653.6,-406.75 685.4,-401.28"/>
<polygon fill="midnightblue" stroke="midnightblue" points="686.23,-404.69 695.49,-399.54 685.05,-397.79 686.23,-404.69"/>
</g>
<!-- Node18 -->
<g id="node18" class="node">
<title>Node18</title>
<g id="a_node18"><a xlink:href="classModelEquationsxhtml#af36c6cb949a2afa74888d79aa3c3dcc9" target="_top" xlink:title="Sets the flux vector projected on the direction defined by the normal.">
<polygon fill="white" stroke="black" points="674.5,-468.5 674.5,-487.5 829.5,-487.5 829.5,-468.5 674.5,-468.5"/>
<text text-anchor="middle" x="752" y="-475.5" font-family="Helvetica,sans-Serif" font-size="10.00">ModelEquations::setProjFlux</text>
</a>
</g>
</g>
<!-- Node15&#45;&gt;Node18 -->
<g id="edge35" class="edge">
<title>Node15&#45;&gt;Node18</title>
<path fill="none" stroke="midnightblue" d="M579.67,-437.58C592.54,-440.34 606.35,-443.55 619,-447 635.27,-451.43 638.7,-454.69 655,-459 665.14,-461.68 675.98,-464.18 686.59,-466.42"/>
<polygon fill="midnightblue" stroke="midnightblue" points="686.15,-469.9 696.65,-468.49 687.56,-463.05 686.15,-469.9"/>
</g>
<!-- Node19 -->
<g id="node19" class="node">
<title>Node19</title>
<g id="a_node19"><a xlink:href="classModelEquationsxhtml#ab71e479ad381fcf52769b011e1b7a76f" target="_top" xlink:title="Sets the matrix of left eigenvectors projected on the direction defined by the normal.">
<polygon fill="white" stroke="black" points="675.5,-419 675.5,-449 828.5,-449 828.5,-419 675.5,-419"/>
<text text-anchor="start" x="683.5" y="-437" font-family="Helvetica,sans-Serif" font-size="10.00">ModelEquations::setProjLeft</text>
<text text-anchor="middle" x="752" y="-426" font-family="Helvetica,sans-Serif" font-size="10.00">Matrix</text>
</a>
</g>
</g>
<!-- Node15&#45;&gt;Node19 -->
<g id="edge36" class="edge">
<title>Node15&#45;&gt;Node19</title>
<path fill="none" stroke="midnightblue" d="M612.61,-430.24C629.82,-430.71 648.01,-431.2 665.33,-431.67"/>
<polygon fill="midnightblue" stroke="midnightblue" points="665.33,-435.18 675.42,-431.95 665.52,-428.18 665.33,-435.18"/>
</g>
<!-- Node20 -->
<g id="node20" class="node">
<title>Node20</title>
<g id="a_node20"><a xlink:href="classModelEquationsxhtml#afa722d5fa5faeb0e1baaba5b1d5fd9b9" target="_top" xlink:title="Sets the matrix of right eigenvectors projected on the direction defined by the normal.">
<polygon fill="white" stroke="black" points="672,-545 672,-575 832,-575 832,-545 672,-545"/>
<text text-anchor="start" x="680" y="-563" font-family="Helvetica,sans-Serif" font-size="10.00">ModelEquations::setProjRight</text>
<text text-anchor="middle" x="752" y="-552" font-family="Helvetica,sans-Serif" font-size="10.00">Matrix</text>
</a>
</g>
</g>
<!-- Node15&#45;&gt;Node20 -->
<g id="edge37" class="edge">
<title>Node15&#45;&gt;Node20</title>
<path fill="none" stroke="midnightblue" d="M604.11,-437.69C609.47,-440.19 614.52,-443.25 619,-447 651.42,-474.11 623.19,-507.18 655,-535 657.53,-537.21 660.23,-539.23 663.06,-541.07"/>
<polygon fill="midnightblue" stroke="midnightblue" points="661.48,-544.2 671.9,-546.1 664.94,-538.11 661.48,-544.2"/>
</g>
<!-- Node21&#45;&gt;Node12 -->
<g id="edge39" class="edge">
<title>Node21&#45;&gt;Node12</title>
<path fill="none" stroke="midnightblue" d="M333.2,-456.37C342.22,-426.16 374.5,-333.06 439,-295 517.86,-248.47 628.29,-255.02 694.43,-264.89"/>
<polygon fill="midnightblue" stroke="midnightblue" points="694.23,-268.41 704.65,-266.5 695.32,-261.49 694.23,-268.41"/>
</g>
<!-- Node21&#45;&gt;Node17 -->
<g id="edge48" class="edge">
<title>Node21&#45;&gt;Node17</title>
<path fill="none" stroke="midnightblue" d="M344.09,-456.41C363.89,-443.03 402.32,-419.24 439,-409 505.72,-390.37 583.47,-385.6 644.67,-385.49"/>
<polygon fill="midnightblue" stroke="midnightblue" points="644.72,-388.99 654.73,-385.52 644.74,-381.99 644.72,-388.99"/>
</g>
<!-- Node22 -->
<g id="node22" class="node">
<title>Node22</title>
<g id="a_node22"><a xlink:href="classSolutionxhtml#a93ca33bcde0dd438ff4ab40b3cff4b80" target="_top" xlink:title="Returns the value of the primitive variable 1 (h) at nodeID.">
<polygon fill="white" stroke="black" points="472.5,-456.5 472.5,-475.5 585.5,-475.5 585.5,-456.5 472.5,-456.5"/>
<text text-anchor="middle" x="529" y="-463.5" font-family="Helvetica,sans-Serif" font-size="10.00">Solution::primitive1</text>
</a>
</g>
</g>
<!-- Node21&#45;&gt;Node22 -->
<g id="edge40" class="edge">
<title>Node21&#45;&gt;Node22</title>
<path fill="none" stroke="midnightblue" d="M386.57,-466C410.12,-466 437.68,-466 462.18,-466"/>
<polygon fill="midnightblue" stroke="midnightblue" points="462.48,-469.5 472.48,-466 462.48,-462.5 462.48,-469.5"/>
</g>
<!-- Node23 -->
<g id="node23" class="node">
<title>Node23</title>
<g id="a_node23"><a xlink:href="classSolutionxhtml#ad6a4954517a6f464d9a5f7b366c26abc" target="_top" xlink:title="Returns the value of the primitive variable 2 (u) at nodeID.">
<polygon fill="white" stroke="black" points="472.5,-532.5 472.5,-551.5 585.5,-551.5 585.5,-532.5 472.5,-532.5"/>
<text text-anchor="middle" x="529" y="-539.5" font-family="Helvetica,sans-Serif" font-size="10.00">Solution::primitive2</text>
</a>
</g>
</g>
<!-- Node21&#45;&gt;Node23 -->
<g id="edge42" class="edge">
<title>Node21&#45;&gt;Node23</title>
<path fill="none" stroke="midnightblue" d="M345.7,-475.7C366.14,-488.35 403.98,-510.34 439,-523 446.5,-525.71 454.5,-528.09 462.52,-530.17"/>
<polygon fill="midnightblue" stroke="midnightblue" points="461.72,-533.58 472.27,-532.55 463.38,-526.78 461.72,-533.58"/>
</g>
<!-- Node24 -->
<g id="node24" class="node">
<title>Node24</title>
<g id="a_node24"><a xlink:href="classSolutionxhtml#ae1679ee032038dd0d29e31002d426c9e" target="_top" xlink:title="Returns the value of the primitive variable 3 (v) at nodeID.">
<polygon fill="white" stroke="black" points="472.5,-494.5 472.5,-513.5 585.5,-513.5 585.5,-494.5 472.5,-494.5"/>
<text text-anchor="middle" x="529" y="-501.5" font-family="Helvetica,sans-Serif" font-size="10.00">Solution::primitive3</text>
</a>
</g>
</g>
<!-- Node21&#45;&gt;Node24 -->
<g id="edge45" class="edge">
<title>Node21&#45;&gt;Node24</title>
<path fill="none" stroke="midnightblue" d="M380.08,-475.54C406.85,-480.69 440.08,-487.08 468.26,-492.51"/>
<polygon fill="midnightblue" stroke="midnightblue" points="467.92,-496 478.4,-494.46 469.24,-489.13 467.92,-496"/>
</g>
<!-- Node22&#45;&gt;Node4 -->
<g id="edge41" class="edge">
<title>Node22&#45;&gt;Node4</title>
<path fill="none" stroke="midnightblue" d="M585.78,-469.03C597.83,-471.96 609.72,-476.89 619,-485 654.58,-516.07 619.19,-554.2 655,-585 661.32,-590.43 668.74,-594.48 676.61,-597.48"/>
<polygon fill="midnightblue" stroke="midnightblue" points="675.8,-600.9 686.39,-600.63 677.95,-594.23 675.8,-600.9"/>
</g>
<!-- Node23&#45;&gt;Node4 -->
<g id="edge43" class="edge">
<title>Node23&#45;&gt;Node4</title>
<path fill="none" stroke="midnightblue" d="M573.18,-551.59C587.94,-555.4 604.4,-560.26 619,-566 635.84,-572.62 637.95,-578.96 655,-585 662.77,-587.75 671.04,-590.14 679.35,-592.21"/>
<polygon fill="midnightblue" stroke="midnightblue" points="678.55,-595.62 689.09,-594.5 680.15,-588.81 678.55,-595.62"/>
</g>
<!-- Node23&#45;&gt;Node5 -->
<g id="edge44" class="edge">
<title>Node23&#45;&gt;Node5</title>
<path fill="none" stroke="midnightblue" d="M539.01,-551.82C562.9,-577.67 627.9,-646.67 655,-662 664.88,-667.59 676.02,-672.02 687.11,-675.52"/>
<polygon fill="midnightblue" stroke="midnightblue" points="686.24,-678.92 696.82,-678.37 688.21,-672.2 686.24,-678.92"/>
</g>
<!-- Node24&#45;&gt;Node4 -->
<g id="edge46" class="edge">
<title>Node24&#45;&gt;Node4</title>
<path fill="none" stroke="midnightblue" d="M585.71,-508.51C597.49,-511.41 609.28,-515.95 619,-523 644.79,-541.71 629.07,-566.48 655,-585 661.59,-589.7 669.05,-593.31 676.82,-596.07"/>
<polygon fill="midnightblue" stroke="midnightblue" points="675.85,-599.44 686.43,-599.04 677.91,-592.75 675.85,-599.44"/>
</g>
<!-- Node24&#45;&gt;Node6 -->
<g id="edge47" class="edge">
<title>Node24&#45;&gt;Node6</title>
<path fill="none" stroke="midnightblue" d="M585.78,-507.03C597.83,-509.96 609.72,-514.89 619,-523 654.58,-554.07 619.34,-592.02 655,-623 661.37,-628.54 668.88,-632.68 676.84,-635.76"/>
<polygon fill="midnightblue" stroke="midnightblue" points="675.76,-639.09 686.36,-638.91 677.96,-632.44 675.76,-639.09"/>
</g>
<!-- Node26&#45;&gt;Node4 -->
<g id="edge51" class="edge">
<title>Node26&#45;&gt;Node4</title>
<path fill="none" stroke="midnightblue" d="M393.45,-583.59C469.04,-587.91 595.65,-595.13 676.16,-599.73"/>
<polygon fill="midnightblue" stroke="midnightblue" points="676.05,-603.23 686.23,-600.3 676.45,-596.24 676.05,-603.23"/>
</g>
<!-- Node26&#45;&gt;Node5 -->
<g id="edge52" class="edge">
<title>Node26&#45;&gt;Node5</title>
<path fill="none" stroke="midnightblue" d="M377.43,-589.58C386.62,-593.02 395.66,-597.69 403,-604 429.82,-627.08 409.24,-655.86 439,-675 520.15,-727.2 639.27,-713.1 704.34,-699.66"/>
<polygon fill="midnightblue" stroke="midnightblue" points="705.26,-703.04 714.3,-697.52 703.79,-696.2 705.26,-703.04"/>
</g>
<!-- Node26&#45;&gt;Node6 -->
<g id="edge53" class="edge">
<title>Node26&#45;&gt;Node6</title>
<path fill="none" stroke="midnightblue" d="M369.5,-589.55C390.08,-594.36 415.81,-599.99 439,-604 519.51,-617.9 612.52,-628.88 675.9,-635.6"/>
<polygon fill="midnightblue" stroke="midnightblue" points="675.89,-639.12 686.2,-636.68 676.63,-632.16 675.89,-639.12"/>
</g>
<!-- Node27 -->
<g id="node27" class="node">
<title>Node27</title>
<g id="a_node27"><a xlink:href="classGridxhtml#a88bbc32e4b2ac70838e95874ea88d245" target="_top" xlink:title="Returns the area of a dual element.">
<polygon fill="white" stroke="black" points="457,-304.5 457,-323.5 601,-323.5 601,-304.5 457,-304.5"/>
<text text-anchor="middle" x="529" y="-311.5" font-family="Helvetica,sans-Serif" font-size="10.00">Grid::getDualElementArea</text>
</a>
</g>
</g>
<!-- Node26&#45;&gt;Node27 -->
<g id="edge54" class="edge">
<title>Node26&#45;&gt;Node27</title>
<path fill="none" stroke="midnightblue" d="M339.06,-570.24C353.43,-553.55 382.82,-518.13 403,-485 422.44,-453.08 417.97,-439.9 439,-409 459.7,-378.59 490.05,-348.45 509.41,-330.53"/>
<polygon fill="midnightblue" stroke="midnightblue" points="511.95,-332.95 516.98,-323.63 507.23,-327.78 511.95,-332.95"/>
</g>
<!-- Node27&#45;&gt;Node2 -->
<g id="edge56" class="edge">
<title>Node27&#45;&gt;Node2</title>
<path fill="none" stroke="midnightblue" d="M601.15,-310.6C679.69,-306.85 804.28,-300.91 874.79,-297.54"/>
<polygon fill="midnightblue" stroke="midnightblue" points="874.96,-301.04 884.78,-297.06 874.63,-294.04 874.96,-301.04"/>
</g>
<!-- Node27&#45;&gt;Node12 -->
<g id="edge55" class="edge">
<title>Node27&#45;&gt;Node12</title>
<path fill="none" stroke="midnightblue" d="M585.48,-304.46C615.83,-299.24 653.6,-292.75 685.4,-287.28"/>
<polygon fill="midnightblue" stroke="midnightblue" points="686.23,-290.69 695.49,-285.54 685.05,-283.79 686.23,-290.69"/>
</g>
<!-- Node28&#45;&gt;Node4 -->
<g id="edge58" class="edge">
<title>Node28&#45;&gt;Node4</title>
<path fill="none" stroke="midnightblue" d="M565.46,-646.47C590.42,-639.87 624.67,-631.04 655,-624 667.3,-621.15 680.53,-618.27 693.12,-615.62"/>
<polygon fill="midnightblue" stroke="midnightblue" points="693.98,-619.01 703.05,-613.55 692.55,-612.16 693.98,-619.01"/>
</g>
<!-- Node28&#45;&gt;Node5 -->
<g id="edge59" class="edge">
<title>Node28&#45;&gt;Node5</title>
<path fill="none" stroke="midnightblue" d="M595.71,-665.51C620.98,-669.17 650.02,-673.38 676.09,-677.15"/>
<polygon fill="midnightblue" stroke="midnightblue" points="675.91,-680.66 686.31,-678.63 676.91,-673.74 675.91,-680.66"/>
</g>
<!-- Node28&#45;&gt;Node6 -->
<g id="edge60" class="edge">
<title>Node28&#45;&gt;Node6</title>
<path fill="none" stroke="midnightblue" d="M597.21,-652.05C622.21,-650.58 650.72,-648.9 676.35,-647.39"/>
<polygon fill="midnightblue" stroke="midnightblue" points="676.61,-650.88 686.39,-646.8 676.2,-643.89 676.61,-650.88"/>
</g>
<!-- Node30 -->
<g id="node30" class="node">
<title>Node30</title>
<g id="a_node30"><a xlink:href="namespaceswexhtml#a42d3d6275f2e292d8b750cb0c5584025" target="_top" xlink:title="Returns a vector containing all path parts.">
<polygon fill="white" stroke="black" points="278,-0.5 278,-19.5 381,-19.5 381,-0.5 278,-0.5"/>
<text text-anchor="middle" x="329.5" y="-7.5" font-family="Helvetica,sans-Serif" font-size="10.00">swe::explodePath</text>
</a>
</g>
</g>
<!-- Node29&#45;&gt;Node30 -->
<g id="edge62" class="edge">
<title>Node29&#45;&gt;Node30</title>
<path fill="none" stroke="midnightblue" d="M151.99,-209.33C160.57,-178.01 191.98,-78.49 256,-29 259.79,-26.07 263.99,-23.59 268.4,-21.49"/>
<polygon fill="midnightblue" stroke="midnightblue" points="269.76,-24.72 277.69,-17.7 267.11,-18.24 269.76,-24.72"/>
</g>
</g>
</svg>
