<?xml version="1.0" encoding="UTF-8" standalone="no"?>
<!DOCTYPE svg PUBLIC "-//W3C//DTD SVG 1.1//EN"
 "http://www.w3.org/Graphics/SVG/1.1/DTD/svg11.dtd">
<!-- Generated by graphviz version 2.43.0 (0)
 -->
<!-- Title: include/ModelEquations.h Pages: 1 -->
<svg width="434pt" height="252pt"
 viewBox="0.00 0.00 434.00 252.00" xmlns="http://www.w3.org/2000/svg" xmlns:xlink="http://www.w3.org/1999/xlink">
<g id="graph0" class="graph" transform="scale(1 1) rotate(0) translate(4 248)">
<title>include/ModelEquations.h</title>
<polygon fill="white" stroke="transparent" points="-4,4 -4,-248 430,-248 430,4 -4,4"/>
<!-- Node1 -->
<g id="node1" class="node">
<title>Node1</title>
<g id="a_node1"><a xlink:title=" ">
<polygon fill="#bfbfbf" stroke="black" points="73,-224.5 73,-243.5 215,-243.5 215,-224.5 73,-224.5"/>
<text text-anchor="middle" x="144" y="-231.5" font-family="Helvetica,sans-Serif" font-size="10.00">include/ModelEquations.h</text>
</a>
</g>
</g>
<!-- Node2 -->
<g id="node2" class="node">
<title>Node2</title>
<g id="a_node2"><a xlink:href="ModelEquations_8cppxhtml" target="_top" xlink:title=" ">
<polygon fill="white" stroke="black" points="0,-168.5 0,-187.5 132,-187.5 132,-168.5 0,-168.5"/>
<text text-anchor="middle" x="66" y="-175.5" font-family="Helvetica,sans-Serif" font-size="10.00">src/ModelEquations.cpp</text>
</a>
</g>
</g>
<!-- Node1&#45;&gt;Node2 -->
<g id="edge1" class="edge">
<title>Node1&#45;&gt;Node2</title>
<path fill="none" stroke="midnightblue" d="M123.23,-218.62C108.98,-208.76 90.54,-195.99 78.5,-187.65"/>
<polygon fill="midnightblue" stroke="midnightblue" points="121.25,-221.51 131.47,-224.32 125.24,-215.75 121.25,-221.51"/>
</g>
<!-- Node3 -->
<g id="node3" class="node">
<title>Node3</title>
<g id="a_node3"><a xlink:href="NumericalFluxes_8hxhtml" target="_top" xlink:title=" ">
<polygon fill="white" stroke="black" points="150,-168.5 150,-187.5 296,-187.5 296,-168.5 150,-168.5"/>
<text text-anchor="middle" x="223" y="-175.5" font-family="Helvetica,sans-Serif" font-size="10.00">include/NumericalFluxes.h</text>
</a>
</g>
</g>
<!-- Node1&#45;&gt;Node3 -->
<g id="edge2" class="edge">
<title>Node1&#45;&gt;Node3</title>
<path fill="none" stroke="midnightblue" d="M165.03,-218.62C179.47,-208.76 198.14,-195.99 210.34,-187.65"/>
<polygon fill="midnightblue" stroke="midnightblue" points="162.97,-215.79 156.69,-224.32 166.92,-221.57 162.97,-215.79"/>
</g>
<!-- Node4 -->
<g id="node4" class="node">
<title>Node4</title>
<g id="a_node4"><a xlink:href="NumericalFluxes_8cppxhtml" target="_top" xlink:title=" ">
<polygon fill="white" stroke="black" points="87.5,-112.5 87.5,-131.5 224.5,-131.5 224.5,-112.5 87.5,-112.5"/>
<text text-anchor="middle" x="156" y="-119.5" font-family="Helvetica,sans-Serif" font-size="10.00">src/NumericalFluxes.cpp</text>
</a>
</g>
</g>
<!-- Node3&#45;&gt;Node4 -->
<g id="edge3" class="edge">
<title>Node3&#45;&gt;Node4</title>
<path fill="none" stroke="midnightblue" d="M204.17,-161.82C192.16,-152.15 177.03,-139.95 166.96,-131.83"/>
<polygon fill="midnightblue" stroke="midnightblue" points="202.25,-164.77 212.24,-168.32 206.65,-159.32 202.25,-164.77"/>
</g>
<!-- Node5 -->
<g id="node5" class="node">
<title>Node5</title>
<g id="a_node5"><a xlink:href="Solver_8hxhtml" target="_top" xlink:title=" ">
<polygon fill="white" stroke="black" points="242.5,-112.5 242.5,-131.5 337.5,-131.5 337.5,-112.5 242.5,-112.5"/>
<text text-anchor="middle" x="290" y="-119.5" font-family="Helvetica,sans-Serif" font-size="10.00">include/Solver.h</text>
</a>
</g>
</g>
<!-- Node3&#45;&gt;Node5 -->
<g id="edge4" class="edge">
<title>Node3&#45;&gt;Node5</title>
<path fill="none" stroke="midnightblue" d="M241.83,-161.82C253.84,-152.15 268.97,-139.95 279.04,-131.83"/>
<polygon fill="midnightblue" stroke="midnightblue" points="239.35,-159.32 233.76,-168.32 243.75,-164.77 239.35,-159.32"/>
</g>
<!-- Node6 -->
<g id="node6" class="node">
<title>Node6</title>
<g id="a_node6"><a xlink:href="main_8cppxhtml" target="_top" xlink:title=" ">
<polygon fill="white" stroke="black" points="85.5,-56.5 85.5,-75.5 164.5,-75.5 164.5,-56.5 85.5,-56.5"/>
<text text-anchor="middle" x="125" y="-63.5" font-family="Helvetica,sans-Serif" font-size="10.00">src/main.cpp</text>
</a>
</g>
</g>
<!-- Node5&#45;&gt;Node6 -->
<g id="edge5" class="edge">
<title>Node5&#45;&gt;Node6</title>
<path fill="none" stroke="midnightblue" d="M254.26,-109.3C223.17,-99.13 178.85,-84.62 151.02,-75.52"/>
<polygon fill="midnightblue" stroke="midnightblue" points="253.26,-112.66 263.86,-112.44 255.44,-106.01 253.26,-112.66"/>
</g>
<!-- Node7 -->
<g id="node7" class="node">
<title>Node7</title>
<g id="a_node7"><a xlink:href="Solver_8cppxhtml" target="_top" xlink:title=" ">
<polygon fill="white" stroke="black" points="182.5,-56.5 182.5,-75.5 267.5,-75.5 267.5,-56.5 182.5,-56.5"/>
<text text-anchor="middle" x="225" y="-63.5" font-family="Helvetica,sans-Serif" font-size="10.00">src/Solver.cpp</text>
</a>
</g>
</g>
<!-- Node5&#45;&gt;Node7 -->
<g id="edge6" class="edge">
<title>Node5&#45;&gt;Node7</title>
<path fill="none" stroke="midnightblue" d="M271.73,-105.82C260.08,-96.15 245.4,-83.95 235.63,-75.83"/>
<polygon fill="midnightblue" stroke="midnightblue" points="269.63,-108.63 279.56,-112.32 274.1,-103.24 269.63,-108.63"/>
</g>
<!-- Node8 -->
<g id="node8" class="node">
<title>Node8</title>
<g id="a_node8"><a xlink:href="OutputManager_8hxhtml" target="_top" xlink:title=" ">
<polygon fill="white" stroke="black" points="286,-56.5 286,-75.5 426,-75.5 426,-56.5 286,-56.5"/>
<text text-anchor="middle" x="356" y="-63.5" font-family="Helvetica,sans-Serif" font-size="10.00">include/OutputManager.h</text>
</a>
</g>
</g>
<!-- Node5&#45;&gt;Node8 -->
<g id="edge7" class="edge">
<title>Node5&#45;&gt;Node8</title>
<path fill="none" stroke="midnightblue" d="M303.06,-105.24C313.89,-95.56 328.97,-83.53 340.43,-75.57"/>
<polygon fill="midnightblue" stroke="midnightblue" points="300.65,-102.7 295.73,-112.08 305.43,-107.82 300.65,-102.7"/>
</g>
<!-- Node8&#45;&gt;Node5 -->
<g id="edge9" class="edge">
<title>Node8&#45;&gt;Node5</title>
<path fill="none" stroke="midnightblue" d="M342.74,-82.94C331.97,-92.55 317.09,-104.42 305.72,-112.32"/>
<polygon fill="midnightblue" stroke="midnightblue" points="345.43,-85.22 350.35,-75.83 340.65,-80.1 345.43,-85.22"/>
</g>
<!-- Node9 -->
<g id="node9" class="node">
<title>Node9</title>
<g id="a_node9"><a xlink:href="OutputManager_8cppxhtml" target="_top" xlink:title=" ">
<polygon fill="white" stroke="black" points="291,-0.5 291,-19.5 421,-19.5 421,-0.5 291,-0.5"/>
<text text-anchor="middle" x="356" y="-7.5" font-family="Helvetica,sans-Serif" font-size="10.00">src/OutputManager.cpp</text>
</a>
</g>
</g>
<!-- Node8&#45;&gt;Node9 -->
<g id="edge8" class="edge">
<title>Node8&#45;&gt;Node9</title>
<path fill="none" stroke="midnightblue" d="M356,-45.8C356,-36.91 356,-26.78 356,-19.75"/>
<polygon fill="midnightblue" stroke="midnightblue" points="352.5,-46.08 356,-56.08 359.5,-46.08 352.5,-46.08"/>
</g>
</g>
</svg>
