<?xml version="1.0" encoding="UTF-8" standalone="no"?>
<!DOCTYPE svg PUBLIC "-//W3C//DTD SVG 1.1//EN"
 "http://www.w3.org/Graphics/SVG/1.1/DTD/svg11.dtd">
<!-- Generated by graphviz version 2.43.0 (0)
 -->
<!-- Title: swe::getOptionInteger Pages: 1 -->
<svg width="270pt" height="104pt"
 viewBox="0.00 0.00 270.00 104.00" xmlns="http://www.w3.org/2000/svg" xmlns:xlink="http://www.w3.org/1999/xlink">
<g id="graph0" class="graph" transform="scale(1 1) rotate(0) translate(4 100)">
<title>swe::getOptionInteger</title>
<polygon fill="white" stroke="transparent" points="-4,4 -4,-100 266,-100 266,4 -4,4"/>
<!-- Node1 -->
<g id="node1" class="node">
<title>Node1</title>
<g id="a_node1"><a xlink:title="Returns the selected integer option. If it is mandatory, returns the defaultValue if the option is no...">
<polygon fill="#bfbfbf" stroke="black" points="0,-38.5 0,-57.5 125,-57.5 125,-38.5 0,-38.5"/>
<text text-anchor="middle" x="62.5" y="-45.5" font-family="Helvetica,sans-Serif" font-size="10.00">swe::getOptionInteger</text>
</a>
</g>
</g>
<!-- Node2 -->
<g id="node2" class="node">
<title>Node2</title>
<g id="a_node2"><a xlink:href="namespaceswexhtml#ad16a86c30855f6cf6015555ed0148dcc" target="_top" xlink:title="Returns the line of fileName in which keyword is found.">
<polygon fill="white" stroke="black" points="173,-76.5 173,-95.5 250,-95.5 250,-76.5 173,-76.5"/>
<text text-anchor="middle" x="211.5" y="-83.5" font-family="Helvetica,sans-Serif" font-size="10.00">swe::jumpTo</text>
</a>
</g>
</g>
<!-- Node1&#45;&gt;Node2 -->
<g id="edge1" class="edge">
<title>Node1&#45;&gt;Node2</title>
<path fill="none" stroke="midnightblue" d="M100.59,-57.59C119.82,-62.56 143.49,-68.68 163.93,-73.96"/>
<polygon fill="midnightblue" stroke="midnightblue" points="163.11,-77.37 173.67,-76.48 164.87,-70.59 163.11,-77.37"/>
</g>
<!-- Node3 -->
<g id="node3" class="node">
<title>Node3</title>
<g id="a_node3"><a xlink:href="namespaceswexhtml#a028619a1d8fcc5fbce7253f26597b388" target="_top" xlink:title="Prints a message when a default option is used.">
<polygon fill="white" stroke="black" points="161,-38.5 161,-57.5 262,-57.5 262,-38.5 161,-38.5"/>
<text text-anchor="middle" x="211.5" y="-45.5" font-family="Helvetica,sans-Serif" font-size="10.00">swe::printDefault</text>
</a>
</g>
</g>
<!-- Node1&#45;&gt;Node3 -->
<g id="edge2" class="edge">
<title>Node1&#45;&gt;Node3</title>
<path fill="none" stroke="midnightblue" d="M125.42,-48C133.78,-48 142.36,-48 150.69,-48"/>
<polygon fill="midnightblue" stroke="midnightblue" points="150.7,-51.5 160.7,-48 150.7,-44.5 150.7,-51.5"/>
</g>
<!-- Node4 -->
<g id="node4" class="node">
<title>Node4</title>
<g id="a_node4"><a xlink:href="namespaceswexhtml#aca666e377868955898f5bc54f97d8075" target="_top" xlink:title="Prints an error message and exit the program.">
<polygon fill="white" stroke="black" points="167.5,-0.5 167.5,-19.5 255.5,-19.5 255.5,-0.5 167.5,-0.5"/>
<text text-anchor="middle" x="211.5" y="-7.5" font-family="Helvetica,sans-Serif" font-size="10.00">swe::printError</text>
</a>
</g>
</g>
<!-- Node1&#45;&gt;Node4 -->
<g id="edge3" class="edge">
<title>Node1&#45;&gt;Node4</title>
<path fill="none" stroke="midnightblue" d="M100.59,-38.41C119.82,-33.44 143.49,-27.32 163.93,-22.04"/>
<polygon fill="midnightblue" stroke="midnightblue" points="164.87,-25.41 173.67,-19.52 163.11,-18.63 164.87,-25.41"/>
</g>
</g>
</svg>
