<?xml version="1.0" encoding="UTF-8" standalone="no"?>
<!DOCTYPE svg PUBLIC "-//W3C//DTD SVG 1.1//EN"
 "http://www.w3.org/Graphics/SVG/1.1/DTD/svg11.dtd">
<!-- Generated by graphviz version 2.43.0 (0)
 -->
<!-- Title: swe::getOptionVectorStrings Pages: 1 -->
<svg width="287pt" height="104pt"
 viewBox="0.00 0.00 287.00 104.00" xmlns="http://www.w3.org/2000/svg" xmlns:xlink="http://www.w3.org/1999/xlink">
<g id="graph0" class="graph" transform="scale(1 1) rotate(0) translate(4 100)">
<title>swe::getOptionVectorStrings</title>
<polygon fill="white" stroke="transparent" points="-4,4 -4,-100 283,-100 283,4 -4,4"/>
<!-- Node1 -->
<g id="node1" class="node">
<title>Node1</title>
<g id="a_node1"><a xlink:title="Returns the vector of strings option.">
<polygon fill="#bfbfbf" stroke="black" points="0,-38.5 0,-57.5 155,-57.5 155,-38.5 0,-38.5"/>
<text text-anchor="middle" x="77.5" y="-45.5" font-family="Helvetica,sans-Serif" font-size="10.00">swe::getOptionVectorStrings</text>
</a>
</g>
</g>
<!-- Node2 -->
<g id="node2" class="node">
<title>Node2</title>
<g id="a_node2"><a xlink:href="namespaceswexhtml#ad16a86c30855f6cf6015555ed0148dcc" target="_top" xlink:title="Returns the line of fileName in which keyword is found.">
<polygon fill="white" stroke="black" points="196.5,-76.5 196.5,-95.5 273.5,-95.5 273.5,-76.5 196.5,-76.5"/>
<text text-anchor="middle" x="235" y="-83.5" font-family="Helvetica,sans-Serif" font-size="10.00">swe::jumpTo</text>
</a>
</g>
</g>
<!-- Node1&#45;&gt;Node2 -->
<g id="edge1" class="edge">
<title>Node1&#45;&gt;Node2</title>
<path fill="none" stroke="midnightblue" d="M117.74,-57.59C138.65,-62.7 164.53,-69.02 186.56,-74.41"/>
<polygon fill="midnightblue" stroke="midnightblue" points="185.84,-77.83 196.38,-76.81 187.5,-71.03 185.84,-77.83"/>
</g>
<!-- Node3 -->
<g id="node3" class="node">
<title>Node3</title>
<g id="a_node3"><a xlink:href="namespaceswexhtml#aca666e377868955898f5bc54f97d8075" target="_top" xlink:title="Prints an error message and exit the program.">
<polygon fill="white" stroke="black" points="191,-38.5 191,-57.5 279,-57.5 279,-38.5 191,-38.5"/>
<text text-anchor="middle" x="235" y="-45.5" font-family="Helvetica,sans-Serif" font-size="10.00">swe::printError</text>
</a>
</g>
</g>
<!-- Node1&#45;&gt;Node3 -->
<g id="edge2" class="edge">
<title>Node1&#45;&gt;Node3</title>
<path fill="none" stroke="midnightblue" d="M155.34,-48C163.95,-48 172.57,-48 180.79,-48"/>
<polygon fill="midnightblue" stroke="midnightblue" points="180.94,-51.5 190.94,-48 180.94,-44.5 180.94,-51.5"/>
</g>
<!-- Node4 -->
<g id="node4" class="node">
<title>Node4</title>
<g id="a_node4"><a xlink:href="namespaceswexhtml#a6433aaafee87e52ab9cbcc3ab911961a" target="_top" xlink:title="Trims spaces in a string.">
<polygon fill="white" stroke="black" points="204,-0.5 204,-19.5 266,-19.5 266,-0.5 204,-0.5"/>
<text text-anchor="middle" x="235" y="-7.5" font-family="Helvetica,sans-Serif" font-size="10.00">swe::trim</text>
</a>
</g>
</g>
<!-- Node1&#45;&gt;Node4 -->
<g id="edge3" class="edge">
<title>Node1&#45;&gt;Node4</title>
<path fill="none" stroke="midnightblue" d="M117.74,-38.41C140.94,-32.74 170.26,-25.58 193.65,-19.86"/>
<polygon fill="midnightblue" stroke="midnightblue" points="194.72,-23.2 203.6,-17.43 193.06,-16.4 194.72,-23.2"/>
</g>
</g>
</svg>
