<?xml version="1.0" encoding="UTF-8" standalone="no"?>
<!DOCTYPE svg PUBLIC "-//W3C//DTD SVG 1.1//EN"
 "http://www.w3.org/Graphics/SVG/1.1/DTD/svg11.dtd">
<!-- Generated by graphviz version 2.43.0 (0)
 -->
<!-- Title: swe::getOptionString Pages: 1 -->
<svg width="264pt" height="104pt"
 viewBox="0.00 0.00 264.00 104.00" xmlns="http://www.w3.org/2000/svg" xmlns:xlink="http://www.w3.org/1999/xlink">
<g id="graph0" class="graph" transform="scale(1 1) rotate(0) translate(4 100)">
<title>swe::getOptionString</title>
<polygon fill="white" stroke="transparent" points="-4,4 -4,-100 260,-100 260,4 -4,4"/>
<!-- Node1 -->
<g id="node1" class="node">
<title>Node1</title>
<g id="a_node1"><a xlink:title="Returns the selected string option among the possible contained in the list.">
<polygon fill="#bfbfbf" stroke="black" points="0,-38.5 0,-57.5 119,-57.5 119,-38.5 0,-38.5"/>
<text text-anchor="middle" x="59.5" y="-45.5" font-family="Helvetica,sans-Serif" font-size="10.00">swe::getOptionString</text>
</a>
</g>
</g>
<!-- Node2 -->
<g id="node2" class="node">
<title>Node2</title>
<g id="a_node2"><a xlink:href="namespaceswexhtml#ad16a86c30855f6cf6015555ed0148dcc" target="_top" xlink:title="Returns the line of fileName in which keyword is found.">
<polygon fill="white" stroke="black" points="167,-76.5 167,-95.5 244,-95.5 244,-76.5 167,-76.5"/>
<text text-anchor="middle" x="205.5" y="-83.5" font-family="Helvetica,sans-Serif" font-size="10.00">swe::jumpTo</text>
</a>
</g>
</g>
<!-- Node1&#45;&gt;Node2 -->
<g id="edge1" class="edge">
<title>Node1&#45;&gt;Node2</title>
<path fill="none" stroke="midnightblue" d="M96.84,-57.59C115.58,-62.54 138.64,-68.62 158.61,-73.89"/>
<polygon fill="midnightblue" stroke="midnightblue" points="157.86,-77.31 168.42,-76.48 159.65,-70.54 157.86,-77.31"/>
</g>
<!-- Node3 -->
<g id="node3" class="node">
<title>Node3</title>
<g id="a_node3"><a xlink:href="namespaceswexhtml#a028619a1d8fcc5fbce7253f26597b388" target="_top" xlink:title="Prints a message when a default option is used.">
<polygon fill="white" stroke="black" points="155,-38.5 155,-57.5 256,-57.5 256,-38.5 155,-38.5"/>
<text text-anchor="middle" x="205.5" y="-45.5" font-family="Helvetica,sans-Serif" font-size="10.00">swe::printDefault</text>
</a>
</g>
</g>
<!-- Node1&#45;&gt;Node3 -->
<g id="edge2" class="edge">
<title>Node1&#45;&gt;Node3</title>
<path fill="none" stroke="midnightblue" d="M119.07,-48C127.48,-48 136.15,-48 144.59,-48"/>
<polygon fill="midnightblue" stroke="midnightblue" points="144.74,-51.5 154.74,-48 144.74,-44.5 144.74,-51.5"/>
</g>
<!-- Node4 -->
<g id="node4" class="node">
<title>Node4</title>
<g id="a_node4"><a xlink:href="namespaceswexhtml#a6433aaafee87e52ab9cbcc3ab911961a" target="_top" xlink:title="Trims spaces in a string.">
<polygon fill="white" stroke="black" points="174.5,-0.5 174.5,-19.5 236.5,-19.5 236.5,-0.5 174.5,-0.5"/>
<text text-anchor="middle" x="205.5" y="-7.5" font-family="Helvetica,sans-Serif" font-size="10.00">swe::trim</text>
</a>
</g>
</g>
<!-- Node1&#45;&gt;Node4 -->
<g id="edge3" class="edge">
<title>Node1&#45;&gt;Node4</title>
<path fill="none" stroke="midnightblue" d="M96.84,-38.41C117.55,-32.94 143.54,-26.09 164.79,-20.48"/>
<polygon fill="midnightblue" stroke="midnightblue" points="165.71,-23.86 174.49,-17.92 163.93,-17.09 165.71,-23.86"/>
</g>
</g>
</svg>
