<?xml version="1.0" encoding="UTF-8" standalone="no"?>
<!DOCTYPE svg PUBLIC "-//W3C//DTD SVG 1.1//EN"
 "http://www.w3.org/Graphics/SVG/1.1/DTD/svg11.dtd">
<!-- Generated by graphviz version 2.43.0 (0)
 -->
<!-- Title: include/OutputManager.h Pages: 1 -->
<svg width="585pt" height="476pt"
 viewBox="0.00 0.00 585.00 476.00" xmlns="http://www.w3.org/2000/svg" xmlns:xlink="http://www.w3.org/1999/xlink">
<g id="graph0" class="graph" transform="scale(1 1) rotate(0) translate(4 472)">
<title>include/OutputManager.h</title>
<polygon fill="white" stroke="transparent" points="-4,4 -4,-472 581,-472 581,4 -4,4"/>
<!-- Node1 -->
<g id="node1" class="node">
<title>Node1</title>
<g id="a_node1"><a xlink:title=" ">
<polygon fill="#bfbfbf" stroke="black" points="146,-448.5 146,-467.5 286,-467.5 286,-448.5 146,-448.5"/>
<text text-anchor="middle" x="216" y="-455.5" font-family="Helvetica,sans-Serif" font-size="10.00">include/OutputManager.h</text>
</a>
</g>
</g>
<!-- Node2 -->
<g id="node2" class="node">
<title>Node2</title>
<g id="a_node2"><a xlink:href="Solver_8hxhtml" target="_top" xlink:title=" ">
<polygon fill="white" stroke="black" points="188,-392.5 188,-411.5 244,-411.5 244,-392.5 188,-392.5"/>
<text text-anchor="middle" x="216" y="-399.5" font-family="Helvetica,sans-Serif" font-size="10.00">Solver.h</text>
</a>
</g>
</g>
<!-- Node1&#45;&gt;Node2 -->
<g id="edge1" class="edge">
<title>Node1&#45;&gt;Node2</title>
<path fill="none" stroke="midnightblue" d="M210.83,-448.08C209.32,-440.93 208.89,-430.64 209.54,-421.69"/>
<polygon fill="midnightblue" stroke="midnightblue" points="213.02,-422.13 210.87,-411.75 206.08,-421.2 213.02,-422.13"/>
</g>
<!-- Node2&#45;&gt;Node1 -->
<g id="edge24" class="edge">
<title>Node2&#45;&gt;Node1</title>
<path fill="none" stroke="midnightblue" d="M221.13,-411.75C222.66,-418.86 223.1,-429.14 222.47,-438.1"/>
<polygon fill="midnightblue" stroke="midnightblue" points="218.99,-437.71 221.17,-448.08 225.93,-438.62 218.99,-437.71"/>
</g>
<!-- Node3 -->
<g id="node3" class="node">
<title>Node3</title>
<g id="a_node3"><a xlink:title=" ">
<polygon fill="white" stroke="#bfbfbf" points="137,-336.5 137,-355.5 195,-355.5 195,-336.5 137,-336.5"/>
<text text-anchor="middle" x="166" y="-343.5" font-family="Helvetica,sans-Serif" font-size="10.00">memory</text>
</a>
</g>
</g>
<!-- Node2&#45;&gt;Node3 -->
<g id="edge2" class="edge">
<title>Node2&#45;&gt;Node3</title>
<path fill="none" stroke="midnightblue" d="M207.74,-392.08C200.54,-384.3 189.89,-372.8 181.15,-363.37"/>
<polygon fill="midnightblue" stroke="midnightblue" points="183.47,-360.71 174.1,-355.75 178.33,-365.47 183.47,-360.71"/>
</g>
<!-- Node4 -->
<g id="node4" class="node">
<title>Node4</title>
<g id="a_node4"><a xlink:href="NumericalFluxes_8hxhtml" target="_top" xlink:title=" ">
<polygon fill="white" stroke="black" points="213,-336.5 213,-355.5 321,-355.5 321,-336.5 213,-336.5"/>
<text text-anchor="middle" x="267" y="-343.5" font-family="Helvetica,sans-Serif" font-size="10.00">NumericalFluxes.h</text>
</a>
</g>
</g>
<!-- Node2&#45;&gt;Node4 -->
<g id="edge3" class="edge">
<title>Node2&#45;&gt;Node4</title>
<path fill="none" stroke="midnightblue" d="M224.42,-392.08C231.85,-384.22 242.85,-372.57 251.81,-363.08"/>
<polygon fill="midnightblue" stroke="midnightblue" points="254.41,-365.42 258.74,-355.75 249.32,-360.62 254.41,-365.42"/>
</g>
<!-- Node5 -->
<g id="node5" class="node">
<title>Node5</title>
<g id="a_node5"><a xlink:href="ModelEquations_8hxhtml" target="_top" xlink:title=" ">
<polygon fill="white" stroke="black" points="165,-224.5 165,-243.5 269,-243.5 269,-224.5 165,-224.5"/>
<text text-anchor="middle" x="217" y="-231.5" font-family="Helvetica,sans-Serif" font-size="10.00">ModelEquations.h</text>
</a>
</g>
</g>
<!-- Node4&#45;&gt;Node5 -->
<g id="edge4" class="edge">
<title>Node4&#45;&gt;Node5</title>
<path fill="none" stroke="midnightblue" d="M263.08,-336.37C254.93,-318.46 236.06,-276.92 225.16,-252.95"/>
<polygon fill="midnightblue" stroke="midnightblue" points="228.23,-251.25 220.91,-243.59 221.86,-254.14 228.23,-251.25"/>
</g>
<!-- Node7 -->
<g id="node7" class="node">
<title>Node7</title>
<g id="a_node7"><a xlink:href="Solution_8hxhtml" target="_top" xlink:title=" ">
<polygon fill="white" stroke="black" points="269.5,-280.5 269.5,-299.5 334.5,-299.5 334.5,-280.5 269.5,-280.5"/>
<text text-anchor="middle" x="302" y="-287.5" font-family="Helvetica,sans-Serif" font-size="10.00">Solution.h</text>
</a>
</g>
</g>
<!-- Node4&#45;&gt;Node7 -->
<g id="edge6" class="edge">
<title>Node4&#45;&gt;Node7</title>
<path fill="none" stroke="midnightblue" d="M272.78,-336.08C277.67,-328.53 284.83,-317.49 290.83,-308.23"/>
<polygon fill="midnightblue" stroke="midnightblue" points="293.83,-310.05 296.33,-299.75 287.95,-306.24 293.83,-310.05"/>
</g>
<!-- Node6 -->
<g id="node6" class="node">
<title>Node6</title>
<g id="a_node6"><a xlink:title=" ">
<polygon fill="white" stroke="#bfbfbf" points="205.5,-168.5 205.5,-187.5 252.5,-187.5 252.5,-168.5 205.5,-168.5"/>
<text text-anchor="middle" x="229" y="-175.5" font-family="Helvetica,sans-Serif" font-size="10.00">cmath</text>
</a>
</g>
</g>
<!-- Node5&#45;&gt;Node6 -->
<g id="edge5" class="edge">
<title>Node5&#45;&gt;Node6</title>
<path fill="none" stroke="midnightblue" d="M218.98,-224.08C220.57,-216.93 222.86,-206.64 224.85,-197.69"/>
<polygon fill="midnightblue" stroke="midnightblue" points="228.3,-198.27 227.06,-187.75 221.47,-196.75 228.3,-198.27"/>
</g>
<!-- Node8 -->
<g id="node8" class="node">
<title>Node8</title>
<g id="a_node8"><a xlink:href="Grid_8hxhtml" target="_top" xlink:title=" ">
<polygon fill="white" stroke="black" points="287,-224.5 287,-243.5 333,-243.5 333,-224.5 287,-224.5"/>
<text text-anchor="middle" x="310" y="-231.5" font-family="Helvetica,sans-Serif" font-size="10.00">Grid.h</text>
</a>
</g>
</g>
<!-- Node7&#45;&gt;Node8 -->
<g id="edge7" class="edge">
<title>Node7&#45;&gt;Node8</title>
<path fill="none" stroke="midnightblue" d="M303.32,-280.08C304.38,-272.93 305.91,-262.64 307.23,-253.69"/>
<polygon fill="midnightblue" stroke="midnightblue" points="310.7,-254.16 308.7,-243.75 303.78,-253.13 310.7,-254.16"/>
</g>
<!-- Node8&#45;&gt;Node6 -->
<g id="edge8" class="edge">
<title>Node8&#45;&gt;Node6</title>
<path fill="none" stroke="midnightblue" d="M296.99,-224.32C284.47,-215.98 265.32,-203.21 250.53,-193.35"/>
<polygon fill="midnightblue" stroke="midnightblue" points="252.24,-190.29 241.98,-187.65 248.36,-196.11 252.24,-190.29"/>
</g>
<!-- Node9 -->
<g id="node9" class="node">
<title>Node9</title>
<g id="a_node9"><a xlink:href="Config_8hxhtml" target="_top" xlink:title=" ">
<polygon fill="white" stroke="black" points="281.5,-168.5 281.5,-187.5 338.5,-187.5 338.5,-168.5 281.5,-168.5"/>
<text text-anchor="middle" x="310" y="-175.5" font-family="Helvetica,sans-Serif" font-size="10.00">Config.h</text>
</a>
</g>
</g>
<!-- Node8&#45;&gt;Node9 -->
<g id="edge9" class="edge">
<title>Node8&#45;&gt;Node9</title>
<path fill="none" stroke="midnightblue" d="M310,-224.08C310,-217.01 310,-206.86 310,-197.99"/>
<polygon fill="midnightblue" stroke="midnightblue" points="313.5,-197.75 310,-187.75 306.5,-197.75 313.5,-197.75"/>
</g>
<!-- Node10 -->
<g id="node10" class="node">
<title>Node10</title>
<g id="a_node10"><a xlink:href="Enums_8hxhtml" target="_top" xlink:title="Header Enums.h contains enumerators defining configuration options and maps handling configuration su...">
<polygon fill="white" stroke="black" points="56.5,-56.5 56.5,-75.5 115.5,-75.5 115.5,-56.5 56.5,-56.5"/>
<text text-anchor="middle" x="86" y="-63.5" font-family="Helvetica,sans-Serif" font-size="10.00">Enums.h</text>
</a>
</g>
</g>
<!-- Node9&#45;&gt;Node10 -->
<g id="edge10" class="edge">
<title>Node9&#45;&gt;Node10</title>
<path fill="none" stroke="midnightblue" d="M292.42,-168.37C253.33,-149.17 158.99,-102.84 112.62,-80.07"/>
<polygon fill="midnightblue" stroke="midnightblue" points="114.01,-76.86 103.5,-75.59 110.93,-83.14 114.01,-76.86"/>
</g>
<!-- Node14 -->
<g id="node14" class="node">
<title>Node14</title>
<g id="a_node14"><a xlink:href="Utils_8hxhtml" target="_top" xlink:title=" ">
<polygon fill="white" stroke="black" points="249,-112.5 249,-131.5 297,-131.5 297,-112.5 249,-112.5"/>
<text text-anchor="middle" x="273" y="-119.5" font-family="Helvetica,sans-Serif" font-size="10.00">Utils.h</text>
</a>
</g>
</g>
<!-- Node9&#45;&gt;Node14 -->
<g id="edge14" class="edge">
<title>Node9&#45;&gt;Node14</title>
<path fill="none" stroke="midnightblue" d="M303.89,-168.08C298.72,-160.53 291.15,-149.49 284.81,-140.23"/>
<polygon fill="midnightblue" stroke="midnightblue" points="287.54,-138.02 279,-131.75 281.76,-141.98 287.54,-138.02"/>
</g>
<!-- Node21 -->
<g id="node21" class="node">
<title>Node21</title>
<g id="a_node21"><a xlink:href="Config_8inlxhtml" target="_top" xlink:title=" ">
<polygon fill="white" stroke="black" points="315.5,-112.5 315.5,-131.5 378.5,-131.5 378.5,-112.5 315.5,-112.5"/>
<text text-anchor="middle" x="347" y="-119.5" font-family="Helvetica,sans-Serif" font-size="10.00">Config.inl</text>
</a>
</g>
</g>
<!-- Node9&#45;&gt;Node21 -->
<g id="edge22" class="edge">
<title>Node9&#45;&gt;Node21</title>
<path fill="none" stroke="midnightblue" d="M310.94,-168.08C314.6,-160.38 322,-149.03 329.3,-139.65"/>
<polygon fill="midnightblue" stroke="midnightblue" points="332.17,-141.68 335.87,-131.75 326.79,-137.2 332.17,-141.68"/>
</g>
<!-- Node11 -->
<g id="node11" class="node">
<title>Node11</title>
<g id="a_node11"><a xlink:title=" ">
<polygon fill="white" stroke="#bfbfbf" points="0,-0.5 0,-19.5 44,-19.5 44,-0.5 0,-0.5"/>
<text text-anchor="middle" x="22" y="-7.5" font-family="Helvetica,sans-Serif" font-size="10.00">string</text>
</a>
</g>
</g>
<!-- Node10&#45;&gt;Node11 -->
<g id="edge11" class="edge">
<title>Node10&#45;&gt;Node11</title>
<path fill="none" stroke="midnightblue" d="M75.72,-56.32C66.16,-48.26 51.72,-36.08 40.22,-26.37"/>
<polygon fill="midnightblue" stroke="midnightblue" points="42.37,-23.61 32.47,-19.83 37.86,-28.96 42.37,-23.61"/>
</g>
<!-- Node12 -->
<g id="node12" class="node">
<title>Node12</title>
<g id="a_node12"><a xlink:title=" ">
<polygon fill="white" stroke="#bfbfbf" points="62.5,-0.5 62.5,-19.5 109.5,-19.5 109.5,-0.5 62.5,-0.5"/>
<text text-anchor="middle" x="86" y="-7.5" font-family="Helvetica,sans-Serif" font-size="10.00">vector</text>
</a>
</g>
</g>
<!-- Node10&#45;&gt;Node12 -->
<g id="edge12" class="edge">
<title>Node10&#45;&gt;Node12</title>
<path fill="none" stroke="midnightblue" d="M86,-56.08C86,-49.01 86,-38.86 86,-29.99"/>
<polygon fill="midnightblue" stroke="midnightblue" points="89.5,-29.75 86,-19.75 82.5,-29.75 89.5,-29.75"/>
</g>
<!-- Node13 -->
<g id="node13" class="node">
<title>Node13</title>
<g id="a_node13"><a xlink:title=" ">
<polygon fill="white" stroke="#bfbfbf" points="128,-0.5 128,-19.5 166,-19.5 166,-0.5 128,-0.5"/>
<text text-anchor="middle" x="147" y="-7.5" font-family="Helvetica,sans-Serif" font-size="10.00">map</text>
</a>
</g>
</g>
<!-- Node10&#45;&gt;Node13 -->
<g id="edge13" class="edge">
<title>Node10&#45;&gt;Node13</title>
<path fill="none" stroke="midnightblue" d="M95.8,-56.32C104.82,-48.34 118.41,-36.31 129.32,-26.65"/>
<polygon fill="midnightblue" stroke="midnightblue" points="131.85,-29.08 137.02,-19.83 127.21,-23.84 131.85,-29.08"/>
</g>
<!-- Node14&#45;&gt;Node10 -->
<g id="edge21" class="edge">
<title>Node14&#45;&gt;Node10</title>
<path fill="none" stroke="midnightblue" d="M248.94,-114.05C217.74,-105.04 162.91,-89.21 125.55,-78.42"/>
<polygon fill="midnightblue" stroke="midnightblue" points="126.09,-74.93 115.51,-75.52 124.15,-81.66 126.09,-74.93"/>
</g>
<!-- Node15 -->
<g id="node15" class="node">
<title>Node15</title>
<g id="a_node15"><a xlink:title=" ">
<polygon fill="white" stroke="#bfbfbf" points="133.5,-56.5 133.5,-75.5 188.5,-75.5 188.5,-56.5 133.5,-56.5"/>
<text text-anchor="middle" x="161" y="-63.5" font-family="Helvetica,sans-Serif" font-size="10.00">fstream</text>
</a>
</g>
</g>
<!-- Node14&#45;&gt;Node15 -->
<g id="edge15" class="edge">
<title>Node14&#45;&gt;Node15</title>
<path fill="none" stroke="midnightblue" d="M255.01,-112.32C236.96,-103.62 208.95,-90.12 188.2,-80.11"/>
<polygon fill="midnightblue" stroke="midnightblue" points="189.48,-76.84 178.95,-75.65 186.44,-83.15 189.48,-76.84"/>
</g>
<!-- Node16 -->
<g id="node16" class="node">
<title>Node16</title>
<g id="a_node16"><a xlink:title=" ">
<polygon fill="white" stroke="#bfbfbf" points="207,-56.5 207,-75.5 263,-75.5 263,-56.5 207,-56.5"/>
<text text-anchor="middle" x="235" y="-63.5" font-family="Helvetica,sans-Serif" font-size="10.00">sstream</text>
</a>
</g>
</g>
<!-- Node14&#45;&gt;Node16 -->
<g id="edge16" class="edge">
<title>Node14&#45;&gt;Node16</title>
<path fill="none" stroke="midnightblue" d="M266.73,-112.08C261.36,-104.46 253.48,-93.26 246.92,-83.94"/>
<polygon fill="midnightblue" stroke="midnightblue" points="249.78,-81.91 241.16,-75.75 244.05,-85.94 249.78,-81.91"/>
</g>
<!-- Node17 -->
<g id="node17" class="node">
<title>Node17</title>
<g id="a_node17"><a xlink:title=" ">
<polygon fill="white" stroke="#bfbfbf" points="281,-56.5 281,-75.5 341,-75.5 341,-56.5 281,-56.5"/>
<text text-anchor="middle" x="311" y="-63.5" font-family="Helvetica,sans-Serif" font-size="10.00">iostream</text>
</a>
</g>
</g>
<!-- Node14&#45;&gt;Node17 -->
<g id="edge17" class="edge">
<title>Node14&#45;&gt;Node17</title>
<path fill="none" stroke="midnightblue" d="M279.27,-112.08C284.64,-104.46 292.52,-93.26 299.08,-83.94"/>
<polygon fill="midnightblue" stroke="midnightblue" points="301.95,-85.94 304.84,-75.75 296.22,-81.91 301.95,-85.94"/>
</g>
<!-- Node18 -->
<g id="node18" class="node">
<title>Node18</title>
<g id="a_node18"><a xlink:title=" ">
<polygon fill="white" stroke="#bfbfbf" points="359,-56.5 359,-75.5 423,-75.5 423,-56.5 359,-56.5"/>
<text text-anchor="middle" x="391" y="-63.5" font-family="Helvetica,sans-Serif" font-size="10.00">algorithm</text>
</a>
</g>
</g>
<!-- Node14&#45;&gt;Node18 -->
<g id="edge18" class="edge">
<title>Node14&#45;&gt;Node18</title>
<path fill="none" stroke="midnightblue" d="M291.7,-112.44C310.94,-103.64 341.15,-89.81 363.2,-79.72"/>
<polygon fill="midnightblue" stroke="midnightblue" points="364.75,-82.86 372.39,-75.52 361.84,-76.5 364.75,-82.86"/>
</g>
<!-- Node19 -->
<g id="node19" class="node">
<title>Node19</title>
<g id="a_node19"><a xlink:title=" ">
<polygon fill="white" stroke="#bfbfbf" points="441,-56.5 441,-75.5 495,-75.5 495,-56.5 441,-56.5"/>
<text text-anchor="middle" x="468" y="-63.5" font-family="Helvetica,sans-Serif" font-size="10.00">dirent.h</text>
</a>
</g>
</g>
<!-- Node14&#45;&gt;Node19 -->
<g id="edge19" class="edge">
<title>Node14&#45;&gt;Node19</title>
<path fill="none" stroke="midnightblue" d="M297.3,-114.27C330.93,-104.96 391.92,-88.07 431.16,-77.2"/>
<polygon fill="midnightblue" stroke="midnightblue" points="432.18,-80.55 440.88,-74.51 430.31,-73.81 432.18,-80.55"/>
</g>
<!-- Node20 -->
<g id="node20" class="node">
<title>Node20</title>
<g id="a_node20"><a xlink:title=" ">
<polygon fill="white" stroke="#bfbfbf" points="513,-56.5 513,-75.5 577,-75.5 577,-56.5 513,-56.5"/>
<text text-anchor="middle" x="545" y="-63.5" font-family="Helvetica,sans-Serif" font-size="10.00">sys/stat.h</text>
</a>
</g>
</g>
<!-- Node14&#45;&gt;Node20 -->
<g id="edge20" class="edge">
<title>Node14&#45;&gt;Node20</title>
<path fill="none" stroke="midnightblue" d="M297.09,-114.17C300.08,-113.4 303.1,-112.66 306,-112 390.16,-92.91 414.6,-93.52 502.88,-76.16"/>
<polygon fill="midnightblue" stroke="midnightblue" points="503.67,-79.57 512.79,-74.19 502.3,-72.7 503.67,-79.57"/>
</g>
<!-- Node21&#45;&gt;Node9 -->
<g id="edge23" class="edge">
<title>Node21&#45;&gt;Node9</title>
<path fill="none" stroke="midnightblue" d="M346.13,-131.75C342.53,-139.4 335.16,-150.74 327.86,-160.14"/>
<polygon fill="midnightblue" stroke="midnightblue" points="324.96,-158.15 321.28,-168.08 330.35,-162.62 324.96,-158.15"/>
</g>
</g>
</svg>
