<?xml version="1.0" encoding="UTF-8" standalone="no"?>
<!DOCTYPE svg PUBLIC "-//W3C//DTD SVG 1.1//EN"
 "http://www.w3.org/Graphics/SVG/1.1/DTD/svg11.dtd">
<!-- Generated by graphviz version 2.43.0 (0)
 -->
<!-- Title: include/Solution.h Pages: 1 -->
<svg width="396pt" height="252pt"
 viewBox="0.00 0.00 396.00 252.00" xmlns="http://www.w3.org/2000/svg" xmlns:xlink="http://www.w3.org/1999/xlink">
<g id="graph0" class="graph" transform="scale(1 1) rotate(0) translate(4 248)">
<title>include/Solution.h</title>
<polygon fill="white" stroke="transparent" points="-4,4 -4,-248 392,-248 392,4 -4,4"/>
<!-- Node1 -->
<g id="node1" class="node">
<title>Node1</title>
<g id="a_node1"><a xlink:title=" ">
<polygon fill="#bfbfbf" stroke="black" points="64,-224.5 64,-243.5 168,-243.5 168,-224.5 64,-224.5"/>
<text text-anchor="middle" x="116" y="-231.5" font-family="Helvetica,sans-Serif" font-size="10.00">include/Solution.h</text>
</a>
</g>
</g>
<!-- Node2 -->
<g id="node2" class="node">
<title>Node2</title>
<g id="a_node2"><a xlink:href="Solution_8cppxhtml" target="_top" xlink:title=" ">
<polygon fill="white" stroke="black" points="0,-168.5 0,-187.5 94,-187.5 94,-168.5 0,-168.5"/>
<text text-anchor="middle" x="47" y="-175.5" font-family="Helvetica,sans-Serif" font-size="10.00">src/Solution.cpp</text>
</a>
</g>
</g>
<!-- Node1&#45;&gt;Node2 -->
<g id="edge1" class="edge">
<title>Node1&#45;&gt;Node2</title>
<path fill="none" stroke="midnightblue" d="M96.96,-218.1C84.54,-208.38 68.76,-196.03 58.29,-187.83"/>
<polygon fill="midnightblue" stroke="midnightblue" points="94.88,-220.92 104.91,-224.32 99.2,-215.4 94.88,-220.92"/>
</g>
<!-- Node3 -->
<g id="node3" class="node">
<title>Node3</title>
<g id="a_node3"><a xlink:href="NumericalFluxes_8hxhtml" target="_top" xlink:title=" ">
<polygon fill="white" stroke="black" points="112,-168.5 112,-187.5 258,-187.5 258,-168.5 112,-168.5"/>
<text text-anchor="middle" x="185" y="-175.5" font-family="Helvetica,sans-Serif" font-size="10.00">include/NumericalFluxes.h</text>
</a>
</g>
</g>
<!-- Node1&#45;&gt;Node3 -->
<g id="edge2" class="edge">
<title>Node1&#45;&gt;Node3</title>
<path fill="none" stroke="midnightblue" d="M135.04,-218.1C147.46,-208.38 163.24,-196.03 173.71,-187.83"/>
<polygon fill="midnightblue" stroke="midnightblue" points="132.8,-215.4 127.09,-224.32 137.12,-220.92 132.8,-215.4"/>
</g>
<!-- Node4 -->
<g id="node4" class="node">
<title>Node4</title>
<g id="a_node4"><a xlink:href="NumericalFluxes_8cppxhtml" target="_top" xlink:title=" ">
<polygon fill="white" stroke="black" points="49.5,-112.5 49.5,-131.5 186.5,-131.5 186.5,-112.5 49.5,-112.5"/>
<text text-anchor="middle" x="118" y="-119.5" font-family="Helvetica,sans-Serif" font-size="10.00">src/NumericalFluxes.cpp</text>
</a>
</g>
</g>
<!-- Node3&#45;&gt;Node4 -->
<g id="edge3" class="edge">
<title>Node3&#45;&gt;Node4</title>
<path fill="none" stroke="midnightblue" d="M166.17,-161.82C154.16,-152.15 139.03,-139.95 128.96,-131.83"/>
<polygon fill="midnightblue" stroke="midnightblue" points="164.25,-164.77 174.24,-168.32 168.65,-159.32 164.25,-164.77"/>
</g>
<!-- Node5 -->
<g id="node5" class="node">
<title>Node5</title>
<g id="a_node5"><a xlink:href="Solver_8hxhtml" target="_top" xlink:title=" ">
<polygon fill="white" stroke="black" points="204.5,-112.5 204.5,-131.5 299.5,-131.5 299.5,-112.5 204.5,-112.5"/>
<text text-anchor="middle" x="252" y="-119.5" font-family="Helvetica,sans-Serif" font-size="10.00">include/Solver.h</text>
</a>
</g>
</g>
<!-- Node3&#45;&gt;Node5 -->
<g id="edge4" class="edge">
<title>Node3&#45;&gt;Node5</title>
<path fill="none" stroke="midnightblue" d="M203.83,-161.82C215.84,-152.15 230.97,-139.95 241.04,-131.83"/>
<polygon fill="midnightblue" stroke="midnightblue" points="201.35,-159.32 195.76,-168.32 205.75,-164.77 201.35,-159.32"/>
</g>
<!-- Node6 -->
<g id="node6" class="node">
<title>Node6</title>
<g id="a_node6"><a xlink:href="main_8cppxhtml" target="_top" xlink:title=" ">
<polygon fill="white" stroke="black" points="47.5,-56.5 47.5,-75.5 126.5,-75.5 126.5,-56.5 47.5,-56.5"/>
<text text-anchor="middle" x="87" y="-63.5" font-family="Helvetica,sans-Serif" font-size="10.00">src/main.cpp</text>
</a>
</g>
</g>
<!-- Node5&#45;&gt;Node6 -->
<g id="edge5" class="edge">
<title>Node5&#45;&gt;Node6</title>
<path fill="none" stroke="midnightblue" d="M216.26,-109.3C185.17,-99.13 140.85,-84.62 113.02,-75.52"/>
<polygon fill="midnightblue" stroke="midnightblue" points="215.26,-112.66 225.86,-112.44 217.44,-106.01 215.26,-112.66"/>
</g>
<!-- Node7 -->
<g id="node7" class="node">
<title>Node7</title>
<g id="a_node7"><a xlink:href="Solver_8cppxhtml" target="_top" xlink:title=" ">
<polygon fill="white" stroke="black" points="144.5,-56.5 144.5,-75.5 229.5,-75.5 229.5,-56.5 144.5,-56.5"/>
<text text-anchor="middle" x="187" y="-63.5" font-family="Helvetica,sans-Serif" font-size="10.00">src/Solver.cpp</text>
</a>
</g>
</g>
<!-- Node5&#45;&gt;Node7 -->
<g id="edge6" class="edge">
<title>Node5&#45;&gt;Node7</title>
<path fill="none" stroke="midnightblue" d="M233.73,-105.82C222.08,-96.15 207.4,-83.95 197.63,-75.83"/>
<polygon fill="midnightblue" stroke="midnightblue" points="231.63,-108.63 241.56,-112.32 236.1,-103.24 231.63,-108.63"/>
</g>
<!-- Node8 -->
<g id="node8" class="node">
<title>Node8</title>
<g id="a_node8"><a xlink:href="OutputManager_8hxhtml" target="_top" xlink:title=" ">
<polygon fill="white" stroke="black" points="248,-56.5 248,-75.5 388,-75.5 388,-56.5 248,-56.5"/>
<text text-anchor="middle" x="318" y="-63.5" font-family="Helvetica,sans-Serif" font-size="10.00">include/OutputManager.h</text>
</a>
</g>
</g>
<!-- Node5&#45;&gt;Node8 -->
<g id="edge7" class="edge">
<title>Node5&#45;&gt;Node8</title>
<path fill="none" stroke="midnightblue" d="M265.06,-105.24C275.89,-95.56 290.97,-83.53 302.43,-75.57"/>
<polygon fill="midnightblue" stroke="midnightblue" points="262.65,-102.7 257.73,-112.08 267.43,-107.82 262.65,-102.7"/>
</g>
<!-- Node8&#45;&gt;Node5 -->
<g id="edge9" class="edge">
<title>Node8&#45;&gt;Node5</title>
<path fill="none" stroke="midnightblue" d="M304.74,-82.94C293.97,-92.55 279.09,-104.42 267.72,-112.32"/>
<polygon fill="midnightblue" stroke="midnightblue" points="307.43,-85.22 312.35,-75.83 302.65,-80.1 307.43,-85.22"/>
</g>
<!-- Node9 -->
<g id="node9" class="node">
<title>Node9</title>
<g id="a_node9"><a xlink:href="OutputManager_8cppxhtml" target="_top" xlink:title=" ">
<polygon fill="white" stroke="black" points="253,-0.5 253,-19.5 383,-19.5 383,-0.5 253,-0.5"/>
<text text-anchor="middle" x="318" y="-7.5" font-family="Helvetica,sans-Serif" font-size="10.00">src/OutputManager.cpp</text>
</a>
</g>
</g>
<!-- Node8&#45;&gt;Node9 -->
<g id="edge8" class="edge">
<title>Node8&#45;&gt;Node9</title>
<path fill="none" stroke="midnightblue" d="M318,-45.8C318,-36.91 318,-26.78 318,-19.75"/>
<polygon fill="midnightblue" stroke="midnightblue" points="314.5,-46.08 318,-56.08 321.5,-46.08 314.5,-46.08"/>
</g>
</g>
</svg>
