<?xml version="1.0" encoding="UTF-8" standalone="no"?>
<!DOCTYPE svg PUBLIC "-//W3C//DTD SVG 1.1//EN"
 "http://www.w3.org/Graphics/SVG/1.1/DTD/svg11.dtd">
<!-- Generated by graphviz version 2.43.0 (0)
 -->
<!-- Title: src/Utils.cpp Pages: 1 -->
<svg width="580pt" height="196pt"
 viewBox="0.00 0.00 579.50 196.00" xmlns="http://www.w3.org/2000/svg" xmlns:xlink="http://www.w3.org/1999/xlink">
<g id="graph0" class="graph" transform="scale(1 1) rotate(0) translate(4 192)">
<title>src/Utils.cpp</title>
<polygon fill="white" stroke="transparent" points="-4,4 -4,-192 575.5,-192 575.5,4 -4,4"/>
<!-- Node1 -->
<g id="node1" class="node">
<title>Node1</title>
<g id="a_node1"><a xlink:title=" ">
<polygon fill="#bfbfbf" stroke="black" points="219,-168.5 219,-187.5 296,-187.5 296,-168.5 219,-168.5"/>
<text text-anchor="middle" x="257.5" y="-175.5" font-family="Helvetica,sans-Serif" font-size="10.00">src/Utils.cpp</text>
</a>
</g>
</g>
<!-- Node2 -->
<g id="node2" class="node">
<title>Node2</title>
<g id="a_node2"><a xlink:href="Utils_8hxhtml" target="_top" xlink:title=" ">
<polygon fill="white" stroke="black" points="233.5,-112.5 233.5,-131.5 281.5,-131.5 281.5,-112.5 233.5,-112.5"/>
<text text-anchor="middle" x="257.5" y="-119.5" font-family="Helvetica,sans-Serif" font-size="10.00">Utils.h</text>
</a>
</g>
</g>
<!-- Node1&#45;&gt;Node2 -->
<g id="edge1" class="edge">
<title>Node1&#45;&gt;Node2</title>
<path fill="none" stroke="midnightblue" d="M257.5,-168.08C257.5,-161.01 257.5,-150.86 257.5,-141.99"/>
<polygon fill="midnightblue" stroke="midnightblue" points="261,-141.75 257.5,-131.75 254,-141.75 261,-141.75"/>
</g>
<!-- Node3 -->
<g id="node3" class="node">
<title>Node3</title>
<g id="a_node3"><a xlink:title=" ">
<polygon fill="white" stroke="#bfbfbf" points="0,-56.5 0,-75.5 55,-75.5 55,-56.5 0,-56.5"/>
<text text-anchor="middle" x="27.5" y="-63.5" font-family="Helvetica,sans-Serif" font-size="10.00">fstream</text>
</a>
</g>
</g>
<!-- Node2&#45;&gt;Node3 -->
<g id="edge2" class="edge">
<title>Node2&#45;&gt;Node3</title>
<path fill="none" stroke="midnightblue" d="M233.41,-115.46C198.58,-107.44 131.88,-92.01 65.21,-76.15"/>
<polygon fill="midnightblue" stroke="midnightblue" points="65.91,-72.72 55.37,-73.81 64.29,-79.53 65.91,-72.72"/>
</g>
<!-- Node4 -->
<g id="node4" class="node">
<title>Node4</title>
<g id="a_node4"><a xlink:title=" ">
<polygon fill="white" stroke="#bfbfbf" points="73.5,-56.5 73.5,-75.5 129.5,-75.5 129.5,-56.5 73.5,-56.5"/>
<text text-anchor="middle" x="101.5" y="-63.5" font-family="Helvetica,sans-Serif" font-size="10.00">sstream</text>
</a>
</g>
</g>
<!-- Node2&#45;&gt;Node4 -->
<g id="edge3" class="edge">
<title>Node2&#45;&gt;Node4</title>
<path fill="none" stroke="midnightblue" d="M233.47,-112.68C207.28,-103.62 165.18,-89.04 135.59,-78.8"/>
<polygon fill="midnightblue" stroke="midnightblue" points="136.67,-75.47 126.08,-75.51 134.38,-82.09 136.67,-75.47"/>
</g>
<!-- Node5 -->
<g id="node5" class="node">
<title>Node5</title>
<g id="a_node5"><a xlink:title=" ">
<polygon fill="white" stroke="#bfbfbf" points="147.5,-56.5 147.5,-75.5 207.5,-75.5 207.5,-56.5 147.5,-56.5"/>
<text text-anchor="middle" x="177.5" y="-63.5" font-family="Helvetica,sans-Serif" font-size="10.00">iostream</text>
</a>
</g>
</g>
<!-- Node2&#45;&gt;Node5 -->
<g id="edge4" class="edge">
<title>Node2&#45;&gt;Node5</title>
<path fill="none" stroke="midnightblue" d="M244.65,-112.32C232.28,-103.98 213.37,-91.21 198.76,-81.35"/>
<polygon fill="midnightblue" stroke="midnightblue" points="200.57,-78.35 190.32,-75.65 196.65,-84.15 200.57,-78.35"/>
</g>
<!-- Node6 -->
<g id="node6" class="node">
<title>Node6</title>
<g id="a_node6"><a xlink:title=" ">
<polygon fill="white" stroke="#bfbfbf" points="225.5,-56.5 225.5,-75.5 289.5,-75.5 289.5,-56.5 225.5,-56.5"/>
<text text-anchor="middle" x="257.5" y="-63.5" font-family="Helvetica,sans-Serif" font-size="10.00">algorithm</text>
</a>
</g>
</g>
<!-- Node2&#45;&gt;Node6 -->
<g id="edge5" class="edge">
<title>Node2&#45;&gt;Node6</title>
<path fill="none" stroke="midnightblue" d="M257.5,-112.08C257.5,-105.01 257.5,-94.86 257.5,-85.99"/>
<polygon fill="midnightblue" stroke="midnightblue" points="261,-85.75 257.5,-75.75 254,-85.75 261,-85.75"/>
</g>
<!-- Node7 -->
<g id="node7" class="node">
<title>Node7</title>
<g id="a_node7"><a xlink:title=" ">
<polygon fill="white" stroke="#bfbfbf" points="307.5,-56.5 307.5,-75.5 361.5,-75.5 361.5,-56.5 307.5,-56.5"/>
<text text-anchor="middle" x="334.5" y="-63.5" font-family="Helvetica,sans-Serif" font-size="10.00">dirent.h</text>
</a>
</g>
</g>
<!-- Node2&#45;&gt;Node7 -->
<g id="edge6" class="edge">
<title>Node2&#45;&gt;Node7</title>
<path fill="none" stroke="midnightblue" d="M269.87,-112.32C281.66,-104.06 299.63,-91.45 313.64,-81.63"/>
<polygon fill="midnightblue" stroke="midnightblue" points="315.98,-84.26 322.16,-75.65 311.96,-78.53 315.98,-84.26"/>
</g>
<!-- Node8 -->
<g id="node8" class="node">
<title>Node8</title>
<g id="a_node8"><a xlink:title=" ">
<polygon fill="white" stroke="#bfbfbf" points="379.5,-56.5 379.5,-75.5 443.5,-75.5 443.5,-56.5 379.5,-56.5"/>
<text text-anchor="middle" x="411.5" y="-63.5" font-family="Helvetica,sans-Serif" font-size="10.00">sys/stat.h</text>
</a>
</g>
</g>
<!-- Node2&#45;&gt;Node8 -->
<g id="edge7" class="edge">
<title>Node2&#45;&gt;Node8</title>
<path fill="none" stroke="midnightblue" d="M281.56,-112.56C307.29,-103.54 348.3,-89.16 377.36,-78.97"/>
<polygon fill="midnightblue" stroke="midnightblue" points="378.82,-82.17 387.1,-75.56 376.5,-75.56 378.82,-82.17"/>
</g>
<!-- Node9 -->
<g id="node9" class="node">
<title>Node9</title>
<g id="a_node9"><a xlink:href="Enums_8hxhtml" target="_top" xlink:title="Header Enums.h contains enumerators defining configuration options and maps handling configuration su...">
<polygon fill="white" stroke="black" points="462,-56.5 462,-75.5 521,-75.5 521,-56.5 462,-56.5"/>
<text text-anchor="middle" x="491.5" y="-63.5" font-family="Helvetica,sans-Serif" font-size="10.00">Enums.h</text>
</a>
</g>
</g>
<!-- Node2&#45;&gt;Node9 -->
<g id="edge8" class="edge">
<title>Node2&#45;&gt;Node9</title>
<path fill="none" stroke="midnightblue" d="M281.66,-115.42C321.89,-106.14 402.98,-87.43 451.73,-76.18"/>
<polygon fill="midnightblue" stroke="midnightblue" points="452.66,-79.55 461.62,-73.9 451.09,-72.73 452.66,-79.55"/>
</g>
<!-- Node10 -->
<g id="node10" class="node">
<title>Node10</title>
<g id="a_node10"><a xlink:title=" ">
<polygon fill="white" stroke="#bfbfbf" points="405.5,-0.5 405.5,-19.5 449.5,-19.5 449.5,-0.5 405.5,-0.5"/>
<text text-anchor="middle" x="427.5" y="-7.5" font-family="Helvetica,sans-Serif" font-size="10.00">string</text>
</a>
</g>
</g>
<!-- Node9&#45;&gt;Node10 -->
<g id="edge9" class="edge">
<title>Node9&#45;&gt;Node10</title>
<path fill="none" stroke="midnightblue" d="M481.22,-56.32C471.66,-48.26 457.22,-36.08 445.72,-26.37"/>
<polygon fill="midnightblue" stroke="midnightblue" points="447.87,-23.61 437.97,-19.83 443.36,-28.96 447.87,-23.61"/>
</g>
<!-- Node11 -->
<g id="node11" class="node">
<title>Node11</title>
<g id="a_node11"><a xlink:title=" ">
<polygon fill="white" stroke="#bfbfbf" points="468,-0.5 468,-19.5 515,-19.5 515,-0.5 468,-0.5"/>
<text text-anchor="middle" x="491.5" y="-7.5" font-family="Helvetica,sans-Serif" font-size="10.00">vector</text>
</a>
</g>
</g>
<!-- Node9&#45;&gt;Node11 -->
<g id="edge10" class="edge">
<title>Node9&#45;&gt;Node11</title>
<path fill="none" stroke="midnightblue" d="M491.5,-56.08C491.5,-49.01 491.5,-38.86 491.5,-29.99"/>
<polygon fill="midnightblue" stroke="midnightblue" points="495,-29.75 491.5,-19.75 488,-29.75 495,-29.75"/>
</g>
<!-- Node12 -->
<g id="node12" class="node">
<title>Node12</title>
<g id="a_node12"><a xlink:title=" ">
<polygon fill="white" stroke="#bfbfbf" points="533.5,-0.5 533.5,-19.5 571.5,-19.5 571.5,-0.5 533.5,-0.5"/>
<text text-anchor="middle" x="552.5" y="-7.5" font-family="Helvetica,sans-Serif" font-size="10.00">map</text>
</a>
</g>
</g>
<!-- Node9&#45;&gt;Node12 -->
<g id="edge11" class="edge">
<title>Node9&#45;&gt;Node12</title>
<path fill="none" stroke="midnightblue" d="M501.3,-56.32C510.32,-48.34 523.91,-36.31 534.82,-26.65"/>
<polygon fill="midnightblue" stroke="midnightblue" points="537.35,-29.08 542.52,-19.83 532.71,-23.84 537.35,-29.08"/>
</g>
</g>
</svg>
